G04 (created by PCBNEW (2012-07-14 BZR 3647)-testing) date Mon 16 Jul 2012 01:02:02 AM EEST*
%MOIN*%
G04 Gerber Fmt 3.4, Leading zero omitted, Abs format*
%FSLAX34Y34*%
G01*
G70*
G90*
G04 APERTURE LIST*
%ADD10C,0.001*%
%ADD11C,0.015*%
%ADD12C,0.005*%
G04 APERTURE END LIST*
G54D10*
G54D11*
X47638Y-56969D02*
X47638Y-76654D01*
X71260Y-76654D02*
X71260Y-56969D01*
X47638Y-56969D02*
X71261Y-56969D01*
X47638Y-76654D02*
X71260Y-76654D01*
G54D10*
X51529Y-58792D02*
X51779Y-59042D01*
X51779Y-58792D02*
X51529Y-59042D01*
X53399Y-65466D02*
X53649Y-65716D01*
X53649Y-65466D02*
X53399Y-65716D01*
X54363Y-70347D02*
X54613Y-70597D01*
X54613Y-70347D02*
X54363Y-70597D01*
X54639Y-59383D02*
X54889Y-59633D01*
X54889Y-59383D02*
X54639Y-59633D01*
X54678Y-58792D02*
X54928Y-59042D01*
X54928Y-58792D02*
X54678Y-59042D01*
X55387Y-62434D02*
X55637Y-62684D01*
X55637Y-62434D02*
X55387Y-62684D01*
X55387Y-62906D02*
X55637Y-63156D01*
X55637Y-62906D02*
X55387Y-63156D01*
X55387Y-63418D02*
X55637Y-63668D01*
X55637Y-63418D02*
X55387Y-63668D01*
X55387Y-63930D02*
X55637Y-64180D01*
X55637Y-63930D02*
X55387Y-64180D01*
X55544Y-64403D02*
X55794Y-64653D01*
X55794Y-64403D02*
X55544Y-64653D01*
X55781Y-69954D02*
X56031Y-70204D01*
X56031Y-69954D02*
X55781Y-70204D01*
X55820Y-69403D02*
X56070Y-69653D01*
X56070Y-69403D02*
X55820Y-69653D01*
X55899Y-64718D02*
X56149Y-64968D01*
X56149Y-64718D02*
X55899Y-64968D01*
X56410Y-60387D02*
X56660Y-60637D01*
X56660Y-60387D02*
X56410Y-60637D01*
X56489Y-61745D02*
X56739Y-61995D01*
X56739Y-61745D02*
X56489Y-61995D01*
X56489Y-62592D02*
X56739Y-62842D01*
X56739Y-62592D02*
X56489Y-62842D01*
X56647Y-59993D02*
X56897Y-60243D01*
X56897Y-59993D02*
X56647Y-60243D01*
X56883Y-64521D02*
X57133Y-64771D01*
X57133Y-64521D02*
X56883Y-64771D01*
X57828Y-62158D02*
X58078Y-62408D01*
X58078Y-62158D02*
X57828Y-62408D01*
X57828Y-63340D02*
X58078Y-63590D01*
X58078Y-63340D02*
X57828Y-63590D01*
X57906Y-59166D02*
X58156Y-59416D01*
X58156Y-59166D02*
X57906Y-59416D01*
X57906Y-62788D02*
X58156Y-63038D01*
X58156Y-62788D02*
X57906Y-63038D01*
X58025Y-65032D02*
X58275Y-65282D01*
X58275Y-65032D02*
X58025Y-65282D01*
X58418Y-59166D02*
X58668Y-59416D01*
X58668Y-59166D02*
X58418Y-59416D01*
X58497Y-65032D02*
X58747Y-65282D01*
X58747Y-65032D02*
X58497Y-65282D01*
X58576Y-61844D02*
X58826Y-62094D01*
X58826Y-61844D02*
X58576Y-62094D01*
X58930Y-62158D02*
X59180Y-62408D01*
X59180Y-62158D02*
X58930Y-62408D01*
X59009Y-65072D02*
X59259Y-65322D01*
X59259Y-65072D02*
X59009Y-65322D01*
X59048Y-69599D02*
X59298Y-69849D01*
X59298Y-69599D02*
X59048Y-69849D01*
X59068Y-67277D02*
X59318Y-67527D01*
X59318Y-67277D02*
X59068Y-67527D01*
X59481Y-66076D02*
X59731Y-66326D01*
X59731Y-66076D02*
X59481Y-66326D01*
X59718Y-62670D02*
X59968Y-62920D01*
X59968Y-62670D02*
X59718Y-62920D01*
X60032Y-63379D02*
X60282Y-63629D01*
X60282Y-63379D02*
X60032Y-63629D01*
X60092Y-72769D02*
X60342Y-73019D01*
X60342Y-72769D02*
X60092Y-73019D01*
X60347Y-67139D02*
X60597Y-67389D01*
X60597Y-67139D02*
X60347Y-67389D01*
X60426Y-63655D02*
X60676Y-63905D01*
X60676Y-63655D02*
X60426Y-63905D01*
X60859Y-59166D02*
X61109Y-59416D01*
X61109Y-59166D02*
X60859Y-59416D01*
X60938Y-61765D02*
X61188Y-62015D01*
X61188Y-61765D02*
X60938Y-62015D01*
X61450Y-70938D02*
X61700Y-71188D01*
X61700Y-70938D02*
X61450Y-71188D01*
X61489Y-66273D02*
X61739Y-66523D01*
X61739Y-66273D02*
X61489Y-66523D01*
X61725Y-60052D02*
X61975Y-60302D01*
X61975Y-60052D02*
X61725Y-60302D01*
X62395Y-59560D02*
X62645Y-59810D01*
X62645Y-59560D02*
X62395Y-59810D01*
X62926Y-65584D02*
X63176Y-65834D01*
X63176Y-65584D02*
X62926Y-65834D01*
X63359Y-62966D02*
X63609Y-63216D01*
X63609Y-62966D02*
X63359Y-63216D01*
X63576Y-62139D02*
X63826Y-62389D01*
X63826Y-62139D02*
X63576Y-62389D01*
X64875Y-71056D02*
X65125Y-71306D01*
X65125Y-71056D02*
X64875Y-71306D01*
X65741Y-58576D02*
X65991Y-58826D01*
X65991Y-58576D02*
X65741Y-58826D01*
X65859Y-61607D02*
X66109Y-61857D01*
X66109Y-61607D02*
X65859Y-61857D01*
X66312Y-61233D02*
X66562Y-61483D01*
X66562Y-61233D02*
X66312Y-61483D01*
X64862Y-58435D02*
X64858Y-58469D01*
X64848Y-58502D01*
X64832Y-58532D01*
X64810Y-58559D01*
X64783Y-58581D01*
X64753Y-58598D01*
X64720Y-58608D01*
X64686Y-58611D01*
X64652Y-58608D01*
X64619Y-58599D01*
X64589Y-58583D01*
X64562Y-58561D01*
X64539Y-58534D01*
X64523Y-58504D01*
X64512Y-58471D01*
X64509Y-58437D01*
X64511Y-58404D01*
X64521Y-58370D01*
X64537Y-58340D01*
X64558Y-58313D01*
X64584Y-58290D01*
X64615Y-58273D01*
X64647Y-58263D01*
X64682Y-58259D01*
X64715Y-58261D01*
X64749Y-58270D01*
X64779Y-58286D01*
X64807Y-58307D01*
X64829Y-58333D01*
X64846Y-58364D01*
X64857Y-58396D01*
X64861Y-58431D01*
X64862Y-58435D01*
X66594Y-58435D02*
X66590Y-58469D01*
X66580Y-58502D01*
X66564Y-58532D01*
X66542Y-58559D01*
X66515Y-58581D01*
X66485Y-58598D01*
X66452Y-58608D01*
X66418Y-58611D01*
X66384Y-58608D01*
X66351Y-58599D01*
X66321Y-58583D01*
X66294Y-58561D01*
X66271Y-58534D01*
X66255Y-58504D01*
X66244Y-58471D01*
X66241Y-58437D01*
X66243Y-58404D01*
X66253Y-58370D01*
X66269Y-58340D01*
X66290Y-58313D01*
X66316Y-58290D01*
X66347Y-58273D01*
X66379Y-58263D01*
X66414Y-58259D01*
X66447Y-58261D01*
X66481Y-58270D01*
X66511Y-58286D01*
X66539Y-58307D01*
X66561Y-58333D01*
X66578Y-58364D01*
X66589Y-58396D01*
X66593Y-58431D01*
X66594Y-58435D01*
X52283Y-57775D02*
X52283Y-58169D01*
X52086Y-57972D02*
X52480Y-57972D01*
X53283Y-57775D02*
X53283Y-58169D01*
X53086Y-57972D02*
X53480Y-57972D01*
X54283Y-57775D02*
X54283Y-58169D01*
X54086Y-57972D02*
X54480Y-57972D01*
X54693Y-71557D02*
X54693Y-71951D01*
X54496Y-71754D02*
X54890Y-71754D01*
X54693Y-73245D02*
X54693Y-73639D01*
X54496Y-73442D02*
X54890Y-73442D01*
X55283Y-57775D02*
X55283Y-58169D01*
X55086Y-57972D02*
X55480Y-57972D01*
X55543Y-71557D02*
X55543Y-71951D01*
X55346Y-71754D02*
X55740Y-71754D01*
X55543Y-73245D02*
X55543Y-73639D01*
X55346Y-73442D02*
X55740Y-73442D01*
X56394Y-71557D02*
X56394Y-71951D01*
X56197Y-71754D02*
X56591Y-71754D01*
X56394Y-73245D02*
X56394Y-73639D01*
X56197Y-73442D02*
X56591Y-73442D01*
X57063Y-57775D02*
X57063Y-58169D01*
X56866Y-57972D02*
X57260Y-57972D01*
X57244Y-71557D02*
X57244Y-71951D01*
X57047Y-71754D02*
X57441Y-71754D01*
X57244Y-73245D02*
X57244Y-73639D01*
X57047Y-73442D02*
X57441Y-73442D01*
X58063Y-57775D02*
X58063Y-58169D01*
X57866Y-57972D02*
X58260Y-57972D01*
X58094Y-71557D02*
X58094Y-71951D01*
X57897Y-71754D02*
X58291Y-71754D01*
X58094Y-73245D02*
X58094Y-73639D01*
X57897Y-73442D02*
X58291Y-73442D01*
X58945Y-71557D02*
X58945Y-71951D01*
X58748Y-71754D02*
X59142Y-71754D01*
X58945Y-73245D02*
X58945Y-73639D01*
X58748Y-73442D02*
X59142Y-73442D01*
X59063Y-57775D02*
X59063Y-58169D01*
X58866Y-57972D02*
X59260Y-57972D01*
X59795Y-71557D02*
X59795Y-71951D01*
X59598Y-71754D02*
X59992Y-71754D01*
X59795Y-73245D02*
X59795Y-73639D01*
X59598Y-73442D02*
X59992Y-73442D01*
X60063Y-57775D02*
X60063Y-58169D01*
X59866Y-57972D02*
X60260Y-57972D01*
X60645Y-73245D02*
X60645Y-73639D01*
X60448Y-73442D02*
X60842Y-73442D01*
X60646Y-71557D02*
X60646Y-71951D01*
X60449Y-71754D02*
X60843Y-71754D01*
X61063Y-57775D02*
X61063Y-58169D01*
X60866Y-57972D02*
X61260Y-57972D01*
X61496Y-71557D02*
X61496Y-71951D01*
X61299Y-71754D02*
X61693Y-71754D01*
X61496Y-73245D02*
X61496Y-73639D01*
X61299Y-73442D02*
X61693Y-73442D01*
X62346Y-71557D02*
X62346Y-71951D01*
X62149Y-71754D02*
X62543Y-71754D01*
X62346Y-73245D02*
X62346Y-73639D01*
X62149Y-73442D02*
X62543Y-73442D01*
X63197Y-71557D02*
X63197Y-71951D01*
X63000Y-71754D02*
X63394Y-71754D01*
X63197Y-73245D02*
X63197Y-73639D01*
X63000Y-73442D02*
X63394Y-73442D01*
X64047Y-71557D02*
X64047Y-71951D01*
X63850Y-71754D02*
X64244Y-71754D01*
X64047Y-73245D02*
X64047Y-73639D01*
X63850Y-73442D02*
X64244Y-73442D01*
X69393Y-64806D02*
X69393Y-64524D01*
X69111Y-64524D01*
X69111Y-64806D01*
X69393Y-64806D01*
X69393Y-65806D02*
X69393Y-65524D01*
X69111Y-65524D01*
X69111Y-65806D01*
X69393Y-65806D01*
X69393Y-66806D02*
X69393Y-66524D01*
X69111Y-66524D01*
X69111Y-66806D01*
X69393Y-66806D01*
X69393Y-67806D02*
X69393Y-67524D01*
X69111Y-67524D01*
X69111Y-67806D01*
X69393Y-67806D01*
X50159Y-73228D02*
X50789Y-72598D01*
X50159Y-71968D01*
X49529Y-72598D01*
X50159Y-73228D01*
X68581Y-73228D02*
X69211Y-72598D01*
X68581Y-71968D01*
X67951Y-72598D01*
X68581Y-73228D01*
G54D12*
X17139Y-81246D02*
X17139Y-80746D01*
X17258Y-80746D01*
X17330Y-80770D01*
X17377Y-80818D01*
X17401Y-80865D01*
X17425Y-80961D01*
X17425Y-81032D01*
X17401Y-81127D01*
X17377Y-81175D01*
X17330Y-81223D01*
X17258Y-81246D01*
X17139Y-81246D01*
X17639Y-81246D02*
X17639Y-80913D01*
X17639Y-81008D02*
X17663Y-80961D01*
X17687Y-80937D01*
X17734Y-80913D01*
X17782Y-80913D01*
X17949Y-81246D02*
X17949Y-80913D01*
X17949Y-80746D02*
X17925Y-80770D01*
X17949Y-80794D01*
X17973Y-80770D01*
X17949Y-80746D01*
X17949Y-80794D01*
X18258Y-81246D02*
X18211Y-81223D01*
X18187Y-81175D01*
X18187Y-80746D01*
X18520Y-81246D02*
X18473Y-81223D01*
X18449Y-81175D01*
X18449Y-80746D01*
X19092Y-81246D02*
X19092Y-80746D01*
X19259Y-81104D01*
X19425Y-80746D01*
X19425Y-81246D01*
X19877Y-81246D02*
X19877Y-80984D01*
X19854Y-80937D01*
X19806Y-80913D01*
X19711Y-80913D01*
X19663Y-80937D01*
X19877Y-81223D02*
X19830Y-81246D01*
X19711Y-81246D01*
X19663Y-81223D01*
X19639Y-81175D01*
X19639Y-81127D01*
X19663Y-81080D01*
X19711Y-81056D01*
X19830Y-81056D01*
X19877Y-81032D01*
X20115Y-80913D02*
X20115Y-81413D01*
X20115Y-80937D02*
X20163Y-80913D01*
X20258Y-80913D01*
X20306Y-80937D01*
X20329Y-80961D01*
X20353Y-81008D01*
X20353Y-81151D01*
X20329Y-81199D01*
X20306Y-81223D01*
X20258Y-81246D01*
X20163Y-81246D01*
X20115Y-81223D01*
X20567Y-81199D02*
X20591Y-81223D01*
X20567Y-81246D01*
X20543Y-81223D01*
X20567Y-81199D01*
X20567Y-81246D01*
X20567Y-80937D02*
X20591Y-80961D01*
X20567Y-80984D01*
X20543Y-80961D01*
X20567Y-80937D01*
X20567Y-80984D01*
X16570Y-81969D02*
X16820Y-82219D01*
X16820Y-81969D02*
X16570Y-82219D01*
X17234Y-81796D02*
X17282Y-81796D01*
X17330Y-81820D01*
X17353Y-81844D01*
X17377Y-81892D01*
X17401Y-81987D01*
X17401Y-82106D01*
X17377Y-82201D01*
X17353Y-82249D01*
X17330Y-82273D01*
X17282Y-82296D01*
X17234Y-82296D01*
X17187Y-82273D01*
X17163Y-82249D01*
X17139Y-82201D01*
X17115Y-82106D01*
X17115Y-81987D01*
X17139Y-81892D01*
X17163Y-81844D01*
X17187Y-81820D01*
X17234Y-81796D01*
X17615Y-82249D02*
X17639Y-82273D01*
X17615Y-82296D01*
X17591Y-82273D01*
X17615Y-82249D01*
X17615Y-82296D01*
X18067Y-81796D02*
X17972Y-81796D01*
X17924Y-81820D01*
X17901Y-81844D01*
X17853Y-81915D01*
X17829Y-82011D01*
X17829Y-82201D01*
X17853Y-82249D01*
X17877Y-82273D01*
X17924Y-82296D01*
X18020Y-82296D01*
X18067Y-82273D01*
X18091Y-82249D01*
X18115Y-82201D01*
X18115Y-82082D01*
X18091Y-82034D01*
X18067Y-82011D01*
X18020Y-81987D01*
X17924Y-81987D01*
X17877Y-82011D01*
X17853Y-82034D01*
X17829Y-82082D01*
X18543Y-81963D02*
X18543Y-82296D01*
X18424Y-81773D02*
X18305Y-82130D01*
X18615Y-82130D01*
X18805Y-82296D02*
X18805Y-81963D01*
X18805Y-82011D02*
X18829Y-81987D01*
X18876Y-81963D01*
X18948Y-81963D01*
X18996Y-81987D01*
X19019Y-82034D01*
X19019Y-82296D01*
X19019Y-82034D02*
X19043Y-81987D01*
X19091Y-81963D01*
X19162Y-81963D01*
X19210Y-81987D01*
X19234Y-82034D01*
X19234Y-82296D01*
X19472Y-82296D02*
X19472Y-81963D01*
X19472Y-82011D02*
X19496Y-81987D01*
X19543Y-81963D01*
X19615Y-81963D01*
X19663Y-81987D01*
X19686Y-82034D01*
X19686Y-82296D01*
X19686Y-82034D02*
X19710Y-81987D01*
X19758Y-81963D01*
X19829Y-81963D01*
X19877Y-81987D01*
X19901Y-82034D01*
X19901Y-82296D01*
X20877Y-81773D02*
X20449Y-82415D01*
X21520Y-81796D02*
X21568Y-81796D01*
X21616Y-81820D01*
X21639Y-81844D01*
X21663Y-81892D01*
X21687Y-81987D01*
X21687Y-82106D01*
X21663Y-82201D01*
X21639Y-82249D01*
X21616Y-82273D01*
X21568Y-82296D01*
X21520Y-82296D01*
X21473Y-82273D01*
X21449Y-82249D01*
X21425Y-82201D01*
X21401Y-82106D01*
X21401Y-81987D01*
X21425Y-81892D01*
X21449Y-81844D01*
X21473Y-81820D01*
X21520Y-81796D01*
X21901Y-82249D02*
X21925Y-82273D01*
X21901Y-82296D01*
X21877Y-82273D01*
X21901Y-82249D01*
X21901Y-82296D01*
X22234Y-81796D02*
X22282Y-81796D01*
X22330Y-81820D01*
X22353Y-81844D01*
X22377Y-81892D01*
X22401Y-81987D01*
X22401Y-82106D01*
X22377Y-82201D01*
X22353Y-82249D01*
X22330Y-82273D01*
X22282Y-82296D01*
X22234Y-82296D01*
X22187Y-82273D01*
X22163Y-82249D01*
X22139Y-82201D01*
X22115Y-82106D01*
X22115Y-81987D01*
X22139Y-81892D01*
X22163Y-81844D01*
X22187Y-81820D01*
X22234Y-81796D01*
X22591Y-81844D02*
X22615Y-81820D01*
X22663Y-81796D01*
X22782Y-81796D01*
X22829Y-81820D01*
X22853Y-81844D01*
X22877Y-81892D01*
X22877Y-81939D01*
X22853Y-82011D01*
X22567Y-82296D01*
X22877Y-82296D01*
X23329Y-81796D02*
X23091Y-81796D01*
X23067Y-82034D01*
X23091Y-82011D01*
X23139Y-81987D01*
X23258Y-81987D01*
X23305Y-82011D01*
X23329Y-82034D01*
X23353Y-82082D01*
X23353Y-82201D01*
X23329Y-82249D01*
X23305Y-82273D01*
X23258Y-82296D01*
X23139Y-82296D01*
X23091Y-82273D01*
X23067Y-82249D01*
X23543Y-81796D02*
X23543Y-81892D01*
X23734Y-81796D02*
X23734Y-81892D01*
X24472Y-82487D02*
X24448Y-82463D01*
X24400Y-82392D01*
X24377Y-82344D01*
X24353Y-82273D01*
X24329Y-82154D01*
X24329Y-82058D01*
X24353Y-81939D01*
X24377Y-81868D01*
X24400Y-81820D01*
X24448Y-81749D01*
X24472Y-81725D01*
X24876Y-81963D02*
X24876Y-82296D01*
X24757Y-81773D02*
X24638Y-82130D01*
X24948Y-82130D01*
X25162Y-82296D02*
X25257Y-82296D01*
X25305Y-82273D01*
X25329Y-82249D01*
X25376Y-82177D01*
X25400Y-82082D01*
X25400Y-81892D01*
X25376Y-81844D01*
X25352Y-81820D01*
X25305Y-81796D01*
X25209Y-81796D01*
X25162Y-81820D01*
X25138Y-81844D01*
X25114Y-81892D01*
X25114Y-82011D01*
X25138Y-82058D01*
X25162Y-82082D01*
X25209Y-82106D01*
X25305Y-82106D01*
X25352Y-82082D01*
X25376Y-82058D01*
X25400Y-82011D01*
X25995Y-82296D02*
X25995Y-81796D01*
X26209Y-82296D02*
X26209Y-82034D01*
X26186Y-81987D01*
X26138Y-81963D01*
X26066Y-81963D01*
X26019Y-81987D01*
X25995Y-82011D01*
X26518Y-82296D02*
X26471Y-82273D01*
X26447Y-82249D01*
X26423Y-82201D01*
X26423Y-82058D01*
X26447Y-82011D01*
X26471Y-81987D01*
X26518Y-81963D01*
X26590Y-81963D01*
X26638Y-81987D01*
X26661Y-82011D01*
X26685Y-82058D01*
X26685Y-82201D01*
X26661Y-82249D01*
X26638Y-82273D01*
X26590Y-82296D01*
X26518Y-82296D01*
X26970Y-82296D02*
X26923Y-82273D01*
X26899Y-82225D01*
X26899Y-81796D01*
X27352Y-82273D02*
X27304Y-82296D01*
X27209Y-82296D01*
X27161Y-82273D01*
X27137Y-82225D01*
X27137Y-82034D01*
X27161Y-81987D01*
X27209Y-81963D01*
X27304Y-81963D01*
X27352Y-81987D01*
X27375Y-82034D01*
X27375Y-82082D01*
X27137Y-82130D01*
X27566Y-82273D02*
X27614Y-82296D01*
X27709Y-82296D01*
X27757Y-82273D01*
X27781Y-82225D01*
X27781Y-82201D01*
X27757Y-82154D01*
X27709Y-82130D01*
X27638Y-82130D01*
X27590Y-82106D01*
X27566Y-82058D01*
X27566Y-82034D01*
X27590Y-81987D01*
X27638Y-81963D01*
X27709Y-81963D01*
X27757Y-81987D01*
X27947Y-82487D02*
X27971Y-82463D01*
X28019Y-82392D01*
X28043Y-82344D01*
X28066Y-82273D01*
X28090Y-82154D01*
X28090Y-82058D01*
X28066Y-81939D01*
X28043Y-81868D01*
X28019Y-81820D01*
X27971Y-81749D01*
X27947Y-81725D01*
G54D10*
X16820Y-82754D02*
X16816Y-82788D01*
X16806Y-82821D01*
X16790Y-82851D01*
X16768Y-82878D01*
X16741Y-82900D01*
X16711Y-82917D01*
X16678Y-82927D01*
X16644Y-82930D01*
X16610Y-82927D01*
X16577Y-82918D01*
X16547Y-82902D01*
X16520Y-82880D01*
X16497Y-82853D01*
X16481Y-82823D01*
X16470Y-82790D01*
X16467Y-82756D01*
X16469Y-82723D01*
X16479Y-82689D01*
X16495Y-82659D01*
X16516Y-82632D01*
X16542Y-82609D01*
X16573Y-82592D01*
X16605Y-82582D01*
X16640Y-82578D01*
X16673Y-82580D01*
X16707Y-82589D01*
X16737Y-82605D01*
X16765Y-82626D01*
X16787Y-82652D01*
X16804Y-82683D01*
X16815Y-82715D01*
X16819Y-82750D01*
X16820Y-82754D01*
G54D12*
X17234Y-82456D02*
X17282Y-82456D01*
X17330Y-82480D01*
X17353Y-82504D01*
X17377Y-82552D01*
X17401Y-82647D01*
X17401Y-82766D01*
X17377Y-82861D01*
X17353Y-82909D01*
X17330Y-82933D01*
X17282Y-82956D01*
X17234Y-82956D01*
X17187Y-82933D01*
X17163Y-82909D01*
X17139Y-82861D01*
X17115Y-82766D01*
X17115Y-82647D01*
X17139Y-82552D01*
X17163Y-82504D01*
X17187Y-82480D01*
X17234Y-82456D01*
X17615Y-82909D02*
X17639Y-82933D01*
X17615Y-82956D01*
X17591Y-82933D01*
X17615Y-82909D01*
X17615Y-82956D01*
X17877Y-82956D02*
X17972Y-82956D01*
X18020Y-82933D01*
X18044Y-82909D01*
X18091Y-82837D01*
X18115Y-82742D01*
X18115Y-82552D01*
X18091Y-82504D01*
X18067Y-82480D01*
X18020Y-82456D01*
X17924Y-82456D01*
X17877Y-82480D01*
X17853Y-82504D01*
X17829Y-82552D01*
X17829Y-82671D01*
X17853Y-82718D01*
X17877Y-82742D01*
X17924Y-82766D01*
X18020Y-82766D01*
X18067Y-82742D01*
X18091Y-82718D01*
X18115Y-82671D01*
X18424Y-82456D02*
X18472Y-82456D01*
X18520Y-82480D01*
X18543Y-82504D01*
X18567Y-82552D01*
X18591Y-82647D01*
X18591Y-82766D01*
X18567Y-82861D01*
X18543Y-82909D01*
X18520Y-82933D01*
X18472Y-82956D01*
X18424Y-82956D01*
X18377Y-82933D01*
X18353Y-82909D01*
X18329Y-82861D01*
X18305Y-82766D01*
X18305Y-82647D01*
X18329Y-82552D01*
X18353Y-82504D01*
X18377Y-82480D01*
X18424Y-82456D01*
X18805Y-82956D02*
X18805Y-82623D01*
X18805Y-82671D02*
X18829Y-82647D01*
X18876Y-82623D01*
X18948Y-82623D01*
X18996Y-82647D01*
X19019Y-82694D01*
X19019Y-82956D01*
X19019Y-82694D02*
X19043Y-82647D01*
X19091Y-82623D01*
X19162Y-82623D01*
X19210Y-82647D01*
X19234Y-82694D01*
X19234Y-82956D01*
X19472Y-82956D02*
X19472Y-82623D01*
X19472Y-82671D02*
X19496Y-82647D01*
X19543Y-82623D01*
X19615Y-82623D01*
X19663Y-82647D01*
X19686Y-82694D01*
X19686Y-82956D01*
X19686Y-82694D02*
X19710Y-82647D01*
X19758Y-82623D01*
X19829Y-82623D01*
X19877Y-82647D01*
X19901Y-82694D01*
X19901Y-82956D01*
X20877Y-82433D02*
X20449Y-83075D01*
X21520Y-82456D02*
X21568Y-82456D01*
X21616Y-82480D01*
X21639Y-82504D01*
X21663Y-82552D01*
X21687Y-82647D01*
X21687Y-82766D01*
X21663Y-82861D01*
X21639Y-82909D01*
X21616Y-82933D01*
X21568Y-82956D01*
X21520Y-82956D01*
X21473Y-82933D01*
X21449Y-82909D01*
X21425Y-82861D01*
X21401Y-82766D01*
X21401Y-82647D01*
X21425Y-82552D01*
X21449Y-82504D01*
X21473Y-82480D01*
X21520Y-82456D01*
X21901Y-82909D02*
X21925Y-82933D01*
X21901Y-82956D01*
X21877Y-82933D01*
X21901Y-82909D01*
X21901Y-82956D01*
X22234Y-82456D02*
X22282Y-82456D01*
X22330Y-82480D01*
X22353Y-82504D01*
X22377Y-82552D01*
X22401Y-82647D01*
X22401Y-82766D01*
X22377Y-82861D01*
X22353Y-82909D01*
X22330Y-82933D01*
X22282Y-82956D01*
X22234Y-82956D01*
X22187Y-82933D01*
X22163Y-82909D01*
X22139Y-82861D01*
X22115Y-82766D01*
X22115Y-82647D01*
X22139Y-82552D01*
X22163Y-82504D01*
X22187Y-82480D01*
X22234Y-82456D01*
X22567Y-82456D02*
X22877Y-82456D01*
X22710Y-82647D01*
X22782Y-82647D01*
X22829Y-82671D01*
X22853Y-82694D01*
X22877Y-82742D01*
X22877Y-82861D01*
X22853Y-82909D01*
X22829Y-82933D01*
X22782Y-82956D01*
X22639Y-82956D01*
X22591Y-82933D01*
X22567Y-82909D01*
X23329Y-82456D02*
X23091Y-82456D01*
X23067Y-82694D01*
X23091Y-82671D01*
X23139Y-82647D01*
X23258Y-82647D01*
X23305Y-82671D01*
X23329Y-82694D01*
X23353Y-82742D01*
X23353Y-82861D01*
X23329Y-82909D01*
X23305Y-82933D01*
X23258Y-82956D01*
X23139Y-82956D01*
X23091Y-82933D01*
X23067Y-82909D01*
X23543Y-82456D02*
X23543Y-82552D01*
X23734Y-82456D02*
X23734Y-82552D01*
X24472Y-83147D02*
X24448Y-83123D01*
X24400Y-83052D01*
X24377Y-83004D01*
X24353Y-82933D01*
X24329Y-82814D01*
X24329Y-82718D01*
X24353Y-82599D01*
X24377Y-82528D01*
X24400Y-82480D01*
X24448Y-82409D01*
X24472Y-82385D01*
X24638Y-82504D02*
X24662Y-82480D01*
X24710Y-82456D01*
X24829Y-82456D01*
X24876Y-82480D01*
X24900Y-82504D01*
X24924Y-82552D01*
X24924Y-82599D01*
X24900Y-82671D01*
X24614Y-82956D01*
X24924Y-82956D01*
X25519Y-82956D02*
X25519Y-82456D01*
X25733Y-82956D02*
X25733Y-82694D01*
X25710Y-82647D01*
X25662Y-82623D01*
X25590Y-82623D01*
X25543Y-82647D01*
X25519Y-82671D01*
X26042Y-82956D02*
X25995Y-82933D01*
X25971Y-82909D01*
X25947Y-82861D01*
X25947Y-82718D01*
X25971Y-82671D01*
X25995Y-82647D01*
X26042Y-82623D01*
X26114Y-82623D01*
X26162Y-82647D01*
X26185Y-82671D01*
X26209Y-82718D01*
X26209Y-82861D01*
X26185Y-82909D01*
X26162Y-82933D01*
X26114Y-82956D01*
X26042Y-82956D01*
X26494Y-82956D02*
X26447Y-82933D01*
X26423Y-82885D01*
X26423Y-82456D01*
X26876Y-82933D02*
X26828Y-82956D01*
X26733Y-82956D01*
X26685Y-82933D01*
X26661Y-82885D01*
X26661Y-82694D01*
X26685Y-82647D01*
X26733Y-82623D01*
X26828Y-82623D01*
X26876Y-82647D01*
X26899Y-82694D01*
X26899Y-82742D01*
X26661Y-82790D01*
X27090Y-82933D02*
X27138Y-82956D01*
X27233Y-82956D01*
X27281Y-82933D01*
X27305Y-82885D01*
X27305Y-82861D01*
X27281Y-82814D01*
X27233Y-82790D01*
X27162Y-82790D01*
X27114Y-82766D01*
X27090Y-82718D01*
X27090Y-82694D01*
X27114Y-82647D01*
X27162Y-82623D01*
X27233Y-82623D01*
X27281Y-82647D01*
X27471Y-83147D02*
X27495Y-83123D01*
X27543Y-83052D01*
X27567Y-83004D01*
X27590Y-82933D01*
X27614Y-82814D01*
X27614Y-82718D01*
X27590Y-82599D01*
X27567Y-82528D01*
X27543Y-82480D01*
X27495Y-82409D01*
X27471Y-82385D01*
X16623Y-83217D02*
X16623Y-83611D01*
X16426Y-83414D02*
X16820Y-83414D01*
X17401Y-83616D02*
X17115Y-83616D01*
X17258Y-83616D02*
X17258Y-83116D01*
X17210Y-83188D01*
X17163Y-83235D01*
X17115Y-83259D01*
X17615Y-83569D02*
X17639Y-83593D01*
X17615Y-83616D01*
X17591Y-83593D01*
X17615Y-83569D01*
X17615Y-83616D01*
X17948Y-83116D02*
X17996Y-83116D01*
X18044Y-83140D01*
X18067Y-83164D01*
X18091Y-83212D01*
X18115Y-83307D01*
X18115Y-83426D01*
X18091Y-83521D01*
X18067Y-83569D01*
X18044Y-83593D01*
X17996Y-83616D01*
X17948Y-83616D01*
X17901Y-83593D01*
X17877Y-83569D01*
X17853Y-83521D01*
X17829Y-83426D01*
X17829Y-83307D01*
X17853Y-83212D01*
X17877Y-83164D01*
X17901Y-83140D01*
X17948Y-83116D01*
X18424Y-83116D02*
X18472Y-83116D01*
X18520Y-83140D01*
X18543Y-83164D01*
X18567Y-83212D01*
X18591Y-83307D01*
X18591Y-83426D01*
X18567Y-83521D01*
X18543Y-83569D01*
X18520Y-83593D01*
X18472Y-83616D01*
X18424Y-83616D01*
X18377Y-83593D01*
X18353Y-83569D01*
X18329Y-83521D01*
X18305Y-83426D01*
X18305Y-83307D01*
X18329Y-83212D01*
X18353Y-83164D01*
X18377Y-83140D01*
X18424Y-83116D01*
X18805Y-83616D02*
X18805Y-83283D01*
X18805Y-83331D02*
X18829Y-83307D01*
X18876Y-83283D01*
X18948Y-83283D01*
X18996Y-83307D01*
X19019Y-83354D01*
X19019Y-83616D01*
X19019Y-83354D02*
X19043Y-83307D01*
X19091Y-83283D01*
X19162Y-83283D01*
X19210Y-83307D01*
X19234Y-83354D01*
X19234Y-83616D01*
X19472Y-83616D02*
X19472Y-83283D01*
X19472Y-83331D02*
X19496Y-83307D01*
X19543Y-83283D01*
X19615Y-83283D01*
X19663Y-83307D01*
X19686Y-83354D01*
X19686Y-83616D01*
X19686Y-83354D02*
X19710Y-83307D01*
X19758Y-83283D01*
X19829Y-83283D01*
X19877Y-83307D01*
X19901Y-83354D01*
X19901Y-83616D01*
X20877Y-83093D02*
X20449Y-83735D01*
X21520Y-83116D02*
X21568Y-83116D01*
X21616Y-83140D01*
X21639Y-83164D01*
X21663Y-83212D01*
X21687Y-83307D01*
X21687Y-83426D01*
X21663Y-83521D01*
X21639Y-83569D01*
X21616Y-83593D01*
X21568Y-83616D01*
X21520Y-83616D01*
X21473Y-83593D01*
X21449Y-83569D01*
X21425Y-83521D01*
X21401Y-83426D01*
X21401Y-83307D01*
X21425Y-83212D01*
X21449Y-83164D01*
X21473Y-83140D01*
X21520Y-83116D01*
X21901Y-83569D02*
X21925Y-83593D01*
X21901Y-83616D01*
X21877Y-83593D01*
X21901Y-83569D01*
X21901Y-83616D01*
X22234Y-83116D02*
X22282Y-83116D01*
X22330Y-83140D01*
X22353Y-83164D01*
X22377Y-83212D01*
X22401Y-83307D01*
X22401Y-83426D01*
X22377Y-83521D01*
X22353Y-83569D01*
X22330Y-83593D01*
X22282Y-83616D01*
X22234Y-83616D01*
X22187Y-83593D01*
X22163Y-83569D01*
X22139Y-83521D01*
X22115Y-83426D01*
X22115Y-83307D01*
X22139Y-83212D01*
X22163Y-83164D01*
X22187Y-83140D01*
X22234Y-83116D01*
X22567Y-83116D02*
X22877Y-83116D01*
X22710Y-83307D01*
X22782Y-83307D01*
X22829Y-83331D01*
X22853Y-83354D01*
X22877Y-83402D01*
X22877Y-83521D01*
X22853Y-83569D01*
X22829Y-83593D01*
X22782Y-83616D01*
X22639Y-83616D01*
X22591Y-83593D01*
X22567Y-83569D01*
X23115Y-83616D02*
X23210Y-83616D01*
X23258Y-83593D01*
X23282Y-83569D01*
X23329Y-83497D01*
X23353Y-83402D01*
X23353Y-83212D01*
X23329Y-83164D01*
X23305Y-83140D01*
X23258Y-83116D01*
X23162Y-83116D01*
X23115Y-83140D01*
X23091Y-83164D01*
X23067Y-83212D01*
X23067Y-83331D01*
X23091Y-83378D01*
X23115Y-83402D01*
X23162Y-83426D01*
X23258Y-83426D01*
X23305Y-83402D01*
X23329Y-83378D01*
X23353Y-83331D01*
X23543Y-83116D02*
X23543Y-83212D01*
X23734Y-83116D02*
X23734Y-83212D01*
X24472Y-83807D02*
X24448Y-83783D01*
X24400Y-83712D01*
X24377Y-83664D01*
X24353Y-83593D01*
X24329Y-83474D01*
X24329Y-83378D01*
X24353Y-83259D01*
X24377Y-83188D01*
X24400Y-83140D01*
X24448Y-83069D01*
X24472Y-83045D01*
X24614Y-83116D02*
X24924Y-83116D01*
X24757Y-83307D01*
X24829Y-83307D01*
X24876Y-83331D01*
X24900Y-83354D01*
X24924Y-83402D01*
X24924Y-83521D01*
X24900Y-83569D01*
X24876Y-83593D01*
X24829Y-83616D01*
X24686Y-83616D01*
X24638Y-83593D01*
X24614Y-83569D01*
X25090Y-83116D02*
X25400Y-83116D01*
X25233Y-83307D01*
X25305Y-83307D01*
X25352Y-83331D01*
X25376Y-83354D01*
X25400Y-83402D01*
X25400Y-83521D01*
X25376Y-83569D01*
X25352Y-83593D01*
X25305Y-83616D01*
X25162Y-83616D01*
X25114Y-83593D01*
X25090Y-83569D01*
X25995Y-83616D02*
X25995Y-83116D01*
X26209Y-83616D02*
X26209Y-83354D01*
X26186Y-83307D01*
X26138Y-83283D01*
X26066Y-83283D01*
X26019Y-83307D01*
X25995Y-83331D01*
X26518Y-83616D02*
X26471Y-83593D01*
X26447Y-83569D01*
X26423Y-83521D01*
X26423Y-83378D01*
X26447Y-83331D01*
X26471Y-83307D01*
X26518Y-83283D01*
X26590Y-83283D01*
X26638Y-83307D01*
X26661Y-83331D01*
X26685Y-83378D01*
X26685Y-83521D01*
X26661Y-83569D01*
X26638Y-83593D01*
X26590Y-83616D01*
X26518Y-83616D01*
X26970Y-83616D02*
X26923Y-83593D01*
X26899Y-83545D01*
X26899Y-83116D01*
X27352Y-83593D02*
X27304Y-83616D01*
X27209Y-83616D01*
X27161Y-83593D01*
X27137Y-83545D01*
X27137Y-83354D01*
X27161Y-83307D01*
X27209Y-83283D01*
X27304Y-83283D01*
X27352Y-83307D01*
X27375Y-83354D01*
X27375Y-83402D01*
X27137Y-83450D01*
X27566Y-83593D02*
X27614Y-83616D01*
X27709Y-83616D01*
X27757Y-83593D01*
X27781Y-83545D01*
X27781Y-83521D01*
X27757Y-83474D01*
X27709Y-83450D01*
X27638Y-83450D01*
X27590Y-83426D01*
X27566Y-83378D01*
X27566Y-83354D01*
X27590Y-83307D01*
X27638Y-83283D01*
X27709Y-83283D01*
X27757Y-83307D01*
X27947Y-83807D02*
X27971Y-83783D01*
X28019Y-83712D01*
X28043Y-83664D01*
X28066Y-83593D01*
X28090Y-83474D01*
X28090Y-83378D01*
X28066Y-83259D01*
X28043Y-83188D01*
X28019Y-83140D01*
X27971Y-83069D01*
X27947Y-83045D01*
G54D10*
X16761Y-84215D02*
X16761Y-83933D01*
X16479Y-83933D01*
X16479Y-84215D01*
X16761Y-84215D01*
G54D12*
X17401Y-84276D02*
X17115Y-84276D01*
X17258Y-84276D02*
X17258Y-83776D01*
X17210Y-83848D01*
X17163Y-83895D01*
X17115Y-83919D01*
X17615Y-84229D02*
X17639Y-84253D01*
X17615Y-84276D01*
X17591Y-84253D01*
X17615Y-84229D01*
X17615Y-84276D01*
X17948Y-83776D02*
X17996Y-83776D01*
X18044Y-83800D01*
X18067Y-83824D01*
X18091Y-83872D01*
X18115Y-83967D01*
X18115Y-84086D01*
X18091Y-84181D01*
X18067Y-84229D01*
X18044Y-84253D01*
X17996Y-84276D01*
X17948Y-84276D01*
X17901Y-84253D01*
X17877Y-84229D01*
X17853Y-84181D01*
X17829Y-84086D01*
X17829Y-83967D01*
X17853Y-83872D01*
X17877Y-83824D01*
X17901Y-83800D01*
X17948Y-83776D01*
X18305Y-83824D02*
X18329Y-83800D01*
X18377Y-83776D01*
X18496Y-83776D01*
X18543Y-83800D01*
X18567Y-83824D01*
X18591Y-83872D01*
X18591Y-83919D01*
X18567Y-83991D01*
X18281Y-84276D01*
X18591Y-84276D01*
X18805Y-84276D02*
X18805Y-83943D01*
X18805Y-83991D02*
X18829Y-83967D01*
X18876Y-83943D01*
X18948Y-83943D01*
X18996Y-83967D01*
X19019Y-84014D01*
X19019Y-84276D01*
X19019Y-84014D02*
X19043Y-83967D01*
X19091Y-83943D01*
X19162Y-83943D01*
X19210Y-83967D01*
X19234Y-84014D01*
X19234Y-84276D01*
X19472Y-84276D02*
X19472Y-83943D01*
X19472Y-83991D02*
X19496Y-83967D01*
X19543Y-83943D01*
X19615Y-83943D01*
X19663Y-83967D01*
X19686Y-84014D01*
X19686Y-84276D01*
X19686Y-84014D02*
X19710Y-83967D01*
X19758Y-83943D01*
X19829Y-83943D01*
X19877Y-83967D01*
X19901Y-84014D01*
X19901Y-84276D01*
X20877Y-83753D02*
X20449Y-84395D01*
X21520Y-83776D02*
X21568Y-83776D01*
X21616Y-83800D01*
X21639Y-83824D01*
X21663Y-83872D01*
X21687Y-83967D01*
X21687Y-84086D01*
X21663Y-84181D01*
X21639Y-84229D01*
X21616Y-84253D01*
X21568Y-84276D01*
X21520Y-84276D01*
X21473Y-84253D01*
X21449Y-84229D01*
X21425Y-84181D01*
X21401Y-84086D01*
X21401Y-83967D01*
X21425Y-83872D01*
X21449Y-83824D01*
X21473Y-83800D01*
X21520Y-83776D01*
X21901Y-84229D02*
X21925Y-84253D01*
X21901Y-84276D01*
X21877Y-84253D01*
X21901Y-84229D01*
X21901Y-84276D01*
X22234Y-83776D02*
X22282Y-83776D01*
X22330Y-83800D01*
X22353Y-83824D01*
X22377Y-83872D01*
X22401Y-83967D01*
X22401Y-84086D01*
X22377Y-84181D01*
X22353Y-84229D01*
X22330Y-84253D01*
X22282Y-84276D01*
X22234Y-84276D01*
X22187Y-84253D01*
X22163Y-84229D01*
X22139Y-84181D01*
X22115Y-84086D01*
X22115Y-83967D01*
X22139Y-83872D01*
X22163Y-83824D01*
X22187Y-83800D01*
X22234Y-83776D01*
X22829Y-83943D02*
X22829Y-84276D01*
X22710Y-83753D02*
X22591Y-84110D01*
X22901Y-84110D01*
X23186Y-83776D02*
X23234Y-83776D01*
X23282Y-83800D01*
X23305Y-83824D01*
X23329Y-83872D01*
X23353Y-83967D01*
X23353Y-84086D01*
X23329Y-84181D01*
X23305Y-84229D01*
X23282Y-84253D01*
X23234Y-84276D01*
X23186Y-84276D01*
X23139Y-84253D01*
X23115Y-84229D01*
X23091Y-84181D01*
X23067Y-84086D01*
X23067Y-83967D01*
X23091Y-83872D01*
X23115Y-83824D01*
X23139Y-83800D01*
X23186Y-83776D01*
X23543Y-83776D02*
X23543Y-83872D01*
X23734Y-83776D02*
X23734Y-83872D01*
X24472Y-84467D02*
X24448Y-84443D01*
X24400Y-84372D01*
X24377Y-84324D01*
X24353Y-84253D01*
X24329Y-84134D01*
X24329Y-84038D01*
X24353Y-83919D01*
X24377Y-83848D01*
X24400Y-83800D01*
X24448Y-83729D01*
X24472Y-83705D01*
X24876Y-83943D02*
X24876Y-84276D01*
X24757Y-83753D02*
X24638Y-84110D01*
X24948Y-84110D01*
X25519Y-84276D02*
X25519Y-83776D01*
X25733Y-84276D02*
X25733Y-84014D01*
X25710Y-83967D01*
X25662Y-83943D01*
X25590Y-83943D01*
X25543Y-83967D01*
X25519Y-83991D01*
X26042Y-84276D02*
X25995Y-84253D01*
X25971Y-84229D01*
X25947Y-84181D01*
X25947Y-84038D01*
X25971Y-83991D01*
X25995Y-83967D01*
X26042Y-83943D01*
X26114Y-83943D01*
X26162Y-83967D01*
X26185Y-83991D01*
X26209Y-84038D01*
X26209Y-84181D01*
X26185Y-84229D01*
X26162Y-84253D01*
X26114Y-84276D01*
X26042Y-84276D01*
X26494Y-84276D02*
X26447Y-84253D01*
X26423Y-84205D01*
X26423Y-83776D01*
X26876Y-84253D02*
X26828Y-84276D01*
X26733Y-84276D01*
X26685Y-84253D01*
X26661Y-84205D01*
X26661Y-84014D01*
X26685Y-83967D01*
X26733Y-83943D01*
X26828Y-83943D01*
X26876Y-83967D01*
X26899Y-84014D01*
X26899Y-84062D01*
X26661Y-84110D01*
X27090Y-84253D02*
X27138Y-84276D01*
X27233Y-84276D01*
X27281Y-84253D01*
X27305Y-84205D01*
X27305Y-84181D01*
X27281Y-84134D01*
X27233Y-84110D01*
X27162Y-84110D01*
X27114Y-84086D01*
X27090Y-84038D01*
X27090Y-84014D01*
X27114Y-83967D01*
X27162Y-83943D01*
X27233Y-83943D01*
X27281Y-83967D01*
X27471Y-84467D02*
X27495Y-84443D01*
X27543Y-84372D01*
X27567Y-84324D01*
X27590Y-84253D01*
X27614Y-84134D01*
X27614Y-84038D01*
X27590Y-83919D01*
X27567Y-83848D01*
X27543Y-83800D01*
X27495Y-83729D01*
X27471Y-83705D01*
G54D10*
X16190Y-85364D02*
X16820Y-84734D01*
X16190Y-84104D01*
X15560Y-84734D01*
X16190Y-85364D01*
G54D12*
X17091Y-84436D02*
X17401Y-84436D01*
X17234Y-84627D01*
X17306Y-84627D01*
X17353Y-84651D01*
X17377Y-84674D01*
X17401Y-84722D01*
X17401Y-84841D01*
X17377Y-84889D01*
X17353Y-84913D01*
X17306Y-84936D01*
X17163Y-84936D01*
X17115Y-84913D01*
X17091Y-84889D01*
X17615Y-84889D02*
X17639Y-84913D01*
X17615Y-84936D01*
X17591Y-84913D01*
X17615Y-84889D01*
X17615Y-84936D01*
X17829Y-84484D02*
X17853Y-84460D01*
X17901Y-84436D01*
X18020Y-84436D01*
X18067Y-84460D01*
X18091Y-84484D01*
X18115Y-84532D01*
X18115Y-84579D01*
X18091Y-84651D01*
X17805Y-84936D01*
X18115Y-84936D01*
X18424Y-84436D02*
X18472Y-84436D01*
X18520Y-84460D01*
X18543Y-84484D01*
X18567Y-84532D01*
X18591Y-84627D01*
X18591Y-84746D01*
X18567Y-84841D01*
X18543Y-84889D01*
X18520Y-84913D01*
X18472Y-84936D01*
X18424Y-84936D01*
X18377Y-84913D01*
X18353Y-84889D01*
X18329Y-84841D01*
X18305Y-84746D01*
X18305Y-84627D01*
X18329Y-84532D01*
X18353Y-84484D01*
X18377Y-84460D01*
X18424Y-84436D01*
X18805Y-84936D02*
X18805Y-84603D01*
X18805Y-84651D02*
X18829Y-84627D01*
X18876Y-84603D01*
X18948Y-84603D01*
X18996Y-84627D01*
X19019Y-84674D01*
X19019Y-84936D01*
X19019Y-84674D02*
X19043Y-84627D01*
X19091Y-84603D01*
X19162Y-84603D01*
X19210Y-84627D01*
X19234Y-84674D01*
X19234Y-84936D01*
X19472Y-84936D02*
X19472Y-84603D01*
X19472Y-84651D02*
X19496Y-84627D01*
X19543Y-84603D01*
X19615Y-84603D01*
X19663Y-84627D01*
X19686Y-84674D01*
X19686Y-84936D01*
X19686Y-84674D02*
X19710Y-84627D01*
X19758Y-84603D01*
X19829Y-84603D01*
X19877Y-84627D01*
X19901Y-84674D01*
X19901Y-84936D01*
X20877Y-84413D02*
X20449Y-85055D01*
X21520Y-84436D02*
X21568Y-84436D01*
X21616Y-84460D01*
X21639Y-84484D01*
X21663Y-84532D01*
X21687Y-84627D01*
X21687Y-84746D01*
X21663Y-84841D01*
X21639Y-84889D01*
X21616Y-84913D01*
X21568Y-84936D01*
X21520Y-84936D01*
X21473Y-84913D01*
X21449Y-84889D01*
X21425Y-84841D01*
X21401Y-84746D01*
X21401Y-84627D01*
X21425Y-84532D01*
X21449Y-84484D01*
X21473Y-84460D01*
X21520Y-84436D01*
X21901Y-84889D02*
X21925Y-84913D01*
X21901Y-84936D01*
X21877Y-84913D01*
X21901Y-84889D01*
X21901Y-84936D01*
X22401Y-84936D02*
X22115Y-84936D01*
X22258Y-84936D02*
X22258Y-84436D01*
X22210Y-84508D01*
X22163Y-84555D01*
X22115Y-84579D01*
X22591Y-84484D02*
X22615Y-84460D01*
X22663Y-84436D01*
X22782Y-84436D01*
X22829Y-84460D01*
X22853Y-84484D01*
X22877Y-84532D01*
X22877Y-84579D01*
X22853Y-84651D01*
X22567Y-84936D01*
X22877Y-84936D01*
X23305Y-84436D02*
X23210Y-84436D01*
X23162Y-84460D01*
X23139Y-84484D01*
X23091Y-84555D01*
X23067Y-84651D01*
X23067Y-84841D01*
X23091Y-84889D01*
X23115Y-84913D01*
X23162Y-84936D01*
X23258Y-84936D01*
X23305Y-84913D01*
X23329Y-84889D01*
X23353Y-84841D01*
X23353Y-84722D01*
X23329Y-84674D01*
X23305Y-84651D01*
X23258Y-84627D01*
X23162Y-84627D01*
X23115Y-84651D01*
X23091Y-84674D01*
X23067Y-84722D01*
X23543Y-84436D02*
X23543Y-84532D01*
X23734Y-84436D02*
X23734Y-84532D01*
X24472Y-85127D02*
X24448Y-85103D01*
X24400Y-85032D01*
X24377Y-84984D01*
X24353Y-84913D01*
X24329Y-84794D01*
X24329Y-84698D01*
X24353Y-84579D01*
X24377Y-84508D01*
X24400Y-84460D01*
X24448Y-84389D01*
X24472Y-84365D01*
X24638Y-84484D02*
X24662Y-84460D01*
X24710Y-84436D01*
X24829Y-84436D01*
X24876Y-84460D01*
X24900Y-84484D01*
X24924Y-84532D01*
X24924Y-84579D01*
X24900Y-84651D01*
X24614Y-84936D01*
X24924Y-84936D01*
X25519Y-84936D02*
X25519Y-84436D01*
X25733Y-84936D02*
X25733Y-84674D01*
X25710Y-84627D01*
X25662Y-84603D01*
X25590Y-84603D01*
X25543Y-84627D01*
X25519Y-84651D01*
X26042Y-84936D02*
X25995Y-84913D01*
X25971Y-84889D01*
X25947Y-84841D01*
X25947Y-84698D01*
X25971Y-84651D01*
X25995Y-84627D01*
X26042Y-84603D01*
X26114Y-84603D01*
X26162Y-84627D01*
X26185Y-84651D01*
X26209Y-84698D01*
X26209Y-84841D01*
X26185Y-84889D01*
X26162Y-84913D01*
X26114Y-84936D01*
X26042Y-84936D01*
X26494Y-84936D02*
X26447Y-84913D01*
X26423Y-84865D01*
X26423Y-84436D01*
X26876Y-84913D02*
X26828Y-84936D01*
X26733Y-84936D01*
X26685Y-84913D01*
X26661Y-84865D01*
X26661Y-84674D01*
X26685Y-84627D01*
X26733Y-84603D01*
X26828Y-84603D01*
X26876Y-84627D01*
X26899Y-84674D01*
X26899Y-84722D01*
X26661Y-84770D01*
X27090Y-84913D02*
X27138Y-84936D01*
X27233Y-84936D01*
X27281Y-84913D01*
X27305Y-84865D01*
X27305Y-84841D01*
X27281Y-84794D01*
X27233Y-84770D01*
X27162Y-84770D01*
X27114Y-84746D01*
X27090Y-84698D01*
X27090Y-84674D01*
X27114Y-84627D01*
X27162Y-84603D01*
X27233Y-84603D01*
X27281Y-84627D01*
X27471Y-85127D02*
X27495Y-85103D01*
X27543Y-85032D01*
X27567Y-84984D01*
X27590Y-84913D01*
X27614Y-84794D01*
X27614Y-84698D01*
X27590Y-84579D01*
X27567Y-84508D01*
X27543Y-84460D01*
X27495Y-84389D01*
X27471Y-84365D01*
M02*
