M48
;DRILL file {Pcbnew (2012-07-14 BZR 3647)-testing} date Sun 15 Jul 2012 11:42:59 PM EEST
;FORMAT={-:-/ absolute / metric / decimal}
FMAT,2
METRIC,TZ
T1C0.635
T2C0.899
T3C1.016
T4C3.200
%
G90
G05
M71
T1
X131.201Y-149.649
X135.951Y-166.601
X138.4Y-178.999
X139.101Y-151.15
X139.2Y-149.649
X141.Y-158.9
X141.Y-160.099
X141.Y-161.399
X141.Y-162.7
X141.399Y-163.901
X142.1Y-176.601
X142.199Y-181.
X142.301Y-164.701
X143.599Y-153.7
X143.8Y-157.15
X143.8Y-159.301
X144.201Y-152.7
X144.8Y-164.201
X147.201Y-158.199
X147.201Y-161.201
X147.399Y-150.599
X147.399Y-159.799
X147.701Y-165.499
X148.699Y-150.599
X148.9Y-165.499
X149.101Y-157.401
X150.Y-158.199
X150.2Y-165.6
X150.299Y-177.099
X150.35Y-171.201
X151.399Y-168.151
X152.001Y-159.499
X152.799Y-161.3
X152.951Y-185.151
X153.599Y-170.851
X153.8Y-162.001
X154.899Y-150.599
X155.1Y-157.201
X156.4Y-180.5
X156.5Y-168.651
X157.099Y-152.85
X158.801Y-151.6
X160.15Y-166.901
X161.249Y-160.251
X161.801Y-158.151
X165.1Y-180.8
X167.3Y-149.101
X167.599Y-156.799
X168.75Y-155.849
T2
X138.92Y-182.255
X138.92Y-186.543
X141.079Y-182.255
X141.079Y-186.543
X143.241Y-182.255
X143.241Y-186.543
X145.4Y-182.255
X145.4Y-186.543
X147.559Y-182.255
X147.559Y-186.543
X149.72Y-182.255
X149.72Y-186.543
X151.879Y-182.255
X151.879Y-186.543
X154.038Y-186.543
X154.041Y-182.255
X156.2Y-182.255
X156.2Y-186.543
X158.359Y-182.255
X158.359Y-186.543
X160.52Y-182.255
X160.52Y-186.543
X162.679Y-182.255
X162.679Y-186.543
X164.3Y-148.425
X168.699Y-148.425
T3
X132.799Y-147.249
X135.339Y-147.249
X137.879Y-147.249
X140.419Y-147.249
X144.94Y-147.249
X147.48Y-147.249
X150.02Y-147.249
X152.56Y-147.249
X155.1Y-147.249
X175.9Y-164.249
X175.9Y-166.789
X175.9Y-169.329
X175.9Y-171.869
T4
X127.404Y-184.399
X174.196Y-184.399
T0
M30
