G04 (created by PCBNEW-RS274X (2012-07-14 BZR 3647)-testing) date Mon 16 Jul 2012 01:01:47 AM EEST*
%MOIN*%
G04 Gerber Fmt 3.4, Leading zero omitted, Abs format*
%FSLAX34Y34*%
G01*
G70*
G90*
G04 APERTURE LIST*
%ADD10C,0.006*%
%ADD11C,0.146*%
%ADD12O,0.0751X0.0987*%
%ADD13R,0.08X0.08*%
%ADD14O,0.0791X0.1066*%
%ADD15O,0.1066X0.0791*%
%ADD16R,0.07X0.04*%
%ADD17R,0.055X0.075*%
%ADD18R,0.045X0.065*%
%ADD19R,0.065X0.045*%
%ADD20R,0.036X0.08*%
%ADD21R,0.08X0.036*%
%ADD22R,0.075X0.055*%
%ADD23C,0.0791*%
%ADD24C,0.0554*%
G04 APERTURE END LIST*
G54D10*
G54D11*
X50159Y-72598D03*
X68581Y-72598D03*
G54D12*
X59795Y-71754D03*
X60646Y-71754D03*
X61496Y-71754D03*
X62346Y-71754D03*
X63197Y-71754D03*
X64047Y-71754D03*
X58945Y-71754D03*
X58094Y-71754D03*
X57244Y-71754D03*
X56394Y-71754D03*
X55543Y-71754D03*
X54693Y-71754D03*
X54693Y-73442D03*
X57244Y-73442D03*
X58094Y-73442D03*
X58945Y-73442D03*
X59795Y-73442D03*
X60645Y-73442D03*
X61496Y-73442D03*
X62346Y-73442D03*
X63197Y-73442D03*
X64047Y-73442D03*
X55543Y-73442D03*
X56394Y-73442D03*
G54D13*
X61063Y-57972D03*
G54D14*
X60063Y-57972D03*
X59063Y-57972D03*
X58063Y-57972D03*
X57063Y-57972D03*
G54D13*
X52283Y-57972D03*
G54D14*
X53283Y-57972D03*
X54283Y-57972D03*
X55283Y-57972D03*
G54D13*
X69252Y-64665D03*
G54D15*
X69252Y-65665D03*
X69252Y-66665D03*
X69252Y-67665D03*
G54D16*
X66172Y-65644D03*
X66172Y-66144D03*
X66172Y-66644D03*
X66172Y-67144D03*
X66172Y-67644D03*
X66172Y-68144D03*
X66172Y-68644D03*
X66172Y-69144D03*
X66172Y-69644D03*
X66172Y-70144D03*
X62372Y-70144D03*
X62372Y-69644D03*
X62372Y-69144D03*
X62372Y-68644D03*
X62372Y-68144D03*
X62372Y-67644D03*
X62372Y-67144D03*
X62372Y-66644D03*
X62372Y-66144D03*
X62372Y-65644D03*
X56585Y-65545D03*
X56585Y-66045D03*
X56585Y-66545D03*
X56585Y-67045D03*
X56585Y-67545D03*
X56585Y-68045D03*
X56585Y-68545D03*
X56585Y-69045D03*
X56585Y-69545D03*
X56585Y-70045D03*
X52785Y-70045D03*
X52785Y-69545D03*
X52785Y-69045D03*
X52785Y-68545D03*
X52785Y-68045D03*
X52785Y-67545D03*
X52785Y-67045D03*
X52785Y-66545D03*
X52785Y-66045D03*
X52785Y-65545D03*
G54D17*
X66908Y-65669D03*
X67658Y-65669D03*
X65296Y-61417D03*
X64546Y-61417D03*
X65277Y-62224D03*
X64527Y-62224D03*
G54D18*
X66166Y-70827D03*
X65566Y-70827D03*
X56639Y-70709D03*
X56039Y-70709D03*
G54D19*
X56614Y-63322D03*
X56614Y-63922D03*
G54D20*
X59508Y-59974D03*
X59823Y-59974D03*
X60138Y-59974D03*
X60453Y-59974D03*
X60768Y-59974D03*
X61083Y-59974D03*
X59193Y-59974D03*
X58878Y-59974D03*
X58563Y-59974D03*
X58248Y-59974D03*
X57933Y-59974D03*
X59508Y-64474D03*
X59823Y-64474D03*
X60138Y-64474D03*
X60453Y-64474D03*
X60768Y-64474D03*
X61083Y-64474D03*
X59193Y-64474D03*
X58878Y-64474D03*
X58563Y-64474D03*
X58248Y-64474D03*
X57933Y-64474D03*
G54D21*
X61758Y-62224D03*
X57258Y-62224D03*
X61758Y-62539D03*
X57258Y-62539D03*
X57258Y-62854D03*
X61758Y-62854D03*
X61758Y-63169D03*
X57258Y-63169D03*
X57258Y-63484D03*
X61758Y-63484D03*
X61758Y-63799D03*
X57258Y-63799D03*
X57258Y-61909D03*
X61758Y-61909D03*
X61758Y-61594D03*
X57258Y-61594D03*
X57258Y-61279D03*
X61758Y-61279D03*
X61758Y-60964D03*
X57258Y-60964D03*
X57258Y-60649D03*
X61758Y-60649D03*
G54D17*
X60926Y-66181D03*
X60176Y-66181D03*
G54D22*
X67244Y-61436D03*
X67244Y-62186D03*
G54D17*
X62460Y-62047D03*
X63210Y-62047D03*
G54D19*
X57402Y-59808D03*
X57402Y-59208D03*
X62520Y-60812D03*
X62520Y-60212D03*
X61594Y-59670D03*
X61594Y-59070D03*
G54D23*
X60972Y-67720D03*
X59972Y-67720D03*
X60972Y-68720D03*
X59972Y-68720D03*
X60972Y-69720D03*
X59972Y-69720D03*
G54D24*
X66417Y-58435D03*
X64685Y-58435D03*
G54D18*
X60359Y-65315D03*
X59759Y-65315D03*
M02*
