G04 (created by PCBNEW-RS274X (2012-07-14 BZR 3647)-testing) date Mon 16 Jul 2012 01:01:47 AM EEST*
%MOIN*%
G04 Gerber Fmt 3.4, Leading zero omitted, Abs format*
%FSLAX34Y34*%
G01*
G70*
G90*
G04 APERTURE LIST*
%ADD10C,0.006*%
%ADD11C,0.126*%
%ADD12O,0.0551X0.0787*%
%ADD13R,0.06X0.06*%
%ADD14O,0.0591X0.0866*%
%ADD15R,0.0157X0.0236*%
%ADD16O,0.0866X0.0591*%
%ADD17R,0.055X0.035*%
%ADD18R,0.0314X0.0314*%
%ADD19R,0.0197X0.0886*%
%ADD20R,0.0807X0.1378*%
%ADD21C,0.0354*%
%ADD22C,0.035*%
%ADD23C,0.0157*%
%ADD24C,0.0138*%
%ADD25C,0.0394*%
%ADD26C,0.0315*%
%ADD27C,0.0197*%
%ADD28C,0.008*%
%ADD29C,0.01*%
G04 APERTURE END LIST*
G54D10*
G54D11*
X50159Y-72598D03*
X68581Y-72598D03*
G54D12*
X59795Y-71754D03*
X60646Y-71754D03*
X61496Y-71754D03*
X62346Y-71754D03*
X63197Y-71754D03*
X64047Y-71754D03*
X58945Y-71754D03*
X58094Y-71754D03*
X57244Y-71754D03*
X56394Y-71754D03*
X55543Y-71754D03*
X54693Y-71754D03*
X54693Y-73442D03*
X57244Y-73442D03*
X58094Y-73442D03*
X58945Y-73442D03*
X59795Y-73442D03*
X60645Y-73442D03*
X61496Y-73442D03*
X62346Y-73442D03*
X63197Y-73442D03*
X64047Y-73442D03*
X55543Y-73442D03*
X56394Y-73442D03*
G54D13*
X61063Y-57972D03*
G54D14*
X60063Y-57972D03*
X59063Y-57972D03*
X58063Y-57972D03*
X57063Y-57972D03*
G54D13*
X52283Y-57972D03*
G54D14*
X53283Y-57972D03*
X54283Y-57972D03*
X55283Y-57972D03*
G54D15*
X53594Y-60206D03*
X53594Y-60856D03*
X53256Y-60206D03*
X53256Y-60856D03*
G54D13*
X69252Y-64665D03*
G54D16*
X69252Y-65665D03*
X69252Y-66665D03*
X69252Y-67665D03*
G54D17*
X52362Y-58916D03*
X52362Y-59666D03*
X53150Y-58916D03*
X53150Y-59666D03*
X53937Y-58916D03*
X53937Y-59666D03*
G54D18*
X52618Y-60256D03*
X52618Y-60846D03*
G54D19*
X66181Y-59567D03*
X65866Y-59567D03*
X65551Y-59567D03*
X65236Y-59567D03*
X64921Y-59567D03*
G54D20*
X63612Y-57904D03*
X63612Y-59577D03*
X67490Y-59577D03*
X67490Y-57904D03*
G54D21*
X66417Y-58435D03*
X64685Y-58435D03*
G54D22*
X51654Y-58917D03*
X59193Y-67402D03*
X59606Y-66201D03*
X59843Y-62795D03*
X60551Y-63780D03*
X57953Y-63465D03*
X55669Y-64528D03*
X58622Y-65157D03*
X56024Y-64843D03*
X59134Y-65197D03*
X56614Y-61870D03*
X58543Y-59291D03*
X58031Y-62913D03*
X55512Y-63543D03*
X56614Y-62717D03*
X55512Y-62559D03*
X57953Y-62283D03*
X55512Y-63031D03*
X55945Y-69528D03*
X54488Y-70472D03*
X59055Y-62283D03*
X56772Y-60118D03*
X54803Y-58917D03*
X60472Y-67264D03*
X61614Y-66398D03*
X58150Y-65157D03*
X55512Y-64055D03*
X61575Y-71063D03*
X60217Y-72894D03*
X61850Y-60177D03*
X63484Y-63091D03*
X58701Y-61969D03*
X56535Y-60512D03*
X54764Y-59508D03*
X55906Y-70079D03*
X65000Y-71181D03*
X63701Y-62264D03*
X59173Y-69724D03*
X57008Y-64646D03*
X62520Y-59685D03*
X60157Y-63504D03*
X58031Y-59291D03*
X61063Y-61890D03*
X60984Y-59291D03*
X63051Y-65709D03*
X53524Y-65591D03*
X66437Y-61358D03*
X65866Y-58701D03*
X65984Y-61732D03*
G54D23*
X16909Y-20847D02*
X16899Y-20837D01*
G54D24*
X52361Y-58917D02*
X52362Y-58916D01*
X52361Y-58917D02*
X51654Y-58917D01*
G54D25*
X59606Y-66201D02*
X59606Y-66989D01*
X59606Y-66989D02*
X59193Y-67402D01*
G54D26*
X59528Y-63110D02*
X59528Y-63740D01*
X59843Y-62795D02*
X59528Y-63110D01*
G54D27*
X60551Y-63780D02*
X60433Y-63898D01*
X60433Y-63898D02*
X59686Y-63898D01*
X59686Y-63898D02*
X59528Y-63740D01*
X58228Y-63740D02*
X59528Y-63740D01*
X57953Y-63465D02*
X58228Y-63740D01*
G54D24*
X56378Y-63898D02*
X56299Y-63898D01*
X56378Y-63898D02*
X56535Y-63898D01*
X56535Y-63898D02*
X57440Y-63898D01*
X58622Y-65157D02*
X58622Y-65197D01*
X58307Y-65512D02*
X58622Y-65197D01*
X57952Y-65512D02*
X58307Y-65512D01*
X57638Y-65198D02*
X57952Y-65512D01*
X57638Y-64096D02*
X57638Y-65198D01*
X57440Y-63898D02*
X57638Y-64096D01*
X56299Y-63898D02*
X55669Y-64528D01*
X58622Y-65157D02*
X58622Y-65039D01*
X56024Y-64843D02*
X56024Y-64803D01*
X56574Y-64253D02*
X56889Y-64253D01*
X57794Y-65787D02*
X58741Y-65787D01*
X57283Y-64253D02*
X57362Y-64332D01*
X56889Y-64253D02*
X57283Y-64253D01*
X57362Y-65355D02*
X57794Y-65787D01*
X57362Y-64332D02*
X57362Y-65355D01*
X59134Y-65197D02*
X59134Y-65394D01*
X58741Y-65787D02*
X59134Y-65394D01*
X56024Y-64803D02*
X56574Y-64253D01*
X59134Y-65197D02*
X59134Y-65236D01*
X56614Y-61870D02*
X56614Y-61102D01*
X56181Y-60669D02*
X56181Y-60216D01*
X56614Y-61102D02*
X56181Y-60669D01*
X56673Y-59724D02*
X56181Y-60216D01*
X58110Y-59724D02*
X56673Y-59724D01*
X58543Y-59291D02*
X58110Y-59724D01*
X55946Y-63346D02*
X55709Y-63346D01*
X58031Y-62913D02*
X57363Y-62913D01*
X56930Y-63346D02*
X55946Y-63346D01*
X57363Y-62913D02*
X56930Y-63346D01*
X55709Y-63346D02*
X55512Y-63543D01*
X55512Y-62559D02*
X56456Y-62559D01*
X56456Y-62559D02*
X56614Y-62717D01*
X55709Y-63071D02*
X55552Y-63071D01*
X57559Y-62283D02*
X56771Y-63071D01*
X56771Y-63071D02*
X55709Y-63071D01*
X57953Y-62283D02*
X57559Y-62283D01*
X55552Y-63071D02*
X55512Y-63031D01*
X55945Y-69528D02*
X55432Y-69528D01*
X55432Y-69528D02*
X54488Y-70472D01*
X59055Y-62283D02*
X59055Y-61890D01*
X59055Y-61732D02*
X59055Y-61890D01*
X57559Y-60236D02*
X59055Y-61732D01*
X56890Y-60236D02*
X57559Y-60236D01*
X56772Y-60118D02*
X56890Y-60236D01*
X53938Y-58917D02*
X54803Y-58917D01*
X53938Y-58917D02*
X53937Y-58916D01*
X53283Y-57972D02*
X53937Y-58626D01*
X53937Y-58626D02*
X53937Y-58916D01*
X61338Y-66398D02*
X60472Y-67264D01*
X61614Y-66398D02*
X61338Y-66398D01*
X56181Y-63622D02*
X55945Y-63622D01*
X57559Y-63622D02*
X56181Y-63622D01*
X58150Y-64213D02*
X57559Y-63622D01*
X58150Y-65157D02*
X58150Y-64213D01*
X55945Y-63622D02*
X55512Y-64055D01*
X61063Y-72323D02*
X60492Y-72894D01*
X60492Y-72894D02*
X60217Y-72894D01*
G54D28*
X61063Y-72146D02*
X61063Y-71437D01*
G54D24*
X61437Y-71063D02*
X61063Y-71437D01*
X61575Y-71063D02*
X61437Y-71063D01*
X61063Y-72146D02*
X61063Y-72323D01*
X61850Y-61457D02*
X61850Y-60177D01*
X63484Y-63091D02*
X61850Y-61457D01*
X53150Y-58916D02*
X53525Y-59291D01*
X58701Y-61969D02*
X57244Y-60512D01*
X57244Y-60512D02*
X56535Y-60512D01*
X54547Y-59291D02*
X54764Y-59508D01*
X53525Y-59291D02*
X54547Y-59291D01*
X52283Y-57972D02*
X53150Y-58839D01*
X53150Y-58839D02*
X53150Y-58916D01*
X64627Y-74154D02*
X60217Y-74154D01*
X59795Y-73442D02*
X59795Y-73732D01*
X60059Y-73996D02*
X59795Y-73732D01*
X65000Y-73781D02*
X65000Y-71181D01*
X64627Y-74154D02*
X65000Y-73781D01*
X60217Y-74154D02*
X60059Y-73996D01*
G54D26*
X54693Y-71292D02*
X54693Y-71754D01*
X55906Y-70079D02*
X54693Y-71292D01*
G54D25*
X53524Y-68765D02*
X53524Y-70585D01*
X53524Y-65591D02*
X53524Y-68765D01*
X53524Y-70585D02*
X54693Y-71754D01*
X54693Y-71754D02*
X54693Y-73442D01*
G54D24*
X69252Y-69016D02*
X66102Y-69016D01*
X66102Y-69016D02*
X65000Y-70118D01*
X65000Y-70118D02*
X65000Y-71181D01*
X69252Y-67665D02*
X69252Y-69016D01*
X69252Y-69016D02*
X69252Y-69055D01*
X63612Y-57904D02*
X67490Y-57904D01*
X63612Y-59577D02*
X64911Y-59577D01*
G54D29*
X64911Y-59577D02*
X64921Y-59567D01*
G54D24*
X64921Y-59567D02*
X65236Y-59567D01*
X67490Y-59577D02*
X67490Y-57904D01*
X62520Y-59685D02*
X63504Y-59685D01*
G54D29*
X63504Y-59685D02*
X63612Y-59577D01*
G54D24*
X63612Y-59577D02*
X63612Y-57904D01*
X53594Y-60856D02*
X54490Y-61752D01*
X54490Y-61752D02*
X54784Y-61752D01*
X53256Y-60856D02*
X53594Y-60856D01*
X52618Y-60846D02*
X52628Y-60856D01*
X52628Y-60856D02*
X53256Y-60856D01*
G54D25*
X62304Y-66456D02*
X63051Y-65709D01*
X62304Y-69724D02*
X62304Y-66456D01*
X59173Y-69724D02*
X62304Y-69724D01*
G54D26*
X55283Y-57972D02*
X55283Y-61253D01*
X55283Y-61253D02*
X54784Y-61752D01*
X53524Y-63012D02*
X53524Y-65591D01*
X54784Y-61752D02*
X53524Y-63012D01*
X53524Y-65591D02*
X56063Y-65591D01*
X56063Y-65591D02*
X57008Y-64646D01*
G54D24*
X53524Y-65591D02*
X53524Y-65650D01*
X57063Y-57972D02*
X57063Y-58323D01*
X57063Y-58323D02*
X58031Y-59291D01*
G54D25*
X55283Y-57972D02*
X57063Y-57972D01*
G54D24*
X62126Y-59291D02*
X60984Y-59291D01*
X62520Y-59685D02*
X62126Y-59291D01*
X61063Y-61890D02*
X61063Y-59370D01*
X61063Y-59370D02*
X60984Y-59291D01*
X61063Y-62874D02*
X61063Y-63031D01*
X61063Y-61890D02*
X61063Y-62874D01*
X61063Y-63031D02*
X60718Y-63376D01*
X60157Y-63504D02*
X60275Y-63504D01*
X60275Y-63504D02*
X60433Y-63346D01*
X60433Y-63346D02*
X60688Y-63346D01*
X60688Y-63346D02*
X60718Y-63376D01*
G54D25*
X63051Y-65709D02*
X61122Y-63780D01*
G54D24*
X60718Y-63376D02*
X61122Y-63780D01*
X58031Y-59291D02*
X58031Y-59213D01*
X60512Y-58819D02*
X60984Y-59291D01*
X58425Y-58819D02*
X60512Y-58819D01*
X58031Y-59213D02*
X58425Y-58819D01*
G54D25*
X58094Y-73442D02*
X57244Y-73442D01*
X57244Y-73442D02*
X56394Y-73442D01*
X59795Y-73442D02*
X58945Y-73442D01*
X55543Y-73442D02*
X54693Y-73442D01*
X56394Y-73442D02*
X55543Y-73442D01*
X58945Y-73442D02*
X58094Y-73442D01*
G54D24*
X66181Y-59567D02*
X66181Y-60531D01*
X66437Y-60787D02*
X66437Y-61358D01*
X66181Y-60531D02*
X66437Y-60787D01*
X65866Y-58701D02*
X65866Y-59567D01*
X52618Y-60256D02*
X52362Y-60000D01*
X52362Y-60000D02*
X52362Y-59666D01*
X65984Y-61732D02*
X65984Y-60787D01*
X65551Y-60354D02*
X65551Y-59567D01*
X65984Y-60787D02*
X65551Y-60354D01*
X53594Y-60206D02*
X53937Y-59863D01*
X53937Y-59863D02*
X53937Y-59666D01*
X53256Y-60206D02*
X53150Y-60100D01*
X53150Y-60100D02*
X53150Y-59666D01*
G54D10*
G36*
X70718Y-76230D02*
X69918Y-76229D01*
X69918Y-67799D01*
X69918Y-67531D01*
X69913Y-67503D01*
X69855Y-67396D01*
X69855Y-66756D01*
X69855Y-66575D01*
X69855Y-65756D01*
X69855Y-65575D01*
X69786Y-65408D01*
X69720Y-65342D01*
X69720Y-64999D01*
X69720Y-64932D01*
X69720Y-64332D01*
X69695Y-64270D01*
X69647Y-64223D01*
X69586Y-64197D01*
X69519Y-64197D01*
X68919Y-64197D01*
X68857Y-64222D01*
X68810Y-64270D01*
X68784Y-64331D01*
X68784Y-64398D01*
X68784Y-64998D01*
X68809Y-65060D01*
X68857Y-65107D01*
X68918Y-65133D01*
X68985Y-65133D01*
X69585Y-65133D01*
X69647Y-65108D01*
X69694Y-65060D01*
X69720Y-64999D01*
X69720Y-65342D01*
X69658Y-65280D01*
X69492Y-65211D01*
X69311Y-65211D01*
X69013Y-65211D01*
X68846Y-65280D01*
X68718Y-65408D01*
X68649Y-65574D01*
X68649Y-65755D01*
X68718Y-65922D01*
X68846Y-66050D01*
X69012Y-66119D01*
X69193Y-66119D01*
X69491Y-66119D01*
X69658Y-66050D01*
X69786Y-65922D01*
X69855Y-65756D01*
X69855Y-66575D01*
X69786Y-66408D01*
X69658Y-66280D01*
X69492Y-66211D01*
X69311Y-66211D01*
X69013Y-66211D01*
X68846Y-66280D01*
X68718Y-66408D01*
X68649Y-66574D01*
X68649Y-66755D01*
X68718Y-66922D01*
X68846Y-67050D01*
X69012Y-67119D01*
X69193Y-67119D01*
X69491Y-67119D01*
X69658Y-67050D01*
X69786Y-66922D01*
X69855Y-66756D01*
X69855Y-67396D01*
X69811Y-67315D01*
X69645Y-67181D01*
X69440Y-67120D01*
X69302Y-67120D01*
X69302Y-67615D01*
X69870Y-67615D01*
X69918Y-67531D01*
X69918Y-67799D01*
X69870Y-67715D01*
X69302Y-67715D01*
X69302Y-68210D01*
X69440Y-68210D01*
X69645Y-68149D01*
X69811Y-68015D01*
X69913Y-67827D01*
X69918Y-67799D01*
X69918Y-76229D01*
X69379Y-76229D01*
X69379Y-72757D01*
X69379Y-72440D01*
X69258Y-72147D01*
X69202Y-72090D01*
X69202Y-68210D01*
X69202Y-67715D01*
X69202Y-67615D01*
X69202Y-67120D01*
X69064Y-67120D01*
X68859Y-67181D01*
X68693Y-67315D01*
X68591Y-67503D01*
X68586Y-67531D01*
X68634Y-67615D01*
X69202Y-67615D01*
X69202Y-67715D01*
X68634Y-67715D01*
X68586Y-67799D01*
X68591Y-67827D01*
X68693Y-68015D01*
X68859Y-68149D01*
X69064Y-68210D01*
X69202Y-68210D01*
X69202Y-72090D01*
X69034Y-71922D01*
X68740Y-71800D01*
X68423Y-71800D01*
X68143Y-71915D01*
X68143Y-59689D01*
X68143Y-59465D01*
X68142Y-58839D01*
X68104Y-58747D01*
X68097Y-58740D01*
X68104Y-58734D01*
X68142Y-58642D01*
X68143Y-58016D01*
X68081Y-57954D01*
X67540Y-57954D01*
X67540Y-58700D01*
X67540Y-58781D01*
X67540Y-59527D01*
X68081Y-59527D01*
X68143Y-59465D01*
X68143Y-59689D01*
X68081Y-59627D01*
X67540Y-59627D01*
X67540Y-60454D01*
X67602Y-60516D01*
X67844Y-60515D01*
X67943Y-60515D01*
X68034Y-60477D01*
X68104Y-60407D01*
X68142Y-60315D01*
X68143Y-59689D01*
X68143Y-71915D01*
X68130Y-71921D01*
X67905Y-72145D01*
X67783Y-72439D01*
X67783Y-72756D01*
X67904Y-73049D01*
X68128Y-73274D01*
X68422Y-73396D01*
X68739Y-73396D01*
X69032Y-73275D01*
X69257Y-73051D01*
X69379Y-72757D01*
X69379Y-76229D01*
X67440Y-76229D01*
X67440Y-60454D01*
X67440Y-59627D01*
X67440Y-59527D01*
X67440Y-58781D01*
X67440Y-58700D01*
X67440Y-57954D01*
X66899Y-57954D01*
X66837Y-58016D01*
X66838Y-58642D01*
X66876Y-58734D01*
X66882Y-58740D01*
X66876Y-58747D01*
X66838Y-58839D01*
X66837Y-59465D01*
X66899Y-59527D01*
X67440Y-59527D01*
X67440Y-59627D01*
X66899Y-59627D01*
X66837Y-59689D01*
X66838Y-60315D01*
X66876Y-60407D01*
X66946Y-60477D01*
X67037Y-60515D01*
X67136Y-60515D01*
X67378Y-60516D01*
X67440Y-60454D01*
X67440Y-76229D01*
X66779Y-76229D01*
X66779Y-61426D01*
X66779Y-61290D01*
X66727Y-61164D01*
X66674Y-61111D01*
X66674Y-60791D01*
X66674Y-60787D01*
X66675Y-60787D01*
X66656Y-60696D01*
X66605Y-60619D01*
X66418Y-60432D01*
X66418Y-60108D01*
X66421Y-60105D01*
X66447Y-60044D01*
X66447Y-59977D01*
X66447Y-59091D01*
X66422Y-59029D01*
X66374Y-58982D01*
X66313Y-58956D01*
X66246Y-58956D01*
X66103Y-58956D01*
X66103Y-58948D01*
X66156Y-58895D01*
X66208Y-58769D01*
X66208Y-58712D01*
X66222Y-58726D01*
X66348Y-58779D01*
X66485Y-58779D01*
X66611Y-58727D01*
X66708Y-58630D01*
X66761Y-58504D01*
X66761Y-58367D01*
X66709Y-58241D01*
X66612Y-58144D01*
X66486Y-58091D01*
X66349Y-58091D01*
X66223Y-58143D01*
X66126Y-58240D01*
X66073Y-58366D01*
X66073Y-58424D01*
X66060Y-58411D01*
X65934Y-58359D01*
X65798Y-58359D01*
X65672Y-58411D01*
X65576Y-58507D01*
X65524Y-58633D01*
X65524Y-58769D01*
X65576Y-58895D01*
X65629Y-58948D01*
X65629Y-58956D01*
X65616Y-58956D01*
X65518Y-58956D01*
X65475Y-58913D01*
X65384Y-58875D01*
X65346Y-58875D01*
X65285Y-58936D01*
X65285Y-59090D01*
X65285Y-59157D01*
X65285Y-59517D01*
X65285Y-59617D01*
X65285Y-60043D01*
X65285Y-60198D01*
X65314Y-60227D01*
X65314Y-60259D01*
X65314Y-60349D01*
X65313Y-60354D01*
X65332Y-60445D01*
X65383Y-60522D01*
X65747Y-60885D01*
X65747Y-61485D01*
X65694Y-61538D01*
X65642Y-61664D01*
X65642Y-61800D01*
X65694Y-61926D01*
X65790Y-62022D01*
X65916Y-62074D01*
X66052Y-62074D01*
X66178Y-62022D01*
X66274Y-61926D01*
X66326Y-61800D01*
X66326Y-61682D01*
X66369Y-61700D01*
X66505Y-61700D01*
X66631Y-61648D01*
X66727Y-61552D01*
X66779Y-61426D01*
X66779Y-76229D01*
X65269Y-76229D01*
X65269Y-59679D01*
X65269Y-59455D01*
X65268Y-59075D01*
X65230Y-58983D01*
X65187Y-58940D01*
X65187Y-58936D01*
X65126Y-58875D01*
X65088Y-58875D01*
X65078Y-58878D01*
X65069Y-58875D01*
X65031Y-58875D01*
X65029Y-58877D01*
X65029Y-58504D01*
X65029Y-58367D01*
X64977Y-58241D01*
X64880Y-58144D01*
X64754Y-58091D01*
X64617Y-58091D01*
X64491Y-58143D01*
X64394Y-58240D01*
X64341Y-58366D01*
X64341Y-58503D01*
X64393Y-58629D01*
X64490Y-58726D01*
X64616Y-58779D01*
X64753Y-58779D01*
X64879Y-58727D01*
X64976Y-58630D01*
X65029Y-58504D01*
X65029Y-58877D01*
X64970Y-58936D01*
X64970Y-58940D01*
X64927Y-58983D01*
X64889Y-59075D01*
X64888Y-59455D01*
X64950Y-59517D01*
X64970Y-59517D01*
X65187Y-59517D01*
X65207Y-59517D01*
X65269Y-59455D01*
X65269Y-59679D01*
X65207Y-59617D01*
X65187Y-59617D01*
X64970Y-59617D01*
X64950Y-59617D01*
X64888Y-59679D01*
X64889Y-60059D01*
X64927Y-60151D01*
X64970Y-60194D01*
X64970Y-60198D01*
X65031Y-60259D01*
X65069Y-60259D01*
X65078Y-60255D01*
X65088Y-60259D01*
X65126Y-60259D01*
X65187Y-60198D01*
X65187Y-60194D01*
X65230Y-60151D01*
X65268Y-60059D01*
X65269Y-59679D01*
X65269Y-76229D01*
X64872Y-76229D01*
X64872Y-60198D01*
X64872Y-59617D01*
X64872Y-59517D01*
X64872Y-58936D01*
X64811Y-58875D01*
X64773Y-58875D01*
X64682Y-58913D01*
X64612Y-58983D01*
X64574Y-59075D01*
X64573Y-59455D01*
X64635Y-59517D01*
X64872Y-59517D01*
X64872Y-59617D01*
X64635Y-59617D01*
X64573Y-59679D01*
X64574Y-60059D01*
X64612Y-60151D01*
X64682Y-60221D01*
X64773Y-60259D01*
X64811Y-60259D01*
X64872Y-60198D01*
X64872Y-76229D01*
X64482Y-76229D01*
X64482Y-73657D01*
X64482Y-73484D01*
X64482Y-73228D01*
X64416Y-73068D01*
X64294Y-72946D01*
X64134Y-72879D01*
X63961Y-72879D01*
X63801Y-72945D01*
X63679Y-73067D01*
X63621Y-73203D01*
X63566Y-73068D01*
X63444Y-72946D01*
X63284Y-72879D01*
X63111Y-72879D01*
X62951Y-72945D01*
X62829Y-73067D01*
X62771Y-73204D01*
X62715Y-73068D01*
X62593Y-72946D01*
X62433Y-72879D01*
X62260Y-72879D01*
X62100Y-72945D01*
X61978Y-73067D01*
X61920Y-73203D01*
X61865Y-73068D01*
X61743Y-72946D01*
X61583Y-72879D01*
X61410Y-72879D01*
X61250Y-72945D01*
X61128Y-73067D01*
X61070Y-73204D01*
X61014Y-73068D01*
X60892Y-72946D01*
X60810Y-72911D01*
X61228Y-72492D01*
X61230Y-72491D01*
X61231Y-72491D01*
X61282Y-72414D01*
X61300Y-72323D01*
X61300Y-72271D01*
X61409Y-72317D01*
X61582Y-72317D01*
X61742Y-72251D01*
X61864Y-72129D01*
X61921Y-71992D01*
X61977Y-72128D01*
X62099Y-72250D01*
X62259Y-72317D01*
X62432Y-72317D01*
X62592Y-72251D01*
X62714Y-72129D01*
X62771Y-71991D01*
X62828Y-72128D01*
X62950Y-72250D01*
X63110Y-72317D01*
X63283Y-72317D01*
X63443Y-72251D01*
X63565Y-72129D01*
X63622Y-71992D01*
X63678Y-72128D01*
X63800Y-72250D01*
X63960Y-72317D01*
X64133Y-72317D01*
X64293Y-72251D01*
X64415Y-72129D01*
X64482Y-71969D01*
X64482Y-71796D01*
X64482Y-71540D01*
X64416Y-71380D01*
X64294Y-71258D01*
X64265Y-71245D01*
X64265Y-59689D01*
X64265Y-59465D01*
X64264Y-58839D01*
X64226Y-58747D01*
X64219Y-58740D01*
X64226Y-58734D01*
X64264Y-58642D01*
X64265Y-58016D01*
X64203Y-57954D01*
X63662Y-57954D01*
X63662Y-58700D01*
X63662Y-58781D01*
X63662Y-59527D01*
X64203Y-59527D01*
X64265Y-59465D01*
X64265Y-59689D01*
X64203Y-59627D01*
X63662Y-59627D01*
X63662Y-60454D01*
X63724Y-60516D01*
X63966Y-60515D01*
X64065Y-60515D01*
X64156Y-60477D01*
X64226Y-60407D01*
X64264Y-60315D01*
X64265Y-59689D01*
X64265Y-71245D01*
X64134Y-71191D01*
X63961Y-71191D01*
X63826Y-71246D01*
X63826Y-63159D01*
X63826Y-63023D01*
X63774Y-62897D01*
X63678Y-62801D01*
X63562Y-62753D01*
X63562Y-60454D01*
X63562Y-59627D01*
X63562Y-59527D01*
X63562Y-58781D01*
X63562Y-58700D01*
X63562Y-57954D01*
X63021Y-57954D01*
X62959Y-58016D01*
X62960Y-58642D01*
X62998Y-58734D01*
X63004Y-58740D01*
X62998Y-58747D01*
X62960Y-58839D01*
X62959Y-59465D01*
X63021Y-59527D01*
X63562Y-59527D01*
X63562Y-59627D01*
X63021Y-59627D01*
X62959Y-59689D01*
X62960Y-60315D01*
X62998Y-60407D01*
X63068Y-60477D01*
X63159Y-60515D01*
X63258Y-60515D01*
X63500Y-60516D01*
X63562Y-60454D01*
X63562Y-62753D01*
X63552Y-62749D01*
X63477Y-62749D01*
X62087Y-61358D01*
X62087Y-60424D01*
X62140Y-60371D01*
X62192Y-60245D01*
X62192Y-60109D01*
X62140Y-59983D01*
X62044Y-59887D01*
X61918Y-59835D01*
X61782Y-59835D01*
X61656Y-59887D01*
X61560Y-59983D01*
X61531Y-60053D01*
X61531Y-58306D01*
X61531Y-58239D01*
X61531Y-57639D01*
X61506Y-57577D01*
X61458Y-57530D01*
X61397Y-57504D01*
X61330Y-57504D01*
X60730Y-57504D01*
X60668Y-57529D01*
X60621Y-57577D01*
X60595Y-57638D01*
X60595Y-57705D01*
X60595Y-58305D01*
X60620Y-58367D01*
X60668Y-58414D01*
X60729Y-58440D01*
X60796Y-58440D01*
X61396Y-58440D01*
X61458Y-58415D01*
X61505Y-58367D01*
X61531Y-58306D01*
X61531Y-60053D01*
X61508Y-60109D01*
X61508Y-60245D01*
X61560Y-60371D01*
X61613Y-60424D01*
X61613Y-61452D01*
X61612Y-61457D01*
X61631Y-61548D01*
X61682Y-61625D01*
X63142Y-63084D01*
X63142Y-63159D01*
X63194Y-63285D01*
X63290Y-63381D01*
X63416Y-63433D01*
X63552Y-63433D01*
X63678Y-63381D01*
X63774Y-63285D01*
X63826Y-63159D01*
X63826Y-71246D01*
X63801Y-71257D01*
X63679Y-71379D01*
X63621Y-71515D01*
X63566Y-71380D01*
X63444Y-71258D01*
X63284Y-71191D01*
X63111Y-71191D01*
X62951Y-71257D01*
X62829Y-71379D01*
X62771Y-71516D01*
X62715Y-71380D01*
X62593Y-71258D01*
X62433Y-71191D01*
X62260Y-71191D01*
X62100Y-71257D01*
X61978Y-71379D01*
X61956Y-71430D01*
X61956Y-66466D01*
X61956Y-66330D01*
X61904Y-66204D01*
X61808Y-66108D01*
X61682Y-66056D01*
X61546Y-66056D01*
X61420Y-66108D01*
X61367Y-66161D01*
X61338Y-66161D01*
X61337Y-66161D01*
X61247Y-66179D01*
X61170Y-66230D01*
X61168Y-66232D01*
X60893Y-66507D01*
X60893Y-63848D01*
X60893Y-63712D01*
X60841Y-63586D01*
X60745Y-63490D01*
X60619Y-63438D01*
X60517Y-63438D01*
X60517Y-58212D01*
X60517Y-58031D01*
X60517Y-57733D01*
X60448Y-57566D01*
X60320Y-57438D01*
X60154Y-57369D01*
X59973Y-57369D01*
X59806Y-57438D01*
X59678Y-57566D01*
X59609Y-57732D01*
X59609Y-57913D01*
X59609Y-58211D01*
X59678Y-58378D01*
X59806Y-58506D01*
X59972Y-58575D01*
X60153Y-58575D01*
X60320Y-58506D01*
X60448Y-58378D01*
X60517Y-58212D01*
X60517Y-63438D01*
X60483Y-63438D01*
X60357Y-63490D01*
X60261Y-63586D01*
X60242Y-63632D01*
X59853Y-63632D01*
X59853Y-63244D01*
X59994Y-63102D01*
X60037Y-63085D01*
X60133Y-62989D01*
X60185Y-62863D01*
X60185Y-62727D01*
X60133Y-62601D01*
X60037Y-62505D01*
X59911Y-62453D01*
X59775Y-62453D01*
X59649Y-62505D01*
X59553Y-62601D01*
X59535Y-62643D01*
X59517Y-62661D01*
X59517Y-58212D01*
X59517Y-58031D01*
X59517Y-57733D01*
X59448Y-57566D01*
X59320Y-57438D01*
X59154Y-57369D01*
X58973Y-57369D01*
X58806Y-57438D01*
X58678Y-57566D01*
X58609Y-57732D01*
X58609Y-57913D01*
X58609Y-58211D01*
X58678Y-58378D01*
X58806Y-58506D01*
X58972Y-58575D01*
X59153Y-58575D01*
X59320Y-58506D01*
X59448Y-58378D01*
X59517Y-58212D01*
X59517Y-62661D01*
X59397Y-62781D01*
X59397Y-62351D01*
X59397Y-62215D01*
X59345Y-62089D01*
X59292Y-62036D01*
X59292Y-61890D01*
X59292Y-61732D01*
X59274Y-61641D01*
X59223Y-61564D01*
X59220Y-61562D01*
X57727Y-60068D01*
X57650Y-60017D01*
X57559Y-59998D01*
X57554Y-59999D01*
X57092Y-59999D01*
X57077Y-59961D01*
X58105Y-59961D01*
X58110Y-59962D01*
X58110Y-59961D01*
X58201Y-59943D01*
X58278Y-59892D01*
X58536Y-59633D01*
X58611Y-59633D01*
X58737Y-59581D01*
X58833Y-59485D01*
X58885Y-59359D01*
X58885Y-59223D01*
X58833Y-59097D01*
X58737Y-59001D01*
X58611Y-58949D01*
X58517Y-58949D01*
X58517Y-58212D01*
X58517Y-58031D01*
X58517Y-57733D01*
X58448Y-57566D01*
X58320Y-57438D01*
X58154Y-57369D01*
X57973Y-57369D01*
X57806Y-57438D01*
X57678Y-57566D01*
X57609Y-57732D01*
X57609Y-57913D01*
X57609Y-58211D01*
X57678Y-58378D01*
X57806Y-58506D01*
X57972Y-58575D01*
X58153Y-58575D01*
X58320Y-58506D01*
X58448Y-58378D01*
X58517Y-58212D01*
X58517Y-58949D01*
X58475Y-58949D01*
X58349Y-59001D01*
X58253Y-59097D01*
X58201Y-59223D01*
X58201Y-59297D01*
X58011Y-59487D01*
X57608Y-59487D01*
X57608Y-58160D01*
X57608Y-58022D01*
X57608Y-57922D01*
X57608Y-57784D01*
X57547Y-57579D01*
X57413Y-57413D01*
X57225Y-57311D01*
X57197Y-57306D01*
X57113Y-57354D01*
X57113Y-57922D01*
X57608Y-57922D01*
X57608Y-58022D01*
X57113Y-58022D01*
X57113Y-58590D01*
X57197Y-58638D01*
X57225Y-58633D01*
X57413Y-58531D01*
X57547Y-58365D01*
X57608Y-58160D01*
X57608Y-59487D01*
X57013Y-59487D01*
X57013Y-58590D01*
X57013Y-58022D01*
X57013Y-57922D01*
X57013Y-57354D01*
X56929Y-57306D01*
X56901Y-57311D01*
X56713Y-57413D01*
X56579Y-57579D01*
X56518Y-57784D01*
X56518Y-57922D01*
X57013Y-57922D01*
X57013Y-58022D01*
X56518Y-58022D01*
X56518Y-58160D01*
X56579Y-58365D01*
X56713Y-58531D01*
X56901Y-58633D01*
X56929Y-58638D01*
X57013Y-58590D01*
X57013Y-59487D01*
X56673Y-59487D01*
X56672Y-59487D01*
X56582Y-59505D01*
X56505Y-59556D01*
X56503Y-59558D01*
X56013Y-60048D01*
X55962Y-60125D01*
X55943Y-60216D01*
X55944Y-60220D01*
X55944Y-60664D01*
X55943Y-60669D01*
X55962Y-60760D01*
X56013Y-60837D01*
X56377Y-61200D01*
X56377Y-61623D01*
X56324Y-61676D01*
X56272Y-61802D01*
X56272Y-61938D01*
X56324Y-62064D01*
X56420Y-62160D01*
X56546Y-62212D01*
X56682Y-62212D01*
X56808Y-62160D01*
X56904Y-62064D01*
X56956Y-61938D01*
X56956Y-61802D01*
X56904Y-61676D01*
X56851Y-61623D01*
X56851Y-61102D01*
X56833Y-61011D01*
X56782Y-60934D01*
X56779Y-60932D01*
X56672Y-60825D01*
X56729Y-60802D01*
X56782Y-60749D01*
X57145Y-60749D01*
X58359Y-61962D01*
X58359Y-62037D01*
X58411Y-62163D01*
X58507Y-62259D01*
X58633Y-62311D01*
X58713Y-62311D01*
X58713Y-62351D01*
X58765Y-62477D01*
X58861Y-62573D01*
X58987Y-62625D01*
X59123Y-62625D01*
X59249Y-62573D01*
X59345Y-62477D01*
X59397Y-62351D01*
X59397Y-62781D01*
X59298Y-62880D01*
X59228Y-62986D01*
X59203Y-63110D01*
X59203Y-63474D01*
X58338Y-63474D01*
X58295Y-63431D01*
X58295Y-63397D01*
X58243Y-63271D01*
X58189Y-63217D01*
X58225Y-63203D01*
X58321Y-63107D01*
X58373Y-62981D01*
X58373Y-62845D01*
X58321Y-62719D01*
X58225Y-62623D01*
X58125Y-62581D01*
X58147Y-62573D01*
X58243Y-62477D01*
X58295Y-62351D01*
X58295Y-62215D01*
X58243Y-62089D01*
X58147Y-61993D01*
X58021Y-61941D01*
X57885Y-61941D01*
X57759Y-61993D01*
X57706Y-62046D01*
X57559Y-62046D01*
X57468Y-62064D01*
X57391Y-62115D01*
X57389Y-62117D01*
X56927Y-62579D01*
X56904Y-62523D01*
X56808Y-62427D01*
X56682Y-62375D01*
X56599Y-62375D01*
X56547Y-62340D01*
X56456Y-62321D01*
X56451Y-62322D01*
X55828Y-62322D01*
X55828Y-58160D01*
X55828Y-58022D01*
X55828Y-57922D01*
X55828Y-57784D01*
X55767Y-57579D01*
X55633Y-57413D01*
X55445Y-57311D01*
X55417Y-57306D01*
X55333Y-57354D01*
X55333Y-57922D01*
X55828Y-57922D01*
X55828Y-58022D01*
X55333Y-58022D01*
X55333Y-58590D01*
X55417Y-58638D01*
X55445Y-58633D01*
X55633Y-58531D01*
X55767Y-58365D01*
X55828Y-58160D01*
X55828Y-62322D01*
X55759Y-62322D01*
X55706Y-62269D01*
X55580Y-62217D01*
X55444Y-62217D01*
X55318Y-62269D01*
X55233Y-62354D01*
X55233Y-58590D01*
X55233Y-58022D01*
X55233Y-57922D01*
X55233Y-57354D01*
X55149Y-57306D01*
X55121Y-57311D01*
X54933Y-57413D01*
X54799Y-57579D01*
X54738Y-57784D01*
X54738Y-57922D01*
X55233Y-57922D01*
X55233Y-58022D01*
X54738Y-58022D01*
X54738Y-58160D01*
X54799Y-58365D01*
X54933Y-58531D01*
X55121Y-58633D01*
X55149Y-58638D01*
X55233Y-58590D01*
X55233Y-62354D01*
X55222Y-62365D01*
X55170Y-62491D01*
X55170Y-62627D01*
X55222Y-62753D01*
X55264Y-62795D01*
X55222Y-62837D01*
X55170Y-62963D01*
X55170Y-63099D01*
X55222Y-63225D01*
X55284Y-63287D01*
X55222Y-63349D01*
X55170Y-63475D01*
X55170Y-63611D01*
X55222Y-63737D01*
X55284Y-63799D01*
X55222Y-63861D01*
X55170Y-63987D01*
X55170Y-64123D01*
X55222Y-64249D01*
X55318Y-64345D01*
X55366Y-64364D01*
X55327Y-64460D01*
X55327Y-64596D01*
X55379Y-64722D01*
X55475Y-64818D01*
X55601Y-64870D01*
X55682Y-64870D01*
X55682Y-64911D01*
X55734Y-65037D01*
X55830Y-65133D01*
X55956Y-65185D01*
X56092Y-65185D01*
X56218Y-65133D01*
X56314Y-65037D01*
X56366Y-64911D01*
X56366Y-64796D01*
X56672Y-64490D01*
X56889Y-64490D01*
X57125Y-64490D01*
X57125Y-65350D01*
X57124Y-65355D01*
X57143Y-65446D01*
X57194Y-65523D01*
X57624Y-65952D01*
X57626Y-65955D01*
X57703Y-66006D01*
X57793Y-66024D01*
X57793Y-66023D01*
X57794Y-66024D01*
X58736Y-66024D01*
X58741Y-66025D01*
X58741Y-66024D01*
X58832Y-66006D01*
X58909Y-65955D01*
X59299Y-65563D01*
X59301Y-65562D01*
X59302Y-65562D01*
X59353Y-65485D01*
X59358Y-65456D01*
X59424Y-65391D01*
X59476Y-65265D01*
X59476Y-65129D01*
X59424Y-65003D01*
X59328Y-64907D01*
X59202Y-64855D01*
X59066Y-64855D01*
X58940Y-64907D01*
X58898Y-64949D01*
X58816Y-64867D01*
X58730Y-64831D01*
X58713Y-64820D01*
X58692Y-64815D01*
X58690Y-64815D01*
X58687Y-64815D01*
X58622Y-64802D01*
X58556Y-64815D01*
X58554Y-64815D01*
X58551Y-64815D01*
X58531Y-64820D01*
X58513Y-64831D01*
X58428Y-64867D01*
X58387Y-64908D01*
X58387Y-64213D01*
X58386Y-64212D01*
X58387Y-64212D01*
X58369Y-64122D01*
X58318Y-64045D01*
X58315Y-64043D01*
X58278Y-64006D01*
X59352Y-64006D01*
X59404Y-64040D01*
X59464Y-64052D01*
X59498Y-64086D01*
X59584Y-64144D01*
X59686Y-64164D01*
X60433Y-64164D01*
X60535Y-64144D01*
X60567Y-64122D01*
X60619Y-64122D01*
X60745Y-64070D01*
X60841Y-63974D01*
X60893Y-63848D01*
X60893Y-66507D01*
X60478Y-66922D01*
X60404Y-66922D01*
X60278Y-66974D01*
X60182Y-67070D01*
X60130Y-67196D01*
X60130Y-67332D01*
X60182Y-67458D01*
X60278Y-67554D01*
X60404Y-67606D01*
X60540Y-67606D01*
X60666Y-67554D01*
X60762Y-67458D01*
X60814Y-67332D01*
X60814Y-67257D01*
X61401Y-66669D01*
X61420Y-66688D01*
X61546Y-66740D01*
X61682Y-66740D01*
X61808Y-66688D01*
X61904Y-66592D01*
X61956Y-66466D01*
X61956Y-71430D01*
X61920Y-71515D01*
X61865Y-71380D01*
X61803Y-71318D01*
X61865Y-71257D01*
X61917Y-71131D01*
X61917Y-70995D01*
X61865Y-70869D01*
X61769Y-70773D01*
X61643Y-70721D01*
X61507Y-70721D01*
X61381Y-70773D01*
X61285Y-70869D01*
X61276Y-70890D01*
X61275Y-70891D01*
X61269Y-70895D01*
X61267Y-70897D01*
X60899Y-71264D01*
X60893Y-71258D01*
X60733Y-71191D01*
X60560Y-71191D01*
X60400Y-71257D01*
X60278Y-71379D01*
X60220Y-71516D01*
X60164Y-71380D01*
X60042Y-71258D01*
X59971Y-71228D01*
X59971Y-66989D01*
X59971Y-66201D01*
X59943Y-66061D01*
X59864Y-65943D01*
X59746Y-65864D01*
X59606Y-65836D01*
X59466Y-65864D01*
X59348Y-65943D01*
X59269Y-66061D01*
X59241Y-66201D01*
X59241Y-66838D01*
X58935Y-67144D01*
X58856Y-67263D01*
X58828Y-67402D01*
X58856Y-67541D01*
X58935Y-67660D01*
X59054Y-67739D01*
X59193Y-67767D01*
X59332Y-67739D01*
X59451Y-67660D01*
X59864Y-67247D01*
X59943Y-67129D01*
X59943Y-67128D01*
X59971Y-66989D01*
X59971Y-71228D01*
X59882Y-71191D01*
X59709Y-71191D01*
X59549Y-71257D01*
X59427Y-71379D01*
X59369Y-71515D01*
X59314Y-71380D01*
X59192Y-71258D01*
X59032Y-71191D01*
X58859Y-71191D01*
X58699Y-71257D01*
X58577Y-71379D01*
X58519Y-71516D01*
X58463Y-71380D01*
X58341Y-71258D01*
X58181Y-71191D01*
X58008Y-71191D01*
X57848Y-71257D01*
X57726Y-71379D01*
X57668Y-71515D01*
X57613Y-71380D01*
X57491Y-71258D01*
X57331Y-71191D01*
X57158Y-71191D01*
X56998Y-71257D01*
X56876Y-71379D01*
X56818Y-71515D01*
X56763Y-71380D01*
X56641Y-71258D01*
X56481Y-71191D01*
X56308Y-71191D01*
X56287Y-71199D01*
X56287Y-69596D01*
X56287Y-69460D01*
X56235Y-69334D01*
X56139Y-69238D01*
X56013Y-69186D01*
X55877Y-69186D01*
X55751Y-69238D01*
X55698Y-69291D01*
X55436Y-69291D01*
X55432Y-69290D01*
X55341Y-69309D01*
X55264Y-69360D01*
X55145Y-69479D01*
X55145Y-58985D01*
X55145Y-58849D01*
X55093Y-58723D01*
X54997Y-58627D01*
X54871Y-58575D01*
X54735Y-58575D01*
X54609Y-58627D01*
X54556Y-58680D01*
X54368Y-58680D01*
X54355Y-58646D01*
X54307Y-58599D01*
X54250Y-58575D01*
X54373Y-58575D01*
X54540Y-58506D01*
X54668Y-58378D01*
X54737Y-58212D01*
X54737Y-58031D01*
X54737Y-57733D01*
X54668Y-57566D01*
X54540Y-57438D01*
X54374Y-57369D01*
X54193Y-57369D01*
X54026Y-57438D01*
X53898Y-57566D01*
X53829Y-57732D01*
X53829Y-57913D01*
X53829Y-58182D01*
X53737Y-58090D01*
X53737Y-58031D01*
X53737Y-57733D01*
X53668Y-57566D01*
X53540Y-57438D01*
X53374Y-57369D01*
X53193Y-57369D01*
X53026Y-57438D01*
X52898Y-57566D01*
X52829Y-57732D01*
X52829Y-57913D01*
X52829Y-58182D01*
X52751Y-58104D01*
X52751Y-57639D01*
X52726Y-57577D01*
X52678Y-57530D01*
X52617Y-57504D01*
X52550Y-57504D01*
X51950Y-57504D01*
X51888Y-57529D01*
X51841Y-57577D01*
X51815Y-57638D01*
X51815Y-57705D01*
X51815Y-58305D01*
X51840Y-58367D01*
X51888Y-58414D01*
X51949Y-58440D01*
X52016Y-58440D01*
X52415Y-58440D01*
X52548Y-58573D01*
X52054Y-58573D01*
X51992Y-58598D01*
X51945Y-58646D01*
X51930Y-58680D01*
X51901Y-58680D01*
X51848Y-58627D01*
X51722Y-58575D01*
X51586Y-58575D01*
X51460Y-58627D01*
X51364Y-58723D01*
X51312Y-58849D01*
X51312Y-58985D01*
X51364Y-59111D01*
X51460Y-59207D01*
X51586Y-59259D01*
X51722Y-59259D01*
X51848Y-59207D01*
X51901Y-59154D01*
X51931Y-59154D01*
X51944Y-59186D01*
X51992Y-59233D01*
X52053Y-59259D01*
X52120Y-59259D01*
X52670Y-59259D01*
X52732Y-59234D01*
X52755Y-59209D01*
X52780Y-59233D01*
X52841Y-59259D01*
X52908Y-59259D01*
X53157Y-59259D01*
X53221Y-59323D01*
X52842Y-59323D01*
X52780Y-59348D01*
X52756Y-59372D01*
X52732Y-59349D01*
X52671Y-59323D01*
X52604Y-59323D01*
X52054Y-59323D01*
X51992Y-59348D01*
X51945Y-59396D01*
X51919Y-59457D01*
X51919Y-59524D01*
X51919Y-59874D01*
X51944Y-59936D01*
X51992Y-59983D01*
X52053Y-60009D01*
X52120Y-60009D01*
X52125Y-60009D01*
X52126Y-60009D01*
X52143Y-60091D01*
X52194Y-60168D01*
X52293Y-60267D01*
X52293Y-60446D01*
X52309Y-60488D01*
X52250Y-60548D01*
X52212Y-60640D01*
X52211Y-60734D01*
X52273Y-60796D01*
X52518Y-60796D01*
X52568Y-60796D01*
X52668Y-60796D01*
X52718Y-60796D01*
X52963Y-60796D01*
X52971Y-60787D01*
X52990Y-60806D01*
X53156Y-60806D01*
X53217Y-60806D01*
X53295Y-60806D01*
X53328Y-60806D01*
X53356Y-60806D01*
X53494Y-60806D01*
X53522Y-60806D01*
X53555Y-60806D01*
X53633Y-60806D01*
X53694Y-60806D01*
X53860Y-60806D01*
X53922Y-60744D01*
X53921Y-60689D01*
X53883Y-60597D01*
X53813Y-60527D01*
X53722Y-60489D01*
X53712Y-60489D01*
X53767Y-60467D01*
X53814Y-60419D01*
X53840Y-60358D01*
X53840Y-60296D01*
X54105Y-60031D01*
X54119Y-60009D01*
X54245Y-60009D01*
X54307Y-59984D01*
X54354Y-59936D01*
X54380Y-59875D01*
X54380Y-59808D01*
X54380Y-59528D01*
X54422Y-59528D01*
X54422Y-59576D01*
X54474Y-59702D01*
X54570Y-59798D01*
X54696Y-59850D01*
X54832Y-59850D01*
X54958Y-59798D01*
X55054Y-59702D01*
X55106Y-59576D01*
X55106Y-59440D01*
X55054Y-59314D01*
X54961Y-59221D01*
X54997Y-59207D01*
X55093Y-59111D01*
X55145Y-58985D01*
X55145Y-69479D01*
X54494Y-70130D01*
X54420Y-70130D01*
X54294Y-70182D01*
X54198Y-70278D01*
X54146Y-70404D01*
X54146Y-70540D01*
X54198Y-70666D01*
X54294Y-70762D01*
X54420Y-70814D01*
X54556Y-70814D01*
X54682Y-70762D01*
X54778Y-70666D01*
X54830Y-70540D01*
X54830Y-70466D01*
X55531Y-69765D01*
X55698Y-69765D01*
X55751Y-69818D01*
X55877Y-69870D01*
X56013Y-69870D01*
X56139Y-69818D01*
X56235Y-69722D01*
X56287Y-69596D01*
X56287Y-71199D01*
X56148Y-71257D01*
X56026Y-71379D01*
X55968Y-71516D01*
X55912Y-71380D01*
X55790Y-71258D01*
X55630Y-71191D01*
X55457Y-71191D01*
X55297Y-71257D01*
X55175Y-71379D01*
X55163Y-71405D01*
X55159Y-71389D01*
X55029Y-71229D01*
X54848Y-71131D01*
X54824Y-71128D01*
X54743Y-71176D01*
X54743Y-71654D01*
X54743Y-71704D01*
X54743Y-71804D01*
X54743Y-71854D01*
X54743Y-72332D01*
X54824Y-72380D01*
X54848Y-72377D01*
X55029Y-72279D01*
X55159Y-72119D01*
X55163Y-72103D01*
X55174Y-72128D01*
X55296Y-72250D01*
X55456Y-72317D01*
X55629Y-72317D01*
X55789Y-72251D01*
X55911Y-72129D01*
X55968Y-71991D01*
X56025Y-72128D01*
X56147Y-72250D01*
X56307Y-72317D01*
X56480Y-72317D01*
X56640Y-72251D01*
X56762Y-72129D01*
X56819Y-71992D01*
X56875Y-72128D01*
X56997Y-72250D01*
X57157Y-72317D01*
X57330Y-72317D01*
X57490Y-72251D01*
X57612Y-72129D01*
X57669Y-71992D01*
X57725Y-72128D01*
X57847Y-72250D01*
X58007Y-72317D01*
X58180Y-72317D01*
X58340Y-72251D01*
X58462Y-72129D01*
X58519Y-71991D01*
X58576Y-72128D01*
X58698Y-72250D01*
X58858Y-72317D01*
X59031Y-72317D01*
X59191Y-72251D01*
X59313Y-72129D01*
X59370Y-71992D01*
X59426Y-72128D01*
X59548Y-72250D01*
X59708Y-72317D01*
X59881Y-72317D01*
X60041Y-72251D01*
X60163Y-72129D01*
X60220Y-71991D01*
X60277Y-72128D01*
X60399Y-72250D01*
X60559Y-72317D01*
X60732Y-72317D01*
X60428Y-72621D01*
X60411Y-72604D01*
X60285Y-72552D01*
X60149Y-72552D01*
X60023Y-72604D01*
X59927Y-72700D01*
X59875Y-72826D01*
X59875Y-72846D01*
X59845Y-72864D01*
X59845Y-73342D01*
X59845Y-73392D01*
X59845Y-73492D01*
X59845Y-73542D01*
X59845Y-74020D01*
X59926Y-74068D01*
X59950Y-74065D01*
X60131Y-73967D01*
X60261Y-73807D01*
X60265Y-73791D01*
X60276Y-73816D01*
X60398Y-73938D01*
X60558Y-74005D01*
X60731Y-74005D01*
X60891Y-73939D01*
X61013Y-73817D01*
X61070Y-73679D01*
X61127Y-73816D01*
X61249Y-73938D01*
X61409Y-74005D01*
X61582Y-74005D01*
X61742Y-73939D01*
X61864Y-73817D01*
X61921Y-73680D01*
X61977Y-73816D01*
X62099Y-73938D01*
X62259Y-74005D01*
X62432Y-74005D01*
X62592Y-73939D01*
X62714Y-73817D01*
X62771Y-73679D01*
X62828Y-73816D01*
X62950Y-73938D01*
X63110Y-74005D01*
X63283Y-74005D01*
X63443Y-73939D01*
X63565Y-73817D01*
X63622Y-73680D01*
X63678Y-73816D01*
X63800Y-73938D01*
X63960Y-74005D01*
X64133Y-74005D01*
X64293Y-73939D01*
X64415Y-73817D01*
X64482Y-73657D01*
X64482Y-76229D01*
X59745Y-76229D01*
X59745Y-74020D01*
X59745Y-73492D01*
X59745Y-73392D01*
X59745Y-72864D01*
X59664Y-72816D01*
X59640Y-72819D01*
X59459Y-72917D01*
X59370Y-73026D01*
X59281Y-72917D01*
X59100Y-72819D01*
X59076Y-72816D01*
X58995Y-72864D01*
X58995Y-73392D01*
X59270Y-73392D01*
X59470Y-73392D01*
X59745Y-73392D01*
X59745Y-73492D01*
X59470Y-73492D01*
X59270Y-73492D01*
X58995Y-73492D01*
X58995Y-74020D01*
X59076Y-74068D01*
X59100Y-74065D01*
X59281Y-73967D01*
X59370Y-73857D01*
X59459Y-73967D01*
X59640Y-74065D01*
X59664Y-74068D01*
X59745Y-74020D01*
X59745Y-76229D01*
X58895Y-76229D01*
X58895Y-74020D01*
X58895Y-73492D01*
X58895Y-73392D01*
X58895Y-72864D01*
X58814Y-72816D01*
X58790Y-72819D01*
X58609Y-72917D01*
X58519Y-73027D01*
X58430Y-72917D01*
X58249Y-72819D01*
X58225Y-72816D01*
X58144Y-72864D01*
X58144Y-73392D01*
X58420Y-73392D01*
X58619Y-73392D01*
X58895Y-73392D01*
X58895Y-73492D01*
X58619Y-73492D01*
X58420Y-73492D01*
X58144Y-73492D01*
X58144Y-74020D01*
X58225Y-74068D01*
X58249Y-74065D01*
X58430Y-73967D01*
X58519Y-73856D01*
X58609Y-73967D01*
X58790Y-74065D01*
X58814Y-74068D01*
X58895Y-74020D01*
X58895Y-76229D01*
X58044Y-76229D01*
X58044Y-74020D01*
X58044Y-73492D01*
X58044Y-73392D01*
X58044Y-72864D01*
X57963Y-72816D01*
X57939Y-72819D01*
X57758Y-72917D01*
X57669Y-73026D01*
X57580Y-72917D01*
X57399Y-72819D01*
X57375Y-72816D01*
X57294Y-72864D01*
X57294Y-73392D01*
X57569Y-73392D01*
X57769Y-73392D01*
X58044Y-73392D01*
X58044Y-73492D01*
X57769Y-73492D01*
X57569Y-73492D01*
X57294Y-73492D01*
X57294Y-74020D01*
X57375Y-74068D01*
X57399Y-74065D01*
X57580Y-73967D01*
X57669Y-73857D01*
X57758Y-73967D01*
X57939Y-74065D01*
X57963Y-74068D01*
X58044Y-74020D01*
X58044Y-76229D01*
X57194Y-76229D01*
X57194Y-74020D01*
X57194Y-73492D01*
X57194Y-73392D01*
X57194Y-72864D01*
X57113Y-72816D01*
X57089Y-72819D01*
X56908Y-72917D01*
X56819Y-73026D01*
X56730Y-72917D01*
X56549Y-72819D01*
X56525Y-72816D01*
X56444Y-72864D01*
X56444Y-73392D01*
X56719Y-73392D01*
X56919Y-73392D01*
X57194Y-73392D01*
X57194Y-73492D01*
X56919Y-73492D01*
X56719Y-73492D01*
X56444Y-73492D01*
X56444Y-74020D01*
X56525Y-74068D01*
X56549Y-74065D01*
X56730Y-73967D01*
X56819Y-73857D01*
X56908Y-73967D01*
X57089Y-74065D01*
X57113Y-74068D01*
X57194Y-74020D01*
X57194Y-76229D01*
X56344Y-76229D01*
X56344Y-74020D01*
X56344Y-73492D01*
X56344Y-73392D01*
X56344Y-72864D01*
X56263Y-72816D01*
X56239Y-72819D01*
X56058Y-72917D01*
X55968Y-73027D01*
X55879Y-72917D01*
X55698Y-72819D01*
X55674Y-72816D01*
X55593Y-72864D01*
X55593Y-73392D01*
X55869Y-73392D01*
X56068Y-73392D01*
X56344Y-73392D01*
X56344Y-73492D01*
X56068Y-73492D01*
X55869Y-73492D01*
X55593Y-73492D01*
X55593Y-74020D01*
X55674Y-74068D01*
X55698Y-74065D01*
X55879Y-73967D01*
X55968Y-73856D01*
X56058Y-73967D01*
X56239Y-74065D01*
X56263Y-74068D01*
X56344Y-74020D01*
X56344Y-76229D01*
X55493Y-76229D01*
X55493Y-74020D01*
X55493Y-73492D01*
X55493Y-73392D01*
X55493Y-72864D01*
X55412Y-72816D01*
X55388Y-72819D01*
X55207Y-72917D01*
X55118Y-73026D01*
X55029Y-72917D01*
X54848Y-72819D01*
X54824Y-72816D01*
X54743Y-72864D01*
X54743Y-73392D01*
X55018Y-73392D01*
X55218Y-73392D01*
X55493Y-73392D01*
X55493Y-73492D01*
X55218Y-73492D01*
X55018Y-73492D01*
X54743Y-73492D01*
X54743Y-74020D01*
X54824Y-74068D01*
X54848Y-74065D01*
X55029Y-73967D01*
X55118Y-73857D01*
X55207Y-73967D01*
X55388Y-74065D01*
X55412Y-74068D01*
X55493Y-74020D01*
X55493Y-76229D01*
X54643Y-76229D01*
X54643Y-74020D01*
X54643Y-73492D01*
X54643Y-73392D01*
X54643Y-72864D01*
X54643Y-72332D01*
X54643Y-71804D01*
X54643Y-71704D01*
X54643Y-71176D01*
X54562Y-71128D01*
X54538Y-71131D01*
X54357Y-71229D01*
X54227Y-71389D01*
X54168Y-71586D01*
X54168Y-71704D01*
X54643Y-71704D01*
X54643Y-71804D01*
X54168Y-71804D01*
X54168Y-71922D01*
X54227Y-72119D01*
X54357Y-72279D01*
X54538Y-72377D01*
X54562Y-72380D01*
X54643Y-72332D01*
X54643Y-72864D01*
X54562Y-72816D01*
X54538Y-72819D01*
X54357Y-72917D01*
X54227Y-73077D01*
X54168Y-73274D01*
X54168Y-73392D01*
X54643Y-73392D01*
X54643Y-73492D01*
X54168Y-73492D01*
X54168Y-73610D01*
X54227Y-73807D01*
X54357Y-73967D01*
X54538Y-74065D01*
X54562Y-74068D01*
X54643Y-74020D01*
X54643Y-76229D01*
X53922Y-76229D01*
X53922Y-60968D01*
X53860Y-60906D01*
X53633Y-60906D01*
X53633Y-61162D01*
X53694Y-61223D01*
X53722Y-61223D01*
X53813Y-61185D01*
X53883Y-61115D01*
X53921Y-61023D01*
X53922Y-60968D01*
X53922Y-76229D01*
X53584Y-76229D01*
X53584Y-60968D01*
X53555Y-60939D01*
X53555Y-60906D01*
X53522Y-60906D01*
X53328Y-60906D01*
X53295Y-60906D01*
X53295Y-60939D01*
X53266Y-60968D01*
X53267Y-61023D01*
X53295Y-61090D01*
X53295Y-61162D01*
X53356Y-61223D01*
X53384Y-61223D01*
X53425Y-61205D01*
X53466Y-61223D01*
X53494Y-61223D01*
X53555Y-61162D01*
X53555Y-61090D01*
X53583Y-61023D01*
X53584Y-60968D01*
X53584Y-76229D01*
X53217Y-76229D01*
X53217Y-61162D01*
X53217Y-60906D01*
X52990Y-60906D01*
X52981Y-60914D01*
X52963Y-60896D01*
X52668Y-60896D01*
X52668Y-61191D01*
X52729Y-61252D01*
X52825Y-61252D01*
X52916Y-61214D01*
X52986Y-61144D01*
X52988Y-61136D01*
X53037Y-61185D01*
X53128Y-61223D01*
X53156Y-61223D01*
X53217Y-61162D01*
X53217Y-76229D01*
X52568Y-76229D01*
X52568Y-61191D01*
X52568Y-60896D01*
X52273Y-60896D01*
X52211Y-60958D01*
X52212Y-61052D01*
X52250Y-61144D01*
X52320Y-61214D01*
X52411Y-61252D01*
X52507Y-61252D01*
X52568Y-61191D01*
X52568Y-76229D01*
X50957Y-76229D01*
X50957Y-72757D01*
X50957Y-72440D01*
X50836Y-72147D01*
X50612Y-71922D01*
X50318Y-71800D01*
X50001Y-71800D01*
X49708Y-71921D01*
X49483Y-72145D01*
X49361Y-72439D01*
X49361Y-72756D01*
X49482Y-73049D01*
X49706Y-73274D01*
X50000Y-73396D01*
X50317Y-73396D01*
X50610Y-73275D01*
X50835Y-73051D01*
X50957Y-72757D01*
X50957Y-76229D01*
X48198Y-76229D01*
X48179Y-57274D01*
X62959Y-57274D01*
X62959Y-57792D01*
X63021Y-57854D01*
X63512Y-57854D01*
X63562Y-57854D01*
X63662Y-57854D01*
X63712Y-57854D01*
X64203Y-57854D01*
X64265Y-57792D01*
X64264Y-57274D01*
X66837Y-57274D01*
X66837Y-57792D01*
X66899Y-57854D01*
X67390Y-57854D01*
X67440Y-57854D01*
X67540Y-57854D01*
X67590Y-57854D01*
X68081Y-57854D01*
X68143Y-57792D01*
X68142Y-57274D01*
X70698Y-57274D01*
X70718Y-76230D01*
X70718Y-76230D01*
G37*
G54D29*
X70718Y-76230D02*
X69918Y-76229D01*
X69918Y-67799D01*
X69918Y-67531D01*
X69913Y-67503D01*
X69855Y-67396D01*
X69855Y-66756D01*
X69855Y-66575D01*
X69855Y-65756D01*
X69855Y-65575D01*
X69786Y-65408D01*
X69720Y-65342D01*
X69720Y-64999D01*
X69720Y-64932D01*
X69720Y-64332D01*
X69695Y-64270D01*
X69647Y-64223D01*
X69586Y-64197D01*
X69519Y-64197D01*
X68919Y-64197D01*
X68857Y-64222D01*
X68810Y-64270D01*
X68784Y-64331D01*
X68784Y-64398D01*
X68784Y-64998D01*
X68809Y-65060D01*
X68857Y-65107D01*
X68918Y-65133D01*
X68985Y-65133D01*
X69585Y-65133D01*
X69647Y-65108D01*
X69694Y-65060D01*
X69720Y-64999D01*
X69720Y-65342D01*
X69658Y-65280D01*
X69492Y-65211D01*
X69311Y-65211D01*
X69013Y-65211D01*
X68846Y-65280D01*
X68718Y-65408D01*
X68649Y-65574D01*
X68649Y-65755D01*
X68718Y-65922D01*
X68846Y-66050D01*
X69012Y-66119D01*
X69193Y-66119D01*
X69491Y-66119D01*
X69658Y-66050D01*
X69786Y-65922D01*
X69855Y-65756D01*
X69855Y-66575D01*
X69786Y-66408D01*
X69658Y-66280D01*
X69492Y-66211D01*
X69311Y-66211D01*
X69013Y-66211D01*
X68846Y-66280D01*
X68718Y-66408D01*
X68649Y-66574D01*
X68649Y-66755D01*
X68718Y-66922D01*
X68846Y-67050D01*
X69012Y-67119D01*
X69193Y-67119D01*
X69491Y-67119D01*
X69658Y-67050D01*
X69786Y-66922D01*
X69855Y-66756D01*
X69855Y-67396D01*
X69811Y-67315D01*
X69645Y-67181D01*
X69440Y-67120D01*
X69302Y-67120D01*
X69302Y-67615D01*
X69870Y-67615D01*
X69918Y-67531D01*
X69918Y-67799D01*
X69870Y-67715D01*
X69302Y-67715D01*
X69302Y-68210D01*
X69440Y-68210D01*
X69645Y-68149D01*
X69811Y-68015D01*
X69913Y-67827D01*
X69918Y-67799D01*
X69918Y-76229D01*
X69379Y-76229D01*
X69379Y-72757D01*
X69379Y-72440D01*
X69258Y-72147D01*
X69202Y-72090D01*
X69202Y-68210D01*
X69202Y-67715D01*
X69202Y-67615D01*
X69202Y-67120D01*
X69064Y-67120D01*
X68859Y-67181D01*
X68693Y-67315D01*
X68591Y-67503D01*
X68586Y-67531D01*
X68634Y-67615D01*
X69202Y-67615D01*
X69202Y-67715D01*
X68634Y-67715D01*
X68586Y-67799D01*
X68591Y-67827D01*
X68693Y-68015D01*
X68859Y-68149D01*
X69064Y-68210D01*
X69202Y-68210D01*
X69202Y-72090D01*
X69034Y-71922D01*
X68740Y-71800D01*
X68423Y-71800D01*
X68143Y-71915D01*
X68143Y-59689D01*
X68143Y-59465D01*
X68142Y-58839D01*
X68104Y-58747D01*
X68097Y-58740D01*
X68104Y-58734D01*
X68142Y-58642D01*
X68143Y-58016D01*
X68081Y-57954D01*
X67540Y-57954D01*
X67540Y-58700D01*
X67540Y-58781D01*
X67540Y-59527D01*
X68081Y-59527D01*
X68143Y-59465D01*
X68143Y-59689D01*
X68081Y-59627D01*
X67540Y-59627D01*
X67540Y-60454D01*
X67602Y-60516D01*
X67844Y-60515D01*
X67943Y-60515D01*
X68034Y-60477D01*
X68104Y-60407D01*
X68142Y-60315D01*
X68143Y-59689D01*
X68143Y-71915D01*
X68130Y-71921D01*
X67905Y-72145D01*
X67783Y-72439D01*
X67783Y-72756D01*
X67904Y-73049D01*
X68128Y-73274D01*
X68422Y-73396D01*
X68739Y-73396D01*
X69032Y-73275D01*
X69257Y-73051D01*
X69379Y-72757D01*
X69379Y-76229D01*
X67440Y-76229D01*
X67440Y-60454D01*
X67440Y-59627D01*
X67440Y-59527D01*
X67440Y-58781D01*
X67440Y-58700D01*
X67440Y-57954D01*
X66899Y-57954D01*
X66837Y-58016D01*
X66838Y-58642D01*
X66876Y-58734D01*
X66882Y-58740D01*
X66876Y-58747D01*
X66838Y-58839D01*
X66837Y-59465D01*
X66899Y-59527D01*
X67440Y-59527D01*
X67440Y-59627D01*
X66899Y-59627D01*
X66837Y-59689D01*
X66838Y-60315D01*
X66876Y-60407D01*
X66946Y-60477D01*
X67037Y-60515D01*
X67136Y-60515D01*
X67378Y-60516D01*
X67440Y-60454D01*
X67440Y-76229D01*
X66779Y-76229D01*
X66779Y-61426D01*
X66779Y-61290D01*
X66727Y-61164D01*
X66674Y-61111D01*
X66674Y-60791D01*
X66674Y-60787D01*
X66675Y-60787D01*
X66656Y-60696D01*
X66605Y-60619D01*
X66418Y-60432D01*
X66418Y-60108D01*
X66421Y-60105D01*
X66447Y-60044D01*
X66447Y-59977D01*
X66447Y-59091D01*
X66422Y-59029D01*
X66374Y-58982D01*
X66313Y-58956D01*
X66246Y-58956D01*
X66103Y-58956D01*
X66103Y-58948D01*
X66156Y-58895D01*
X66208Y-58769D01*
X66208Y-58712D01*
X66222Y-58726D01*
X66348Y-58779D01*
X66485Y-58779D01*
X66611Y-58727D01*
X66708Y-58630D01*
X66761Y-58504D01*
X66761Y-58367D01*
X66709Y-58241D01*
X66612Y-58144D01*
X66486Y-58091D01*
X66349Y-58091D01*
X66223Y-58143D01*
X66126Y-58240D01*
X66073Y-58366D01*
X66073Y-58424D01*
X66060Y-58411D01*
X65934Y-58359D01*
X65798Y-58359D01*
X65672Y-58411D01*
X65576Y-58507D01*
X65524Y-58633D01*
X65524Y-58769D01*
X65576Y-58895D01*
X65629Y-58948D01*
X65629Y-58956D01*
X65616Y-58956D01*
X65518Y-58956D01*
X65475Y-58913D01*
X65384Y-58875D01*
X65346Y-58875D01*
X65285Y-58936D01*
X65285Y-59090D01*
X65285Y-59157D01*
X65285Y-59517D01*
X65285Y-59617D01*
X65285Y-60043D01*
X65285Y-60198D01*
X65314Y-60227D01*
X65314Y-60259D01*
X65314Y-60349D01*
X65313Y-60354D01*
X65332Y-60445D01*
X65383Y-60522D01*
X65747Y-60885D01*
X65747Y-61485D01*
X65694Y-61538D01*
X65642Y-61664D01*
X65642Y-61800D01*
X65694Y-61926D01*
X65790Y-62022D01*
X65916Y-62074D01*
X66052Y-62074D01*
X66178Y-62022D01*
X66274Y-61926D01*
X66326Y-61800D01*
X66326Y-61682D01*
X66369Y-61700D01*
X66505Y-61700D01*
X66631Y-61648D01*
X66727Y-61552D01*
X66779Y-61426D01*
X66779Y-76229D01*
X65269Y-76229D01*
X65269Y-59679D01*
X65269Y-59455D01*
X65268Y-59075D01*
X65230Y-58983D01*
X65187Y-58940D01*
X65187Y-58936D01*
X65126Y-58875D01*
X65088Y-58875D01*
X65078Y-58878D01*
X65069Y-58875D01*
X65031Y-58875D01*
X65029Y-58877D01*
X65029Y-58504D01*
X65029Y-58367D01*
X64977Y-58241D01*
X64880Y-58144D01*
X64754Y-58091D01*
X64617Y-58091D01*
X64491Y-58143D01*
X64394Y-58240D01*
X64341Y-58366D01*
X64341Y-58503D01*
X64393Y-58629D01*
X64490Y-58726D01*
X64616Y-58779D01*
X64753Y-58779D01*
X64879Y-58727D01*
X64976Y-58630D01*
X65029Y-58504D01*
X65029Y-58877D01*
X64970Y-58936D01*
X64970Y-58940D01*
X64927Y-58983D01*
X64889Y-59075D01*
X64888Y-59455D01*
X64950Y-59517D01*
X64970Y-59517D01*
X65187Y-59517D01*
X65207Y-59517D01*
X65269Y-59455D01*
X65269Y-59679D01*
X65207Y-59617D01*
X65187Y-59617D01*
X64970Y-59617D01*
X64950Y-59617D01*
X64888Y-59679D01*
X64889Y-60059D01*
X64927Y-60151D01*
X64970Y-60194D01*
X64970Y-60198D01*
X65031Y-60259D01*
X65069Y-60259D01*
X65078Y-60255D01*
X65088Y-60259D01*
X65126Y-60259D01*
X65187Y-60198D01*
X65187Y-60194D01*
X65230Y-60151D01*
X65268Y-60059D01*
X65269Y-59679D01*
X65269Y-76229D01*
X64872Y-76229D01*
X64872Y-60198D01*
X64872Y-59617D01*
X64872Y-59517D01*
X64872Y-58936D01*
X64811Y-58875D01*
X64773Y-58875D01*
X64682Y-58913D01*
X64612Y-58983D01*
X64574Y-59075D01*
X64573Y-59455D01*
X64635Y-59517D01*
X64872Y-59517D01*
X64872Y-59617D01*
X64635Y-59617D01*
X64573Y-59679D01*
X64574Y-60059D01*
X64612Y-60151D01*
X64682Y-60221D01*
X64773Y-60259D01*
X64811Y-60259D01*
X64872Y-60198D01*
X64872Y-76229D01*
X64482Y-76229D01*
X64482Y-73657D01*
X64482Y-73484D01*
X64482Y-73228D01*
X64416Y-73068D01*
X64294Y-72946D01*
X64134Y-72879D01*
X63961Y-72879D01*
X63801Y-72945D01*
X63679Y-73067D01*
X63621Y-73203D01*
X63566Y-73068D01*
X63444Y-72946D01*
X63284Y-72879D01*
X63111Y-72879D01*
X62951Y-72945D01*
X62829Y-73067D01*
X62771Y-73204D01*
X62715Y-73068D01*
X62593Y-72946D01*
X62433Y-72879D01*
X62260Y-72879D01*
X62100Y-72945D01*
X61978Y-73067D01*
X61920Y-73203D01*
X61865Y-73068D01*
X61743Y-72946D01*
X61583Y-72879D01*
X61410Y-72879D01*
X61250Y-72945D01*
X61128Y-73067D01*
X61070Y-73204D01*
X61014Y-73068D01*
X60892Y-72946D01*
X60810Y-72911D01*
X61228Y-72492D01*
X61230Y-72491D01*
X61231Y-72491D01*
X61282Y-72414D01*
X61300Y-72323D01*
X61300Y-72271D01*
X61409Y-72317D01*
X61582Y-72317D01*
X61742Y-72251D01*
X61864Y-72129D01*
X61921Y-71992D01*
X61977Y-72128D01*
X62099Y-72250D01*
X62259Y-72317D01*
X62432Y-72317D01*
X62592Y-72251D01*
X62714Y-72129D01*
X62771Y-71991D01*
X62828Y-72128D01*
X62950Y-72250D01*
X63110Y-72317D01*
X63283Y-72317D01*
X63443Y-72251D01*
X63565Y-72129D01*
X63622Y-71992D01*
X63678Y-72128D01*
X63800Y-72250D01*
X63960Y-72317D01*
X64133Y-72317D01*
X64293Y-72251D01*
X64415Y-72129D01*
X64482Y-71969D01*
X64482Y-71796D01*
X64482Y-71540D01*
X64416Y-71380D01*
X64294Y-71258D01*
X64265Y-71245D01*
X64265Y-59689D01*
X64265Y-59465D01*
X64264Y-58839D01*
X64226Y-58747D01*
X64219Y-58740D01*
X64226Y-58734D01*
X64264Y-58642D01*
X64265Y-58016D01*
X64203Y-57954D01*
X63662Y-57954D01*
X63662Y-58700D01*
X63662Y-58781D01*
X63662Y-59527D01*
X64203Y-59527D01*
X64265Y-59465D01*
X64265Y-59689D01*
X64203Y-59627D01*
X63662Y-59627D01*
X63662Y-60454D01*
X63724Y-60516D01*
X63966Y-60515D01*
X64065Y-60515D01*
X64156Y-60477D01*
X64226Y-60407D01*
X64264Y-60315D01*
X64265Y-59689D01*
X64265Y-71245D01*
X64134Y-71191D01*
X63961Y-71191D01*
X63826Y-71246D01*
X63826Y-63159D01*
X63826Y-63023D01*
X63774Y-62897D01*
X63678Y-62801D01*
X63562Y-62753D01*
X63562Y-60454D01*
X63562Y-59627D01*
X63562Y-59527D01*
X63562Y-58781D01*
X63562Y-58700D01*
X63562Y-57954D01*
X63021Y-57954D01*
X62959Y-58016D01*
X62960Y-58642D01*
X62998Y-58734D01*
X63004Y-58740D01*
X62998Y-58747D01*
X62960Y-58839D01*
X62959Y-59465D01*
X63021Y-59527D01*
X63562Y-59527D01*
X63562Y-59627D01*
X63021Y-59627D01*
X62959Y-59689D01*
X62960Y-60315D01*
X62998Y-60407D01*
X63068Y-60477D01*
X63159Y-60515D01*
X63258Y-60515D01*
X63500Y-60516D01*
X63562Y-60454D01*
X63562Y-62753D01*
X63552Y-62749D01*
X63477Y-62749D01*
X62087Y-61358D01*
X62087Y-60424D01*
X62140Y-60371D01*
X62192Y-60245D01*
X62192Y-60109D01*
X62140Y-59983D01*
X62044Y-59887D01*
X61918Y-59835D01*
X61782Y-59835D01*
X61656Y-59887D01*
X61560Y-59983D01*
X61531Y-60053D01*
X61531Y-58306D01*
X61531Y-58239D01*
X61531Y-57639D01*
X61506Y-57577D01*
X61458Y-57530D01*
X61397Y-57504D01*
X61330Y-57504D01*
X60730Y-57504D01*
X60668Y-57529D01*
X60621Y-57577D01*
X60595Y-57638D01*
X60595Y-57705D01*
X60595Y-58305D01*
X60620Y-58367D01*
X60668Y-58414D01*
X60729Y-58440D01*
X60796Y-58440D01*
X61396Y-58440D01*
X61458Y-58415D01*
X61505Y-58367D01*
X61531Y-58306D01*
X61531Y-60053D01*
X61508Y-60109D01*
X61508Y-60245D01*
X61560Y-60371D01*
X61613Y-60424D01*
X61613Y-61452D01*
X61612Y-61457D01*
X61631Y-61548D01*
X61682Y-61625D01*
X63142Y-63084D01*
X63142Y-63159D01*
X63194Y-63285D01*
X63290Y-63381D01*
X63416Y-63433D01*
X63552Y-63433D01*
X63678Y-63381D01*
X63774Y-63285D01*
X63826Y-63159D01*
X63826Y-71246D01*
X63801Y-71257D01*
X63679Y-71379D01*
X63621Y-71515D01*
X63566Y-71380D01*
X63444Y-71258D01*
X63284Y-71191D01*
X63111Y-71191D01*
X62951Y-71257D01*
X62829Y-71379D01*
X62771Y-71516D01*
X62715Y-71380D01*
X62593Y-71258D01*
X62433Y-71191D01*
X62260Y-71191D01*
X62100Y-71257D01*
X61978Y-71379D01*
X61956Y-71430D01*
X61956Y-66466D01*
X61956Y-66330D01*
X61904Y-66204D01*
X61808Y-66108D01*
X61682Y-66056D01*
X61546Y-66056D01*
X61420Y-66108D01*
X61367Y-66161D01*
X61338Y-66161D01*
X61337Y-66161D01*
X61247Y-66179D01*
X61170Y-66230D01*
X61168Y-66232D01*
X60893Y-66507D01*
X60893Y-63848D01*
X60893Y-63712D01*
X60841Y-63586D01*
X60745Y-63490D01*
X60619Y-63438D01*
X60517Y-63438D01*
X60517Y-58212D01*
X60517Y-58031D01*
X60517Y-57733D01*
X60448Y-57566D01*
X60320Y-57438D01*
X60154Y-57369D01*
X59973Y-57369D01*
X59806Y-57438D01*
X59678Y-57566D01*
X59609Y-57732D01*
X59609Y-57913D01*
X59609Y-58211D01*
X59678Y-58378D01*
X59806Y-58506D01*
X59972Y-58575D01*
X60153Y-58575D01*
X60320Y-58506D01*
X60448Y-58378D01*
X60517Y-58212D01*
X60517Y-63438D01*
X60483Y-63438D01*
X60357Y-63490D01*
X60261Y-63586D01*
X60242Y-63632D01*
X59853Y-63632D01*
X59853Y-63244D01*
X59994Y-63102D01*
X60037Y-63085D01*
X60133Y-62989D01*
X60185Y-62863D01*
X60185Y-62727D01*
X60133Y-62601D01*
X60037Y-62505D01*
X59911Y-62453D01*
X59775Y-62453D01*
X59649Y-62505D01*
X59553Y-62601D01*
X59535Y-62643D01*
X59517Y-62661D01*
X59517Y-58212D01*
X59517Y-58031D01*
X59517Y-57733D01*
X59448Y-57566D01*
X59320Y-57438D01*
X59154Y-57369D01*
X58973Y-57369D01*
X58806Y-57438D01*
X58678Y-57566D01*
X58609Y-57732D01*
X58609Y-57913D01*
X58609Y-58211D01*
X58678Y-58378D01*
X58806Y-58506D01*
X58972Y-58575D01*
X59153Y-58575D01*
X59320Y-58506D01*
X59448Y-58378D01*
X59517Y-58212D01*
X59517Y-62661D01*
X59397Y-62781D01*
X59397Y-62351D01*
X59397Y-62215D01*
X59345Y-62089D01*
X59292Y-62036D01*
X59292Y-61890D01*
X59292Y-61732D01*
X59274Y-61641D01*
X59223Y-61564D01*
X59220Y-61562D01*
X57727Y-60068D01*
X57650Y-60017D01*
X57559Y-59998D01*
X57554Y-59999D01*
X57092Y-59999D01*
X57077Y-59961D01*
X58105Y-59961D01*
X58110Y-59962D01*
X58110Y-59961D01*
X58201Y-59943D01*
X58278Y-59892D01*
X58536Y-59633D01*
X58611Y-59633D01*
X58737Y-59581D01*
X58833Y-59485D01*
X58885Y-59359D01*
X58885Y-59223D01*
X58833Y-59097D01*
X58737Y-59001D01*
X58611Y-58949D01*
X58517Y-58949D01*
X58517Y-58212D01*
X58517Y-58031D01*
X58517Y-57733D01*
X58448Y-57566D01*
X58320Y-57438D01*
X58154Y-57369D01*
X57973Y-57369D01*
X57806Y-57438D01*
X57678Y-57566D01*
X57609Y-57732D01*
X57609Y-57913D01*
X57609Y-58211D01*
X57678Y-58378D01*
X57806Y-58506D01*
X57972Y-58575D01*
X58153Y-58575D01*
X58320Y-58506D01*
X58448Y-58378D01*
X58517Y-58212D01*
X58517Y-58949D01*
X58475Y-58949D01*
X58349Y-59001D01*
X58253Y-59097D01*
X58201Y-59223D01*
X58201Y-59297D01*
X58011Y-59487D01*
X57608Y-59487D01*
X57608Y-58160D01*
X57608Y-58022D01*
X57608Y-57922D01*
X57608Y-57784D01*
X57547Y-57579D01*
X57413Y-57413D01*
X57225Y-57311D01*
X57197Y-57306D01*
X57113Y-57354D01*
X57113Y-57922D01*
X57608Y-57922D01*
X57608Y-58022D01*
X57113Y-58022D01*
X57113Y-58590D01*
X57197Y-58638D01*
X57225Y-58633D01*
X57413Y-58531D01*
X57547Y-58365D01*
X57608Y-58160D01*
X57608Y-59487D01*
X57013Y-59487D01*
X57013Y-58590D01*
X57013Y-58022D01*
X57013Y-57922D01*
X57013Y-57354D01*
X56929Y-57306D01*
X56901Y-57311D01*
X56713Y-57413D01*
X56579Y-57579D01*
X56518Y-57784D01*
X56518Y-57922D01*
X57013Y-57922D01*
X57013Y-58022D01*
X56518Y-58022D01*
X56518Y-58160D01*
X56579Y-58365D01*
X56713Y-58531D01*
X56901Y-58633D01*
X56929Y-58638D01*
X57013Y-58590D01*
X57013Y-59487D01*
X56673Y-59487D01*
X56672Y-59487D01*
X56582Y-59505D01*
X56505Y-59556D01*
X56503Y-59558D01*
X56013Y-60048D01*
X55962Y-60125D01*
X55943Y-60216D01*
X55944Y-60220D01*
X55944Y-60664D01*
X55943Y-60669D01*
X55962Y-60760D01*
X56013Y-60837D01*
X56377Y-61200D01*
X56377Y-61623D01*
X56324Y-61676D01*
X56272Y-61802D01*
X56272Y-61938D01*
X56324Y-62064D01*
X56420Y-62160D01*
X56546Y-62212D01*
X56682Y-62212D01*
X56808Y-62160D01*
X56904Y-62064D01*
X56956Y-61938D01*
X56956Y-61802D01*
X56904Y-61676D01*
X56851Y-61623D01*
X56851Y-61102D01*
X56833Y-61011D01*
X56782Y-60934D01*
X56779Y-60932D01*
X56672Y-60825D01*
X56729Y-60802D01*
X56782Y-60749D01*
X57145Y-60749D01*
X58359Y-61962D01*
X58359Y-62037D01*
X58411Y-62163D01*
X58507Y-62259D01*
X58633Y-62311D01*
X58713Y-62311D01*
X58713Y-62351D01*
X58765Y-62477D01*
X58861Y-62573D01*
X58987Y-62625D01*
X59123Y-62625D01*
X59249Y-62573D01*
X59345Y-62477D01*
X59397Y-62351D01*
X59397Y-62781D01*
X59298Y-62880D01*
X59228Y-62986D01*
X59203Y-63110D01*
X59203Y-63474D01*
X58338Y-63474D01*
X58295Y-63431D01*
X58295Y-63397D01*
X58243Y-63271D01*
X58189Y-63217D01*
X58225Y-63203D01*
X58321Y-63107D01*
X58373Y-62981D01*
X58373Y-62845D01*
X58321Y-62719D01*
X58225Y-62623D01*
X58125Y-62581D01*
X58147Y-62573D01*
X58243Y-62477D01*
X58295Y-62351D01*
X58295Y-62215D01*
X58243Y-62089D01*
X58147Y-61993D01*
X58021Y-61941D01*
X57885Y-61941D01*
X57759Y-61993D01*
X57706Y-62046D01*
X57559Y-62046D01*
X57468Y-62064D01*
X57391Y-62115D01*
X57389Y-62117D01*
X56927Y-62579D01*
X56904Y-62523D01*
X56808Y-62427D01*
X56682Y-62375D01*
X56599Y-62375D01*
X56547Y-62340D01*
X56456Y-62321D01*
X56451Y-62322D01*
X55828Y-62322D01*
X55828Y-58160D01*
X55828Y-58022D01*
X55828Y-57922D01*
X55828Y-57784D01*
X55767Y-57579D01*
X55633Y-57413D01*
X55445Y-57311D01*
X55417Y-57306D01*
X55333Y-57354D01*
X55333Y-57922D01*
X55828Y-57922D01*
X55828Y-58022D01*
X55333Y-58022D01*
X55333Y-58590D01*
X55417Y-58638D01*
X55445Y-58633D01*
X55633Y-58531D01*
X55767Y-58365D01*
X55828Y-58160D01*
X55828Y-62322D01*
X55759Y-62322D01*
X55706Y-62269D01*
X55580Y-62217D01*
X55444Y-62217D01*
X55318Y-62269D01*
X55233Y-62354D01*
X55233Y-58590D01*
X55233Y-58022D01*
X55233Y-57922D01*
X55233Y-57354D01*
X55149Y-57306D01*
X55121Y-57311D01*
X54933Y-57413D01*
X54799Y-57579D01*
X54738Y-57784D01*
X54738Y-57922D01*
X55233Y-57922D01*
X55233Y-58022D01*
X54738Y-58022D01*
X54738Y-58160D01*
X54799Y-58365D01*
X54933Y-58531D01*
X55121Y-58633D01*
X55149Y-58638D01*
X55233Y-58590D01*
X55233Y-62354D01*
X55222Y-62365D01*
X55170Y-62491D01*
X55170Y-62627D01*
X55222Y-62753D01*
X55264Y-62795D01*
X55222Y-62837D01*
X55170Y-62963D01*
X55170Y-63099D01*
X55222Y-63225D01*
X55284Y-63287D01*
X55222Y-63349D01*
X55170Y-63475D01*
X55170Y-63611D01*
X55222Y-63737D01*
X55284Y-63799D01*
X55222Y-63861D01*
X55170Y-63987D01*
X55170Y-64123D01*
X55222Y-64249D01*
X55318Y-64345D01*
X55366Y-64364D01*
X55327Y-64460D01*
X55327Y-64596D01*
X55379Y-64722D01*
X55475Y-64818D01*
X55601Y-64870D01*
X55682Y-64870D01*
X55682Y-64911D01*
X55734Y-65037D01*
X55830Y-65133D01*
X55956Y-65185D01*
X56092Y-65185D01*
X56218Y-65133D01*
X56314Y-65037D01*
X56366Y-64911D01*
X56366Y-64796D01*
X56672Y-64490D01*
X56889Y-64490D01*
X57125Y-64490D01*
X57125Y-65350D01*
X57124Y-65355D01*
X57143Y-65446D01*
X57194Y-65523D01*
X57624Y-65952D01*
X57626Y-65955D01*
X57703Y-66006D01*
X57793Y-66024D01*
X57793Y-66023D01*
X57794Y-66024D01*
X58736Y-66024D01*
X58741Y-66025D01*
X58741Y-66024D01*
X58832Y-66006D01*
X58909Y-65955D01*
X59299Y-65563D01*
X59301Y-65562D01*
X59302Y-65562D01*
X59353Y-65485D01*
X59358Y-65456D01*
X59424Y-65391D01*
X59476Y-65265D01*
X59476Y-65129D01*
X59424Y-65003D01*
X59328Y-64907D01*
X59202Y-64855D01*
X59066Y-64855D01*
X58940Y-64907D01*
X58898Y-64949D01*
X58816Y-64867D01*
X58730Y-64831D01*
X58713Y-64820D01*
X58692Y-64815D01*
X58690Y-64815D01*
X58687Y-64815D01*
X58622Y-64802D01*
X58556Y-64815D01*
X58554Y-64815D01*
X58551Y-64815D01*
X58531Y-64820D01*
X58513Y-64831D01*
X58428Y-64867D01*
X58387Y-64908D01*
X58387Y-64213D01*
X58386Y-64212D01*
X58387Y-64212D01*
X58369Y-64122D01*
X58318Y-64045D01*
X58315Y-64043D01*
X58278Y-64006D01*
X59352Y-64006D01*
X59404Y-64040D01*
X59464Y-64052D01*
X59498Y-64086D01*
X59584Y-64144D01*
X59686Y-64164D01*
X60433Y-64164D01*
X60535Y-64144D01*
X60567Y-64122D01*
X60619Y-64122D01*
X60745Y-64070D01*
X60841Y-63974D01*
X60893Y-63848D01*
X60893Y-66507D01*
X60478Y-66922D01*
X60404Y-66922D01*
X60278Y-66974D01*
X60182Y-67070D01*
X60130Y-67196D01*
X60130Y-67332D01*
X60182Y-67458D01*
X60278Y-67554D01*
X60404Y-67606D01*
X60540Y-67606D01*
X60666Y-67554D01*
X60762Y-67458D01*
X60814Y-67332D01*
X60814Y-67257D01*
X61401Y-66669D01*
X61420Y-66688D01*
X61546Y-66740D01*
X61682Y-66740D01*
X61808Y-66688D01*
X61904Y-66592D01*
X61956Y-66466D01*
X61956Y-71430D01*
X61920Y-71515D01*
X61865Y-71380D01*
X61803Y-71318D01*
X61865Y-71257D01*
X61917Y-71131D01*
X61917Y-70995D01*
X61865Y-70869D01*
X61769Y-70773D01*
X61643Y-70721D01*
X61507Y-70721D01*
X61381Y-70773D01*
X61285Y-70869D01*
X61276Y-70890D01*
X61275Y-70891D01*
X61269Y-70895D01*
X61267Y-70897D01*
X60899Y-71264D01*
X60893Y-71258D01*
X60733Y-71191D01*
X60560Y-71191D01*
X60400Y-71257D01*
X60278Y-71379D01*
X60220Y-71516D01*
X60164Y-71380D01*
X60042Y-71258D01*
X59971Y-71228D01*
X59971Y-66989D01*
X59971Y-66201D01*
X59943Y-66061D01*
X59864Y-65943D01*
X59746Y-65864D01*
X59606Y-65836D01*
X59466Y-65864D01*
X59348Y-65943D01*
X59269Y-66061D01*
X59241Y-66201D01*
X59241Y-66838D01*
X58935Y-67144D01*
X58856Y-67263D01*
X58828Y-67402D01*
X58856Y-67541D01*
X58935Y-67660D01*
X59054Y-67739D01*
X59193Y-67767D01*
X59332Y-67739D01*
X59451Y-67660D01*
X59864Y-67247D01*
X59943Y-67129D01*
X59943Y-67128D01*
X59971Y-66989D01*
X59971Y-71228D01*
X59882Y-71191D01*
X59709Y-71191D01*
X59549Y-71257D01*
X59427Y-71379D01*
X59369Y-71515D01*
X59314Y-71380D01*
X59192Y-71258D01*
X59032Y-71191D01*
X58859Y-71191D01*
X58699Y-71257D01*
X58577Y-71379D01*
X58519Y-71516D01*
X58463Y-71380D01*
X58341Y-71258D01*
X58181Y-71191D01*
X58008Y-71191D01*
X57848Y-71257D01*
X57726Y-71379D01*
X57668Y-71515D01*
X57613Y-71380D01*
X57491Y-71258D01*
X57331Y-71191D01*
X57158Y-71191D01*
X56998Y-71257D01*
X56876Y-71379D01*
X56818Y-71515D01*
X56763Y-71380D01*
X56641Y-71258D01*
X56481Y-71191D01*
X56308Y-71191D01*
X56287Y-71199D01*
X56287Y-69596D01*
X56287Y-69460D01*
X56235Y-69334D01*
X56139Y-69238D01*
X56013Y-69186D01*
X55877Y-69186D01*
X55751Y-69238D01*
X55698Y-69291D01*
X55436Y-69291D01*
X55432Y-69290D01*
X55341Y-69309D01*
X55264Y-69360D01*
X55145Y-69479D01*
X55145Y-58985D01*
X55145Y-58849D01*
X55093Y-58723D01*
X54997Y-58627D01*
X54871Y-58575D01*
X54735Y-58575D01*
X54609Y-58627D01*
X54556Y-58680D01*
X54368Y-58680D01*
X54355Y-58646D01*
X54307Y-58599D01*
X54250Y-58575D01*
X54373Y-58575D01*
X54540Y-58506D01*
X54668Y-58378D01*
X54737Y-58212D01*
X54737Y-58031D01*
X54737Y-57733D01*
X54668Y-57566D01*
X54540Y-57438D01*
X54374Y-57369D01*
X54193Y-57369D01*
X54026Y-57438D01*
X53898Y-57566D01*
X53829Y-57732D01*
X53829Y-57913D01*
X53829Y-58182D01*
X53737Y-58090D01*
X53737Y-58031D01*
X53737Y-57733D01*
X53668Y-57566D01*
X53540Y-57438D01*
X53374Y-57369D01*
X53193Y-57369D01*
X53026Y-57438D01*
X52898Y-57566D01*
X52829Y-57732D01*
X52829Y-57913D01*
X52829Y-58182D01*
X52751Y-58104D01*
X52751Y-57639D01*
X52726Y-57577D01*
X52678Y-57530D01*
X52617Y-57504D01*
X52550Y-57504D01*
X51950Y-57504D01*
X51888Y-57529D01*
X51841Y-57577D01*
X51815Y-57638D01*
X51815Y-57705D01*
X51815Y-58305D01*
X51840Y-58367D01*
X51888Y-58414D01*
X51949Y-58440D01*
X52016Y-58440D01*
X52415Y-58440D01*
X52548Y-58573D01*
X52054Y-58573D01*
X51992Y-58598D01*
X51945Y-58646D01*
X51930Y-58680D01*
X51901Y-58680D01*
X51848Y-58627D01*
X51722Y-58575D01*
X51586Y-58575D01*
X51460Y-58627D01*
X51364Y-58723D01*
X51312Y-58849D01*
X51312Y-58985D01*
X51364Y-59111D01*
X51460Y-59207D01*
X51586Y-59259D01*
X51722Y-59259D01*
X51848Y-59207D01*
X51901Y-59154D01*
X51931Y-59154D01*
X51944Y-59186D01*
X51992Y-59233D01*
X52053Y-59259D01*
X52120Y-59259D01*
X52670Y-59259D01*
X52732Y-59234D01*
X52755Y-59209D01*
X52780Y-59233D01*
X52841Y-59259D01*
X52908Y-59259D01*
X53157Y-59259D01*
X53221Y-59323D01*
X52842Y-59323D01*
X52780Y-59348D01*
X52756Y-59372D01*
X52732Y-59349D01*
X52671Y-59323D01*
X52604Y-59323D01*
X52054Y-59323D01*
X51992Y-59348D01*
X51945Y-59396D01*
X51919Y-59457D01*
X51919Y-59524D01*
X51919Y-59874D01*
X51944Y-59936D01*
X51992Y-59983D01*
X52053Y-60009D01*
X52120Y-60009D01*
X52125Y-60009D01*
X52126Y-60009D01*
X52143Y-60091D01*
X52194Y-60168D01*
X52293Y-60267D01*
X52293Y-60446D01*
X52309Y-60488D01*
X52250Y-60548D01*
X52212Y-60640D01*
X52211Y-60734D01*
X52273Y-60796D01*
X52518Y-60796D01*
X52568Y-60796D01*
X52668Y-60796D01*
X52718Y-60796D01*
X52963Y-60796D01*
X52971Y-60787D01*
X52990Y-60806D01*
X53156Y-60806D01*
X53217Y-60806D01*
X53295Y-60806D01*
X53328Y-60806D01*
X53356Y-60806D01*
X53494Y-60806D01*
X53522Y-60806D01*
X53555Y-60806D01*
X53633Y-60806D01*
X53694Y-60806D01*
X53860Y-60806D01*
X53922Y-60744D01*
X53921Y-60689D01*
X53883Y-60597D01*
X53813Y-60527D01*
X53722Y-60489D01*
X53712Y-60489D01*
X53767Y-60467D01*
X53814Y-60419D01*
X53840Y-60358D01*
X53840Y-60296D01*
X54105Y-60031D01*
X54119Y-60009D01*
X54245Y-60009D01*
X54307Y-59984D01*
X54354Y-59936D01*
X54380Y-59875D01*
X54380Y-59808D01*
X54380Y-59528D01*
X54422Y-59528D01*
X54422Y-59576D01*
X54474Y-59702D01*
X54570Y-59798D01*
X54696Y-59850D01*
X54832Y-59850D01*
X54958Y-59798D01*
X55054Y-59702D01*
X55106Y-59576D01*
X55106Y-59440D01*
X55054Y-59314D01*
X54961Y-59221D01*
X54997Y-59207D01*
X55093Y-59111D01*
X55145Y-58985D01*
X55145Y-69479D01*
X54494Y-70130D01*
X54420Y-70130D01*
X54294Y-70182D01*
X54198Y-70278D01*
X54146Y-70404D01*
X54146Y-70540D01*
X54198Y-70666D01*
X54294Y-70762D01*
X54420Y-70814D01*
X54556Y-70814D01*
X54682Y-70762D01*
X54778Y-70666D01*
X54830Y-70540D01*
X54830Y-70466D01*
X55531Y-69765D01*
X55698Y-69765D01*
X55751Y-69818D01*
X55877Y-69870D01*
X56013Y-69870D01*
X56139Y-69818D01*
X56235Y-69722D01*
X56287Y-69596D01*
X56287Y-71199D01*
X56148Y-71257D01*
X56026Y-71379D01*
X55968Y-71516D01*
X55912Y-71380D01*
X55790Y-71258D01*
X55630Y-71191D01*
X55457Y-71191D01*
X55297Y-71257D01*
X55175Y-71379D01*
X55163Y-71405D01*
X55159Y-71389D01*
X55029Y-71229D01*
X54848Y-71131D01*
X54824Y-71128D01*
X54743Y-71176D01*
X54743Y-71654D01*
X54743Y-71704D01*
X54743Y-71804D01*
X54743Y-71854D01*
X54743Y-72332D01*
X54824Y-72380D01*
X54848Y-72377D01*
X55029Y-72279D01*
X55159Y-72119D01*
X55163Y-72103D01*
X55174Y-72128D01*
X55296Y-72250D01*
X55456Y-72317D01*
X55629Y-72317D01*
X55789Y-72251D01*
X55911Y-72129D01*
X55968Y-71991D01*
X56025Y-72128D01*
X56147Y-72250D01*
X56307Y-72317D01*
X56480Y-72317D01*
X56640Y-72251D01*
X56762Y-72129D01*
X56819Y-71992D01*
X56875Y-72128D01*
X56997Y-72250D01*
X57157Y-72317D01*
X57330Y-72317D01*
X57490Y-72251D01*
X57612Y-72129D01*
X57669Y-71992D01*
X57725Y-72128D01*
X57847Y-72250D01*
X58007Y-72317D01*
X58180Y-72317D01*
X58340Y-72251D01*
X58462Y-72129D01*
X58519Y-71991D01*
X58576Y-72128D01*
X58698Y-72250D01*
X58858Y-72317D01*
X59031Y-72317D01*
X59191Y-72251D01*
X59313Y-72129D01*
X59370Y-71992D01*
X59426Y-72128D01*
X59548Y-72250D01*
X59708Y-72317D01*
X59881Y-72317D01*
X60041Y-72251D01*
X60163Y-72129D01*
X60220Y-71991D01*
X60277Y-72128D01*
X60399Y-72250D01*
X60559Y-72317D01*
X60732Y-72317D01*
X60428Y-72621D01*
X60411Y-72604D01*
X60285Y-72552D01*
X60149Y-72552D01*
X60023Y-72604D01*
X59927Y-72700D01*
X59875Y-72826D01*
X59875Y-72846D01*
X59845Y-72864D01*
X59845Y-73342D01*
X59845Y-73392D01*
X59845Y-73492D01*
X59845Y-73542D01*
X59845Y-74020D01*
X59926Y-74068D01*
X59950Y-74065D01*
X60131Y-73967D01*
X60261Y-73807D01*
X60265Y-73791D01*
X60276Y-73816D01*
X60398Y-73938D01*
X60558Y-74005D01*
X60731Y-74005D01*
X60891Y-73939D01*
X61013Y-73817D01*
X61070Y-73679D01*
X61127Y-73816D01*
X61249Y-73938D01*
X61409Y-74005D01*
X61582Y-74005D01*
X61742Y-73939D01*
X61864Y-73817D01*
X61921Y-73680D01*
X61977Y-73816D01*
X62099Y-73938D01*
X62259Y-74005D01*
X62432Y-74005D01*
X62592Y-73939D01*
X62714Y-73817D01*
X62771Y-73679D01*
X62828Y-73816D01*
X62950Y-73938D01*
X63110Y-74005D01*
X63283Y-74005D01*
X63443Y-73939D01*
X63565Y-73817D01*
X63622Y-73680D01*
X63678Y-73816D01*
X63800Y-73938D01*
X63960Y-74005D01*
X64133Y-74005D01*
X64293Y-73939D01*
X64415Y-73817D01*
X64482Y-73657D01*
X64482Y-76229D01*
X59745Y-76229D01*
X59745Y-74020D01*
X59745Y-73492D01*
X59745Y-73392D01*
X59745Y-72864D01*
X59664Y-72816D01*
X59640Y-72819D01*
X59459Y-72917D01*
X59370Y-73026D01*
X59281Y-72917D01*
X59100Y-72819D01*
X59076Y-72816D01*
X58995Y-72864D01*
X58995Y-73392D01*
X59270Y-73392D01*
X59470Y-73392D01*
X59745Y-73392D01*
X59745Y-73492D01*
X59470Y-73492D01*
X59270Y-73492D01*
X58995Y-73492D01*
X58995Y-74020D01*
X59076Y-74068D01*
X59100Y-74065D01*
X59281Y-73967D01*
X59370Y-73857D01*
X59459Y-73967D01*
X59640Y-74065D01*
X59664Y-74068D01*
X59745Y-74020D01*
X59745Y-76229D01*
X58895Y-76229D01*
X58895Y-74020D01*
X58895Y-73492D01*
X58895Y-73392D01*
X58895Y-72864D01*
X58814Y-72816D01*
X58790Y-72819D01*
X58609Y-72917D01*
X58519Y-73027D01*
X58430Y-72917D01*
X58249Y-72819D01*
X58225Y-72816D01*
X58144Y-72864D01*
X58144Y-73392D01*
X58420Y-73392D01*
X58619Y-73392D01*
X58895Y-73392D01*
X58895Y-73492D01*
X58619Y-73492D01*
X58420Y-73492D01*
X58144Y-73492D01*
X58144Y-74020D01*
X58225Y-74068D01*
X58249Y-74065D01*
X58430Y-73967D01*
X58519Y-73856D01*
X58609Y-73967D01*
X58790Y-74065D01*
X58814Y-74068D01*
X58895Y-74020D01*
X58895Y-76229D01*
X58044Y-76229D01*
X58044Y-74020D01*
X58044Y-73492D01*
X58044Y-73392D01*
X58044Y-72864D01*
X57963Y-72816D01*
X57939Y-72819D01*
X57758Y-72917D01*
X57669Y-73026D01*
X57580Y-72917D01*
X57399Y-72819D01*
X57375Y-72816D01*
X57294Y-72864D01*
X57294Y-73392D01*
X57569Y-73392D01*
X57769Y-73392D01*
X58044Y-73392D01*
X58044Y-73492D01*
X57769Y-73492D01*
X57569Y-73492D01*
X57294Y-73492D01*
X57294Y-74020D01*
X57375Y-74068D01*
X57399Y-74065D01*
X57580Y-73967D01*
X57669Y-73857D01*
X57758Y-73967D01*
X57939Y-74065D01*
X57963Y-74068D01*
X58044Y-74020D01*
X58044Y-76229D01*
X57194Y-76229D01*
X57194Y-74020D01*
X57194Y-73492D01*
X57194Y-73392D01*
X57194Y-72864D01*
X57113Y-72816D01*
X57089Y-72819D01*
X56908Y-72917D01*
X56819Y-73026D01*
X56730Y-72917D01*
X56549Y-72819D01*
X56525Y-72816D01*
X56444Y-72864D01*
X56444Y-73392D01*
X56719Y-73392D01*
X56919Y-73392D01*
X57194Y-73392D01*
X57194Y-73492D01*
X56919Y-73492D01*
X56719Y-73492D01*
X56444Y-73492D01*
X56444Y-74020D01*
X56525Y-74068D01*
X56549Y-74065D01*
X56730Y-73967D01*
X56819Y-73857D01*
X56908Y-73967D01*
X57089Y-74065D01*
X57113Y-74068D01*
X57194Y-74020D01*
X57194Y-76229D01*
X56344Y-76229D01*
X56344Y-74020D01*
X56344Y-73492D01*
X56344Y-73392D01*
X56344Y-72864D01*
X56263Y-72816D01*
X56239Y-72819D01*
X56058Y-72917D01*
X55968Y-73027D01*
X55879Y-72917D01*
X55698Y-72819D01*
X55674Y-72816D01*
X55593Y-72864D01*
X55593Y-73392D01*
X55869Y-73392D01*
X56068Y-73392D01*
X56344Y-73392D01*
X56344Y-73492D01*
X56068Y-73492D01*
X55869Y-73492D01*
X55593Y-73492D01*
X55593Y-74020D01*
X55674Y-74068D01*
X55698Y-74065D01*
X55879Y-73967D01*
X55968Y-73856D01*
X56058Y-73967D01*
X56239Y-74065D01*
X56263Y-74068D01*
X56344Y-74020D01*
X56344Y-76229D01*
X55493Y-76229D01*
X55493Y-74020D01*
X55493Y-73492D01*
X55493Y-73392D01*
X55493Y-72864D01*
X55412Y-72816D01*
X55388Y-72819D01*
X55207Y-72917D01*
X55118Y-73026D01*
X55029Y-72917D01*
X54848Y-72819D01*
X54824Y-72816D01*
X54743Y-72864D01*
X54743Y-73392D01*
X55018Y-73392D01*
X55218Y-73392D01*
X55493Y-73392D01*
X55493Y-73492D01*
X55218Y-73492D01*
X55018Y-73492D01*
X54743Y-73492D01*
X54743Y-74020D01*
X54824Y-74068D01*
X54848Y-74065D01*
X55029Y-73967D01*
X55118Y-73857D01*
X55207Y-73967D01*
X55388Y-74065D01*
X55412Y-74068D01*
X55493Y-74020D01*
X55493Y-76229D01*
X54643Y-76229D01*
X54643Y-74020D01*
X54643Y-73492D01*
X54643Y-73392D01*
X54643Y-72864D01*
X54643Y-72332D01*
X54643Y-71804D01*
X54643Y-71704D01*
X54643Y-71176D01*
X54562Y-71128D01*
X54538Y-71131D01*
X54357Y-71229D01*
X54227Y-71389D01*
X54168Y-71586D01*
X54168Y-71704D01*
X54643Y-71704D01*
X54643Y-71804D01*
X54168Y-71804D01*
X54168Y-71922D01*
X54227Y-72119D01*
X54357Y-72279D01*
X54538Y-72377D01*
X54562Y-72380D01*
X54643Y-72332D01*
X54643Y-72864D01*
X54562Y-72816D01*
X54538Y-72819D01*
X54357Y-72917D01*
X54227Y-73077D01*
X54168Y-73274D01*
X54168Y-73392D01*
X54643Y-73392D01*
X54643Y-73492D01*
X54168Y-73492D01*
X54168Y-73610D01*
X54227Y-73807D01*
X54357Y-73967D01*
X54538Y-74065D01*
X54562Y-74068D01*
X54643Y-74020D01*
X54643Y-76229D01*
X53922Y-76229D01*
X53922Y-60968D01*
X53860Y-60906D01*
X53633Y-60906D01*
X53633Y-61162D01*
X53694Y-61223D01*
X53722Y-61223D01*
X53813Y-61185D01*
X53883Y-61115D01*
X53921Y-61023D01*
X53922Y-60968D01*
X53922Y-76229D01*
X53584Y-76229D01*
X53584Y-60968D01*
X53555Y-60939D01*
X53555Y-60906D01*
X53522Y-60906D01*
X53328Y-60906D01*
X53295Y-60906D01*
X53295Y-60939D01*
X53266Y-60968D01*
X53267Y-61023D01*
X53295Y-61090D01*
X53295Y-61162D01*
X53356Y-61223D01*
X53384Y-61223D01*
X53425Y-61205D01*
X53466Y-61223D01*
X53494Y-61223D01*
X53555Y-61162D01*
X53555Y-61090D01*
X53583Y-61023D01*
X53584Y-60968D01*
X53584Y-76229D01*
X53217Y-76229D01*
X53217Y-61162D01*
X53217Y-60906D01*
X52990Y-60906D01*
X52981Y-60914D01*
X52963Y-60896D01*
X52668Y-60896D01*
X52668Y-61191D01*
X52729Y-61252D01*
X52825Y-61252D01*
X52916Y-61214D01*
X52986Y-61144D01*
X52988Y-61136D01*
X53037Y-61185D01*
X53128Y-61223D01*
X53156Y-61223D01*
X53217Y-61162D01*
X53217Y-76229D01*
X52568Y-76229D01*
X52568Y-61191D01*
X52568Y-60896D01*
X52273Y-60896D01*
X52211Y-60958D01*
X52212Y-61052D01*
X52250Y-61144D01*
X52320Y-61214D01*
X52411Y-61252D01*
X52507Y-61252D01*
X52568Y-61191D01*
X52568Y-76229D01*
X50957Y-76229D01*
X50957Y-72757D01*
X50957Y-72440D01*
X50836Y-72147D01*
X50612Y-71922D01*
X50318Y-71800D01*
X50001Y-71800D01*
X49708Y-71921D01*
X49483Y-72145D01*
X49361Y-72439D01*
X49361Y-72756D01*
X49482Y-73049D01*
X49706Y-73274D01*
X50000Y-73396D01*
X50317Y-73396D01*
X50610Y-73275D01*
X50835Y-73051D01*
X50957Y-72757D01*
X50957Y-76229D01*
X48198Y-76229D01*
X48179Y-57274D01*
X62959Y-57274D01*
X62959Y-57792D01*
X63021Y-57854D01*
X63512Y-57854D01*
X63562Y-57854D01*
X63662Y-57854D01*
X63712Y-57854D01*
X64203Y-57854D01*
X64265Y-57792D01*
X64264Y-57274D01*
X66837Y-57274D01*
X66837Y-57792D01*
X66899Y-57854D01*
X67390Y-57854D01*
X67440Y-57854D01*
X67540Y-57854D01*
X67590Y-57854D01*
X68081Y-57854D01*
X68143Y-57792D01*
X68142Y-57274D01*
X70698Y-57274D01*
X70718Y-76230D01*
M02*
