G04 (created by PCBNEW-RS274X (2012-07-14 BZR 3647)-testing) date Mon 16 Jul 2012 02:43:59 PM EEST*
%MOIN*%
G04 Gerber Fmt 3.4, Leading zero omitted, Abs format*
%FSLAX34Y34*%
G01*
G70*
G90*
G04 APERTURE LIST*
%ADD10C,0.006*%
%ADD11C,0.012*%
%ADD12C,0.0118*%
%ADD13C,0.015*%
G04 APERTURE END LIST*
G54D10*
G54D11*
X57538Y-60254D02*
X57538Y-64194D01*
X57538Y-64194D02*
X61478Y-64194D01*
X61478Y-60444D02*
X61478Y-64194D01*
X61288Y-60254D02*
X57538Y-60254D01*
X61478Y-60444D02*
X61288Y-60254D01*
G54D12*
X61257Y-60724D02*
X61252Y-60772D01*
X61238Y-60819D01*
X61215Y-60862D01*
X61184Y-60900D01*
X61146Y-60931D01*
X61103Y-60954D01*
X61057Y-60968D01*
X61008Y-60973D01*
X60961Y-60969D01*
X60914Y-60955D01*
X60871Y-60933D01*
X60833Y-60902D01*
X60801Y-60865D01*
X60778Y-60822D01*
X60763Y-60775D01*
X60758Y-60727D01*
X60762Y-60679D01*
X60775Y-60632D01*
X60797Y-60589D01*
X60828Y-60551D01*
X60865Y-60519D01*
X60907Y-60495D01*
X60954Y-60480D01*
X61002Y-60475D01*
X61050Y-60478D01*
X61097Y-60491D01*
X61140Y-60513D01*
X61179Y-60543D01*
X61211Y-60580D01*
X61235Y-60623D01*
X61250Y-60669D01*
X61256Y-60718D01*
X61257Y-60724D01*
X53235Y-65295D02*
X56135Y-65295D01*
X56135Y-70285D02*
X53235Y-70285D01*
X53235Y-65295D02*
X53235Y-70295D01*
X56135Y-70295D02*
X56135Y-65295D01*
X54935Y-70295D02*
X54935Y-69795D01*
X54935Y-69795D02*
X54435Y-69795D01*
X54435Y-69795D02*
X54435Y-70295D01*
X67440Y-65334D02*
X67873Y-65334D01*
X67873Y-65334D02*
X67893Y-65334D01*
X67893Y-65334D02*
X67893Y-66004D01*
X67893Y-66004D02*
X67440Y-66004D01*
X67125Y-66004D02*
X66672Y-66004D01*
X66672Y-66004D02*
X66672Y-65334D01*
X66672Y-65334D02*
X67125Y-65334D01*
X56850Y-71004D02*
X55866Y-71004D01*
X55866Y-71004D02*
X55866Y-70414D01*
X56850Y-70414D02*
X56850Y-71004D01*
X56850Y-70414D02*
X55866Y-70414D01*
G54D13*
X61472Y-67220D02*
X59472Y-67220D01*
X59472Y-67220D02*
X59472Y-70220D01*
X59472Y-70220D02*
X61472Y-70220D01*
X61472Y-70220D02*
X61472Y-67220D01*
G54D12*
X60551Y-65610D02*
X59567Y-65610D01*
X59567Y-65610D02*
X59567Y-65020D01*
X60551Y-65020D02*
X60551Y-65610D01*
X60551Y-65020D02*
X59567Y-65020D01*
X61299Y-59862D02*
X61299Y-58878D01*
X61299Y-58878D02*
X61889Y-58878D01*
X61889Y-59862D02*
X61299Y-59862D01*
X61889Y-59862D02*
X61889Y-58878D01*
X62225Y-61004D02*
X62225Y-60020D01*
X62225Y-60020D02*
X62815Y-60020D01*
X62815Y-61004D02*
X62225Y-61004D01*
X62815Y-61004D02*
X62815Y-60020D01*
X57107Y-60000D02*
X57107Y-59016D01*
X57107Y-59016D02*
X57697Y-59016D01*
X57697Y-60000D02*
X57107Y-60000D01*
X57697Y-60000D02*
X57697Y-59016D01*
X56909Y-63130D02*
X56909Y-64114D01*
X56909Y-64114D02*
X56319Y-64114D01*
X56319Y-63130D02*
X56909Y-63130D01*
X56319Y-63130D02*
X56319Y-64114D01*
X66358Y-71122D02*
X65374Y-71122D01*
X65374Y-71122D02*
X65374Y-70532D01*
X66358Y-70532D02*
X66358Y-71122D01*
X66358Y-70532D02*
X65374Y-70532D01*
X50670Y-69981D02*
X50237Y-69981D01*
X50237Y-69981D02*
X50217Y-69981D01*
X50217Y-69981D02*
X50217Y-69311D01*
X50217Y-69311D02*
X50670Y-69311D01*
X50985Y-69311D02*
X51438Y-69311D01*
X51438Y-69311D02*
X51438Y-69981D01*
X51438Y-69981D02*
X50985Y-69981D01*
X50984Y-70177D02*
X51417Y-70177D01*
X51417Y-70177D02*
X51437Y-70177D01*
X51437Y-70177D02*
X51437Y-70847D01*
X51437Y-70847D02*
X50984Y-70847D01*
X50669Y-70847D02*
X50216Y-70847D01*
X50216Y-70847D02*
X50216Y-70177D01*
X50216Y-70177D02*
X50669Y-70177D01*
X67756Y-64823D02*
X67323Y-64823D01*
X67323Y-64823D02*
X67303Y-64823D01*
X67303Y-64823D02*
X67303Y-64153D01*
X67303Y-64153D02*
X67756Y-64153D01*
X68071Y-64153D02*
X68524Y-64153D01*
X68524Y-64153D02*
X68524Y-64823D01*
X68524Y-64823D02*
X68071Y-64823D01*
X62992Y-61712D02*
X63425Y-61712D01*
X63425Y-61712D02*
X63445Y-61712D01*
X63445Y-61712D02*
X63445Y-62382D01*
X63445Y-62382D02*
X62992Y-62382D01*
X62677Y-62382D02*
X62224Y-62382D01*
X62224Y-62382D02*
X62224Y-61712D01*
X62224Y-61712D02*
X62677Y-61712D01*
X67579Y-61968D02*
X67579Y-62401D01*
X67579Y-62401D02*
X67579Y-62421D01*
X67579Y-62421D02*
X66909Y-62421D01*
X66909Y-62421D02*
X66909Y-61968D01*
X66909Y-61653D02*
X66909Y-61200D01*
X66909Y-61200D02*
X67579Y-61200D01*
X67579Y-61200D02*
X67579Y-61653D01*
X60394Y-66516D02*
X59961Y-66516D01*
X59961Y-66516D02*
X59941Y-66516D01*
X59941Y-66516D02*
X59941Y-65846D01*
X59941Y-65846D02*
X60394Y-65846D01*
X60709Y-65846D02*
X61162Y-65846D01*
X61162Y-65846D02*
X61162Y-66516D01*
X61162Y-66516D02*
X60709Y-66516D01*
X64745Y-62559D02*
X64312Y-62559D01*
X64312Y-62559D02*
X64292Y-62559D01*
X64292Y-62559D02*
X64292Y-61889D01*
X64292Y-61889D02*
X64745Y-61889D01*
X65060Y-61889D02*
X65513Y-61889D01*
X65513Y-61889D02*
X65513Y-62559D01*
X65513Y-62559D02*
X65060Y-62559D01*
X64764Y-61752D02*
X64331Y-61752D01*
X64331Y-61752D02*
X64311Y-61752D01*
X64311Y-61752D02*
X64311Y-61082D01*
X64311Y-61082D02*
X64764Y-61082D01*
X65079Y-61082D02*
X65532Y-61082D01*
X65532Y-61082D02*
X65532Y-61752D01*
X65532Y-61752D02*
X65079Y-61752D01*
X62822Y-65394D02*
X65722Y-65394D01*
X65722Y-70384D02*
X62822Y-70384D01*
X62822Y-65394D02*
X62822Y-70394D01*
X65722Y-70394D02*
X65722Y-65394D01*
X64522Y-70394D02*
X64522Y-69894D01*
X64522Y-69894D02*
X64022Y-69894D01*
X64022Y-69894D02*
X64022Y-70394D01*
X62623Y-64727D02*
X62623Y-64136D01*
X62005Y-64670D02*
X62033Y-64699D01*
X62117Y-64727D01*
X62173Y-64727D01*
X62258Y-64699D01*
X62314Y-64642D01*
X62342Y-64586D01*
X62370Y-64473D01*
X62370Y-64389D01*
X62342Y-64276D01*
X62314Y-64220D01*
X62258Y-64164D01*
X62173Y-64136D01*
X62117Y-64136D01*
X62033Y-64164D01*
X62005Y-64192D01*
X61442Y-64727D02*
X61779Y-64727D01*
X61611Y-64727D02*
X61611Y-64136D01*
X61667Y-64220D01*
X61723Y-64276D01*
X61779Y-64305D01*
X55142Y-70509D02*
X55142Y-70995D01*
X55114Y-71052D01*
X55085Y-71080D01*
X55028Y-71109D01*
X54914Y-71109D01*
X54856Y-71080D01*
X54828Y-71052D01*
X54799Y-70995D01*
X54799Y-70509D01*
X54542Y-70566D02*
X54513Y-70537D01*
X54456Y-70509D01*
X54313Y-70509D01*
X54256Y-70537D01*
X54227Y-70566D01*
X54199Y-70623D01*
X54199Y-70680D01*
X54227Y-70766D01*
X54570Y-71109D01*
X54199Y-71109D01*
X67382Y-66774D02*
X67579Y-66492D01*
X67719Y-66774D02*
X67719Y-66183D01*
X67494Y-66183D01*
X67438Y-66211D01*
X67410Y-66239D01*
X67382Y-66295D01*
X67382Y-66380D01*
X67410Y-66436D01*
X67438Y-66464D01*
X67494Y-66492D01*
X67719Y-66492D01*
X66875Y-66380D02*
X66875Y-66774D01*
X67016Y-66155D02*
X67156Y-66577D01*
X66791Y-66577D01*
X56457Y-70222D02*
X56485Y-70251D01*
X56569Y-70279D01*
X56625Y-70279D01*
X56710Y-70251D01*
X56766Y-70194D01*
X56794Y-70138D01*
X56822Y-70025D01*
X56822Y-69941D01*
X56794Y-69828D01*
X56766Y-69772D01*
X56710Y-69716D01*
X56625Y-69688D01*
X56569Y-69688D01*
X56485Y-69716D01*
X56457Y-69744D01*
X56119Y-69941D02*
X56175Y-69913D01*
X56203Y-69885D01*
X56231Y-69828D01*
X56231Y-69800D01*
X56203Y-69744D01*
X56175Y-69716D01*
X56119Y-69688D01*
X56006Y-69688D01*
X55950Y-69716D01*
X55922Y-69744D01*
X55894Y-69800D01*
X55894Y-69828D01*
X55922Y-69885D01*
X55950Y-69913D01*
X56006Y-69941D01*
X56119Y-69941D01*
X56175Y-69969D01*
X56203Y-69997D01*
X56231Y-70054D01*
X56231Y-70166D01*
X56203Y-70222D01*
X56175Y-70251D01*
X56119Y-70279D01*
X56006Y-70279D01*
X55950Y-70251D01*
X55922Y-70222D01*
X55894Y-70166D01*
X55894Y-70054D01*
X55922Y-69997D01*
X55950Y-69969D01*
X56006Y-69941D01*
G54D11*
X59180Y-68278D02*
X58580Y-68278D01*
X58580Y-68506D01*
X58608Y-68564D01*
X58637Y-68592D01*
X58694Y-68621D01*
X58780Y-68621D01*
X58837Y-68592D01*
X58866Y-68564D01*
X58894Y-68506D01*
X58894Y-68278D01*
X59180Y-69192D02*
X59180Y-68849D01*
X59180Y-69021D02*
X58580Y-69021D01*
X58666Y-68964D01*
X58723Y-68906D01*
X58751Y-68849D01*
G54D12*
X59036Y-65497D02*
X59064Y-65526D01*
X59148Y-65554D01*
X59204Y-65554D01*
X59289Y-65526D01*
X59345Y-65469D01*
X59373Y-65413D01*
X59401Y-65300D01*
X59401Y-65216D01*
X59373Y-65103D01*
X59345Y-65047D01*
X59289Y-64991D01*
X59204Y-64963D01*
X59148Y-64963D01*
X59064Y-64991D01*
X59036Y-65019D01*
X58473Y-65554D02*
X58810Y-65554D01*
X58642Y-65554D02*
X58642Y-64963D01*
X58698Y-65047D01*
X58754Y-65103D01*
X58810Y-65132D01*
X62584Y-59271D02*
X62613Y-59243D01*
X62641Y-59159D01*
X62641Y-59103D01*
X62613Y-59018D01*
X62556Y-58962D01*
X62500Y-58934D01*
X62387Y-58906D01*
X62303Y-58906D01*
X62190Y-58934D01*
X62134Y-58962D01*
X62078Y-59018D01*
X62050Y-59103D01*
X62050Y-59159D01*
X62078Y-59243D01*
X62106Y-59271D01*
X62106Y-59497D02*
X62078Y-59525D01*
X62050Y-59581D01*
X62050Y-59722D01*
X62078Y-59778D01*
X62106Y-59806D01*
X62162Y-59834D01*
X62219Y-59834D01*
X62303Y-59806D01*
X62641Y-59468D01*
X62641Y-59834D01*
X63450Y-60413D02*
X63479Y-60385D01*
X63507Y-60301D01*
X63507Y-60245D01*
X63479Y-60160D01*
X63422Y-60104D01*
X63366Y-60076D01*
X63253Y-60048D01*
X63169Y-60048D01*
X63056Y-60076D01*
X63000Y-60104D01*
X62944Y-60160D01*
X62916Y-60245D01*
X62916Y-60301D01*
X62944Y-60385D01*
X62972Y-60413D01*
X62916Y-60948D02*
X62916Y-60667D01*
X63197Y-60639D01*
X63169Y-60667D01*
X63141Y-60723D01*
X63141Y-60864D01*
X63169Y-60920D01*
X63197Y-60948D01*
X63253Y-60976D01*
X63394Y-60976D01*
X63450Y-60948D01*
X63479Y-60920D01*
X63507Y-60864D01*
X63507Y-60723D01*
X63479Y-60667D01*
X63450Y-60639D01*
X56875Y-59389D02*
X56904Y-59361D01*
X56932Y-59277D01*
X56932Y-59221D01*
X56904Y-59136D01*
X56847Y-59080D01*
X56791Y-59052D01*
X56678Y-59024D01*
X56594Y-59024D01*
X56481Y-59052D01*
X56425Y-59080D01*
X56369Y-59136D01*
X56341Y-59221D01*
X56341Y-59277D01*
X56369Y-59361D01*
X56397Y-59389D01*
X56341Y-59586D02*
X56341Y-59952D01*
X56566Y-59755D01*
X56566Y-59840D01*
X56594Y-59896D01*
X56622Y-59924D01*
X56678Y-59952D01*
X56819Y-59952D01*
X56875Y-59924D01*
X56904Y-59896D01*
X56932Y-59840D01*
X56932Y-59671D01*
X56904Y-59615D01*
X56875Y-59586D01*
X56088Y-63484D02*
X56117Y-63456D01*
X56145Y-63372D01*
X56145Y-63316D01*
X56117Y-63231D01*
X56060Y-63175D01*
X56004Y-63147D01*
X55891Y-63119D01*
X55807Y-63119D01*
X55694Y-63147D01*
X55638Y-63175D01*
X55582Y-63231D01*
X55554Y-63316D01*
X55554Y-63372D01*
X55582Y-63456D01*
X55610Y-63484D01*
X55554Y-63991D02*
X55554Y-63878D01*
X55582Y-63822D01*
X55610Y-63794D01*
X55694Y-63738D01*
X55807Y-63710D01*
X56032Y-63710D01*
X56088Y-63738D01*
X56117Y-63766D01*
X56145Y-63822D01*
X56145Y-63935D01*
X56117Y-63991D01*
X56088Y-64019D01*
X56032Y-64047D01*
X55891Y-64047D01*
X55835Y-64019D01*
X55807Y-63991D01*
X55779Y-63935D01*
X55779Y-63822D01*
X55807Y-63766D01*
X55835Y-63738D01*
X55891Y-63710D01*
X65965Y-71836D02*
X65993Y-71865D01*
X66077Y-71893D01*
X66133Y-71893D01*
X66218Y-71865D01*
X66274Y-71808D01*
X66302Y-71752D01*
X66330Y-71639D01*
X66330Y-71555D01*
X66302Y-71442D01*
X66274Y-71386D01*
X66218Y-71330D01*
X66133Y-71302D01*
X66077Y-71302D01*
X65993Y-71330D01*
X65965Y-71358D01*
X65768Y-71302D02*
X65374Y-71302D01*
X65627Y-71893D01*
X50926Y-69137D02*
X51123Y-68855D01*
X51263Y-69137D02*
X51263Y-68546D01*
X51038Y-68546D01*
X50982Y-68574D01*
X50954Y-68602D01*
X50926Y-68658D01*
X50926Y-68743D01*
X50954Y-68799D01*
X50982Y-68827D01*
X51038Y-68855D01*
X51263Y-68855D01*
X50419Y-68546D02*
X50532Y-68546D01*
X50588Y-68574D01*
X50616Y-68602D01*
X50672Y-68686D01*
X50700Y-68799D01*
X50700Y-69024D01*
X50672Y-69080D01*
X50644Y-69109D01*
X50588Y-69137D01*
X50475Y-69137D01*
X50419Y-69109D01*
X50391Y-69080D01*
X50363Y-69024D01*
X50363Y-68883D01*
X50391Y-68827D01*
X50419Y-68799D01*
X50475Y-68771D01*
X50588Y-68771D01*
X50644Y-68799D01*
X50672Y-68827D01*
X50700Y-68883D01*
X50926Y-71617D02*
X51123Y-71335D01*
X51263Y-71617D02*
X51263Y-71026D01*
X51038Y-71026D01*
X50982Y-71054D01*
X50954Y-71082D01*
X50926Y-71138D01*
X50926Y-71223D01*
X50954Y-71279D01*
X50982Y-71307D01*
X51038Y-71335D01*
X51263Y-71335D01*
X50729Y-71026D02*
X50335Y-71026D01*
X50588Y-71617D01*
X68012Y-63979D02*
X68209Y-63697D01*
X68349Y-63979D02*
X68349Y-63388D01*
X68124Y-63388D01*
X68068Y-63416D01*
X68040Y-63444D01*
X68012Y-63500D01*
X68012Y-63585D01*
X68040Y-63641D01*
X68068Y-63669D01*
X68124Y-63697D01*
X68349Y-63697D01*
X67477Y-63388D02*
X67758Y-63388D01*
X67786Y-63669D01*
X67758Y-63641D01*
X67702Y-63613D01*
X67561Y-63613D01*
X67505Y-63641D01*
X67477Y-63669D01*
X67449Y-63725D01*
X67449Y-63866D01*
X67477Y-63922D01*
X67505Y-63951D01*
X67561Y-63979D01*
X67702Y-63979D01*
X67758Y-63951D01*
X67786Y-63922D01*
X62934Y-62938D02*
X62962Y-62967D01*
X63046Y-62995D01*
X63102Y-62995D01*
X63187Y-62967D01*
X63243Y-62910D01*
X63271Y-62854D01*
X63299Y-62741D01*
X63299Y-62657D01*
X63271Y-62544D01*
X63243Y-62488D01*
X63187Y-62432D01*
X63102Y-62404D01*
X63046Y-62404D01*
X62962Y-62432D01*
X62934Y-62460D01*
X62427Y-62601D02*
X62427Y-62995D01*
X62568Y-62376D02*
X62708Y-62798D01*
X62343Y-62798D01*
X68389Y-61674D02*
X68389Y-61393D01*
X67798Y-61393D01*
X68389Y-62180D02*
X68389Y-61843D01*
X68389Y-62011D02*
X67798Y-62011D01*
X67882Y-61955D01*
X67938Y-61899D01*
X67967Y-61843D01*
X61359Y-65672D02*
X61556Y-65390D01*
X61696Y-65672D02*
X61696Y-65081D01*
X61471Y-65081D01*
X61415Y-65109D01*
X61387Y-65137D01*
X61359Y-65193D01*
X61359Y-65278D01*
X61387Y-65334D01*
X61415Y-65362D01*
X61471Y-65390D01*
X61696Y-65390D01*
X60796Y-65672D02*
X61133Y-65672D01*
X60965Y-65672D02*
X60965Y-65081D01*
X61021Y-65165D01*
X61077Y-65221D01*
X61133Y-65250D01*
X65020Y-63349D02*
X65217Y-63067D01*
X65357Y-63349D02*
X65357Y-62758D01*
X65132Y-62758D01*
X65076Y-62786D01*
X65048Y-62814D01*
X65020Y-62870D01*
X65020Y-62955D01*
X65048Y-63011D01*
X65076Y-63039D01*
X65132Y-63067D01*
X65357Y-63067D01*
X64823Y-62758D02*
X64457Y-62758D01*
X64654Y-62983D01*
X64569Y-62983D01*
X64513Y-63011D01*
X64485Y-63039D01*
X64457Y-63095D01*
X64457Y-63236D01*
X64485Y-63292D01*
X64513Y-63321D01*
X64569Y-63349D01*
X64738Y-63349D01*
X64794Y-63321D01*
X64823Y-63292D01*
X65020Y-60908D02*
X65217Y-60626D01*
X65357Y-60908D02*
X65357Y-60317D01*
X65132Y-60317D01*
X65076Y-60345D01*
X65048Y-60373D01*
X65020Y-60429D01*
X65020Y-60514D01*
X65048Y-60570D01*
X65076Y-60598D01*
X65132Y-60626D01*
X65357Y-60626D01*
X64794Y-60373D02*
X64766Y-60345D01*
X64710Y-60317D01*
X64569Y-60317D01*
X64513Y-60345D01*
X64485Y-60373D01*
X64457Y-60429D01*
X64457Y-60486D01*
X64485Y-60570D01*
X64823Y-60908D01*
X64457Y-60908D01*
X64729Y-70608D02*
X64729Y-71094D01*
X64701Y-71151D01*
X64672Y-71179D01*
X64615Y-71208D01*
X64501Y-71208D01*
X64443Y-71179D01*
X64415Y-71151D01*
X64386Y-71094D01*
X64386Y-70608D01*
X63786Y-71208D02*
X64129Y-71208D01*
X63957Y-71208D02*
X63957Y-70608D01*
X64014Y-70694D01*
X64072Y-70751D01*
X64129Y-70779D01*
M02*
