G04 (created by PCBNEW (2012-07-14 BZR 3647)-testing) date Sun 15 Jul 2012 11:43:02 PM EEST*
%MOIN*%
G04 Gerber Fmt 3.4, Leading zero omitted, Abs format*
%FSLAX34Y34*%
G01*
G70*
G90*
G04 APERTURE LIST*
%ADD10C,0.001*%
%ADD11C,0.015*%
%ADD12C,0.005*%
G04 APERTURE END LIST*
G54D10*
G54D11*
X47638Y-56969D02*
X47638Y-76654D01*
X71260Y-76654D02*
X71260Y-56969D01*
X47638Y-56969D02*
X71261Y-56969D01*
X47638Y-76654D02*
X71260Y-76654D01*
G54D10*
X51529Y-58792D02*
X51779Y-59042D01*
X51779Y-58792D02*
X51529Y-59042D01*
X53399Y-65466D02*
X53649Y-65716D01*
X53649Y-65466D02*
X53399Y-65716D01*
X54363Y-70347D02*
X54613Y-70597D01*
X54613Y-70347D02*
X54363Y-70597D01*
X54639Y-59383D02*
X54889Y-59633D01*
X54889Y-59383D02*
X54639Y-59633D01*
X54678Y-58792D02*
X54928Y-59042D01*
X54928Y-58792D02*
X54678Y-59042D01*
X55387Y-62434D02*
X55637Y-62684D01*
X55637Y-62434D02*
X55387Y-62684D01*
X55387Y-62906D02*
X55637Y-63156D01*
X55637Y-62906D02*
X55387Y-63156D01*
X55387Y-63418D02*
X55637Y-63668D01*
X55637Y-63418D02*
X55387Y-63668D01*
X55387Y-63930D02*
X55637Y-64180D01*
X55637Y-63930D02*
X55387Y-64180D01*
X55544Y-64403D02*
X55794Y-64653D01*
X55794Y-64403D02*
X55544Y-64653D01*
X55820Y-69403D02*
X56070Y-69653D01*
X56070Y-69403D02*
X55820Y-69653D01*
X55859Y-71135D02*
X56109Y-71385D01*
X56109Y-71135D02*
X55859Y-71385D01*
X55899Y-64718D02*
X56149Y-64968D01*
X56149Y-64718D02*
X55899Y-64968D01*
X56410Y-60387D02*
X56660Y-60637D01*
X56660Y-60387D02*
X56410Y-60637D01*
X56489Y-61745D02*
X56739Y-61995D01*
X56739Y-61745D02*
X56489Y-61995D01*
X56489Y-62592D02*
X56739Y-62842D01*
X56739Y-62592D02*
X56489Y-62842D01*
X56647Y-59993D02*
X56897Y-60243D01*
X56897Y-59993D02*
X56647Y-60243D01*
X56883Y-64521D02*
X57133Y-64771D01*
X57133Y-64521D02*
X56883Y-64771D01*
X57828Y-62158D02*
X58078Y-62408D01*
X58078Y-62158D02*
X57828Y-62408D01*
X57828Y-63340D02*
X58078Y-63590D01*
X58078Y-63340D02*
X57828Y-63590D01*
X57906Y-59166D02*
X58156Y-59416D01*
X58156Y-59166D02*
X57906Y-59416D01*
X57906Y-62788D02*
X58156Y-63038D01*
X58156Y-62788D02*
X57906Y-63038D01*
X58025Y-65032D02*
X58275Y-65282D01*
X58275Y-65032D02*
X58025Y-65282D01*
X58418Y-59166D02*
X58668Y-59416D01*
X58668Y-59166D02*
X58418Y-59416D01*
X58497Y-65032D02*
X58747Y-65282D01*
X58747Y-65032D02*
X58497Y-65282D01*
X58576Y-61844D02*
X58826Y-62094D01*
X58826Y-61844D02*
X58576Y-62094D01*
X58930Y-62158D02*
X59180Y-62408D01*
X59180Y-62158D02*
X58930Y-62408D01*
X59009Y-65072D02*
X59259Y-65322D01*
X59259Y-65072D02*
X59009Y-65322D01*
X59048Y-69599D02*
X59298Y-69849D01*
X59298Y-69599D02*
X59048Y-69849D01*
X59068Y-67277D02*
X59318Y-67527D01*
X59318Y-67277D02*
X59068Y-67527D01*
X59481Y-66076D02*
X59731Y-66326D01*
X59731Y-66076D02*
X59481Y-66326D01*
X59718Y-62670D02*
X59968Y-62920D01*
X59968Y-62670D02*
X59718Y-62920D01*
X60032Y-63379D02*
X60282Y-63629D01*
X60282Y-63379D02*
X60032Y-63629D01*
X60092Y-72769D02*
X60342Y-73019D01*
X60342Y-72769D02*
X60092Y-73019D01*
X60347Y-67139D02*
X60597Y-67389D01*
X60597Y-67139D02*
X60347Y-67389D01*
X60426Y-63655D02*
X60676Y-63905D01*
X60676Y-63655D02*
X60426Y-63905D01*
X60859Y-59166D02*
X61109Y-59416D01*
X61109Y-59166D02*
X60859Y-59416D01*
X60938Y-61765D02*
X61188Y-62015D01*
X61188Y-61765D02*
X60938Y-62015D01*
X61450Y-70938D02*
X61700Y-71188D01*
X61700Y-70938D02*
X61450Y-71188D01*
X61489Y-66273D02*
X61739Y-66523D01*
X61739Y-66273D02*
X61489Y-66523D01*
X61725Y-60052D02*
X61975Y-60302D01*
X61975Y-60052D02*
X61725Y-60302D01*
X62395Y-59560D02*
X62645Y-59810D01*
X62645Y-59560D02*
X62395Y-59810D01*
X62926Y-65584D02*
X63176Y-65834D01*
X63176Y-65584D02*
X62926Y-65834D01*
X63359Y-62966D02*
X63609Y-63216D01*
X63609Y-62966D02*
X63359Y-63216D01*
X63576Y-62139D02*
X63826Y-62389D01*
X63826Y-62139D02*
X63576Y-62389D01*
X64875Y-71056D02*
X65125Y-71306D01*
X65125Y-71056D02*
X64875Y-71306D01*
X65741Y-58576D02*
X65991Y-58826D01*
X65991Y-58576D02*
X65741Y-58826D01*
X65859Y-61607D02*
X66109Y-61857D01*
X66109Y-61607D02*
X65859Y-61857D01*
X66312Y-61233D02*
X66562Y-61483D01*
X66562Y-61233D02*
X66312Y-61483D01*
X54870Y-71754D02*
X54866Y-71788D01*
X54856Y-71821D01*
X54840Y-71851D01*
X54818Y-71878D01*
X54791Y-71900D01*
X54761Y-71917D01*
X54728Y-71927D01*
X54694Y-71930D01*
X54660Y-71927D01*
X54627Y-71918D01*
X54597Y-71902D01*
X54570Y-71880D01*
X54547Y-71853D01*
X54531Y-71823D01*
X54520Y-71790D01*
X54517Y-71756D01*
X54519Y-71723D01*
X54529Y-71689D01*
X54545Y-71659D01*
X54566Y-71632D01*
X54592Y-71609D01*
X54623Y-71592D01*
X54655Y-71582D01*
X54690Y-71578D01*
X54723Y-71580D01*
X54757Y-71589D01*
X54787Y-71605D01*
X54815Y-71626D01*
X54837Y-71652D01*
X54854Y-71683D01*
X54865Y-71715D01*
X54869Y-71750D01*
X54870Y-71754D01*
X54870Y-73442D02*
X54866Y-73476D01*
X54856Y-73509D01*
X54840Y-73539D01*
X54818Y-73566D01*
X54791Y-73588D01*
X54761Y-73605D01*
X54728Y-73615D01*
X54694Y-73618D01*
X54660Y-73615D01*
X54627Y-73606D01*
X54597Y-73590D01*
X54570Y-73568D01*
X54547Y-73541D01*
X54531Y-73511D01*
X54520Y-73478D01*
X54517Y-73444D01*
X54519Y-73411D01*
X54529Y-73377D01*
X54545Y-73347D01*
X54566Y-73320D01*
X54592Y-73297D01*
X54623Y-73280D01*
X54655Y-73270D01*
X54690Y-73266D01*
X54723Y-73268D01*
X54757Y-73277D01*
X54787Y-73293D01*
X54815Y-73314D01*
X54837Y-73340D01*
X54854Y-73371D01*
X54865Y-73403D01*
X54869Y-73438D01*
X54870Y-73442D01*
X55720Y-71754D02*
X55716Y-71788D01*
X55706Y-71821D01*
X55690Y-71851D01*
X55668Y-71878D01*
X55641Y-71900D01*
X55611Y-71917D01*
X55578Y-71927D01*
X55544Y-71930D01*
X55510Y-71927D01*
X55477Y-71918D01*
X55447Y-71902D01*
X55420Y-71880D01*
X55397Y-71853D01*
X55381Y-71823D01*
X55370Y-71790D01*
X55367Y-71756D01*
X55369Y-71723D01*
X55379Y-71689D01*
X55395Y-71659D01*
X55416Y-71632D01*
X55442Y-71609D01*
X55473Y-71592D01*
X55505Y-71582D01*
X55540Y-71578D01*
X55573Y-71580D01*
X55607Y-71589D01*
X55637Y-71605D01*
X55665Y-71626D01*
X55687Y-71652D01*
X55704Y-71683D01*
X55715Y-71715D01*
X55719Y-71750D01*
X55720Y-71754D01*
X55720Y-73442D02*
X55716Y-73476D01*
X55706Y-73509D01*
X55690Y-73539D01*
X55668Y-73566D01*
X55641Y-73588D01*
X55611Y-73605D01*
X55578Y-73615D01*
X55544Y-73618D01*
X55510Y-73615D01*
X55477Y-73606D01*
X55447Y-73590D01*
X55420Y-73568D01*
X55397Y-73541D01*
X55381Y-73511D01*
X55370Y-73478D01*
X55367Y-73444D01*
X55369Y-73411D01*
X55379Y-73377D01*
X55395Y-73347D01*
X55416Y-73320D01*
X55442Y-73297D01*
X55473Y-73280D01*
X55505Y-73270D01*
X55540Y-73266D01*
X55573Y-73268D01*
X55607Y-73277D01*
X55637Y-73293D01*
X55665Y-73314D01*
X55687Y-73340D01*
X55704Y-73371D01*
X55715Y-73403D01*
X55719Y-73438D01*
X55720Y-73442D01*
X56571Y-71754D02*
X56567Y-71788D01*
X56557Y-71821D01*
X56541Y-71851D01*
X56519Y-71878D01*
X56492Y-71900D01*
X56462Y-71917D01*
X56429Y-71927D01*
X56395Y-71930D01*
X56361Y-71927D01*
X56328Y-71918D01*
X56298Y-71902D01*
X56271Y-71880D01*
X56248Y-71853D01*
X56232Y-71823D01*
X56221Y-71790D01*
X56218Y-71756D01*
X56220Y-71723D01*
X56230Y-71689D01*
X56246Y-71659D01*
X56267Y-71632D01*
X56293Y-71609D01*
X56324Y-71592D01*
X56356Y-71582D01*
X56391Y-71578D01*
X56424Y-71580D01*
X56458Y-71589D01*
X56488Y-71605D01*
X56516Y-71626D01*
X56538Y-71652D01*
X56555Y-71683D01*
X56566Y-71715D01*
X56570Y-71750D01*
X56571Y-71754D01*
X56571Y-73442D02*
X56567Y-73476D01*
X56557Y-73509D01*
X56541Y-73539D01*
X56519Y-73566D01*
X56492Y-73588D01*
X56462Y-73605D01*
X56429Y-73615D01*
X56395Y-73618D01*
X56361Y-73615D01*
X56328Y-73606D01*
X56298Y-73590D01*
X56271Y-73568D01*
X56248Y-73541D01*
X56232Y-73511D01*
X56221Y-73478D01*
X56218Y-73444D01*
X56220Y-73411D01*
X56230Y-73377D01*
X56246Y-73347D01*
X56267Y-73320D01*
X56293Y-73297D01*
X56324Y-73280D01*
X56356Y-73270D01*
X56391Y-73266D01*
X56424Y-73268D01*
X56458Y-73277D01*
X56488Y-73293D01*
X56516Y-73314D01*
X56538Y-73340D01*
X56555Y-73371D01*
X56566Y-73403D01*
X56570Y-73438D01*
X56571Y-73442D01*
X57421Y-71754D02*
X57417Y-71788D01*
X57407Y-71821D01*
X57391Y-71851D01*
X57369Y-71878D01*
X57342Y-71900D01*
X57312Y-71917D01*
X57279Y-71927D01*
X57245Y-71930D01*
X57211Y-71927D01*
X57178Y-71918D01*
X57148Y-71902D01*
X57121Y-71880D01*
X57098Y-71853D01*
X57082Y-71823D01*
X57071Y-71790D01*
X57068Y-71756D01*
X57070Y-71723D01*
X57080Y-71689D01*
X57096Y-71659D01*
X57117Y-71632D01*
X57143Y-71609D01*
X57174Y-71592D01*
X57206Y-71582D01*
X57241Y-71578D01*
X57274Y-71580D01*
X57308Y-71589D01*
X57338Y-71605D01*
X57366Y-71626D01*
X57388Y-71652D01*
X57405Y-71683D01*
X57416Y-71715D01*
X57420Y-71750D01*
X57421Y-71754D01*
X57421Y-73442D02*
X57417Y-73476D01*
X57407Y-73509D01*
X57391Y-73539D01*
X57369Y-73566D01*
X57342Y-73588D01*
X57312Y-73605D01*
X57279Y-73615D01*
X57245Y-73618D01*
X57211Y-73615D01*
X57178Y-73606D01*
X57148Y-73590D01*
X57121Y-73568D01*
X57098Y-73541D01*
X57082Y-73511D01*
X57071Y-73478D01*
X57068Y-73444D01*
X57070Y-73411D01*
X57080Y-73377D01*
X57096Y-73347D01*
X57117Y-73320D01*
X57143Y-73297D01*
X57174Y-73280D01*
X57206Y-73270D01*
X57241Y-73266D01*
X57274Y-73268D01*
X57308Y-73277D01*
X57338Y-73293D01*
X57366Y-73314D01*
X57388Y-73340D01*
X57405Y-73371D01*
X57416Y-73403D01*
X57420Y-73438D01*
X57421Y-73442D01*
X58271Y-71754D02*
X58267Y-71788D01*
X58257Y-71821D01*
X58241Y-71851D01*
X58219Y-71878D01*
X58192Y-71900D01*
X58162Y-71917D01*
X58129Y-71927D01*
X58095Y-71930D01*
X58061Y-71927D01*
X58028Y-71918D01*
X57998Y-71902D01*
X57971Y-71880D01*
X57948Y-71853D01*
X57932Y-71823D01*
X57921Y-71790D01*
X57918Y-71756D01*
X57920Y-71723D01*
X57930Y-71689D01*
X57946Y-71659D01*
X57967Y-71632D01*
X57993Y-71609D01*
X58024Y-71592D01*
X58056Y-71582D01*
X58091Y-71578D01*
X58124Y-71580D01*
X58158Y-71589D01*
X58188Y-71605D01*
X58216Y-71626D01*
X58238Y-71652D01*
X58255Y-71683D01*
X58266Y-71715D01*
X58270Y-71750D01*
X58271Y-71754D01*
X58271Y-73442D02*
X58267Y-73476D01*
X58257Y-73509D01*
X58241Y-73539D01*
X58219Y-73566D01*
X58192Y-73588D01*
X58162Y-73605D01*
X58129Y-73615D01*
X58095Y-73618D01*
X58061Y-73615D01*
X58028Y-73606D01*
X57998Y-73590D01*
X57971Y-73568D01*
X57948Y-73541D01*
X57932Y-73511D01*
X57921Y-73478D01*
X57918Y-73444D01*
X57920Y-73411D01*
X57930Y-73377D01*
X57946Y-73347D01*
X57967Y-73320D01*
X57993Y-73297D01*
X58024Y-73280D01*
X58056Y-73270D01*
X58091Y-73266D01*
X58124Y-73268D01*
X58158Y-73277D01*
X58188Y-73293D01*
X58216Y-73314D01*
X58238Y-73340D01*
X58255Y-73371D01*
X58266Y-73403D01*
X58270Y-73438D01*
X58271Y-73442D01*
X59122Y-71754D02*
X59118Y-71788D01*
X59108Y-71821D01*
X59092Y-71851D01*
X59070Y-71878D01*
X59043Y-71900D01*
X59013Y-71917D01*
X58980Y-71927D01*
X58946Y-71930D01*
X58912Y-71927D01*
X58879Y-71918D01*
X58849Y-71902D01*
X58822Y-71880D01*
X58799Y-71853D01*
X58783Y-71823D01*
X58772Y-71790D01*
X58769Y-71756D01*
X58771Y-71723D01*
X58781Y-71689D01*
X58797Y-71659D01*
X58818Y-71632D01*
X58844Y-71609D01*
X58875Y-71592D01*
X58907Y-71582D01*
X58942Y-71578D01*
X58975Y-71580D01*
X59009Y-71589D01*
X59039Y-71605D01*
X59067Y-71626D01*
X59089Y-71652D01*
X59106Y-71683D01*
X59117Y-71715D01*
X59121Y-71750D01*
X59122Y-71754D01*
X59122Y-73442D02*
X59118Y-73476D01*
X59108Y-73509D01*
X59092Y-73539D01*
X59070Y-73566D01*
X59043Y-73588D01*
X59013Y-73605D01*
X58980Y-73615D01*
X58946Y-73618D01*
X58912Y-73615D01*
X58879Y-73606D01*
X58849Y-73590D01*
X58822Y-73568D01*
X58799Y-73541D01*
X58783Y-73511D01*
X58772Y-73478D01*
X58769Y-73444D01*
X58771Y-73411D01*
X58781Y-73377D01*
X58797Y-73347D01*
X58818Y-73320D01*
X58844Y-73297D01*
X58875Y-73280D01*
X58907Y-73270D01*
X58942Y-73266D01*
X58975Y-73268D01*
X59009Y-73277D01*
X59039Y-73293D01*
X59067Y-73314D01*
X59089Y-73340D01*
X59106Y-73371D01*
X59117Y-73403D01*
X59121Y-73438D01*
X59122Y-73442D01*
X59972Y-71754D02*
X59968Y-71788D01*
X59958Y-71821D01*
X59942Y-71851D01*
X59920Y-71878D01*
X59893Y-71900D01*
X59863Y-71917D01*
X59830Y-71927D01*
X59796Y-71930D01*
X59762Y-71927D01*
X59729Y-71918D01*
X59699Y-71902D01*
X59672Y-71880D01*
X59649Y-71853D01*
X59633Y-71823D01*
X59622Y-71790D01*
X59619Y-71756D01*
X59621Y-71723D01*
X59631Y-71689D01*
X59647Y-71659D01*
X59668Y-71632D01*
X59694Y-71609D01*
X59725Y-71592D01*
X59757Y-71582D01*
X59792Y-71578D01*
X59825Y-71580D01*
X59859Y-71589D01*
X59889Y-71605D01*
X59917Y-71626D01*
X59939Y-71652D01*
X59956Y-71683D01*
X59967Y-71715D01*
X59971Y-71750D01*
X59972Y-71754D01*
X59972Y-73442D02*
X59968Y-73476D01*
X59958Y-73509D01*
X59942Y-73539D01*
X59920Y-73566D01*
X59893Y-73588D01*
X59863Y-73605D01*
X59830Y-73615D01*
X59796Y-73618D01*
X59762Y-73615D01*
X59729Y-73606D01*
X59699Y-73590D01*
X59672Y-73568D01*
X59649Y-73541D01*
X59633Y-73511D01*
X59622Y-73478D01*
X59619Y-73444D01*
X59621Y-73411D01*
X59631Y-73377D01*
X59647Y-73347D01*
X59668Y-73320D01*
X59694Y-73297D01*
X59725Y-73280D01*
X59757Y-73270D01*
X59792Y-73266D01*
X59825Y-73268D01*
X59859Y-73277D01*
X59889Y-73293D01*
X59917Y-73314D01*
X59939Y-73340D01*
X59956Y-73371D01*
X59967Y-73403D01*
X59971Y-73438D01*
X59972Y-73442D01*
X60822Y-73442D02*
X60818Y-73476D01*
X60808Y-73509D01*
X60792Y-73539D01*
X60770Y-73566D01*
X60743Y-73588D01*
X60713Y-73605D01*
X60680Y-73615D01*
X60646Y-73618D01*
X60612Y-73615D01*
X60579Y-73606D01*
X60549Y-73590D01*
X60522Y-73568D01*
X60499Y-73541D01*
X60483Y-73511D01*
X60472Y-73478D01*
X60469Y-73444D01*
X60471Y-73411D01*
X60481Y-73377D01*
X60497Y-73347D01*
X60518Y-73320D01*
X60544Y-73297D01*
X60575Y-73280D01*
X60607Y-73270D01*
X60642Y-73266D01*
X60675Y-73268D01*
X60709Y-73277D01*
X60739Y-73293D01*
X60767Y-73314D01*
X60789Y-73340D01*
X60806Y-73371D01*
X60817Y-73403D01*
X60821Y-73438D01*
X60822Y-73442D01*
X60823Y-71754D02*
X60819Y-71788D01*
X60809Y-71821D01*
X60793Y-71851D01*
X60771Y-71878D01*
X60744Y-71900D01*
X60714Y-71917D01*
X60681Y-71927D01*
X60647Y-71930D01*
X60613Y-71927D01*
X60580Y-71918D01*
X60550Y-71902D01*
X60523Y-71880D01*
X60500Y-71853D01*
X60484Y-71823D01*
X60473Y-71790D01*
X60470Y-71756D01*
X60472Y-71723D01*
X60482Y-71689D01*
X60498Y-71659D01*
X60519Y-71632D01*
X60545Y-71609D01*
X60576Y-71592D01*
X60608Y-71582D01*
X60643Y-71578D01*
X60676Y-71580D01*
X60710Y-71589D01*
X60740Y-71605D01*
X60768Y-71626D01*
X60790Y-71652D01*
X60807Y-71683D01*
X60818Y-71715D01*
X60822Y-71750D01*
X60823Y-71754D01*
X61673Y-71754D02*
X61669Y-71788D01*
X61659Y-71821D01*
X61643Y-71851D01*
X61621Y-71878D01*
X61594Y-71900D01*
X61564Y-71917D01*
X61531Y-71927D01*
X61497Y-71930D01*
X61463Y-71927D01*
X61430Y-71918D01*
X61400Y-71902D01*
X61373Y-71880D01*
X61350Y-71853D01*
X61334Y-71823D01*
X61323Y-71790D01*
X61320Y-71756D01*
X61322Y-71723D01*
X61332Y-71689D01*
X61348Y-71659D01*
X61369Y-71632D01*
X61395Y-71609D01*
X61426Y-71592D01*
X61458Y-71582D01*
X61493Y-71578D01*
X61526Y-71580D01*
X61560Y-71589D01*
X61590Y-71605D01*
X61618Y-71626D01*
X61640Y-71652D01*
X61657Y-71683D01*
X61668Y-71715D01*
X61672Y-71750D01*
X61673Y-71754D01*
X61673Y-73442D02*
X61669Y-73476D01*
X61659Y-73509D01*
X61643Y-73539D01*
X61621Y-73566D01*
X61594Y-73588D01*
X61564Y-73605D01*
X61531Y-73615D01*
X61497Y-73618D01*
X61463Y-73615D01*
X61430Y-73606D01*
X61400Y-73590D01*
X61373Y-73568D01*
X61350Y-73541D01*
X61334Y-73511D01*
X61323Y-73478D01*
X61320Y-73444D01*
X61322Y-73411D01*
X61332Y-73377D01*
X61348Y-73347D01*
X61369Y-73320D01*
X61395Y-73297D01*
X61426Y-73280D01*
X61458Y-73270D01*
X61493Y-73266D01*
X61526Y-73268D01*
X61560Y-73277D01*
X61590Y-73293D01*
X61618Y-73314D01*
X61640Y-73340D01*
X61657Y-73371D01*
X61668Y-73403D01*
X61672Y-73438D01*
X61673Y-73442D01*
X62523Y-71754D02*
X62519Y-71788D01*
X62509Y-71821D01*
X62493Y-71851D01*
X62471Y-71878D01*
X62444Y-71900D01*
X62414Y-71917D01*
X62381Y-71927D01*
X62347Y-71930D01*
X62313Y-71927D01*
X62280Y-71918D01*
X62250Y-71902D01*
X62223Y-71880D01*
X62200Y-71853D01*
X62184Y-71823D01*
X62173Y-71790D01*
X62170Y-71756D01*
X62172Y-71723D01*
X62182Y-71689D01*
X62198Y-71659D01*
X62219Y-71632D01*
X62245Y-71609D01*
X62276Y-71592D01*
X62308Y-71582D01*
X62343Y-71578D01*
X62376Y-71580D01*
X62410Y-71589D01*
X62440Y-71605D01*
X62468Y-71626D01*
X62490Y-71652D01*
X62507Y-71683D01*
X62518Y-71715D01*
X62522Y-71750D01*
X62523Y-71754D01*
X62523Y-73442D02*
X62519Y-73476D01*
X62509Y-73509D01*
X62493Y-73539D01*
X62471Y-73566D01*
X62444Y-73588D01*
X62414Y-73605D01*
X62381Y-73615D01*
X62347Y-73618D01*
X62313Y-73615D01*
X62280Y-73606D01*
X62250Y-73590D01*
X62223Y-73568D01*
X62200Y-73541D01*
X62184Y-73511D01*
X62173Y-73478D01*
X62170Y-73444D01*
X62172Y-73411D01*
X62182Y-73377D01*
X62198Y-73347D01*
X62219Y-73320D01*
X62245Y-73297D01*
X62276Y-73280D01*
X62308Y-73270D01*
X62343Y-73266D01*
X62376Y-73268D01*
X62410Y-73277D01*
X62440Y-73293D01*
X62468Y-73314D01*
X62490Y-73340D01*
X62507Y-73371D01*
X62518Y-73403D01*
X62522Y-73438D01*
X62523Y-73442D01*
X63374Y-71754D02*
X63370Y-71788D01*
X63360Y-71821D01*
X63344Y-71851D01*
X63322Y-71878D01*
X63295Y-71900D01*
X63265Y-71917D01*
X63232Y-71927D01*
X63198Y-71930D01*
X63164Y-71927D01*
X63131Y-71918D01*
X63101Y-71902D01*
X63074Y-71880D01*
X63051Y-71853D01*
X63035Y-71823D01*
X63024Y-71790D01*
X63021Y-71756D01*
X63023Y-71723D01*
X63033Y-71689D01*
X63049Y-71659D01*
X63070Y-71632D01*
X63096Y-71609D01*
X63127Y-71592D01*
X63159Y-71582D01*
X63194Y-71578D01*
X63227Y-71580D01*
X63261Y-71589D01*
X63291Y-71605D01*
X63319Y-71626D01*
X63341Y-71652D01*
X63358Y-71683D01*
X63369Y-71715D01*
X63373Y-71750D01*
X63374Y-71754D01*
X63374Y-73442D02*
X63370Y-73476D01*
X63360Y-73509D01*
X63344Y-73539D01*
X63322Y-73566D01*
X63295Y-73588D01*
X63265Y-73605D01*
X63232Y-73615D01*
X63198Y-73618D01*
X63164Y-73615D01*
X63131Y-73606D01*
X63101Y-73590D01*
X63074Y-73568D01*
X63051Y-73541D01*
X63035Y-73511D01*
X63024Y-73478D01*
X63021Y-73444D01*
X63023Y-73411D01*
X63033Y-73377D01*
X63049Y-73347D01*
X63070Y-73320D01*
X63096Y-73297D01*
X63127Y-73280D01*
X63159Y-73270D01*
X63194Y-73266D01*
X63227Y-73268D01*
X63261Y-73277D01*
X63291Y-73293D01*
X63319Y-73314D01*
X63341Y-73340D01*
X63358Y-73371D01*
X63369Y-73403D01*
X63373Y-73438D01*
X63374Y-73442D01*
X64224Y-71754D02*
X64220Y-71788D01*
X64210Y-71821D01*
X64194Y-71851D01*
X64172Y-71878D01*
X64145Y-71900D01*
X64115Y-71917D01*
X64082Y-71927D01*
X64048Y-71930D01*
X64014Y-71927D01*
X63981Y-71918D01*
X63951Y-71902D01*
X63924Y-71880D01*
X63901Y-71853D01*
X63885Y-71823D01*
X63874Y-71790D01*
X63871Y-71756D01*
X63873Y-71723D01*
X63883Y-71689D01*
X63899Y-71659D01*
X63920Y-71632D01*
X63946Y-71609D01*
X63977Y-71592D01*
X64009Y-71582D01*
X64044Y-71578D01*
X64077Y-71580D01*
X64111Y-71589D01*
X64141Y-71605D01*
X64169Y-71626D01*
X64191Y-71652D01*
X64208Y-71683D01*
X64219Y-71715D01*
X64223Y-71750D01*
X64224Y-71754D01*
X64224Y-73442D02*
X64220Y-73476D01*
X64210Y-73509D01*
X64194Y-73539D01*
X64172Y-73566D01*
X64145Y-73588D01*
X64115Y-73605D01*
X64082Y-73615D01*
X64048Y-73618D01*
X64014Y-73615D01*
X63981Y-73606D01*
X63951Y-73590D01*
X63924Y-73568D01*
X63901Y-73541D01*
X63885Y-73511D01*
X63874Y-73478D01*
X63871Y-73444D01*
X63873Y-73411D01*
X63883Y-73377D01*
X63899Y-73347D01*
X63920Y-73320D01*
X63946Y-73297D01*
X63977Y-73280D01*
X64009Y-73270D01*
X64044Y-73266D01*
X64077Y-73268D01*
X64111Y-73277D01*
X64141Y-73293D01*
X64169Y-73314D01*
X64191Y-73340D01*
X64208Y-73371D01*
X64219Y-73403D01*
X64223Y-73438D01*
X64224Y-73442D01*
X64862Y-58435D02*
X64858Y-58469D01*
X64848Y-58502D01*
X64832Y-58532D01*
X64810Y-58559D01*
X64783Y-58581D01*
X64753Y-58598D01*
X64720Y-58608D01*
X64686Y-58611D01*
X64652Y-58608D01*
X64619Y-58599D01*
X64589Y-58583D01*
X64562Y-58561D01*
X64539Y-58534D01*
X64523Y-58504D01*
X64512Y-58471D01*
X64509Y-58437D01*
X64511Y-58404D01*
X64521Y-58370D01*
X64537Y-58340D01*
X64558Y-58313D01*
X64584Y-58290D01*
X64615Y-58273D01*
X64647Y-58263D01*
X64682Y-58259D01*
X64715Y-58261D01*
X64749Y-58270D01*
X64779Y-58286D01*
X64807Y-58307D01*
X64829Y-58333D01*
X64846Y-58364D01*
X64857Y-58396D01*
X64861Y-58431D01*
X64862Y-58435D01*
X66594Y-58435D02*
X66590Y-58469D01*
X66580Y-58502D01*
X66564Y-58532D01*
X66542Y-58559D01*
X66515Y-58581D01*
X66485Y-58598D01*
X66452Y-58608D01*
X66418Y-58611D01*
X66384Y-58608D01*
X66351Y-58599D01*
X66321Y-58583D01*
X66294Y-58561D01*
X66271Y-58534D01*
X66255Y-58504D01*
X66244Y-58471D01*
X66241Y-58437D01*
X66243Y-58404D01*
X66253Y-58370D01*
X66269Y-58340D01*
X66290Y-58313D01*
X66316Y-58290D01*
X66347Y-58273D01*
X66379Y-58263D01*
X66414Y-58259D01*
X66447Y-58261D01*
X66481Y-58270D01*
X66511Y-58286D01*
X66539Y-58307D01*
X66561Y-58333D01*
X66578Y-58364D01*
X66589Y-58396D01*
X66593Y-58431D01*
X66594Y-58435D01*
X52283Y-57772D02*
X52283Y-58172D01*
X52083Y-57972D02*
X52483Y-57972D01*
X53283Y-57772D02*
X53283Y-58172D01*
X53083Y-57972D02*
X53483Y-57972D01*
X54283Y-57772D02*
X54283Y-58172D01*
X54083Y-57972D02*
X54483Y-57972D01*
X55283Y-57772D02*
X55283Y-58172D01*
X55083Y-57972D02*
X55483Y-57972D01*
X57063Y-57772D02*
X57063Y-58172D01*
X56863Y-57972D02*
X57263Y-57972D01*
X58063Y-57772D02*
X58063Y-58172D01*
X57863Y-57972D02*
X58263Y-57972D01*
X59063Y-57772D02*
X59063Y-58172D01*
X58863Y-57972D02*
X59263Y-57972D01*
X60063Y-57772D02*
X60063Y-58172D01*
X59863Y-57972D02*
X60263Y-57972D01*
X61063Y-57772D02*
X61063Y-58172D01*
X60863Y-57972D02*
X61263Y-57972D01*
X69252Y-64465D02*
X69252Y-64865D01*
X69052Y-64665D02*
X69452Y-64665D01*
X69252Y-65465D02*
X69252Y-65865D01*
X69052Y-65665D02*
X69452Y-65665D01*
X69252Y-66465D02*
X69252Y-66865D01*
X69052Y-66665D02*
X69452Y-66665D01*
X69252Y-67465D02*
X69252Y-67865D01*
X69052Y-67665D02*
X69452Y-67665D01*
X50604Y-73043D02*
X50604Y-72153D01*
X49714Y-72153D01*
X49714Y-73043D01*
X50604Y-73043D01*
X69026Y-73043D02*
X69026Y-72153D01*
X68136Y-72153D01*
X68136Y-73043D01*
X69026Y-73043D01*
G54D12*
X17139Y-81246D02*
X17139Y-80746D01*
X17258Y-80746D01*
X17330Y-80770D01*
X17377Y-80818D01*
X17401Y-80865D01*
X17425Y-80961D01*
X17425Y-81032D01*
X17401Y-81127D01*
X17377Y-81175D01*
X17330Y-81223D01*
X17258Y-81246D01*
X17139Y-81246D01*
X17639Y-81246D02*
X17639Y-80913D01*
X17639Y-81008D02*
X17663Y-80961D01*
X17687Y-80937D01*
X17734Y-80913D01*
X17782Y-80913D01*
X17949Y-81246D02*
X17949Y-80913D01*
X17949Y-80746D02*
X17925Y-80770D01*
X17949Y-80794D01*
X17973Y-80770D01*
X17949Y-80746D01*
X17949Y-80794D01*
X18258Y-81246D02*
X18211Y-81223D01*
X18187Y-81175D01*
X18187Y-80746D01*
X18520Y-81246D02*
X18473Y-81223D01*
X18449Y-81175D01*
X18449Y-80746D01*
X19092Y-81246D02*
X19092Y-80746D01*
X19259Y-81104D01*
X19425Y-80746D01*
X19425Y-81246D01*
X19877Y-81246D02*
X19877Y-80984D01*
X19854Y-80937D01*
X19806Y-80913D01*
X19711Y-80913D01*
X19663Y-80937D01*
X19877Y-81223D02*
X19830Y-81246D01*
X19711Y-81246D01*
X19663Y-81223D01*
X19639Y-81175D01*
X19639Y-81127D01*
X19663Y-81080D01*
X19711Y-81056D01*
X19830Y-81056D01*
X19877Y-81032D01*
X20115Y-80913D02*
X20115Y-81413D01*
X20115Y-80937D02*
X20163Y-80913D01*
X20258Y-80913D01*
X20306Y-80937D01*
X20329Y-80961D01*
X20353Y-81008D01*
X20353Y-81151D01*
X20329Y-81199D01*
X20306Y-81223D01*
X20258Y-81246D01*
X20163Y-81246D01*
X20115Y-81223D01*
X20567Y-81199D02*
X20591Y-81223D01*
X20567Y-81246D01*
X20543Y-81223D01*
X20567Y-81199D01*
X20567Y-81246D01*
X20567Y-80937D02*
X20591Y-80961D01*
X20567Y-80984D01*
X20543Y-80961D01*
X20567Y-80937D01*
X20567Y-80984D01*
X16570Y-81969D02*
X16820Y-82219D01*
X16820Y-81969D02*
X16570Y-82219D01*
X17234Y-81796D02*
X17282Y-81796D01*
X17330Y-81820D01*
X17353Y-81844D01*
X17377Y-81892D01*
X17401Y-81987D01*
X17401Y-82106D01*
X17377Y-82201D01*
X17353Y-82249D01*
X17330Y-82273D01*
X17282Y-82296D01*
X17234Y-82296D01*
X17187Y-82273D01*
X17163Y-82249D01*
X17139Y-82201D01*
X17115Y-82106D01*
X17115Y-81987D01*
X17139Y-81892D01*
X17163Y-81844D01*
X17187Y-81820D01*
X17234Y-81796D01*
X17615Y-82249D02*
X17639Y-82273D01*
X17615Y-82296D01*
X17591Y-82273D01*
X17615Y-82249D01*
X17615Y-82296D01*
X18067Y-81796D02*
X17972Y-81796D01*
X17924Y-81820D01*
X17901Y-81844D01*
X17853Y-81915D01*
X17829Y-82011D01*
X17829Y-82201D01*
X17853Y-82249D01*
X17877Y-82273D01*
X17924Y-82296D01*
X18020Y-82296D01*
X18067Y-82273D01*
X18091Y-82249D01*
X18115Y-82201D01*
X18115Y-82082D01*
X18091Y-82034D01*
X18067Y-82011D01*
X18020Y-81987D01*
X17924Y-81987D01*
X17877Y-82011D01*
X17853Y-82034D01*
X17829Y-82082D01*
X18543Y-81963D02*
X18543Y-82296D01*
X18424Y-81773D02*
X18305Y-82130D01*
X18615Y-82130D01*
X18805Y-82296D02*
X18805Y-81963D01*
X18805Y-82011D02*
X18829Y-81987D01*
X18876Y-81963D01*
X18948Y-81963D01*
X18996Y-81987D01*
X19019Y-82034D01*
X19019Y-82296D01*
X19019Y-82034D02*
X19043Y-81987D01*
X19091Y-81963D01*
X19162Y-81963D01*
X19210Y-81987D01*
X19234Y-82034D01*
X19234Y-82296D01*
X19472Y-82296D02*
X19472Y-81963D01*
X19472Y-82011D02*
X19496Y-81987D01*
X19543Y-81963D01*
X19615Y-81963D01*
X19663Y-81987D01*
X19686Y-82034D01*
X19686Y-82296D01*
X19686Y-82034D02*
X19710Y-81987D01*
X19758Y-81963D01*
X19829Y-81963D01*
X19877Y-81987D01*
X19901Y-82034D01*
X19901Y-82296D01*
X20877Y-81773D02*
X20449Y-82415D01*
X21520Y-81796D02*
X21568Y-81796D01*
X21616Y-81820D01*
X21639Y-81844D01*
X21663Y-81892D01*
X21687Y-81987D01*
X21687Y-82106D01*
X21663Y-82201D01*
X21639Y-82249D01*
X21616Y-82273D01*
X21568Y-82296D01*
X21520Y-82296D01*
X21473Y-82273D01*
X21449Y-82249D01*
X21425Y-82201D01*
X21401Y-82106D01*
X21401Y-81987D01*
X21425Y-81892D01*
X21449Y-81844D01*
X21473Y-81820D01*
X21520Y-81796D01*
X21901Y-82249D02*
X21925Y-82273D01*
X21901Y-82296D01*
X21877Y-82273D01*
X21901Y-82249D01*
X21901Y-82296D01*
X22234Y-81796D02*
X22282Y-81796D01*
X22330Y-81820D01*
X22353Y-81844D01*
X22377Y-81892D01*
X22401Y-81987D01*
X22401Y-82106D01*
X22377Y-82201D01*
X22353Y-82249D01*
X22330Y-82273D01*
X22282Y-82296D01*
X22234Y-82296D01*
X22187Y-82273D01*
X22163Y-82249D01*
X22139Y-82201D01*
X22115Y-82106D01*
X22115Y-81987D01*
X22139Y-81892D01*
X22163Y-81844D01*
X22187Y-81820D01*
X22234Y-81796D01*
X22591Y-81844D02*
X22615Y-81820D01*
X22663Y-81796D01*
X22782Y-81796D01*
X22829Y-81820D01*
X22853Y-81844D01*
X22877Y-81892D01*
X22877Y-81939D01*
X22853Y-82011D01*
X22567Y-82296D01*
X22877Y-82296D01*
X23329Y-81796D02*
X23091Y-81796D01*
X23067Y-82034D01*
X23091Y-82011D01*
X23139Y-81987D01*
X23258Y-81987D01*
X23305Y-82011D01*
X23329Y-82034D01*
X23353Y-82082D01*
X23353Y-82201D01*
X23329Y-82249D01*
X23305Y-82273D01*
X23258Y-82296D01*
X23139Y-82296D01*
X23091Y-82273D01*
X23067Y-82249D01*
X23543Y-81796D02*
X23543Y-81892D01*
X23734Y-81796D02*
X23734Y-81892D01*
X24472Y-82487D02*
X24448Y-82463D01*
X24400Y-82392D01*
X24377Y-82344D01*
X24353Y-82273D01*
X24329Y-82154D01*
X24329Y-82058D01*
X24353Y-81939D01*
X24377Y-81868D01*
X24400Y-81820D01*
X24448Y-81749D01*
X24472Y-81725D01*
X24876Y-81963D02*
X24876Y-82296D01*
X24757Y-81773D02*
X24638Y-82130D01*
X24948Y-82130D01*
X25162Y-82296D02*
X25257Y-82296D01*
X25305Y-82273D01*
X25329Y-82249D01*
X25376Y-82177D01*
X25400Y-82082D01*
X25400Y-81892D01*
X25376Y-81844D01*
X25352Y-81820D01*
X25305Y-81796D01*
X25209Y-81796D01*
X25162Y-81820D01*
X25138Y-81844D01*
X25114Y-81892D01*
X25114Y-82011D01*
X25138Y-82058D01*
X25162Y-82082D01*
X25209Y-82106D01*
X25305Y-82106D01*
X25352Y-82082D01*
X25376Y-82058D01*
X25400Y-82011D01*
X25995Y-82296D02*
X25995Y-81796D01*
X26209Y-82296D02*
X26209Y-82034D01*
X26186Y-81987D01*
X26138Y-81963D01*
X26066Y-81963D01*
X26019Y-81987D01*
X25995Y-82011D01*
X26518Y-82296D02*
X26471Y-82273D01*
X26447Y-82249D01*
X26423Y-82201D01*
X26423Y-82058D01*
X26447Y-82011D01*
X26471Y-81987D01*
X26518Y-81963D01*
X26590Y-81963D01*
X26638Y-81987D01*
X26661Y-82011D01*
X26685Y-82058D01*
X26685Y-82201D01*
X26661Y-82249D01*
X26638Y-82273D01*
X26590Y-82296D01*
X26518Y-82296D01*
X26970Y-82296D02*
X26923Y-82273D01*
X26899Y-82225D01*
X26899Y-81796D01*
X27352Y-82273D02*
X27304Y-82296D01*
X27209Y-82296D01*
X27161Y-82273D01*
X27137Y-82225D01*
X27137Y-82034D01*
X27161Y-81987D01*
X27209Y-81963D01*
X27304Y-81963D01*
X27352Y-81987D01*
X27375Y-82034D01*
X27375Y-82082D01*
X27137Y-82130D01*
X27566Y-82273D02*
X27614Y-82296D01*
X27709Y-82296D01*
X27757Y-82273D01*
X27781Y-82225D01*
X27781Y-82201D01*
X27757Y-82154D01*
X27709Y-82130D01*
X27638Y-82130D01*
X27590Y-82106D01*
X27566Y-82058D01*
X27566Y-82034D01*
X27590Y-81987D01*
X27638Y-81963D01*
X27709Y-81963D01*
X27757Y-81987D01*
X27947Y-82487D02*
X27971Y-82463D01*
X28019Y-82392D01*
X28043Y-82344D01*
X28066Y-82273D01*
X28090Y-82154D01*
X28090Y-82058D01*
X28066Y-81939D01*
X28043Y-81868D01*
X28019Y-81820D01*
X27971Y-81749D01*
X27947Y-81725D01*
G54D10*
X16820Y-82754D02*
X16816Y-82788D01*
X16806Y-82821D01*
X16790Y-82851D01*
X16768Y-82878D01*
X16741Y-82900D01*
X16711Y-82917D01*
X16678Y-82927D01*
X16644Y-82930D01*
X16610Y-82927D01*
X16577Y-82918D01*
X16547Y-82902D01*
X16520Y-82880D01*
X16497Y-82853D01*
X16481Y-82823D01*
X16470Y-82790D01*
X16467Y-82756D01*
X16469Y-82723D01*
X16479Y-82689D01*
X16495Y-82659D01*
X16516Y-82632D01*
X16542Y-82609D01*
X16573Y-82592D01*
X16605Y-82582D01*
X16640Y-82578D01*
X16673Y-82580D01*
X16707Y-82589D01*
X16737Y-82605D01*
X16765Y-82626D01*
X16787Y-82652D01*
X16804Y-82683D01*
X16815Y-82715D01*
X16819Y-82750D01*
X16820Y-82754D01*
G54D12*
X17234Y-82456D02*
X17282Y-82456D01*
X17330Y-82480D01*
X17353Y-82504D01*
X17377Y-82552D01*
X17401Y-82647D01*
X17401Y-82766D01*
X17377Y-82861D01*
X17353Y-82909D01*
X17330Y-82933D01*
X17282Y-82956D01*
X17234Y-82956D01*
X17187Y-82933D01*
X17163Y-82909D01*
X17139Y-82861D01*
X17115Y-82766D01*
X17115Y-82647D01*
X17139Y-82552D01*
X17163Y-82504D01*
X17187Y-82480D01*
X17234Y-82456D01*
X17615Y-82909D02*
X17639Y-82933D01*
X17615Y-82956D01*
X17591Y-82933D01*
X17615Y-82909D01*
X17615Y-82956D01*
X17877Y-82956D02*
X17972Y-82956D01*
X18020Y-82933D01*
X18044Y-82909D01*
X18091Y-82837D01*
X18115Y-82742D01*
X18115Y-82552D01*
X18091Y-82504D01*
X18067Y-82480D01*
X18020Y-82456D01*
X17924Y-82456D01*
X17877Y-82480D01*
X17853Y-82504D01*
X17829Y-82552D01*
X17829Y-82671D01*
X17853Y-82718D01*
X17877Y-82742D01*
X17924Y-82766D01*
X18020Y-82766D01*
X18067Y-82742D01*
X18091Y-82718D01*
X18115Y-82671D01*
X18424Y-82456D02*
X18472Y-82456D01*
X18520Y-82480D01*
X18543Y-82504D01*
X18567Y-82552D01*
X18591Y-82647D01*
X18591Y-82766D01*
X18567Y-82861D01*
X18543Y-82909D01*
X18520Y-82933D01*
X18472Y-82956D01*
X18424Y-82956D01*
X18377Y-82933D01*
X18353Y-82909D01*
X18329Y-82861D01*
X18305Y-82766D01*
X18305Y-82647D01*
X18329Y-82552D01*
X18353Y-82504D01*
X18377Y-82480D01*
X18424Y-82456D01*
X18805Y-82956D02*
X18805Y-82623D01*
X18805Y-82671D02*
X18829Y-82647D01*
X18876Y-82623D01*
X18948Y-82623D01*
X18996Y-82647D01*
X19019Y-82694D01*
X19019Y-82956D01*
X19019Y-82694D02*
X19043Y-82647D01*
X19091Y-82623D01*
X19162Y-82623D01*
X19210Y-82647D01*
X19234Y-82694D01*
X19234Y-82956D01*
X19472Y-82956D02*
X19472Y-82623D01*
X19472Y-82671D02*
X19496Y-82647D01*
X19543Y-82623D01*
X19615Y-82623D01*
X19663Y-82647D01*
X19686Y-82694D01*
X19686Y-82956D01*
X19686Y-82694D02*
X19710Y-82647D01*
X19758Y-82623D01*
X19829Y-82623D01*
X19877Y-82647D01*
X19901Y-82694D01*
X19901Y-82956D01*
X20877Y-82433D02*
X20449Y-83075D01*
X21520Y-82456D02*
X21568Y-82456D01*
X21616Y-82480D01*
X21639Y-82504D01*
X21663Y-82552D01*
X21687Y-82647D01*
X21687Y-82766D01*
X21663Y-82861D01*
X21639Y-82909D01*
X21616Y-82933D01*
X21568Y-82956D01*
X21520Y-82956D01*
X21473Y-82933D01*
X21449Y-82909D01*
X21425Y-82861D01*
X21401Y-82766D01*
X21401Y-82647D01*
X21425Y-82552D01*
X21449Y-82504D01*
X21473Y-82480D01*
X21520Y-82456D01*
X21901Y-82909D02*
X21925Y-82933D01*
X21901Y-82956D01*
X21877Y-82933D01*
X21901Y-82909D01*
X21901Y-82956D01*
X22234Y-82456D02*
X22282Y-82456D01*
X22330Y-82480D01*
X22353Y-82504D01*
X22377Y-82552D01*
X22401Y-82647D01*
X22401Y-82766D01*
X22377Y-82861D01*
X22353Y-82909D01*
X22330Y-82933D01*
X22282Y-82956D01*
X22234Y-82956D01*
X22187Y-82933D01*
X22163Y-82909D01*
X22139Y-82861D01*
X22115Y-82766D01*
X22115Y-82647D01*
X22139Y-82552D01*
X22163Y-82504D01*
X22187Y-82480D01*
X22234Y-82456D01*
X22567Y-82456D02*
X22877Y-82456D01*
X22710Y-82647D01*
X22782Y-82647D01*
X22829Y-82671D01*
X22853Y-82694D01*
X22877Y-82742D01*
X22877Y-82861D01*
X22853Y-82909D01*
X22829Y-82933D01*
X22782Y-82956D01*
X22639Y-82956D01*
X22591Y-82933D01*
X22567Y-82909D01*
X23329Y-82456D02*
X23091Y-82456D01*
X23067Y-82694D01*
X23091Y-82671D01*
X23139Y-82647D01*
X23258Y-82647D01*
X23305Y-82671D01*
X23329Y-82694D01*
X23353Y-82742D01*
X23353Y-82861D01*
X23329Y-82909D01*
X23305Y-82933D01*
X23258Y-82956D01*
X23139Y-82956D01*
X23091Y-82933D01*
X23067Y-82909D01*
X23543Y-82456D02*
X23543Y-82552D01*
X23734Y-82456D02*
X23734Y-82552D01*
X24472Y-83147D02*
X24448Y-83123D01*
X24400Y-83052D01*
X24377Y-83004D01*
X24353Y-82933D01*
X24329Y-82814D01*
X24329Y-82718D01*
X24353Y-82599D01*
X24377Y-82528D01*
X24400Y-82480D01*
X24448Y-82409D01*
X24472Y-82385D01*
X24638Y-82504D02*
X24662Y-82480D01*
X24710Y-82456D01*
X24829Y-82456D01*
X24876Y-82480D01*
X24900Y-82504D01*
X24924Y-82552D01*
X24924Y-82599D01*
X24900Y-82671D01*
X24614Y-82956D01*
X24924Y-82956D01*
X25352Y-82456D02*
X25257Y-82456D01*
X25209Y-82480D01*
X25186Y-82504D01*
X25138Y-82575D01*
X25114Y-82671D01*
X25114Y-82861D01*
X25138Y-82909D01*
X25162Y-82933D01*
X25209Y-82956D01*
X25305Y-82956D01*
X25352Y-82933D01*
X25376Y-82909D01*
X25400Y-82861D01*
X25400Y-82742D01*
X25376Y-82694D01*
X25352Y-82671D01*
X25305Y-82647D01*
X25209Y-82647D01*
X25162Y-82671D01*
X25138Y-82694D01*
X25114Y-82742D01*
X25995Y-82956D02*
X25995Y-82456D01*
X26209Y-82956D02*
X26209Y-82694D01*
X26186Y-82647D01*
X26138Y-82623D01*
X26066Y-82623D01*
X26019Y-82647D01*
X25995Y-82671D01*
X26518Y-82956D02*
X26471Y-82933D01*
X26447Y-82909D01*
X26423Y-82861D01*
X26423Y-82718D01*
X26447Y-82671D01*
X26471Y-82647D01*
X26518Y-82623D01*
X26590Y-82623D01*
X26638Y-82647D01*
X26661Y-82671D01*
X26685Y-82718D01*
X26685Y-82861D01*
X26661Y-82909D01*
X26638Y-82933D01*
X26590Y-82956D01*
X26518Y-82956D01*
X26970Y-82956D02*
X26923Y-82933D01*
X26899Y-82885D01*
X26899Y-82456D01*
X27352Y-82933D02*
X27304Y-82956D01*
X27209Y-82956D01*
X27161Y-82933D01*
X27137Y-82885D01*
X27137Y-82694D01*
X27161Y-82647D01*
X27209Y-82623D01*
X27304Y-82623D01*
X27352Y-82647D01*
X27375Y-82694D01*
X27375Y-82742D01*
X27137Y-82790D01*
X27566Y-82933D02*
X27614Y-82956D01*
X27709Y-82956D01*
X27757Y-82933D01*
X27781Y-82885D01*
X27781Y-82861D01*
X27757Y-82814D01*
X27709Y-82790D01*
X27638Y-82790D01*
X27590Y-82766D01*
X27566Y-82718D01*
X27566Y-82694D01*
X27590Y-82647D01*
X27638Y-82623D01*
X27709Y-82623D01*
X27757Y-82647D01*
X27947Y-83147D02*
X27971Y-83123D01*
X28019Y-83052D01*
X28043Y-83004D01*
X28066Y-82933D01*
X28090Y-82814D01*
X28090Y-82718D01*
X28066Y-82599D01*
X28043Y-82528D01*
X28019Y-82480D01*
X27971Y-82409D01*
X27947Y-82385D01*
X16620Y-83214D02*
X16620Y-83614D01*
X16420Y-83414D02*
X16820Y-83414D01*
X17401Y-83616D02*
X17115Y-83616D01*
X17258Y-83616D02*
X17258Y-83116D01*
X17210Y-83188D01*
X17163Y-83235D01*
X17115Y-83259D01*
X17615Y-83569D02*
X17639Y-83593D01*
X17615Y-83616D01*
X17591Y-83593D01*
X17615Y-83569D01*
X17615Y-83616D01*
X17948Y-83116D02*
X17996Y-83116D01*
X18044Y-83140D01*
X18067Y-83164D01*
X18091Y-83212D01*
X18115Y-83307D01*
X18115Y-83426D01*
X18091Y-83521D01*
X18067Y-83569D01*
X18044Y-83593D01*
X17996Y-83616D01*
X17948Y-83616D01*
X17901Y-83593D01*
X17877Y-83569D01*
X17853Y-83521D01*
X17829Y-83426D01*
X17829Y-83307D01*
X17853Y-83212D01*
X17877Y-83164D01*
X17901Y-83140D01*
X17948Y-83116D01*
X18305Y-83164D02*
X18329Y-83140D01*
X18377Y-83116D01*
X18496Y-83116D01*
X18543Y-83140D01*
X18567Y-83164D01*
X18591Y-83212D01*
X18591Y-83259D01*
X18567Y-83331D01*
X18281Y-83616D01*
X18591Y-83616D01*
X18805Y-83616D02*
X18805Y-83283D01*
X18805Y-83331D02*
X18829Y-83307D01*
X18876Y-83283D01*
X18948Y-83283D01*
X18996Y-83307D01*
X19019Y-83354D01*
X19019Y-83616D01*
X19019Y-83354D02*
X19043Y-83307D01*
X19091Y-83283D01*
X19162Y-83283D01*
X19210Y-83307D01*
X19234Y-83354D01*
X19234Y-83616D01*
X19472Y-83616D02*
X19472Y-83283D01*
X19472Y-83331D02*
X19496Y-83307D01*
X19543Y-83283D01*
X19615Y-83283D01*
X19663Y-83307D01*
X19686Y-83354D01*
X19686Y-83616D01*
X19686Y-83354D02*
X19710Y-83307D01*
X19758Y-83283D01*
X19829Y-83283D01*
X19877Y-83307D01*
X19901Y-83354D01*
X19901Y-83616D01*
X20877Y-83093D02*
X20449Y-83735D01*
X21520Y-83116D02*
X21568Y-83116D01*
X21616Y-83140D01*
X21639Y-83164D01*
X21663Y-83212D01*
X21687Y-83307D01*
X21687Y-83426D01*
X21663Y-83521D01*
X21639Y-83569D01*
X21616Y-83593D01*
X21568Y-83616D01*
X21520Y-83616D01*
X21473Y-83593D01*
X21449Y-83569D01*
X21425Y-83521D01*
X21401Y-83426D01*
X21401Y-83307D01*
X21425Y-83212D01*
X21449Y-83164D01*
X21473Y-83140D01*
X21520Y-83116D01*
X21901Y-83569D02*
X21925Y-83593D01*
X21901Y-83616D01*
X21877Y-83593D01*
X21901Y-83569D01*
X21901Y-83616D01*
X22234Y-83116D02*
X22282Y-83116D01*
X22330Y-83140D01*
X22353Y-83164D01*
X22377Y-83212D01*
X22401Y-83307D01*
X22401Y-83426D01*
X22377Y-83521D01*
X22353Y-83569D01*
X22330Y-83593D01*
X22282Y-83616D01*
X22234Y-83616D01*
X22187Y-83593D01*
X22163Y-83569D01*
X22139Y-83521D01*
X22115Y-83426D01*
X22115Y-83307D01*
X22139Y-83212D01*
X22163Y-83164D01*
X22187Y-83140D01*
X22234Y-83116D01*
X22829Y-83283D02*
X22829Y-83616D01*
X22710Y-83093D02*
X22591Y-83450D01*
X22901Y-83450D01*
X23186Y-83116D02*
X23234Y-83116D01*
X23282Y-83140D01*
X23305Y-83164D01*
X23329Y-83212D01*
X23353Y-83307D01*
X23353Y-83426D01*
X23329Y-83521D01*
X23305Y-83569D01*
X23282Y-83593D01*
X23234Y-83616D01*
X23186Y-83616D01*
X23139Y-83593D01*
X23115Y-83569D01*
X23091Y-83521D01*
X23067Y-83426D01*
X23067Y-83307D01*
X23091Y-83212D01*
X23115Y-83164D01*
X23139Y-83140D01*
X23186Y-83116D01*
X23543Y-83116D02*
X23543Y-83212D01*
X23734Y-83116D02*
X23734Y-83212D01*
X24472Y-83807D02*
X24448Y-83783D01*
X24400Y-83712D01*
X24377Y-83664D01*
X24353Y-83593D01*
X24329Y-83474D01*
X24329Y-83378D01*
X24353Y-83259D01*
X24377Y-83188D01*
X24400Y-83140D01*
X24448Y-83069D01*
X24472Y-83045D01*
X24924Y-83616D02*
X24638Y-83616D01*
X24781Y-83616D02*
X24781Y-83116D01*
X24733Y-83188D01*
X24686Y-83235D01*
X24638Y-83259D01*
X25090Y-83116D02*
X25400Y-83116D01*
X25233Y-83307D01*
X25305Y-83307D01*
X25352Y-83331D01*
X25376Y-83354D01*
X25400Y-83402D01*
X25400Y-83521D01*
X25376Y-83569D01*
X25352Y-83593D01*
X25305Y-83616D01*
X25162Y-83616D01*
X25114Y-83593D01*
X25090Y-83569D01*
X25995Y-83616D02*
X25995Y-83116D01*
X26209Y-83616D02*
X26209Y-83354D01*
X26186Y-83307D01*
X26138Y-83283D01*
X26066Y-83283D01*
X26019Y-83307D01*
X25995Y-83331D01*
X26518Y-83616D02*
X26471Y-83593D01*
X26447Y-83569D01*
X26423Y-83521D01*
X26423Y-83378D01*
X26447Y-83331D01*
X26471Y-83307D01*
X26518Y-83283D01*
X26590Y-83283D01*
X26638Y-83307D01*
X26661Y-83331D01*
X26685Y-83378D01*
X26685Y-83521D01*
X26661Y-83569D01*
X26638Y-83593D01*
X26590Y-83616D01*
X26518Y-83616D01*
X26970Y-83616D02*
X26923Y-83593D01*
X26899Y-83545D01*
X26899Y-83116D01*
X27352Y-83593D02*
X27304Y-83616D01*
X27209Y-83616D01*
X27161Y-83593D01*
X27137Y-83545D01*
X27137Y-83354D01*
X27161Y-83307D01*
X27209Y-83283D01*
X27304Y-83283D01*
X27352Y-83307D01*
X27375Y-83354D01*
X27375Y-83402D01*
X27137Y-83450D01*
X27566Y-83593D02*
X27614Y-83616D01*
X27709Y-83616D01*
X27757Y-83593D01*
X27781Y-83545D01*
X27781Y-83521D01*
X27757Y-83474D01*
X27709Y-83450D01*
X27638Y-83450D01*
X27590Y-83426D01*
X27566Y-83378D01*
X27566Y-83354D01*
X27590Y-83307D01*
X27638Y-83283D01*
X27709Y-83283D01*
X27757Y-83307D01*
X27947Y-83807D02*
X27971Y-83783D01*
X28019Y-83712D01*
X28043Y-83664D01*
X28066Y-83593D01*
X28090Y-83474D01*
X28090Y-83378D01*
X28066Y-83259D01*
X28043Y-83188D01*
X28019Y-83140D01*
X27971Y-83069D01*
X27947Y-83045D01*
G54D10*
X16635Y-84519D02*
X16635Y-83629D01*
X15745Y-83629D01*
X15745Y-84519D01*
X16635Y-84519D01*
G54D12*
X17091Y-83776D02*
X17401Y-83776D01*
X17234Y-83967D01*
X17306Y-83967D01*
X17353Y-83991D01*
X17377Y-84014D01*
X17401Y-84062D01*
X17401Y-84181D01*
X17377Y-84229D01*
X17353Y-84253D01*
X17306Y-84276D01*
X17163Y-84276D01*
X17115Y-84253D01*
X17091Y-84229D01*
X17615Y-84229D02*
X17639Y-84253D01*
X17615Y-84276D01*
X17591Y-84253D01*
X17615Y-84229D01*
X17615Y-84276D01*
X17829Y-83824D02*
X17853Y-83800D01*
X17901Y-83776D01*
X18020Y-83776D01*
X18067Y-83800D01*
X18091Y-83824D01*
X18115Y-83872D01*
X18115Y-83919D01*
X18091Y-83991D01*
X17805Y-84276D01*
X18115Y-84276D01*
X18424Y-83776D02*
X18472Y-83776D01*
X18520Y-83800D01*
X18543Y-83824D01*
X18567Y-83872D01*
X18591Y-83967D01*
X18591Y-84086D01*
X18567Y-84181D01*
X18543Y-84229D01*
X18520Y-84253D01*
X18472Y-84276D01*
X18424Y-84276D01*
X18377Y-84253D01*
X18353Y-84229D01*
X18329Y-84181D01*
X18305Y-84086D01*
X18305Y-83967D01*
X18329Y-83872D01*
X18353Y-83824D01*
X18377Y-83800D01*
X18424Y-83776D01*
X18805Y-84276D02*
X18805Y-83943D01*
X18805Y-83991D02*
X18829Y-83967D01*
X18876Y-83943D01*
X18948Y-83943D01*
X18996Y-83967D01*
X19019Y-84014D01*
X19019Y-84276D01*
X19019Y-84014D02*
X19043Y-83967D01*
X19091Y-83943D01*
X19162Y-83943D01*
X19210Y-83967D01*
X19234Y-84014D01*
X19234Y-84276D01*
X19472Y-84276D02*
X19472Y-83943D01*
X19472Y-83991D02*
X19496Y-83967D01*
X19543Y-83943D01*
X19615Y-83943D01*
X19663Y-83967D01*
X19686Y-84014D01*
X19686Y-84276D01*
X19686Y-84014D02*
X19710Y-83967D01*
X19758Y-83943D01*
X19829Y-83943D01*
X19877Y-83967D01*
X19901Y-84014D01*
X19901Y-84276D01*
X20877Y-83753D02*
X20449Y-84395D01*
X21520Y-83776D02*
X21568Y-83776D01*
X21616Y-83800D01*
X21639Y-83824D01*
X21663Y-83872D01*
X21687Y-83967D01*
X21687Y-84086D01*
X21663Y-84181D01*
X21639Y-84229D01*
X21616Y-84253D01*
X21568Y-84276D01*
X21520Y-84276D01*
X21473Y-84253D01*
X21449Y-84229D01*
X21425Y-84181D01*
X21401Y-84086D01*
X21401Y-83967D01*
X21425Y-83872D01*
X21449Y-83824D01*
X21473Y-83800D01*
X21520Y-83776D01*
X21901Y-84229D02*
X21925Y-84253D01*
X21901Y-84276D01*
X21877Y-84253D01*
X21901Y-84229D01*
X21901Y-84276D01*
X22401Y-84276D02*
X22115Y-84276D01*
X22258Y-84276D02*
X22258Y-83776D01*
X22210Y-83848D01*
X22163Y-83895D01*
X22115Y-83919D01*
X22591Y-83824D02*
X22615Y-83800D01*
X22663Y-83776D01*
X22782Y-83776D01*
X22829Y-83800D01*
X22853Y-83824D01*
X22877Y-83872D01*
X22877Y-83919D01*
X22853Y-83991D01*
X22567Y-84276D01*
X22877Y-84276D01*
X23305Y-83776D02*
X23210Y-83776D01*
X23162Y-83800D01*
X23139Y-83824D01*
X23091Y-83895D01*
X23067Y-83991D01*
X23067Y-84181D01*
X23091Y-84229D01*
X23115Y-84253D01*
X23162Y-84276D01*
X23258Y-84276D01*
X23305Y-84253D01*
X23329Y-84229D01*
X23353Y-84181D01*
X23353Y-84062D01*
X23329Y-84014D01*
X23305Y-83991D01*
X23258Y-83967D01*
X23162Y-83967D01*
X23115Y-83991D01*
X23091Y-84014D01*
X23067Y-84062D01*
X23543Y-83776D02*
X23543Y-83872D01*
X23734Y-83776D02*
X23734Y-83872D01*
X24472Y-84467D02*
X24448Y-84443D01*
X24400Y-84372D01*
X24377Y-84324D01*
X24353Y-84253D01*
X24329Y-84134D01*
X24329Y-84038D01*
X24353Y-83919D01*
X24377Y-83848D01*
X24400Y-83800D01*
X24448Y-83729D01*
X24472Y-83705D01*
X24638Y-83824D02*
X24662Y-83800D01*
X24710Y-83776D01*
X24829Y-83776D01*
X24876Y-83800D01*
X24900Y-83824D01*
X24924Y-83872D01*
X24924Y-83919D01*
X24900Y-83991D01*
X24614Y-84276D01*
X24924Y-84276D01*
X25519Y-84276D02*
X25519Y-83776D01*
X25733Y-84276D02*
X25733Y-84014D01*
X25710Y-83967D01*
X25662Y-83943D01*
X25590Y-83943D01*
X25543Y-83967D01*
X25519Y-83991D01*
X26042Y-84276D02*
X25995Y-84253D01*
X25971Y-84229D01*
X25947Y-84181D01*
X25947Y-84038D01*
X25971Y-83991D01*
X25995Y-83967D01*
X26042Y-83943D01*
X26114Y-83943D01*
X26162Y-83967D01*
X26185Y-83991D01*
X26209Y-84038D01*
X26209Y-84181D01*
X26185Y-84229D01*
X26162Y-84253D01*
X26114Y-84276D01*
X26042Y-84276D01*
X26494Y-84276D02*
X26447Y-84253D01*
X26423Y-84205D01*
X26423Y-83776D01*
X26876Y-84253D02*
X26828Y-84276D01*
X26733Y-84276D01*
X26685Y-84253D01*
X26661Y-84205D01*
X26661Y-84014D01*
X26685Y-83967D01*
X26733Y-83943D01*
X26828Y-83943D01*
X26876Y-83967D01*
X26899Y-84014D01*
X26899Y-84062D01*
X26661Y-84110D01*
X27090Y-84253D02*
X27138Y-84276D01*
X27233Y-84276D01*
X27281Y-84253D01*
X27305Y-84205D01*
X27305Y-84181D01*
X27281Y-84134D01*
X27233Y-84110D01*
X27162Y-84110D01*
X27114Y-84086D01*
X27090Y-84038D01*
X27090Y-84014D01*
X27114Y-83967D01*
X27162Y-83943D01*
X27233Y-83943D01*
X27281Y-83967D01*
X27471Y-84467D02*
X27495Y-84443D01*
X27543Y-84372D01*
X27567Y-84324D01*
X27590Y-84253D01*
X27614Y-84134D01*
X27614Y-84038D01*
X27590Y-83919D01*
X27567Y-83848D01*
X27543Y-83800D01*
X27495Y-83729D01*
X27471Y-83705D01*
M02*
