G04 (created by PCBNEW-RS274X (2012-07-14 BZR 3647)-testing) date Sun 15 Jul 2012 11:18:50 PM EEST*
%MOIN*%
G04 Gerber Fmt 3.4, Leading zero omitted, Abs format*
%FSLAX34Y34*%
G01*
G70*
G90*
G04 APERTURE LIST*
%ADD10C,0.006*%
%ADD11R,0.06X0.06*%
%ADD12O,0.0591X0.0866*%
%ADD13O,0.0866X0.0591*%
%ADD14C,0.126*%
%ADD15C,0.0531*%
%ADD16R,0.05X0.02*%
%ADD17R,0.035X0.055*%
%ADD18R,0.025X0.045*%
%ADD19R,0.045X0.025*%
%ADD20R,0.016X0.06*%
%ADD21R,0.06X0.016*%
%ADD22R,0.055X0.035*%
%ADD23C,0.0591*%
%ADD24C,0.0354*%
%ADD25C,0.035*%
%ADD26C,0.0197*%
%ADD27C,0.0394*%
%ADD28C,0.01*%
%ADD29C,0.0138*%
%ADD30C,0.0315*%
G04 APERTURE END LIST*
G54D10*
G54D11*
X61063Y-57972D03*
G54D12*
X60063Y-57972D03*
X59063Y-57972D03*
X58063Y-57972D03*
X57063Y-57972D03*
G54D11*
X52283Y-57972D03*
G54D12*
X53283Y-57972D03*
X54283Y-57972D03*
X55283Y-57972D03*
G54D11*
X69252Y-64665D03*
G54D13*
X69252Y-65665D03*
X69252Y-66665D03*
X69252Y-67665D03*
G54D14*
X50159Y-72598D03*
X68581Y-72598D03*
G54D15*
X59795Y-71754D03*
X60646Y-71754D03*
X61496Y-71754D03*
X62346Y-71754D03*
X63197Y-71754D03*
X64047Y-71754D03*
X58945Y-71754D03*
X58094Y-71754D03*
X57244Y-71754D03*
X56394Y-71754D03*
X55543Y-71754D03*
X54693Y-71754D03*
X54693Y-73442D03*
X57244Y-73442D03*
X58094Y-73442D03*
X58945Y-73442D03*
X59795Y-73442D03*
X60645Y-73442D03*
X61496Y-73442D03*
X62346Y-73442D03*
X63197Y-73442D03*
X64047Y-73442D03*
X55543Y-73442D03*
X56394Y-73442D03*
G54D16*
X66172Y-65644D03*
X66172Y-66144D03*
X66172Y-66644D03*
X66172Y-67144D03*
X66172Y-67644D03*
X66172Y-68144D03*
X66172Y-68644D03*
X66172Y-69144D03*
X66172Y-69644D03*
X66172Y-70144D03*
X62372Y-70144D03*
X62372Y-69644D03*
X62372Y-69144D03*
X62372Y-68644D03*
X62372Y-68144D03*
X62372Y-67644D03*
X62372Y-67144D03*
X62372Y-66644D03*
X62372Y-66144D03*
X62372Y-65644D03*
X56585Y-65545D03*
X56585Y-66045D03*
X56585Y-66545D03*
X56585Y-67045D03*
X56585Y-67545D03*
X56585Y-68045D03*
X56585Y-68545D03*
X56585Y-69045D03*
X56585Y-69545D03*
X56585Y-70045D03*
X52785Y-70045D03*
X52785Y-69545D03*
X52785Y-69045D03*
X52785Y-68545D03*
X52785Y-68045D03*
X52785Y-67545D03*
X52785Y-67045D03*
X52785Y-66545D03*
X52785Y-66045D03*
X52785Y-65545D03*
G54D17*
X66908Y-65669D03*
X67658Y-65669D03*
X65296Y-61417D03*
X64546Y-61417D03*
X65277Y-62224D03*
X64527Y-62224D03*
G54D18*
X66166Y-70827D03*
X65566Y-70827D03*
X56639Y-70709D03*
X56039Y-70709D03*
G54D19*
X56614Y-63322D03*
X56614Y-63922D03*
G54D20*
X59508Y-59974D03*
X59823Y-59974D03*
X60138Y-59974D03*
X60453Y-59974D03*
X60768Y-59974D03*
X61083Y-59974D03*
X59193Y-59974D03*
X58878Y-59974D03*
X58563Y-59974D03*
X58248Y-59974D03*
X57933Y-59974D03*
X59508Y-64474D03*
X59823Y-64474D03*
X60138Y-64474D03*
X60453Y-64474D03*
X60768Y-64474D03*
X61083Y-64474D03*
X59193Y-64474D03*
X58878Y-64474D03*
X58563Y-64474D03*
X58248Y-64474D03*
X57933Y-64474D03*
G54D21*
X61758Y-62224D03*
X57258Y-62224D03*
X61758Y-62539D03*
X57258Y-62539D03*
X57258Y-62854D03*
X61758Y-62854D03*
X61758Y-63169D03*
X57258Y-63169D03*
X57258Y-63484D03*
X61758Y-63484D03*
X61758Y-63799D03*
X57258Y-63799D03*
X57258Y-61909D03*
X61758Y-61909D03*
X61758Y-61594D03*
X57258Y-61594D03*
X57258Y-61279D03*
X61758Y-61279D03*
X61758Y-60964D03*
X57258Y-60964D03*
X57258Y-60649D03*
X61758Y-60649D03*
G54D17*
X60926Y-66181D03*
X60176Y-66181D03*
G54D22*
X67244Y-61436D03*
X67244Y-62186D03*
G54D17*
X62460Y-62047D03*
X63210Y-62047D03*
G54D19*
X57402Y-59808D03*
X57402Y-59208D03*
X62520Y-60812D03*
X62520Y-60212D03*
X61594Y-59670D03*
X61594Y-59070D03*
G54D23*
X60972Y-67720D03*
X59972Y-67720D03*
X60972Y-68720D03*
X59972Y-68720D03*
X60972Y-69720D03*
X59972Y-69720D03*
G54D24*
X66417Y-58435D03*
X64685Y-58435D03*
G54D18*
X60359Y-65315D03*
X59759Y-65315D03*
G54D25*
X51654Y-58917D03*
X59606Y-66201D03*
X59193Y-67402D03*
X59843Y-62795D03*
X60551Y-63780D03*
X57953Y-63465D03*
X55669Y-64528D03*
X58622Y-65157D03*
X56024Y-64843D03*
X59134Y-65197D03*
X56614Y-61870D03*
X58543Y-59291D03*
X58031Y-62913D03*
X55512Y-63543D03*
X56614Y-62717D03*
X55512Y-62559D03*
X57953Y-62283D03*
X55512Y-63031D03*
X55945Y-69528D03*
X54488Y-70472D03*
X59055Y-62283D03*
X56772Y-60118D03*
X54803Y-58917D03*
X60472Y-67264D03*
X61614Y-66398D03*
X58150Y-65157D03*
X55512Y-64055D03*
X60217Y-72894D03*
X61575Y-71063D03*
X61850Y-60177D03*
X63484Y-63091D03*
X58701Y-61969D03*
X56535Y-60512D03*
X54764Y-59508D03*
X55984Y-71260D03*
X65000Y-71181D03*
X63701Y-62264D03*
X59173Y-69724D03*
X57008Y-64646D03*
X62520Y-59685D03*
X60157Y-63504D03*
X58031Y-59291D03*
X61063Y-61890D03*
X60984Y-59291D03*
X63051Y-65709D03*
X53524Y-65591D03*
X66437Y-61358D03*
X65866Y-58701D03*
X65984Y-61732D03*
G54D26*
X56639Y-70709D02*
X56639Y-71324D01*
X56639Y-71324D02*
X56811Y-71496D01*
X56585Y-70045D02*
X56585Y-70655D01*
X56585Y-70655D02*
X56639Y-70709D01*
G54D27*
X64370Y-72382D02*
X65098Y-72382D01*
X61077Y-72382D02*
X64370Y-72382D01*
X66166Y-71314D02*
X66166Y-70827D01*
X65098Y-72382D02*
X66166Y-71314D01*
G54D26*
X66172Y-70144D02*
X66172Y-70821D01*
X66172Y-70821D02*
X66166Y-70827D01*
G54D27*
X67953Y-71654D02*
X67953Y-71811D01*
X61077Y-72382D02*
X61063Y-72396D01*
G54D28*
X61063Y-72992D02*
X61063Y-73898D01*
G54D27*
X67658Y-66950D02*
X67658Y-65669D01*
X67658Y-66950D02*
X67953Y-67245D01*
X67953Y-67245D02*
X67953Y-71654D01*
X64783Y-74824D02*
X61773Y-74824D01*
X61063Y-73898D02*
X61063Y-74114D01*
X61063Y-74114D02*
X61773Y-74824D01*
X61063Y-72992D02*
X61063Y-72396D01*
X66711Y-74824D02*
X64783Y-74824D01*
X67598Y-73937D02*
X66711Y-74824D01*
X67598Y-72166D02*
X67598Y-73937D01*
X67953Y-71811D02*
X67598Y-72166D01*
G54D29*
X51654Y-58917D02*
X51654Y-59056D01*
X56142Y-59744D02*
X57338Y-59744D01*
X57402Y-59808D02*
X57338Y-59744D01*
X54488Y-58720D02*
X54665Y-58543D01*
X54941Y-58543D02*
X55276Y-58878D01*
X54665Y-58543D02*
X54941Y-58543D01*
X55276Y-58878D02*
X56142Y-59744D01*
X53917Y-59291D02*
X54488Y-58720D01*
X51889Y-59291D02*
X53917Y-59291D01*
X51654Y-59056D02*
X51889Y-59291D01*
G54D27*
X61077Y-72382D02*
X61063Y-72368D01*
X60163Y-72368D02*
X61063Y-72368D01*
G54D28*
X56811Y-71890D02*
X56811Y-72244D01*
G54D27*
X57343Y-72368D02*
X56935Y-72368D01*
X57343Y-72368D02*
X60163Y-72368D01*
X56935Y-72368D02*
X56811Y-72244D01*
X61083Y-72362D02*
X61063Y-72362D01*
X61063Y-72368D02*
X61069Y-72362D01*
X61069Y-72362D02*
X61083Y-72362D01*
G54D28*
X61063Y-72362D02*
X61063Y-71240D01*
G54D27*
X60374Y-70610D02*
X60433Y-70610D01*
X60374Y-70610D02*
X58976Y-70610D01*
X58976Y-70610D02*
X58642Y-70276D01*
X58642Y-70276D02*
X58642Y-69050D01*
X58642Y-69050D02*
X59972Y-67720D01*
X60433Y-70610D02*
X61063Y-71240D01*
G54D26*
X59626Y-66181D02*
X59606Y-66201D01*
X60176Y-66181D02*
X59626Y-66181D01*
G54D27*
X59511Y-67720D02*
X59972Y-67720D01*
X59511Y-67720D02*
X59193Y-67402D01*
G54D28*
X56811Y-72146D02*
X56811Y-71890D01*
X56811Y-71890D02*
X56811Y-71496D01*
G54D26*
X60453Y-64474D02*
X60453Y-65221D01*
X60176Y-65498D02*
X60176Y-66181D01*
X60453Y-65221D02*
X60176Y-65498D01*
G54D30*
X59803Y-60669D02*
X58267Y-60669D01*
G54D26*
X57933Y-60335D02*
X57933Y-59974D01*
X58267Y-60669D02*
X57933Y-60335D01*
G54D27*
X67658Y-65669D02*
X69248Y-65669D01*
G54D29*
X69248Y-65669D02*
X69252Y-65665D01*
G54D26*
X57258Y-63484D02*
X56776Y-63484D01*
X56776Y-63484D02*
X56614Y-63322D01*
G54D30*
X59803Y-60669D02*
X59803Y-62755D01*
G54D29*
X59803Y-62755D02*
X59843Y-62795D01*
G54D26*
X60453Y-64474D02*
X60453Y-63878D01*
X60453Y-63878D02*
X60551Y-63780D01*
G54D29*
X57934Y-63484D02*
X57953Y-63465D01*
G54D26*
X57934Y-63484D02*
X57258Y-63484D01*
G54D30*
X59803Y-60669D02*
X61083Y-60669D01*
G54D26*
X61083Y-59974D02*
X61083Y-60669D01*
G54D29*
X61083Y-60669D02*
X61083Y-60728D01*
G54D30*
X61083Y-60728D02*
X61319Y-60964D01*
G54D26*
X61319Y-60964D02*
X61758Y-60964D01*
G54D30*
X57402Y-59808D02*
X57767Y-59808D01*
G54D26*
X57767Y-59808D02*
X57933Y-59974D01*
G54D29*
X56457Y-63322D02*
X56590Y-63322D01*
G54D26*
X61083Y-59974D02*
X61290Y-59974D01*
G54D30*
X61290Y-59974D02*
X61594Y-59670D01*
G54D26*
X61758Y-60964D02*
X62368Y-60964D01*
X62368Y-60964D02*
X62520Y-60812D01*
G54D29*
X55315Y-64882D02*
X55669Y-64528D01*
X55315Y-65551D02*
X54321Y-66545D01*
X54321Y-66545D02*
X53888Y-66545D01*
X53888Y-66545D02*
X52785Y-66545D01*
X55315Y-65551D02*
X55315Y-64882D01*
X58878Y-64901D02*
X58622Y-65157D01*
X58878Y-64474D02*
X58878Y-64901D01*
X55543Y-71754D02*
X55543Y-67154D01*
X56152Y-66545D02*
X56585Y-66545D01*
X55543Y-67154D02*
X56152Y-66545D01*
X55827Y-65040D02*
X56024Y-64843D01*
X53912Y-67545D02*
X55827Y-65630D01*
X53597Y-67545D02*
X52785Y-67545D01*
X53597Y-67545D02*
X53912Y-67545D01*
X55827Y-65630D02*
X55827Y-65040D01*
X59193Y-64474D02*
X59193Y-65138D01*
X59134Y-65197D02*
X59193Y-65138D01*
X59795Y-71754D02*
X59648Y-71754D01*
X56915Y-67545D02*
X56585Y-67545D01*
X57996Y-68626D02*
X56915Y-67545D01*
X57996Y-70630D02*
X57996Y-68626D01*
X58626Y-71260D02*
X57996Y-70630D01*
X59154Y-71260D02*
X58626Y-71260D01*
X59648Y-71754D02*
X59154Y-71260D01*
X56585Y-65075D02*
X56378Y-64868D01*
X56378Y-64868D02*
X56378Y-64685D01*
X56378Y-64685D02*
X55866Y-64173D01*
X55866Y-64173D02*
X55866Y-62500D01*
X56585Y-65545D02*
X56585Y-65075D01*
X56496Y-61870D02*
X55866Y-62500D01*
X56614Y-61870D02*
X56496Y-61870D01*
X58563Y-59974D02*
X58563Y-59311D01*
X58563Y-59311D02*
X58543Y-59291D01*
X61758Y-62854D02*
X62677Y-62854D01*
X63014Y-69644D02*
X62372Y-69644D01*
X64862Y-67796D02*
X63014Y-69644D01*
X64862Y-65039D02*
X64862Y-67796D01*
X62677Y-62854D02*
X64862Y-65039D01*
X66172Y-69644D02*
X65947Y-69644D01*
X64047Y-71544D02*
X64047Y-71754D01*
X65947Y-69644D02*
X64047Y-71544D01*
X61850Y-69134D02*
X61264Y-69720D01*
X62362Y-69134D02*
X61850Y-69134D01*
X62372Y-69144D02*
X62362Y-69134D01*
X61264Y-69720D02*
X60972Y-69720D01*
X61758Y-63169D02*
X62617Y-63169D01*
X63120Y-69144D02*
X62372Y-69144D01*
X64587Y-67677D02*
X63120Y-69144D01*
X64587Y-65139D02*
X64587Y-67677D01*
X62617Y-63169D02*
X64587Y-65139D01*
X63197Y-71754D02*
X63285Y-71754D01*
X65895Y-69144D02*
X66172Y-69144D01*
X63285Y-71754D02*
X65895Y-69144D01*
X61280Y-69213D02*
X61849Y-68644D01*
X60465Y-69213D02*
X61280Y-69213D01*
X59972Y-68720D02*
X60465Y-69213D01*
X61849Y-68644D02*
X62372Y-68644D01*
X61758Y-63484D02*
X62519Y-63484D01*
X63010Y-68644D02*
X62372Y-68644D01*
X64311Y-67343D02*
X63010Y-68644D01*
X64311Y-65276D02*
X64311Y-67343D01*
X62519Y-63484D02*
X64311Y-65276D01*
X62346Y-71754D02*
X62498Y-71754D01*
X66002Y-68644D02*
X66172Y-68644D01*
X63347Y-71299D02*
X66002Y-68644D01*
X62953Y-71299D02*
X63347Y-71299D01*
X62498Y-71754D02*
X62953Y-71299D01*
X60972Y-67720D02*
X61396Y-68144D01*
X61396Y-68144D02*
X62372Y-68144D01*
X61758Y-63799D02*
X62441Y-63799D01*
X62761Y-68144D02*
X62372Y-68144D01*
X64035Y-66870D02*
X62761Y-68144D01*
X64035Y-65393D02*
X64035Y-66870D01*
X62441Y-63799D02*
X64035Y-65393D01*
X61496Y-71754D02*
X61711Y-71754D01*
X65912Y-68144D02*
X66172Y-68144D01*
X65748Y-68308D02*
X65912Y-68144D01*
X65748Y-68544D02*
X65748Y-68308D01*
X63268Y-71024D02*
X65748Y-68544D01*
X62874Y-71024D02*
X63268Y-71024D01*
X62599Y-71299D02*
X62874Y-71024D01*
X62166Y-71299D02*
X62599Y-71299D01*
X61711Y-71754D02*
X62166Y-71299D01*
X62372Y-67644D02*
X62130Y-67644D01*
X56890Y-65000D02*
X56890Y-65040D01*
X58232Y-66342D02*
X56890Y-65000D01*
X58780Y-66342D02*
X58232Y-66342D01*
X59351Y-66913D02*
X58780Y-66342D01*
X60984Y-66913D02*
X59351Y-66913D01*
X61455Y-67384D02*
X60984Y-66913D01*
X61870Y-67384D02*
X61455Y-67384D01*
X62130Y-67644D02*
X61870Y-67384D01*
X56654Y-64607D02*
X56142Y-64095D01*
X56654Y-64804D02*
X56654Y-64607D01*
X56850Y-65000D02*
X56890Y-65040D01*
X56890Y-65040D02*
X56654Y-64804D01*
X56904Y-65000D02*
X56850Y-65000D01*
X57258Y-62224D02*
X56517Y-62224D01*
X56142Y-62599D02*
X56142Y-64095D01*
X56517Y-62224D02*
X56142Y-62599D01*
X66772Y-71378D02*
X66378Y-71772D01*
X66378Y-71772D02*
X66378Y-73149D01*
X66172Y-67644D02*
X66660Y-67644D01*
X66772Y-67756D02*
X66772Y-70925D01*
X66660Y-67644D02*
X66772Y-67756D01*
X66772Y-70925D02*
X66772Y-71378D01*
X66378Y-73149D02*
X66085Y-73442D01*
X66085Y-73442D02*
X64047Y-73442D01*
X62372Y-67144D02*
X61573Y-67144D01*
X57382Y-64350D02*
X57795Y-63937D01*
X57795Y-63937D02*
X58009Y-63937D01*
X58009Y-63937D02*
X58386Y-63560D01*
X58386Y-63560D02*
X58386Y-63347D01*
X58129Y-61909D02*
X57258Y-61909D01*
X58386Y-62166D02*
X58129Y-61909D01*
X58386Y-63347D02*
X58386Y-62166D01*
X57382Y-65138D02*
X57382Y-64351D01*
X57382Y-64351D02*
X57382Y-64350D01*
X58346Y-66102D02*
X57382Y-65138D01*
X58897Y-66102D02*
X58346Y-66102D01*
X59468Y-66673D02*
X58897Y-66102D01*
X61102Y-66673D02*
X59468Y-66673D01*
X61573Y-67144D02*
X61102Y-66673D01*
X67047Y-71064D02*
X67047Y-71457D01*
X67047Y-70217D02*
X67047Y-71064D01*
X64213Y-73898D02*
X63653Y-73898D01*
X63653Y-73898D02*
X63197Y-73442D01*
X66339Y-73898D02*
X64213Y-73898D01*
X66654Y-73583D02*
X66339Y-73898D01*
X66654Y-71850D02*
X66654Y-73583D01*
X67047Y-71457D02*
X66654Y-71850D01*
X66172Y-67144D02*
X66514Y-67144D01*
X67047Y-70217D02*
X67047Y-70217D01*
X67047Y-67677D02*
X67047Y-70217D01*
X66514Y-67144D02*
X67047Y-67677D01*
X62008Y-64685D02*
X61968Y-64685D01*
X58897Y-61594D02*
X57258Y-61594D01*
X59409Y-62106D02*
X58897Y-61594D01*
X59409Y-62874D02*
X59409Y-62106D01*
X59685Y-63150D02*
X59409Y-62874D01*
X60315Y-63150D02*
X59685Y-63150D01*
X60590Y-63425D02*
X60315Y-63150D01*
X60708Y-63425D02*
X60590Y-63425D01*
X61968Y-64685D02*
X60708Y-63425D01*
X62372Y-66644D02*
X63021Y-66644D01*
X62775Y-64685D02*
X62008Y-64685D01*
X62008Y-64685D02*
X61988Y-64685D01*
X63602Y-65512D02*
X62775Y-64685D01*
X63602Y-66063D02*
X63602Y-65512D01*
X63021Y-66644D02*
X63602Y-66063D01*
X67304Y-71181D02*
X67304Y-71554D01*
X62346Y-73567D02*
X62933Y-74154D01*
X62933Y-74154D02*
X64331Y-74154D01*
X67304Y-71181D02*
X67304Y-70334D01*
X67304Y-70334D02*
X67303Y-70335D01*
X67303Y-70335D02*
X67303Y-67500D01*
X67303Y-67500D02*
X66447Y-66644D01*
X66172Y-66644D02*
X66447Y-66644D01*
X62346Y-73567D02*
X62346Y-73442D01*
X66437Y-74154D02*
X64331Y-74154D01*
X66929Y-73662D02*
X66437Y-74154D01*
X66929Y-71929D02*
X66929Y-73662D01*
X67304Y-71554D02*
X66929Y-71929D01*
X62372Y-66144D02*
X62050Y-66144D01*
X61181Y-64572D02*
X61083Y-64474D01*
X61181Y-65275D02*
X61181Y-64572D01*
X62050Y-66144D02*
X61181Y-65275D01*
X67560Y-71298D02*
X67560Y-71652D01*
X66301Y-66144D02*
X67559Y-67402D01*
X67559Y-67402D02*
X67559Y-70420D01*
X67559Y-70420D02*
X67560Y-70419D01*
X67560Y-70419D02*
X67560Y-71298D01*
X64449Y-74409D02*
X62463Y-74409D01*
X61496Y-73442D02*
X62463Y-74409D01*
X66301Y-66144D02*
X66172Y-66144D01*
X66535Y-74409D02*
X64449Y-74409D01*
X67205Y-73739D02*
X66535Y-74409D01*
X67205Y-72007D02*
X67205Y-73739D01*
X67560Y-71652D02*
X67205Y-72007D01*
X57775Y-63169D02*
X58031Y-62913D01*
X57258Y-63169D02*
X57775Y-63169D01*
X55392Y-63663D02*
X55512Y-63543D01*
X55392Y-63663D02*
X52916Y-63663D01*
X52439Y-67045D02*
X52244Y-66850D01*
X52244Y-66850D02*
X52244Y-64335D01*
X52244Y-64335D02*
X52916Y-63663D01*
X52916Y-63663D02*
X52918Y-63661D01*
X52439Y-67045D02*
X52785Y-67045D01*
X60646Y-71754D02*
X60475Y-71754D01*
X57025Y-67045D02*
X56585Y-67045D01*
X58248Y-68268D02*
X57025Y-67045D01*
X58248Y-70524D02*
X58248Y-68268D01*
X58728Y-71004D02*
X58248Y-70524D01*
X59725Y-71004D02*
X58728Y-71004D01*
X60475Y-71754D02*
X59725Y-71004D01*
X60138Y-59974D02*
X60138Y-59488D01*
X61063Y-58563D02*
X61063Y-57972D01*
X60138Y-59488D02*
X61063Y-58563D01*
X59823Y-59974D02*
X59823Y-58819D01*
X60063Y-58579D02*
X60063Y-57972D01*
X59823Y-58819D02*
X60063Y-58579D01*
X59508Y-59974D02*
X59508Y-59036D01*
X59063Y-58591D02*
X59063Y-57972D01*
X59508Y-59036D02*
X59063Y-58591D01*
X58063Y-57972D02*
X58063Y-58102D01*
X59193Y-59232D02*
X58563Y-58602D01*
X59193Y-59232D02*
X59193Y-59974D01*
X58063Y-58102D02*
X58563Y-58602D01*
X52785Y-69045D02*
X52549Y-69045D01*
X54232Y-61279D02*
X57258Y-61279D01*
X51417Y-64094D02*
X54232Y-61279D01*
X51417Y-67913D02*
X51417Y-64094D01*
X52549Y-69045D02*
X51417Y-67913D01*
X57244Y-71754D02*
X57244Y-69409D01*
X56880Y-69045D02*
X56585Y-69045D01*
X57244Y-69409D02*
X56880Y-69045D01*
X56792Y-62539D02*
X56614Y-62717D01*
X57258Y-62539D02*
X56792Y-62539D01*
X53308Y-62559D02*
X53150Y-62717D01*
X52561Y-68545D02*
X51694Y-67678D01*
X51694Y-67678D02*
X51694Y-67599D01*
X51694Y-64173D02*
X53150Y-62717D01*
X51694Y-67599D02*
X51694Y-64173D01*
X52561Y-68545D02*
X52785Y-68545D01*
X55512Y-62559D02*
X53308Y-62559D01*
X52785Y-68545D02*
X52640Y-68545D01*
X58094Y-71754D02*
X58094Y-71732D01*
X56970Y-68545D02*
X56585Y-68545D01*
X57500Y-69075D02*
X56970Y-68545D01*
X57500Y-71138D02*
X57500Y-69075D01*
X58094Y-71732D02*
X57500Y-71138D01*
X57258Y-62854D02*
X57579Y-62854D01*
X57953Y-62480D02*
X57953Y-62283D01*
X57579Y-62854D02*
X57953Y-62480D01*
X55354Y-63189D02*
X55512Y-63031D01*
X55354Y-63189D02*
X53032Y-63189D01*
X52494Y-68045D02*
X51968Y-67519D01*
X51968Y-67519D02*
X51968Y-64253D01*
X51968Y-64253D02*
X53032Y-63189D01*
X53032Y-63189D02*
X53032Y-63189D01*
X52785Y-68045D02*
X52494Y-68045D01*
X58945Y-71754D02*
X58781Y-71754D01*
X57061Y-68045D02*
X56585Y-68045D01*
X57756Y-68740D02*
X57061Y-68045D01*
X57756Y-70729D02*
X57756Y-68740D01*
X58781Y-71754D02*
X57756Y-70729D01*
X51142Y-64017D02*
X51142Y-67716D01*
X52616Y-69545D02*
X51142Y-68071D01*
X51142Y-68071D02*
X51142Y-67716D01*
X52616Y-69545D02*
X52785Y-69545D01*
X51142Y-64017D02*
X51142Y-64016D01*
X51142Y-64016D02*
X51142Y-64017D01*
X57258Y-60964D02*
X54195Y-60964D01*
X54195Y-60964D02*
X51142Y-64017D01*
X55962Y-69545D02*
X55945Y-69528D01*
X56585Y-69545D02*
X55962Y-69545D01*
X60645Y-73883D02*
X60645Y-73442D01*
X60119Y-74409D02*
X60645Y-73883D01*
X54409Y-74409D02*
X60119Y-74409D01*
X53780Y-73780D02*
X54409Y-74409D01*
X53780Y-71180D02*
X53780Y-73780D01*
X54488Y-70472D02*
X53780Y-71180D01*
X54803Y-58917D02*
X56004Y-60118D01*
X58563Y-64075D02*
X59055Y-63583D01*
X59055Y-63583D02*
X59055Y-62283D01*
X58563Y-64474D02*
X58563Y-64075D01*
X56004Y-60118D02*
X56772Y-60118D01*
X60926Y-66181D02*
X61143Y-66398D01*
X60472Y-68220D02*
X60972Y-68720D01*
X60472Y-67264D02*
X60472Y-68220D01*
X61143Y-66398D02*
X61614Y-66398D01*
X60768Y-64474D02*
X60768Y-64823D01*
X60906Y-66161D02*
X60926Y-66181D01*
X60906Y-64961D02*
X60906Y-66161D01*
X60768Y-64823D02*
X60906Y-64961D01*
X57933Y-64474D02*
X57933Y-64940D01*
X57933Y-64940D02*
X58150Y-65157D01*
X54389Y-66045D02*
X54882Y-65552D01*
X54882Y-65552D02*
X54882Y-64646D01*
X54389Y-66045D02*
X53661Y-66045D01*
X55473Y-64055D02*
X54882Y-64646D01*
X55512Y-64055D02*
X55473Y-64055D01*
X52785Y-66045D02*
X53661Y-66045D01*
X53661Y-66045D02*
X53680Y-66045D01*
X56394Y-71754D02*
X56394Y-71894D01*
G54D28*
X55118Y-72126D02*
X55118Y-71260D01*
G54D29*
X55295Y-72303D02*
X55118Y-72126D01*
X55985Y-72303D02*
X55295Y-72303D01*
X56394Y-71894D02*
X55985Y-72303D01*
X56585Y-66045D02*
X56179Y-66045D01*
X55118Y-67106D02*
X55118Y-71260D01*
X55118Y-71260D02*
X55118Y-71280D01*
X56179Y-66045D02*
X55118Y-67106D01*
X52785Y-70045D02*
X54687Y-70045D01*
X62372Y-70266D02*
X61575Y-71063D01*
G54D28*
X62372Y-70266D02*
X62372Y-70144D01*
G54D29*
X54705Y-72894D02*
X60217Y-72894D01*
X54094Y-72283D02*
X54705Y-72894D01*
X54094Y-71497D02*
X54094Y-72283D01*
X54878Y-70713D02*
X54094Y-71497D01*
X54878Y-70236D02*
X54878Y-70713D01*
X54687Y-70045D02*
X54878Y-70236D01*
X62372Y-70144D02*
X62986Y-70144D01*
X61758Y-60269D02*
X61758Y-60649D01*
X61850Y-60177D02*
X61758Y-60269D01*
X65157Y-64764D02*
X63484Y-63091D01*
X65157Y-67973D02*
X65157Y-64764D01*
X62986Y-70144D02*
X65157Y-67973D01*
X55237Y-60512D02*
X54764Y-60039D01*
X56535Y-60512D02*
X55512Y-60512D01*
X58248Y-64037D02*
X58701Y-63584D01*
X58701Y-63584D02*
X58701Y-61969D01*
X58248Y-64037D02*
X58248Y-64474D01*
X55512Y-60512D02*
X55237Y-60512D01*
X54764Y-59508D02*
X54764Y-60039D01*
G54D26*
X56039Y-71205D02*
X56039Y-70709D01*
X56039Y-71205D02*
X55984Y-71260D01*
X65354Y-70827D02*
X65000Y-71181D01*
X65354Y-70827D02*
X65566Y-70827D01*
G54D29*
X60138Y-64474D02*
X60138Y-64936D01*
X60138Y-64936D02*
X59759Y-65315D01*
G54D27*
X63210Y-62047D02*
X63484Y-62047D01*
X63484Y-62047D02*
X63701Y-62264D01*
X59972Y-69720D02*
X59968Y-69724D01*
X59968Y-69724D02*
X59173Y-69724D01*
G54D30*
X57008Y-64232D02*
X57258Y-63982D01*
G54D26*
X57258Y-63982D02*
X57258Y-63799D01*
G54D30*
X57008Y-64646D02*
X57008Y-64232D01*
G54D26*
X60768Y-59974D02*
X60768Y-59507D01*
X60768Y-59507D02*
X60984Y-59291D01*
G54D27*
X62520Y-60212D02*
X62520Y-59685D01*
G54D26*
X57258Y-63799D02*
X56737Y-63799D01*
X56737Y-63799D02*
X56614Y-63922D01*
X60138Y-63523D02*
X60138Y-64474D01*
G54D29*
X60138Y-63523D02*
X60157Y-63504D01*
X58248Y-59974D02*
X58248Y-59508D01*
X58248Y-59508D02*
X58031Y-59291D01*
G54D26*
X57402Y-59208D02*
X57948Y-59208D01*
G54D29*
X57948Y-59208D02*
X58031Y-59291D01*
G54D26*
X61758Y-61909D02*
X61043Y-61909D01*
G54D29*
X61043Y-61909D02*
X61062Y-61890D01*
X61062Y-61890D02*
X61063Y-61890D01*
G54D30*
X61205Y-59070D02*
X60984Y-59291D01*
X61205Y-59070D02*
X61594Y-59070D01*
G54D29*
X62986Y-65644D02*
X63051Y-65709D01*
G54D27*
X62372Y-65644D02*
X62986Y-65644D01*
G54D29*
X53478Y-65545D02*
X53524Y-65591D01*
G54D27*
X52785Y-65545D02*
X53478Y-65545D01*
G54D29*
X61758Y-61279D02*
X64408Y-61279D01*
X64408Y-61279D02*
X64546Y-61417D01*
X61758Y-62224D02*
X62283Y-62224D01*
X62283Y-62224D02*
X62460Y-62047D01*
X66437Y-61358D02*
X66515Y-61436D01*
X66515Y-61436D02*
X67244Y-61436D01*
X65296Y-61417D02*
X65296Y-59271D01*
X65296Y-59271D02*
X65866Y-58701D01*
X61758Y-61594D02*
X63601Y-61594D01*
X64231Y-62224D02*
X64527Y-62224D01*
X63601Y-61594D02*
X64231Y-62224D01*
X65492Y-62224D02*
X65984Y-61732D01*
X65277Y-62224D02*
X65492Y-62224D01*
G54D27*
X66172Y-65644D02*
X66883Y-65644D01*
G54D29*
X66883Y-65644D02*
X66908Y-65669D01*
G54D26*
X61758Y-62539D02*
X62991Y-62539D01*
G54D27*
X64114Y-62854D02*
X67244Y-62854D01*
X63957Y-62697D02*
X64114Y-62854D01*
G54D26*
X63149Y-62697D02*
X63957Y-62697D01*
X62991Y-62539D02*
X63149Y-62697D01*
G54D27*
X67244Y-62186D02*
X67244Y-62854D01*
X67244Y-62854D02*
X67244Y-63819D01*
X68090Y-64665D02*
X69252Y-64665D01*
X67244Y-63819D02*
X68090Y-64665D01*
G54D29*
X54283Y-57972D02*
X54283Y-57922D01*
G54D27*
X70020Y-65897D02*
X69252Y-66665D01*
X70020Y-59134D02*
X70020Y-65897D01*
X68110Y-57224D02*
X70020Y-59134D01*
X54981Y-57224D02*
X68110Y-57224D01*
X54283Y-57922D02*
X54981Y-57224D01*
M02*
