G04 (created by PCBNEW-RS274X (2012-07-14 BZR 3647)-testing) date Mon 16 Jul 2012 02:43:59 PM EEST*
%MOIN*%
G04 Gerber Fmt 3.4, Leading zero omitted, Abs format*
%FSLAX34Y34*%
G01*
G70*
G90*
G04 APERTURE LIST*
%ADD10C,0.006*%
%ADD11C,0.015*%
%ADD12C,0.0118*%
%ADD13C,0.012*%
G04 APERTURE END LIST*
G54D10*
G54D11*
X49955Y-58425D02*
X49937Y-58599D01*
X49887Y-58767D01*
X49804Y-58923D01*
X49693Y-59059D01*
X49558Y-59171D01*
X49403Y-59254D01*
X49235Y-59306D01*
X49061Y-59324D01*
X48887Y-59309D01*
X48718Y-59259D01*
X48563Y-59178D01*
X48426Y-59068D01*
X48313Y-58933D01*
X48228Y-58779D01*
X48175Y-58612D01*
X48156Y-58437D01*
X48170Y-58263D01*
X48219Y-58094D01*
X48299Y-57938D01*
X48408Y-57800D01*
X48542Y-57686D01*
X48695Y-57601D01*
X48862Y-57546D01*
X49037Y-57526D01*
X49211Y-57539D01*
X49380Y-57586D01*
X49537Y-57666D01*
X49675Y-57774D01*
X49790Y-57907D01*
X49877Y-58059D01*
X49932Y-58226D01*
X49954Y-58400D01*
X49955Y-58425D01*
X70585Y-58425D02*
X70567Y-58599D01*
X70517Y-58767D01*
X70434Y-58923D01*
X70323Y-59059D01*
X70188Y-59171D01*
X70033Y-59254D01*
X69865Y-59306D01*
X69691Y-59324D01*
X69517Y-59309D01*
X69348Y-59259D01*
X69193Y-59178D01*
X69056Y-59068D01*
X68943Y-58933D01*
X68858Y-58779D01*
X68805Y-58612D01*
X68786Y-58437D01*
X68800Y-58263D01*
X68849Y-58094D01*
X68929Y-57938D01*
X69038Y-57800D01*
X69172Y-57686D01*
X69325Y-57601D01*
X69492Y-57546D01*
X69667Y-57526D01*
X69841Y-57539D01*
X70010Y-57586D01*
X70167Y-57666D01*
X70305Y-57774D01*
X70420Y-57907D01*
X70507Y-58059D01*
X70562Y-58226D01*
X70584Y-58400D01*
X70585Y-58425D01*
G54D12*
X51782Y-68593D02*
X51782Y-67943D01*
X50739Y-67942D02*
X50739Y-68572D01*
X50739Y-68563D02*
X50739Y-68583D01*
X50739Y-68593D02*
X51772Y-68593D01*
X50739Y-67943D02*
X51782Y-67943D01*
G54D11*
X48949Y-59657D02*
X48949Y-64657D01*
X49949Y-59657D02*
X49949Y-64657D01*
X49949Y-64657D02*
X48949Y-64657D01*
X48949Y-59657D02*
X49949Y-59657D01*
G54D12*
X66732Y-56437D02*
X66732Y-59980D01*
X66732Y-59980D02*
X64370Y-59980D01*
X64370Y-59980D02*
X64370Y-56437D01*
X64370Y-56437D02*
X66732Y-56437D01*
G54D11*
X66549Y-76768D02*
X66549Y-80318D01*
X66549Y-80318D02*
X52191Y-80318D01*
X52191Y-80318D02*
X52191Y-76768D01*
X48642Y-76768D02*
X70098Y-76768D01*
X48642Y-70275D02*
X70098Y-70275D01*
X70098Y-70275D02*
X70098Y-76768D01*
X48642Y-70275D02*
X48642Y-76768D01*
X49949Y-69280D02*
X49949Y-65280D01*
X48949Y-69280D02*
X48949Y-65280D01*
X48949Y-65280D02*
X49949Y-65280D01*
X49949Y-69280D02*
X48949Y-69280D01*
X68752Y-64165D02*
X68752Y-68165D01*
X69752Y-64165D02*
X69752Y-68165D01*
X69752Y-68165D02*
X68752Y-68165D01*
X68752Y-64165D02*
X69752Y-64165D01*
G54D12*
X68090Y-66634D02*
X68524Y-66634D01*
X68524Y-66634D02*
X68543Y-66634D01*
X68543Y-66634D02*
X68543Y-65571D01*
X68543Y-65571D02*
X68090Y-65571D01*
X68090Y-65571D02*
X68071Y-65571D01*
X68071Y-65571D02*
X68071Y-66634D01*
X50873Y-67747D02*
X50873Y-67235D01*
X50995Y-67235D01*
X51068Y-67260D01*
X51117Y-67308D01*
X51141Y-67357D01*
X51165Y-67455D01*
X51165Y-67528D01*
X51141Y-67625D01*
X51117Y-67674D01*
X51068Y-67723D01*
X50995Y-67747D01*
X50873Y-67747D01*
X51361Y-67284D02*
X51385Y-67260D01*
X51434Y-67235D01*
X51556Y-67235D01*
X51604Y-67260D01*
X51629Y-67284D01*
X51653Y-67333D01*
X51653Y-67382D01*
X51629Y-67455D01*
X51336Y-67747D01*
X51653Y-67747D01*
X48664Y-62601D02*
X48073Y-62601D01*
X48073Y-62376D01*
X48101Y-62320D01*
X48129Y-62292D01*
X48185Y-62264D01*
X48270Y-62264D01*
X48326Y-62292D01*
X48354Y-62320D01*
X48382Y-62376D01*
X48382Y-62601D01*
X48073Y-62067D02*
X48073Y-61701D01*
X48298Y-61898D01*
X48298Y-61813D01*
X48326Y-61757D01*
X48354Y-61729D01*
X48410Y-61701D01*
X48551Y-61701D01*
X48607Y-61729D01*
X48636Y-61757D01*
X48664Y-61813D01*
X48664Y-61982D01*
X48636Y-62038D01*
X48607Y-62067D01*
G54D13*
X68688Y-59182D02*
X68088Y-59182D01*
X68088Y-58954D01*
X68116Y-58896D01*
X68145Y-58868D01*
X68202Y-58839D01*
X68288Y-58839D01*
X68345Y-58868D01*
X68374Y-58896D01*
X68402Y-58954D01*
X68402Y-59182D01*
X68145Y-58611D02*
X68116Y-58582D01*
X68088Y-58525D01*
X68088Y-58382D01*
X68116Y-58325D01*
X68145Y-58296D01*
X68202Y-58268D01*
X68259Y-58268D01*
X68345Y-58296D01*
X68688Y-58639D01*
X68688Y-58268D01*
X58928Y-69771D02*
X58928Y-69171D01*
X59156Y-69171D01*
X59214Y-69199D01*
X59242Y-69228D01*
X59271Y-69285D01*
X59271Y-69371D01*
X59242Y-69428D01*
X59214Y-69457D01*
X59156Y-69485D01*
X58928Y-69485D01*
X59814Y-69171D02*
X59528Y-69171D01*
X59499Y-69457D01*
X59528Y-69428D01*
X59585Y-69399D01*
X59728Y-69399D01*
X59785Y-69428D01*
X59814Y-69457D01*
X59842Y-69514D01*
X59842Y-69657D01*
X59814Y-69714D01*
X59785Y-69742D01*
X59728Y-69771D01*
X59585Y-69771D01*
X59528Y-69742D01*
X59499Y-69714D01*
G54D12*
X48743Y-67719D02*
X48152Y-67719D01*
X48152Y-67494D01*
X48180Y-67438D01*
X48208Y-67410D01*
X48264Y-67382D01*
X48349Y-67382D01*
X48405Y-67410D01*
X48433Y-67438D01*
X48461Y-67494D01*
X48461Y-67719D01*
X48349Y-66875D02*
X48743Y-66875D01*
X48124Y-67016D02*
X48546Y-67156D01*
X48546Y-66791D01*
X70593Y-66617D02*
X70002Y-66617D01*
X70002Y-66392D01*
X70030Y-66336D01*
X70058Y-66308D01*
X70114Y-66280D01*
X70199Y-66280D01*
X70255Y-66308D01*
X70283Y-66336D01*
X70311Y-66392D01*
X70311Y-66617D01*
X70002Y-65773D02*
X70002Y-65886D01*
X70030Y-65942D01*
X70058Y-65970D01*
X70142Y-66026D01*
X70255Y-66054D01*
X70480Y-66054D01*
X70536Y-66026D01*
X70565Y-65998D01*
X70593Y-65942D01*
X70593Y-65829D01*
X70565Y-65773D01*
X70536Y-65745D01*
X70480Y-65717D01*
X70339Y-65717D01*
X70283Y-65745D01*
X70255Y-65773D01*
X70227Y-65829D01*
X70227Y-65942D01*
X70255Y-65998D01*
X70283Y-66026D01*
X70339Y-66054D01*
X67877Y-66538D02*
X67286Y-66538D01*
X67286Y-66398D01*
X67314Y-66313D01*
X67370Y-66257D01*
X67426Y-66229D01*
X67539Y-66201D01*
X67623Y-66201D01*
X67736Y-66229D01*
X67792Y-66257D01*
X67849Y-66313D01*
X67877Y-66398D01*
X67877Y-66538D01*
X67877Y-65638D02*
X67877Y-65975D01*
X67877Y-65807D02*
X67286Y-65807D01*
X67370Y-65863D01*
X67426Y-65919D01*
X67455Y-65975D01*
M02*
