G04 (created by PCBNEW-RS274X (2012-07-14 BZR 3647)-testing) date Mon 16 Jul 2012 02:43:59 PM EEST*
%MOIN*%
G04 Gerber Fmt 3.4, Leading zero omitted, Abs format*
%FSLAX34Y34*%
G01*
G70*
G90*
G04 APERTURE LIST*
%ADD10C,0.006*%
%ADD11C,0.1969*%
%ADD12R,0.0236X0.0157*%
%ADD13R,0.06X0.06*%
%ADD14O,0.0866X0.0591*%
%ADD15R,0.0197X0.0886*%
%ADD16R,0.0807X0.1378*%
%ADD17C,0.0354*%
%ADD18C,0.126*%
%ADD19O,0.0551X0.0787*%
%ADD20R,0.0314X0.0314*%
%ADD21C,0.0315*%
%ADD22C,0.0157*%
%ADD23C,0.0394*%
%ADD24C,0.0315*%
%ADD25C,0.0197*%
%ADD26C,0.0138*%
%ADD27C,0.008*%
%ADD28C,0.01*%
G04 APERTURE END LIST*
G54D10*
G54D11*
X49055Y-58425D03*
X69685Y-58425D03*
G54D12*
X50935Y-68099D03*
X51585Y-68099D03*
X50935Y-68437D03*
X51585Y-68437D03*
G54D13*
X49449Y-60157D03*
G54D14*
X49449Y-61157D03*
X49449Y-62157D03*
X49449Y-63157D03*
X49449Y-64157D03*
G54D15*
X66181Y-59567D03*
X65866Y-59567D03*
X65551Y-59567D03*
X65236Y-59567D03*
X64921Y-59567D03*
G54D16*
X63612Y-57904D03*
X63612Y-59577D03*
X67490Y-59577D03*
X67490Y-57904D03*
G54D17*
X66417Y-58435D03*
X64685Y-58435D03*
G54D18*
X50159Y-72598D03*
X68581Y-72598D03*
G54D19*
X59795Y-71754D03*
X60646Y-71754D03*
X61496Y-71754D03*
X62346Y-71754D03*
X63197Y-71754D03*
X64047Y-71754D03*
X58945Y-71754D03*
X58094Y-71754D03*
X57244Y-71754D03*
X56394Y-71754D03*
X55543Y-71754D03*
X54693Y-71754D03*
X54693Y-73442D03*
X57244Y-73442D03*
X58094Y-73442D03*
X58945Y-73442D03*
X59795Y-73442D03*
X60645Y-73442D03*
X61496Y-73442D03*
X62346Y-73442D03*
X63197Y-73442D03*
X64047Y-73442D03*
X55543Y-73442D03*
X56394Y-73442D03*
G54D13*
X49449Y-68780D03*
G54D14*
X49449Y-67780D03*
X49449Y-66780D03*
X49449Y-65780D03*
G54D13*
X69252Y-64665D03*
G54D14*
X69252Y-65665D03*
X69252Y-66665D03*
X69252Y-67665D03*
G54D20*
X68307Y-65807D03*
X68307Y-66397D03*
G54D21*
X59193Y-67402D03*
X59606Y-66201D03*
X59843Y-62795D03*
X60551Y-63780D03*
X57953Y-63465D03*
X55669Y-64528D03*
X58622Y-65157D03*
X56024Y-64843D03*
X59134Y-65197D03*
X56614Y-61870D03*
X58543Y-59291D03*
X55512Y-63543D03*
X58051Y-62992D03*
X55512Y-62559D03*
X56614Y-62717D03*
X57953Y-62283D03*
X55512Y-63031D03*
X55945Y-69528D03*
X54587Y-70374D03*
X56772Y-60118D03*
X59055Y-62283D03*
X60472Y-67264D03*
X61614Y-66398D03*
X58150Y-65157D03*
X55512Y-64055D03*
X61575Y-71063D03*
X60217Y-72894D03*
X61850Y-60177D03*
X63484Y-63091D03*
X56535Y-60512D03*
X58701Y-61969D03*
X63701Y-62264D03*
X55787Y-70059D03*
X65000Y-71181D03*
X59173Y-69724D03*
X57008Y-64646D03*
X62520Y-59685D03*
X60157Y-63504D03*
X58031Y-59291D03*
X61063Y-61890D03*
X60984Y-59291D03*
X63051Y-65709D03*
X53524Y-65591D03*
X66437Y-61358D03*
X65866Y-58701D03*
X68268Y-65157D03*
X50551Y-68740D03*
X65984Y-61732D03*
X50157Y-68937D03*
G54D22*
X16909Y-20847D02*
X16899Y-20837D01*
G54D23*
X59606Y-66201D02*
X59606Y-66989D01*
X59606Y-66989D02*
X59193Y-67402D01*
G54D24*
X59528Y-63110D02*
X59528Y-63740D01*
X59843Y-62795D02*
X59528Y-63110D01*
G54D25*
X60551Y-63780D02*
X60433Y-63898D01*
X60433Y-63898D02*
X59686Y-63898D01*
X59686Y-63898D02*
X59528Y-63740D01*
X58228Y-63740D02*
X59528Y-63740D01*
X57953Y-63465D02*
X58228Y-63740D01*
G54D26*
X56378Y-63898D02*
X56299Y-63898D01*
X56378Y-63898D02*
X56535Y-63898D01*
X56535Y-63898D02*
X57440Y-63898D01*
X58622Y-65157D02*
X58622Y-65197D01*
X58307Y-65512D02*
X58622Y-65197D01*
X57952Y-65512D02*
X58307Y-65512D01*
X57638Y-65198D02*
X57952Y-65512D01*
X57638Y-64096D02*
X57638Y-65198D01*
X57440Y-63898D02*
X57638Y-64096D01*
X56299Y-63898D02*
X55669Y-64528D01*
X58622Y-65157D02*
X58622Y-65039D01*
X56024Y-64843D02*
X56024Y-64803D01*
X56574Y-64253D02*
X56889Y-64253D01*
X57794Y-65787D02*
X58741Y-65787D01*
X57283Y-64253D02*
X57362Y-64332D01*
X56889Y-64253D02*
X57283Y-64253D01*
X57362Y-65355D02*
X57794Y-65787D01*
X57362Y-64332D02*
X57362Y-65355D01*
X59134Y-65197D02*
X59134Y-65394D01*
X58741Y-65787D02*
X59134Y-65394D01*
X56024Y-64803D02*
X56574Y-64253D01*
X59134Y-65197D02*
X59134Y-65236D01*
X56614Y-61870D02*
X56614Y-61102D01*
X56181Y-60669D02*
X56181Y-60216D01*
X56614Y-61102D02*
X56181Y-60669D01*
X56673Y-59724D02*
X56181Y-60216D01*
X58110Y-59724D02*
X56673Y-59724D01*
X58543Y-59291D02*
X58110Y-59724D01*
X55709Y-63346D02*
X55512Y-63543D01*
X57264Y-63012D02*
X56930Y-63346D01*
X56930Y-63346D02*
X55946Y-63346D01*
X55946Y-63346D02*
X55709Y-63346D01*
X57284Y-62992D02*
X57264Y-63012D01*
X58051Y-62992D02*
X57284Y-62992D01*
X55512Y-62559D02*
X56456Y-62559D01*
X56456Y-62559D02*
X56614Y-62717D01*
X57559Y-62283D02*
X56771Y-63071D01*
X56771Y-63071D02*
X55709Y-63071D01*
X57953Y-62283D02*
X57559Y-62283D01*
X55552Y-63071D02*
X55512Y-63031D01*
X55709Y-63071D02*
X55552Y-63071D01*
X55945Y-69528D02*
X55432Y-69528D01*
X55432Y-69528D02*
X54587Y-70374D01*
X56772Y-60118D02*
X56890Y-60236D01*
X56890Y-60236D02*
X57559Y-60236D01*
X57559Y-60236D02*
X59055Y-61732D01*
X59055Y-61732D02*
X59055Y-61890D01*
X59055Y-62283D02*
X59055Y-61890D01*
X61338Y-66398D02*
X60472Y-67264D01*
X61614Y-66398D02*
X61338Y-66398D01*
X56181Y-63622D02*
X55945Y-63622D01*
X57559Y-63622D02*
X56181Y-63622D01*
X58150Y-64213D02*
X57559Y-63622D01*
X58150Y-65157D02*
X58150Y-64213D01*
X55945Y-63622D02*
X55512Y-64055D01*
X61063Y-72323D02*
X60492Y-72894D01*
X60492Y-72894D02*
X60217Y-72894D01*
G54D27*
X61063Y-72146D02*
X61063Y-71437D01*
G54D26*
X61437Y-71063D02*
X61063Y-71437D01*
X61575Y-71063D02*
X61437Y-71063D01*
X61063Y-72146D02*
X61063Y-72323D01*
X61850Y-61457D02*
X61850Y-60177D01*
X63484Y-63091D02*
X61850Y-61457D01*
X57244Y-60512D02*
X56535Y-60512D01*
X58701Y-61969D02*
X57244Y-60512D01*
X69252Y-67665D02*
X67453Y-67665D01*
X65000Y-70118D02*
X65000Y-71181D01*
X66102Y-69016D02*
X65000Y-70118D01*
X67453Y-67665D02*
X66102Y-69016D01*
X59173Y-69724D02*
X56732Y-69724D01*
X56397Y-70059D02*
X55787Y-70059D01*
X56732Y-69724D02*
X56397Y-70059D01*
X63701Y-62264D02*
X63701Y-62520D01*
X64055Y-64705D02*
X63051Y-65709D01*
X64055Y-62874D02*
X64055Y-64705D01*
X63701Y-62520D02*
X64055Y-62874D01*
X51585Y-68099D02*
X51585Y-68268D01*
X51585Y-68268D02*
X51575Y-68268D01*
X53524Y-68268D02*
X51575Y-68268D01*
X51585Y-68278D02*
X51585Y-68437D01*
X51575Y-68268D02*
X51585Y-68278D01*
X69252Y-67665D02*
X69042Y-67665D01*
X68307Y-66930D02*
X68307Y-66397D01*
X69042Y-67665D02*
X68307Y-66930D01*
G54D23*
X49449Y-65780D02*
X53335Y-65780D01*
X53335Y-65780D02*
X53524Y-65591D01*
X49449Y-64157D02*
X49449Y-65780D01*
G54D26*
X54693Y-71153D02*
X54693Y-71754D01*
X55787Y-70059D02*
X54693Y-71153D01*
X64627Y-74154D02*
X60217Y-74154D01*
X60217Y-74154D02*
X60059Y-73996D01*
X64627Y-74154D02*
X65000Y-73781D01*
X65000Y-73781D02*
X65000Y-71181D01*
X60059Y-73996D02*
X59795Y-73732D01*
X59795Y-73442D02*
X59795Y-73732D01*
G54D23*
X53524Y-68765D02*
X53524Y-70585D01*
X53524Y-70585D02*
X54693Y-71754D01*
X53524Y-65591D02*
X53524Y-68268D01*
X53524Y-68268D02*
X53524Y-68765D01*
X54693Y-71754D02*
X54693Y-73442D01*
G54D26*
X63612Y-57904D02*
X67490Y-57904D01*
X63612Y-59577D02*
X64911Y-59577D01*
G54D28*
X64911Y-59577D02*
X64921Y-59567D01*
G54D26*
X64921Y-59567D02*
X65236Y-59567D01*
X67490Y-59577D02*
X67490Y-57904D01*
X62520Y-59685D02*
X63504Y-59685D01*
G54D28*
X63504Y-59685D02*
X63612Y-59577D01*
G54D26*
X63612Y-59577D02*
X63612Y-57904D01*
G54D23*
X62304Y-66456D02*
X63051Y-65709D01*
X62304Y-69724D02*
X62304Y-66456D01*
X59173Y-69724D02*
X62304Y-69724D01*
G54D24*
X53524Y-65591D02*
X56063Y-65591D01*
X56063Y-65591D02*
X57008Y-64646D01*
G54D26*
X53524Y-65591D02*
X53524Y-65650D01*
X62126Y-59291D02*
X60984Y-59291D01*
X62520Y-59685D02*
X62126Y-59291D01*
X61063Y-61890D02*
X61063Y-59370D01*
X61063Y-59370D02*
X60984Y-59291D01*
X61063Y-62874D02*
X61063Y-63031D01*
X61063Y-61890D02*
X61063Y-62874D01*
X61063Y-63031D02*
X60718Y-63376D01*
X60157Y-63504D02*
X60275Y-63504D01*
X60275Y-63504D02*
X60433Y-63346D01*
X60433Y-63346D02*
X60688Y-63346D01*
X60688Y-63346D02*
X60718Y-63376D01*
G54D23*
X63051Y-65709D02*
X61122Y-63780D01*
G54D26*
X60718Y-63376D02*
X61122Y-63780D01*
X58031Y-59291D02*
X58031Y-59213D01*
X60512Y-58819D02*
X60984Y-59291D01*
X58425Y-58819D02*
X60512Y-58819D01*
X58031Y-59213D02*
X58425Y-58819D01*
G54D23*
X58094Y-73442D02*
X57244Y-73442D01*
X57244Y-73442D02*
X56394Y-73442D01*
X59795Y-73442D02*
X58945Y-73442D01*
X55543Y-73442D02*
X54693Y-73442D01*
X56394Y-73442D02*
X55543Y-73442D01*
X58945Y-73442D02*
X58094Y-73442D01*
G54D26*
X66181Y-59567D02*
X66181Y-60531D01*
X66437Y-60787D02*
X66437Y-61358D01*
X66181Y-60531D02*
X66437Y-60787D01*
X65866Y-58701D02*
X65866Y-59567D01*
X68307Y-65196D02*
X68307Y-65807D01*
X68268Y-65157D02*
X68307Y-65196D01*
X50854Y-68437D02*
X50935Y-68437D01*
X50551Y-68740D02*
X50854Y-68437D01*
X65984Y-61732D02*
X65984Y-60787D01*
X65551Y-60354D02*
X65551Y-59567D01*
X65984Y-60787D02*
X65551Y-60354D01*
X50326Y-68099D02*
X50935Y-68099D01*
X50157Y-68268D02*
X50326Y-68099D01*
X50157Y-68937D02*
X50157Y-68268D01*
G54D10*
G36*
X70914Y-76329D02*
X69956Y-76328D01*
X69956Y-67780D01*
X69956Y-67512D01*
X69951Y-67484D01*
X69893Y-67377D01*
X69893Y-66737D01*
X69893Y-66556D01*
X69893Y-65737D01*
X69893Y-65556D01*
X69824Y-65389D01*
X69758Y-65323D01*
X69758Y-64980D01*
X69758Y-64913D01*
X69758Y-64313D01*
X69733Y-64251D01*
X69685Y-64204D01*
X69624Y-64178D01*
X69557Y-64178D01*
X68957Y-64178D01*
X68895Y-64203D01*
X68848Y-64251D01*
X68822Y-64312D01*
X68822Y-64379D01*
X68822Y-64979D01*
X68847Y-65041D01*
X68895Y-65088D01*
X68956Y-65114D01*
X69023Y-65114D01*
X69623Y-65114D01*
X69685Y-65089D01*
X69732Y-65041D01*
X69758Y-64980D01*
X69758Y-65323D01*
X69696Y-65261D01*
X69530Y-65192D01*
X69349Y-65192D01*
X69051Y-65192D01*
X68884Y-65261D01*
X68756Y-65389D01*
X68687Y-65555D01*
X68687Y-65736D01*
X68756Y-65903D01*
X68884Y-66031D01*
X69050Y-66100D01*
X69231Y-66100D01*
X69529Y-66100D01*
X69696Y-66031D01*
X69824Y-65903D01*
X69893Y-65737D01*
X69893Y-66556D01*
X69824Y-66389D01*
X69696Y-66261D01*
X69530Y-66192D01*
X69349Y-66192D01*
X69051Y-66192D01*
X68884Y-66261D01*
X68756Y-66389D01*
X68752Y-66398D01*
X68752Y-66266D01*
X68751Y-66172D01*
X68713Y-66080D01*
X68652Y-66019D01*
X68670Y-65979D01*
X68670Y-65912D01*
X68670Y-65598D01*
X68645Y-65536D01*
X68597Y-65489D01*
X68582Y-65482D01*
X68582Y-65320D01*
X68631Y-65203D01*
X68631Y-65074D01*
X68582Y-64954D01*
X68491Y-64863D01*
X68371Y-64813D01*
X68242Y-64813D01*
X68181Y-64837D01*
X68181Y-59670D01*
X68181Y-59446D01*
X68180Y-58820D01*
X68142Y-58728D01*
X68135Y-58721D01*
X68142Y-58715D01*
X68180Y-58623D01*
X68181Y-57997D01*
X68119Y-57935D01*
X67578Y-57935D01*
X67578Y-58681D01*
X67578Y-58762D01*
X67578Y-59508D01*
X68119Y-59508D01*
X68181Y-59446D01*
X68181Y-59670D01*
X68119Y-59608D01*
X67578Y-59608D01*
X67578Y-60435D01*
X67640Y-60497D01*
X67882Y-60496D01*
X67981Y-60496D01*
X68072Y-60458D01*
X68142Y-60388D01*
X68180Y-60296D01*
X68181Y-59670D01*
X68181Y-64837D01*
X68122Y-64862D01*
X68031Y-64953D01*
X67981Y-65073D01*
X67981Y-65202D01*
X68030Y-65322D01*
X68108Y-65400D01*
X68108Y-65481D01*
X68093Y-65488D01*
X68046Y-65536D01*
X68020Y-65597D01*
X68020Y-65664D01*
X68020Y-65978D01*
X68036Y-66020D01*
X67977Y-66080D01*
X67939Y-66172D01*
X67938Y-66266D01*
X68000Y-66328D01*
X68245Y-66328D01*
X68295Y-66328D01*
X68395Y-66328D01*
X68445Y-66328D01*
X68690Y-66328D01*
X68752Y-66266D01*
X68752Y-66398D01*
X68725Y-66463D01*
X68690Y-66428D01*
X68395Y-66428D01*
X68395Y-66723D01*
X68456Y-66784D01*
X68552Y-66784D01*
X68643Y-66746D01*
X68687Y-66702D01*
X68687Y-66736D01*
X68756Y-66903D01*
X68884Y-67031D01*
X69050Y-67100D01*
X69231Y-67100D01*
X69529Y-67100D01*
X69696Y-67031D01*
X69824Y-66903D01*
X69893Y-66737D01*
X69893Y-67377D01*
X69849Y-67296D01*
X69683Y-67162D01*
X69478Y-67101D01*
X69340Y-67101D01*
X69340Y-67596D01*
X69908Y-67596D01*
X69956Y-67512D01*
X69956Y-67780D01*
X69908Y-67696D01*
X69340Y-67696D01*
X69340Y-68191D01*
X69478Y-68191D01*
X69683Y-68130D01*
X69849Y-67996D01*
X69951Y-67808D01*
X69956Y-67780D01*
X69956Y-76328D01*
X69417Y-76328D01*
X69417Y-72738D01*
X69417Y-72421D01*
X69296Y-72128D01*
X69240Y-72071D01*
X69240Y-68191D01*
X69240Y-67696D01*
X69240Y-67596D01*
X69240Y-67101D01*
X69102Y-67101D01*
X68897Y-67162D01*
X68731Y-67296D01*
X68629Y-67484D01*
X68624Y-67512D01*
X68672Y-67596D01*
X69240Y-67596D01*
X69240Y-67696D01*
X68672Y-67696D01*
X68624Y-67780D01*
X68629Y-67808D01*
X68731Y-67996D01*
X68897Y-68130D01*
X69102Y-68191D01*
X69240Y-68191D01*
X69240Y-72071D01*
X69072Y-71903D01*
X68778Y-71781D01*
X68461Y-71781D01*
X68295Y-71849D01*
X68295Y-66723D01*
X68295Y-66428D01*
X68000Y-66428D01*
X67938Y-66490D01*
X67939Y-66584D01*
X67977Y-66676D01*
X68047Y-66746D01*
X68138Y-66784D01*
X68234Y-66784D01*
X68295Y-66723D01*
X68295Y-71849D01*
X68168Y-71902D01*
X67943Y-72126D01*
X67821Y-72420D01*
X67821Y-72737D01*
X67942Y-73030D01*
X68166Y-73255D01*
X68460Y-73377D01*
X68777Y-73377D01*
X69070Y-73256D01*
X69295Y-73032D01*
X69417Y-72738D01*
X69417Y-76328D01*
X67478Y-76328D01*
X67478Y-60435D01*
X67478Y-59608D01*
X67478Y-59508D01*
X67478Y-58762D01*
X67478Y-58681D01*
X67478Y-57935D01*
X66937Y-57935D01*
X66875Y-57997D01*
X66876Y-58623D01*
X66914Y-58715D01*
X66920Y-58721D01*
X66914Y-58728D01*
X66876Y-58820D01*
X66875Y-59446D01*
X66937Y-59508D01*
X67478Y-59508D01*
X67478Y-59608D01*
X66937Y-59608D01*
X66875Y-59670D01*
X66876Y-60296D01*
X66914Y-60388D01*
X66984Y-60458D01*
X67075Y-60496D01*
X67174Y-60496D01*
X67416Y-60497D01*
X67478Y-60435D01*
X67478Y-76328D01*
X66800Y-76328D01*
X66800Y-61404D01*
X66800Y-61275D01*
X66751Y-61155D01*
X66712Y-61116D01*
X66712Y-60772D01*
X66712Y-60768D01*
X66713Y-60768D01*
X66694Y-60677D01*
X66643Y-60600D01*
X66456Y-60413D01*
X66456Y-60089D01*
X66459Y-60086D01*
X66485Y-60025D01*
X66485Y-59958D01*
X66485Y-59072D01*
X66460Y-59010D01*
X66412Y-58963D01*
X66351Y-58937D01*
X66284Y-58937D01*
X66141Y-58937D01*
X66141Y-58905D01*
X66179Y-58867D01*
X66229Y-58747D01*
X66229Y-58676D01*
X66260Y-58707D01*
X66386Y-58760D01*
X66523Y-58760D01*
X66649Y-58708D01*
X66746Y-58611D01*
X66799Y-58485D01*
X66799Y-58348D01*
X66747Y-58222D01*
X66650Y-58125D01*
X66524Y-58072D01*
X66387Y-58072D01*
X66261Y-58124D01*
X66164Y-58221D01*
X66111Y-58347D01*
X66111Y-58429D01*
X66089Y-58407D01*
X65969Y-58357D01*
X65840Y-58357D01*
X65720Y-58406D01*
X65629Y-58497D01*
X65579Y-58617D01*
X65579Y-58746D01*
X65628Y-58866D01*
X65667Y-58905D01*
X65667Y-58937D01*
X65654Y-58937D01*
X65556Y-58937D01*
X65513Y-58894D01*
X65422Y-58856D01*
X65384Y-58856D01*
X65323Y-58917D01*
X65323Y-59071D01*
X65323Y-59138D01*
X65323Y-59498D01*
X65323Y-59598D01*
X65323Y-60024D01*
X65323Y-60179D01*
X65352Y-60208D01*
X65352Y-60240D01*
X65352Y-60330D01*
X65351Y-60335D01*
X65370Y-60426D01*
X65421Y-60503D01*
X65785Y-60866D01*
X65785Y-61490D01*
X65747Y-61528D01*
X65697Y-61648D01*
X65697Y-61777D01*
X65746Y-61897D01*
X65837Y-61988D01*
X65957Y-62038D01*
X66086Y-62038D01*
X66206Y-61989D01*
X66297Y-61898D01*
X66347Y-61778D01*
X66347Y-61649D01*
X66341Y-61635D01*
X66410Y-61664D01*
X66539Y-61664D01*
X66659Y-61615D01*
X66750Y-61524D01*
X66800Y-61404D01*
X66800Y-76328D01*
X65307Y-76328D01*
X65307Y-59660D01*
X65307Y-59436D01*
X65306Y-59056D01*
X65268Y-58964D01*
X65225Y-58921D01*
X65225Y-58917D01*
X65164Y-58856D01*
X65126Y-58856D01*
X65116Y-58859D01*
X65107Y-58856D01*
X65069Y-58856D01*
X65067Y-58858D01*
X65067Y-58485D01*
X65067Y-58348D01*
X65015Y-58222D01*
X64918Y-58125D01*
X64792Y-58072D01*
X64655Y-58072D01*
X64529Y-58124D01*
X64432Y-58221D01*
X64379Y-58347D01*
X64379Y-58484D01*
X64431Y-58610D01*
X64528Y-58707D01*
X64654Y-58760D01*
X64791Y-58760D01*
X64917Y-58708D01*
X65014Y-58611D01*
X65067Y-58485D01*
X65067Y-58858D01*
X65008Y-58917D01*
X65008Y-58921D01*
X64965Y-58964D01*
X64927Y-59056D01*
X64926Y-59436D01*
X64988Y-59498D01*
X65008Y-59498D01*
X65225Y-59498D01*
X65245Y-59498D01*
X65307Y-59436D01*
X65307Y-59660D01*
X65245Y-59598D01*
X65225Y-59598D01*
X65008Y-59598D01*
X64988Y-59598D01*
X64926Y-59660D01*
X64927Y-60040D01*
X64965Y-60132D01*
X65008Y-60175D01*
X65008Y-60179D01*
X65069Y-60240D01*
X65107Y-60240D01*
X65116Y-60236D01*
X65126Y-60240D01*
X65164Y-60240D01*
X65225Y-60179D01*
X65225Y-60175D01*
X65268Y-60132D01*
X65306Y-60040D01*
X65307Y-59660D01*
X65307Y-76328D01*
X64910Y-76328D01*
X64910Y-60179D01*
X64910Y-59598D01*
X64910Y-59498D01*
X64910Y-58917D01*
X64849Y-58856D01*
X64811Y-58856D01*
X64720Y-58894D01*
X64650Y-58964D01*
X64612Y-59056D01*
X64611Y-59436D01*
X64673Y-59498D01*
X64910Y-59498D01*
X64910Y-59598D01*
X64673Y-59598D01*
X64611Y-59660D01*
X64612Y-60040D01*
X64650Y-60132D01*
X64720Y-60202D01*
X64811Y-60240D01*
X64849Y-60240D01*
X64910Y-60179D01*
X64910Y-76328D01*
X64520Y-76328D01*
X64520Y-73638D01*
X64520Y-73465D01*
X64520Y-73209D01*
X64454Y-73049D01*
X64332Y-72927D01*
X64172Y-72860D01*
X63999Y-72860D01*
X63839Y-72926D01*
X63717Y-73048D01*
X63659Y-73184D01*
X63604Y-73049D01*
X63482Y-72927D01*
X63322Y-72860D01*
X63149Y-72860D01*
X62989Y-72926D01*
X62867Y-73048D01*
X62809Y-73185D01*
X62753Y-73049D01*
X62631Y-72927D01*
X62471Y-72860D01*
X62298Y-72860D01*
X62138Y-72926D01*
X62016Y-73048D01*
X61958Y-73184D01*
X61903Y-73049D01*
X61781Y-72927D01*
X61621Y-72860D01*
X61448Y-72860D01*
X61288Y-72926D01*
X61166Y-73048D01*
X61108Y-73185D01*
X61052Y-73049D01*
X60930Y-72927D01*
X60848Y-72892D01*
X61266Y-72473D01*
X61268Y-72472D01*
X61269Y-72472D01*
X61320Y-72395D01*
X61338Y-72304D01*
X61338Y-72252D01*
X61447Y-72298D01*
X61620Y-72298D01*
X61780Y-72232D01*
X61902Y-72110D01*
X61959Y-71973D01*
X62015Y-72109D01*
X62137Y-72231D01*
X62297Y-72298D01*
X62470Y-72298D01*
X62630Y-72232D01*
X62752Y-72110D01*
X62809Y-71972D01*
X62866Y-72109D01*
X62988Y-72231D01*
X63148Y-72298D01*
X63321Y-72298D01*
X63481Y-72232D01*
X63603Y-72110D01*
X63660Y-71973D01*
X63716Y-72109D01*
X63838Y-72231D01*
X63998Y-72298D01*
X64171Y-72298D01*
X64331Y-72232D01*
X64453Y-72110D01*
X64520Y-71950D01*
X64520Y-71777D01*
X64520Y-71521D01*
X64454Y-71361D01*
X64332Y-71239D01*
X64303Y-71226D01*
X64303Y-59670D01*
X64303Y-59446D01*
X64302Y-58820D01*
X64264Y-58728D01*
X64257Y-58721D01*
X64264Y-58715D01*
X64302Y-58623D01*
X64303Y-57997D01*
X64241Y-57935D01*
X63700Y-57935D01*
X63700Y-58681D01*
X63700Y-58762D01*
X63700Y-59508D01*
X64241Y-59508D01*
X64303Y-59446D01*
X64303Y-59670D01*
X64241Y-59608D01*
X63700Y-59608D01*
X63700Y-60435D01*
X63762Y-60497D01*
X64004Y-60496D01*
X64103Y-60496D01*
X64194Y-60458D01*
X64264Y-60388D01*
X64302Y-60296D01*
X64303Y-59670D01*
X64303Y-71226D01*
X64172Y-71172D01*
X63999Y-71172D01*
X63847Y-71234D01*
X63847Y-63137D01*
X63847Y-63008D01*
X63798Y-62888D01*
X63707Y-62797D01*
X63600Y-62752D01*
X63600Y-60435D01*
X63600Y-59608D01*
X63600Y-59508D01*
X63600Y-58762D01*
X63600Y-58681D01*
X63600Y-57935D01*
X63059Y-57935D01*
X62997Y-57997D01*
X62998Y-58623D01*
X63036Y-58715D01*
X63042Y-58721D01*
X63036Y-58728D01*
X62998Y-58820D01*
X62997Y-59446D01*
X63059Y-59508D01*
X63600Y-59508D01*
X63600Y-59608D01*
X63059Y-59608D01*
X62997Y-59670D01*
X62998Y-60296D01*
X63036Y-60388D01*
X63106Y-60458D01*
X63197Y-60496D01*
X63296Y-60496D01*
X63538Y-60497D01*
X63600Y-60435D01*
X63600Y-62752D01*
X63587Y-62747D01*
X63532Y-62747D01*
X62125Y-61339D01*
X62125Y-60381D01*
X62163Y-60343D01*
X62213Y-60223D01*
X62213Y-60094D01*
X62164Y-59974D01*
X62073Y-59883D01*
X61953Y-59833D01*
X61824Y-59833D01*
X61704Y-59882D01*
X61613Y-59973D01*
X61563Y-60093D01*
X61563Y-60222D01*
X61612Y-60342D01*
X61651Y-60381D01*
X61651Y-61433D01*
X61650Y-61438D01*
X61669Y-61529D01*
X61720Y-61606D01*
X63197Y-63082D01*
X63197Y-63136D01*
X63246Y-63256D01*
X63337Y-63347D01*
X63457Y-63397D01*
X63586Y-63397D01*
X63706Y-63348D01*
X63797Y-63257D01*
X63847Y-63137D01*
X63847Y-71234D01*
X63839Y-71238D01*
X63717Y-71360D01*
X63659Y-71496D01*
X63604Y-71361D01*
X63482Y-71239D01*
X63322Y-71172D01*
X63149Y-71172D01*
X62989Y-71238D01*
X62867Y-71360D01*
X62809Y-71497D01*
X62753Y-71361D01*
X62631Y-71239D01*
X62471Y-71172D01*
X62298Y-71172D01*
X62138Y-71238D01*
X62016Y-71360D01*
X61977Y-71451D01*
X61977Y-66444D01*
X61977Y-66315D01*
X61928Y-66195D01*
X61837Y-66104D01*
X61717Y-66054D01*
X61588Y-66054D01*
X61468Y-66103D01*
X61429Y-66142D01*
X61376Y-66142D01*
X61375Y-66142D01*
X61285Y-66160D01*
X61208Y-66211D01*
X61206Y-66213D01*
X60914Y-66505D01*
X60914Y-63826D01*
X60914Y-63697D01*
X60865Y-63577D01*
X60774Y-63486D01*
X60654Y-63436D01*
X60525Y-63436D01*
X60405Y-63485D01*
X60314Y-63576D01*
X60298Y-63613D01*
X59891Y-63613D01*
X59891Y-63225D01*
X60063Y-63052D01*
X60065Y-63052D01*
X60110Y-63006D01*
X60156Y-62961D01*
X60180Y-62901D01*
X60206Y-62841D01*
X60206Y-62776D01*
X60206Y-62712D01*
X60157Y-62592D01*
X60066Y-62501D01*
X59946Y-62451D01*
X59881Y-62451D01*
X59817Y-62451D01*
X59697Y-62500D01*
X59606Y-62591D01*
X59605Y-62592D01*
X59418Y-62779D01*
X59418Y-62329D01*
X59418Y-62200D01*
X59369Y-62080D01*
X59330Y-62041D01*
X59330Y-61871D01*
X59330Y-61713D01*
X59312Y-61622D01*
X59261Y-61545D01*
X59258Y-61543D01*
X57765Y-60049D01*
X57688Y-59998D01*
X57597Y-59979D01*
X57592Y-59980D01*
X57112Y-59980D01*
X57097Y-59942D01*
X58143Y-59942D01*
X58148Y-59943D01*
X58148Y-59942D01*
X58239Y-59924D01*
X58316Y-59873D01*
X58591Y-59597D01*
X58645Y-59597D01*
X58765Y-59548D01*
X58856Y-59457D01*
X58906Y-59337D01*
X58906Y-59208D01*
X58857Y-59088D01*
X58766Y-58997D01*
X58646Y-58947D01*
X58517Y-58947D01*
X58397Y-58996D01*
X58306Y-59087D01*
X58256Y-59207D01*
X58256Y-59261D01*
X58049Y-59468D01*
X56711Y-59468D01*
X56710Y-59468D01*
X56620Y-59486D01*
X56543Y-59537D01*
X56541Y-59539D01*
X56051Y-60029D01*
X56000Y-60106D01*
X55981Y-60197D01*
X55982Y-60201D01*
X55982Y-60645D01*
X55981Y-60650D01*
X56000Y-60741D01*
X56051Y-60818D01*
X56415Y-61181D01*
X56415Y-61628D01*
X56377Y-61666D01*
X56327Y-61786D01*
X56327Y-61915D01*
X56376Y-62035D01*
X56467Y-62126D01*
X56587Y-62176D01*
X56716Y-62176D01*
X56836Y-62127D01*
X56927Y-62036D01*
X56977Y-61916D01*
X56977Y-61787D01*
X56928Y-61667D01*
X56889Y-61628D01*
X56889Y-61083D01*
X56871Y-60992D01*
X56820Y-60915D01*
X56817Y-60913D01*
X56697Y-60793D01*
X56757Y-60769D01*
X56796Y-60730D01*
X57183Y-60730D01*
X58414Y-61960D01*
X58414Y-62014D01*
X58463Y-62134D01*
X58554Y-62225D01*
X58674Y-62275D01*
X58768Y-62275D01*
X58768Y-62328D01*
X58817Y-62448D01*
X58908Y-62539D01*
X59028Y-62589D01*
X59157Y-62589D01*
X59277Y-62540D01*
X59368Y-62449D01*
X59418Y-62329D01*
X59418Y-62779D01*
X59336Y-62861D01*
X59266Y-62967D01*
X59241Y-63091D01*
X59241Y-63455D01*
X58376Y-63455D01*
X58316Y-63395D01*
X58316Y-63382D01*
X58267Y-63262D01*
X58259Y-63254D01*
X58273Y-63249D01*
X58364Y-63158D01*
X58414Y-63038D01*
X58414Y-62909D01*
X58365Y-62789D01*
X58274Y-62698D01*
X58154Y-62648D01*
X58025Y-62648D01*
X57905Y-62697D01*
X57866Y-62736D01*
X57460Y-62736D01*
X57695Y-62501D01*
X57768Y-62501D01*
X57806Y-62539D01*
X57926Y-62589D01*
X58055Y-62589D01*
X58175Y-62540D01*
X58266Y-62449D01*
X58316Y-62329D01*
X58316Y-62200D01*
X58267Y-62080D01*
X58176Y-61989D01*
X58056Y-61939D01*
X57927Y-61939D01*
X57807Y-61988D01*
X57768Y-62027D01*
X57597Y-62027D01*
X57506Y-62045D01*
X57429Y-62096D01*
X57427Y-62098D01*
X56952Y-62573D01*
X56928Y-62514D01*
X56837Y-62423D01*
X56717Y-62373D01*
X56662Y-62373D01*
X56662Y-62372D01*
X56585Y-62321D01*
X56494Y-62302D01*
X56489Y-62303D01*
X55773Y-62303D01*
X55735Y-62265D01*
X55615Y-62215D01*
X55486Y-62215D01*
X55366Y-62264D01*
X55275Y-62355D01*
X55225Y-62475D01*
X55225Y-62604D01*
X55274Y-62724D01*
X55326Y-62776D01*
X55275Y-62827D01*
X55225Y-62947D01*
X55225Y-63076D01*
X55274Y-63196D01*
X55346Y-63268D01*
X55275Y-63339D01*
X55225Y-63459D01*
X55225Y-63588D01*
X55274Y-63708D01*
X55346Y-63780D01*
X55275Y-63851D01*
X55225Y-63971D01*
X55225Y-64100D01*
X55274Y-64220D01*
X55365Y-64311D01*
X55426Y-64336D01*
X55382Y-64444D01*
X55382Y-64573D01*
X55431Y-64693D01*
X55522Y-64784D01*
X55642Y-64834D01*
X55737Y-64834D01*
X55737Y-64888D01*
X55786Y-65008D01*
X55877Y-65099D01*
X55997Y-65149D01*
X56126Y-65149D01*
X56246Y-65100D01*
X56337Y-65009D01*
X56387Y-64889D01*
X56387Y-64794D01*
X56710Y-64471D01*
X56927Y-64471D01*
X57163Y-64471D01*
X57163Y-65331D01*
X57162Y-65336D01*
X57181Y-65427D01*
X57232Y-65504D01*
X57662Y-65933D01*
X57664Y-65936D01*
X57741Y-65987D01*
X57831Y-66005D01*
X57831Y-66004D01*
X57832Y-66005D01*
X58774Y-66005D01*
X58779Y-66006D01*
X58779Y-66005D01*
X58870Y-65987D01*
X58947Y-65936D01*
X59337Y-65544D01*
X59339Y-65543D01*
X59340Y-65543D01*
X59391Y-65466D01*
X59402Y-65407D01*
X59447Y-65363D01*
X59497Y-65243D01*
X59497Y-65114D01*
X59448Y-64994D01*
X59357Y-64903D01*
X59237Y-64853D01*
X59108Y-64853D01*
X58988Y-64902D01*
X58936Y-64954D01*
X58845Y-64863D01*
X58831Y-64857D01*
X58828Y-64852D01*
X58751Y-64801D01*
X58660Y-64783D01*
X58569Y-64801D01*
X58492Y-64852D01*
X58488Y-64856D01*
X58476Y-64862D01*
X58425Y-64913D01*
X58425Y-64194D01*
X58424Y-64193D01*
X58425Y-64193D01*
X58407Y-64103D01*
X58356Y-64026D01*
X58353Y-64024D01*
X58316Y-63987D01*
X59390Y-63987D01*
X59442Y-64021D01*
X59502Y-64033D01*
X59536Y-64067D01*
X59622Y-64125D01*
X59724Y-64145D01*
X60471Y-64145D01*
X60573Y-64125D01*
X60630Y-64086D01*
X60653Y-64086D01*
X60773Y-64037D01*
X60864Y-63946D01*
X60914Y-63826D01*
X60914Y-66505D01*
X60499Y-66920D01*
X60446Y-66920D01*
X60326Y-66969D01*
X60235Y-67060D01*
X60185Y-67180D01*
X60185Y-67309D01*
X60234Y-67429D01*
X60325Y-67520D01*
X60445Y-67570D01*
X60574Y-67570D01*
X60694Y-67521D01*
X60785Y-67430D01*
X60835Y-67310D01*
X60835Y-67255D01*
X61451Y-66638D01*
X61467Y-66654D01*
X61587Y-66704D01*
X61716Y-66704D01*
X61836Y-66655D01*
X61927Y-66564D01*
X61977Y-66444D01*
X61977Y-71451D01*
X61958Y-71496D01*
X61903Y-71361D01*
X61829Y-71287D01*
X61888Y-71229D01*
X61938Y-71109D01*
X61938Y-70980D01*
X61889Y-70860D01*
X61798Y-70769D01*
X61678Y-70719D01*
X61549Y-70719D01*
X61429Y-70768D01*
X61348Y-70848D01*
X61347Y-70849D01*
X61307Y-70876D01*
X61305Y-70878D01*
X60937Y-71245D01*
X60931Y-71239D01*
X60771Y-71172D01*
X60598Y-71172D01*
X60438Y-71238D01*
X60316Y-71360D01*
X60258Y-71497D01*
X60202Y-71361D01*
X60080Y-71239D01*
X60009Y-71209D01*
X60009Y-66970D01*
X60009Y-66182D01*
X59981Y-66042D01*
X59902Y-65924D01*
X59784Y-65845D01*
X59644Y-65817D01*
X59504Y-65845D01*
X59386Y-65924D01*
X59307Y-66042D01*
X59279Y-66182D01*
X59279Y-66819D01*
X58973Y-67125D01*
X58894Y-67244D01*
X58866Y-67383D01*
X58894Y-67522D01*
X58973Y-67641D01*
X59092Y-67720D01*
X59231Y-67748D01*
X59370Y-67720D01*
X59489Y-67641D01*
X59902Y-67228D01*
X59981Y-67110D01*
X59981Y-67109D01*
X60009Y-66970D01*
X60009Y-71209D01*
X59920Y-71172D01*
X59747Y-71172D01*
X59587Y-71238D01*
X59465Y-71360D01*
X59407Y-71496D01*
X59352Y-71361D01*
X59230Y-71239D01*
X59070Y-71172D01*
X58897Y-71172D01*
X58737Y-71238D01*
X58615Y-71360D01*
X58557Y-71497D01*
X58501Y-71361D01*
X58379Y-71239D01*
X58219Y-71172D01*
X58046Y-71172D01*
X57886Y-71238D01*
X57764Y-71360D01*
X57706Y-71496D01*
X57651Y-71361D01*
X57529Y-71239D01*
X57369Y-71172D01*
X57196Y-71172D01*
X57036Y-71238D01*
X56914Y-71360D01*
X56856Y-71496D01*
X56801Y-71361D01*
X56679Y-71239D01*
X56519Y-71172D01*
X56346Y-71172D01*
X56308Y-71187D01*
X56308Y-69574D01*
X56308Y-69445D01*
X56259Y-69325D01*
X56168Y-69234D01*
X56048Y-69184D01*
X55919Y-69184D01*
X55799Y-69233D01*
X55760Y-69272D01*
X55470Y-69272D01*
X55379Y-69290D01*
X55302Y-69341D01*
X55300Y-69343D01*
X54614Y-70030D01*
X54561Y-70030D01*
X54441Y-70079D01*
X54350Y-70170D01*
X54300Y-70290D01*
X54300Y-70419D01*
X54349Y-70539D01*
X54440Y-70630D01*
X54560Y-70680D01*
X54689Y-70680D01*
X54809Y-70631D01*
X54900Y-70540D01*
X54950Y-70420D01*
X54950Y-70366D01*
X55570Y-69746D01*
X55760Y-69746D01*
X55798Y-69784D01*
X55918Y-69834D01*
X56047Y-69834D01*
X56167Y-69785D01*
X56258Y-69694D01*
X56308Y-69574D01*
X56308Y-71187D01*
X56186Y-71238D01*
X56064Y-71360D01*
X56006Y-71497D01*
X55950Y-71361D01*
X55828Y-71239D01*
X55668Y-71172D01*
X55495Y-71172D01*
X55335Y-71238D01*
X55213Y-71360D01*
X55201Y-71386D01*
X55197Y-71370D01*
X55067Y-71210D01*
X54886Y-71112D01*
X54862Y-71109D01*
X54781Y-71157D01*
X54781Y-71635D01*
X54781Y-71685D01*
X54781Y-71785D01*
X54781Y-71835D01*
X54781Y-72313D01*
X54862Y-72361D01*
X54886Y-72358D01*
X55067Y-72260D01*
X55197Y-72100D01*
X55201Y-72084D01*
X55212Y-72109D01*
X55334Y-72231D01*
X55494Y-72298D01*
X55667Y-72298D01*
X55827Y-72232D01*
X55949Y-72110D01*
X56006Y-71972D01*
X56063Y-72109D01*
X56185Y-72231D01*
X56345Y-72298D01*
X56518Y-72298D01*
X56678Y-72232D01*
X56800Y-72110D01*
X56857Y-71973D01*
X56913Y-72109D01*
X57035Y-72231D01*
X57195Y-72298D01*
X57368Y-72298D01*
X57528Y-72232D01*
X57650Y-72110D01*
X57707Y-71973D01*
X57763Y-72109D01*
X57885Y-72231D01*
X58045Y-72298D01*
X58218Y-72298D01*
X58378Y-72232D01*
X58500Y-72110D01*
X58557Y-71972D01*
X58614Y-72109D01*
X58736Y-72231D01*
X58896Y-72298D01*
X59069Y-72298D01*
X59229Y-72232D01*
X59351Y-72110D01*
X59408Y-71973D01*
X59464Y-72109D01*
X59586Y-72231D01*
X59746Y-72298D01*
X59919Y-72298D01*
X60079Y-72232D01*
X60201Y-72110D01*
X60258Y-71972D01*
X60315Y-72109D01*
X60437Y-72231D01*
X60597Y-72298D01*
X60770Y-72298D01*
X60454Y-72614D01*
X60440Y-72600D01*
X60320Y-72550D01*
X60191Y-72550D01*
X60071Y-72599D01*
X59980Y-72690D01*
X59930Y-72810D01*
X59930Y-72817D01*
X59883Y-72845D01*
X59883Y-73323D01*
X59883Y-73373D01*
X59883Y-73473D01*
X59883Y-73523D01*
X59883Y-74001D01*
X59964Y-74049D01*
X59988Y-74046D01*
X60169Y-73948D01*
X60299Y-73788D01*
X60303Y-73772D01*
X60314Y-73797D01*
X60436Y-73919D01*
X60596Y-73986D01*
X60769Y-73986D01*
X60929Y-73920D01*
X61051Y-73798D01*
X61108Y-73660D01*
X61165Y-73797D01*
X61287Y-73919D01*
X61447Y-73986D01*
X61620Y-73986D01*
X61780Y-73920D01*
X61902Y-73798D01*
X61959Y-73661D01*
X62015Y-73797D01*
X62137Y-73919D01*
X62297Y-73986D01*
X62470Y-73986D01*
X62630Y-73920D01*
X62752Y-73798D01*
X62809Y-73660D01*
X62866Y-73797D01*
X62988Y-73919D01*
X63148Y-73986D01*
X63321Y-73986D01*
X63481Y-73920D01*
X63603Y-73798D01*
X63660Y-73661D01*
X63716Y-73797D01*
X63838Y-73919D01*
X63998Y-73986D01*
X64171Y-73986D01*
X64331Y-73920D01*
X64453Y-73798D01*
X64520Y-73638D01*
X64520Y-76328D01*
X59783Y-76328D01*
X59783Y-74001D01*
X59783Y-73473D01*
X59783Y-73373D01*
X59783Y-72845D01*
X59702Y-72797D01*
X59678Y-72800D01*
X59497Y-72898D01*
X59408Y-73007D01*
X59319Y-72898D01*
X59138Y-72800D01*
X59114Y-72797D01*
X59033Y-72845D01*
X59033Y-73373D01*
X59308Y-73373D01*
X59508Y-73373D01*
X59783Y-73373D01*
X59783Y-73473D01*
X59508Y-73473D01*
X59308Y-73473D01*
X59033Y-73473D01*
X59033Y-74001D01*
X59114Y-74049D01*
X59138Y-74046D01*
X59319Y-73948D01*
X59408Y-73838D01*
X59497Y-73948D01*
X59678Y-74046D01*
X59702Y-74049D01*
X59783Y-74001D01*
X59783Y-76328D01*
X58933Y-76328D01*
X58933Y-74001D01*
X58933Y-73473D01*
X58933Y-73373D01*
X58933Y-72845D01*
X58852Y-72797D01*
X58828Y-72800D01*
X58647Y-72898D01*
X58557Y-73008D01*
X58468Y-72898D01*
X58287Y-72800D01*
X58263Y-72797D01*
X58182Y-72845D01*
X58182Y-73373D01*
X58458Y-73373D01*
X58657Y-73373D01*
X58933Y-73373D01*
X58933Y-73473D01*
X58657Y-73473D01*
X58458Y-73473D01*
X58182Y-73473D01*
X58182Y-74001D01*
X58263Y-74049D01*
X58287Y-74046D01*
X58468Y-73948D01*
X58557Y-73837D01*
X58647Y-73948D01*
X58828Y-74046D01*
X58852Y-74049D01*
X58933Y-74001D01*
X58933Y-76328D01*
X58082Y-76328D01*
X58082Y-74001D01*
X58082Y-73473D01*
X58082Y-73373D01*
X58082Y-72845D01*
X58001Y-72797D01*
X57977Y-72800D01*
X57796Y-72898D01*
X57707Y-73007D01*
X57618Y-72898D01*
X57437Y-72800D01*
X57413Y-72797D01*
X57332Y-72845D01*
X57332Y-73373D01*
X57607Y-73373D01*
X57807Y-73373D01*
X58082Y-73373D01*
X58082Y-73473D01*
X57807Y-73473D01*
X57607Y-73473D01*
X57332Y-73473D01*
X57332Y-74001D01*
X57413Y-74049D01*
X57437Y-74046D01*
X57618Y-73948D01*
X57707Y-73838D01*
X57796Y-73948D01*
X57977Y-74046D01*
X58001Y-74049D01*
X58082Y-74001D01*
X58082Y-76328D01*
X57232Y-76328D01*
X57232Y-74001D01*
X57232Y-73473D01*
X57232Y-73373D01*
X57232Y-72845D01*
X57151Y-72797D01*
X57127Y-72800D01*
X56946Y-72898D01*
X56857Y-73007D01*
X56768Y-72898D01*
X56587Y-72800D01*
X56563Y-72797D01*
X56482Y-72845D01*
X56482Y-73373D01*
X56757Y-73373D01*
X56957Y-73373D01*
X57232Y-73373D01*
X57232Y-73473D01*
X56957Y-73473D01*
X56757Y-73473D01*
X56482Y-73473D01*
X56482Y-74001D01*
X56563Y-74049D01*
X56587Y-74046D01*
X56768Y-73948D01*
X56857Y-73838D01*
X56946Y-73948D01*
X57127Y-74046D01*
X57151Y-74049D01*
X57232Y-74001D01*
X57232Y-76328D01*
X56382Y-76328D01*
X56382Y-74001D01*
X56382Y-73473D01*
X56382Y-73373D01*
X56382Y-72845D01*
X56301Y-72797D01*
X56277Y-72800D01*
X56096Y-72898D01*
X56006Y-73008D01*
X55917Y-72898D01*
X55736Y-72800D01*
X55712Y-72797D01*
X55631Y-72845D01*
X55631Y-73373D01*
X55907Y-73373D01*
X56106Y-73373D01*
X56382Y-73373D01*
X56382Y-73473D01*
X56106Y-73473D01*
X55907Y-73473D01*
X55631Y-73473D01*
X55631Y-74001D01*
X55712Y-74049D01*
X55736Y-74046D01*
X55917Y-73948D01*
X56006Y-73837D01*
X56096Y-73948D01*
X56277Y-74046D01*
X56301Y-74049D01*
X56382Y-74001D01*
X56382Y-76328D01*
X55531Y-76328D01*
X55531Y-74001D01*
X55531Y-73473D01*
X55531Y-73373D01*
X55531Y-72845D01*
X55450Y-72797D01*
X55426Y-72800D01*
X55245Y-72898D01*
X55156Y-73007D01*
X55067Y-72898D01*
X54886Y-72800D01*
X54862Y-72797D01*
X54781Y-72845D01*
X54781Y-73373D01*
X55056Y-73373D01*
X55256Y-73373D01*
X55531Y-73373D01*
X55531Y-73473D01*
X55256Y-73473D01*
X55056Y-73473D01*
X54781Y-73473D01*
X54781Y-74001D01*
X54862Y-74049D01*
X54886Y-74046D01*
X55067Y-73948D01*
X55156Y-73838D01*
X55245Y-73948D01*
X55426Y-74046D01*
X55450Y-74049D01*
X55531Y-74001D01*
X55531Y-76328D01*
X54681Y-76328D01*
X54681Y-74001D01*
X54681Y-73473D01*
X54681Y-73373D01*
X54681Y-72845D01*
X54681Y-72313D01*
X54681Y-71785D01*
X54681Y-71685D01*
X54681Y-71157D01*
X54600Y-71109D01*
X54576Y-71112D01*
X54395Y-71210D01*
X54265Y-71370D01*
X54206Y-71567D01*
X54206Y-71685D01*
X54681Y-71685D01*
X54681Y-71785D01*
X54206Y-71785D01*
X54206Y-71903D01*
X54265Y-72100D01*
X54395Y-72260D01*
X54576Y-72358D01*
X54600Y-72361D01*
X54681Y-72313D01*
X54681Y-72845D01*
X54600Y-72797D01*
X54576Y-72800D01*
X54395Y-72898D01*
X54265Y-73058D01*
X54206Y-73255D01*
X54206Y-73373D01*
X54681Y-73373D01*
X54681Y-73473D01*
X54206Y-73473D01*
X54206Y-73591D01*
X54265Y-73788D01*
X54395Y-73948D01*
X54576Y-74046D01*
X54600Y-74049D01*
X54681Y-74001D01*
X54681Y-76328D01*
X51990Y-76328D01*
X51990Y-68546D01*
X51990Y-68518D01*
X51990Y-68318D01*
X51990Y-68290D01*
X51972Y-68249D01*
X51990Y-68208D01*
X51990Y-68180D01*
X51990Y-67980D01*
X51990Y-67952D01*
X51952Y-67861D01*
X51882Y-67791D01*
X51790Y-67753D01*
X51735Y-67752D01*
X51673Y-67814D01*
X51673Y-68041D01*
X51929Y-68041D01*
X51990Y-67980D01*
X51990Y-68180D01*
X51929Y-68119D01*
X51857Y-68119D01*
X51790Y-68091D01*
X51735Y-68090D01*
X51706Y-68119D01*
X51673Y-68119D01*
X51673Y-68152D01*
X51673Y-68346D01*
X51673Y-68379D01*
X51706Y-68379D01*
X51735Y-68408D01*
X51790Y-68407D01*
X51857Y-68379D01*
X51929Y-68379D01*
X51990Y-68318D01*
X51990Y-68518D01*
X51929Y-68457D01*
X51673Y-68457D01*
X51673Y-68684D01*
X51735Y-68746D01*
X51790Y-68745D01*
X51882Y-68707D01*
X51952Y-68637D01*
X51990Y-68546D01*
X51990Y-76328D01*
X51573Y-76328D01*
X51573Y-68684D01*
X51573Y-68518D01*
X51573Y-68457D01*
X51573Y-68379D01*
X51573Y-68346D01*
X51573Y-68318D01*
X51573Y-68180D01*
X51573Y-68152D01*
X51573Y-68119D01*
X51573Y-68041D01*
X51573Y-67980D01*
X51573Y-67814D01*
X51511Y-67752D01*
X51456Y-67753D01*
X51364Y-67791D01*
X51294Y-67861D01*
X51256Y-67952D01*
X51256Y-67961D01*
X51234Y-67907D01*
X51186Y-67860D01*
X51125Y-67834D01*
X51058Y-67834D01*
X50822Y-67834D01*
X50799Y-67843D01*
X50368Y-67843D01*
X50364Y-67842D01*
X50273Y-67861D01*
X50196Y-67912D01*
X50153Y-67955D01*
X50153Y-65895D01*
X50153Y-65627D01*
X50153Y-64272D01*
X50153Y-64004D01*
X50148Y-63976D01*
X50090Y-63869D01*
X50090Y-63229D01*
X50090Y-63048D01*
X50090Y-62229D01*
X50090Y-62048D01*
X50090Y-61229D01*
X50090Y-61048D01*
X50021Y-60881D01*
X49955Y-60815D01*
X49955Y-60472D01*
X49955Y-60405D01*
X49955Y-59805D01*
X49930Y-59743D01*
X49882Y-59696D01*
X49821Y-59670D01*
X49754Y-59670D01*
X49154Y-59670D01*
X49092Y-59695D01*
X49045Y-59743D01*
X49019Y-59804D01*
X49019Y-59871D01*
X49019Y-60471D01*
X49044Y-60533D01*
X49092Y-60580D01*
X49153Y-60606D01*
X49220Y-60606D01*
X49820Y-60606D01*
X49882Y-60581D01*
X49929Y-60533D01*
X49955Y-60472D01*
X49955Y-60815D01*
X49893Y-60753D01*
X49727Y-60684D01*
X49546Y-60684D01*
X49248Y-60684D01*
X49081Y-60753D01*
X48953Y-60881D01*
X48884Y-61047D01*
X48884Y-61228D01*
X48953Y-61395D01*
X49081Y-61523D01*
X49247Y-61592D01*
X49428Y-61592D01*
X49726Y-61592D01*
X49893Y-61523D01*
X50021Y-61395D01*
X50090Y-61229D01*
X50090Y-62048D01*
X50021Y-61881D01*
X49893Y-61753D01*
X49727Y-61684D01*
X49546Y-61684D01*
X49248Y-61684D01*
X49081Y-61753D01*
X48953Y-61881D01*
X48884Y-62047D01*
X48884Y-62228D01*
X48953Y-62395D01*
X49081Y-62523D01*
X49247Y-62592D01*
X49428Y-62592D01*
X49726Y-62592D01*
X49893Y-62523D01*
X50021Y-62395D01*
X50090Y-62229D01*
X50090Y-63048D01*
X50021Y-62881D01*
X49893Y-62753D01*
X49727Y-62684D01*
X49546Y-62684D01*
X49248Y-62684D01*
X49081Y-62753D01*
X48953Y-62881D01*
X48884Y-63047D01*
X48884Y-63228D01*
X48953Y-63395D01*
X49081Y-63523D01*
X49247Y-63592D01*
X49428Y-63592D01*
X49726Y-63592D01*
X49893Y-63523D01*
X50021Y-63395D01*
X50090Y-63229D01*
X50090Y-63869D01*
X50046Y-63788D01*
X49880Y-63654D01*
X49675Y-63593D01*
X49537Y-63593D01*
X49537Y-64088D01*
X50105Y-64088D01*
X50153Y-64004D01*
X50153Y-64272D01*
X50105Y-64188D01*
X49537Y-64188D01*
X49537Y-64683D01*
X49675Y-64683D01*
X49880Y-64622D01*
X50046Y-64488D01*
X50148Y-64300D01*
X50153Y-64272D01*
X50153Y-65627D01*
X50148Y-65599D01*
X50046Y-65411D01*
X49880Y-65277D01*
X49675Y-65216D01*
X49537Y-65216D01*
X49537Y-65711D01*
X50105Y-65711D01*
X50153Y-65627D01*
X50153Y-65895D01*
X50105Y-65811D01*
X49537Y-65811D01*
X49537Y-66306D01*
X49675Y-66306D01*
X49880Y-66245D01*
X50046Y-66111D01*
X50148Y-65923D01*
X50153Y-65895D01*
X50153Y-67955D01*
X50090Y-68018D01*
X50090Y-67852D01*
X50090Y-67671D01*
X50090Y-66852D01*
X50090Y-66671D01*
X50021Y-66504D01*
X49893Y-66376D01*
X49727Y-66307D01*
X49546Y-66307D01*
X49437Y-66307D01*
X49437Y-66306D01*
X49437Y-65811D01*
X49437Y-65711D01*
X49437Y-65216D01*
X49437Y-64683D01*
X49437Y-64188D01*
X49437Y-64088D01*
X49437Y-63593D01*
X49299Y-63593D01*
X49094Y-63654D01*
X48928Y-63788D01*
X48826Y-63976D01*
X48821Y-64004D01*
X48869Y-64088D01*
X49437Y-64088D01*
X49437Y-64188D01*
X48869Y-64188D01*
X48821Y-64272D01*
X48826Y-64300D01*
X48928Y-64488D01*
X49094Y-64622D01*
X49299Y-64683D01*
X49437Y-64683D01*
X49437Y-65216D01*
X49299Y-65216D01*
X49094Y-65277D01*
X48928Y-65411D01*
X48826Y-65599D01*
X48821Y-65627D01*
X48869Y-65711D01*
X49437Y-65711D01*
X49437Y-65811D01*
X48869Y-65811D01*
X48821Y-65895D01*
X48826Y-65923D01*
X48928Y-66111D01*
X49094Y-66245D01*
X49299Y-66306D01*
X49437Y-66306D01*
X49437Y-66307D01*
X49248Y-66307D01*
X49081Y-66376D01*
X48953Y-66504D01*
X48884Y-66670D01*
X48884Y-66851D01*
X48953Y-67018D01*
X49081Y-67146D01*
X49247Y-67215D01*
X49428Y-67215D01*
X49726Y-67215D01*
X49893Y-67146D01*
X50021Y-67018D01*
X50090Y-66852D01*
X50090Y-67671D01*
X50021Y-67504D01*
X49893Y-67376D01*
X49727Y-67307D01*
X49546Y-67307D01*
X49248Y-67307D01*
X49081Y-67376D01*
X48953Y-67504D01*
X48884Y-67670D01*
X48884Y-67851D01*
X48953Y-68018D01*
X49081Y-68146D01*
X49247Y-68215D01*
X49428Y-68215D01*
X49726Y-68215D01*
X49893Y-68146D01*
X50021Y-68018D01*
X50090Y-67852D01*
X50090Y-68018D01*
X50027Y-68081D01*
X49976Y-68158D01*
X49957Y-68249D01*
X49958Y-68253D01*
X49958Y-68695D01*
X49955Y-68698D01*
X49955Y-68428D01*
X49930Y-68366D01*
X49882Y-68319D01*
X49821Y-68293D01*
X49754Y-68293D01*
X49154Y-68293D01*
X49092Y-68318D01*
X49045Y-68366D01*
X49019Y-68427D01*
X49019Y-68494D01*
X49019Y-69094D01*
X49044Y-69156D01*
X49092Y-69203D01*
X49153Y-69229D01*
X49220Y-69229D01*
X49820Y-69229D01*
X49882Y-69204D01*
X49929Y-69156D01*
X49942Y-69125D01*
X50010Y-69193D01*
X50130Y-69243D01*
X50259Y-69243D01*
X50379Y-69194D01*
X50470Y-69103D01*
X50498Y-69035D01*
X50524Y-69046D01*
X50653Y-69046D01*
X50773Y-68997D01*
X50864Y-68906D01*
X50914Y-68786D01*
X50914Y-68731D01*
X50981Y-68664D01*
X51124Y-68664D01*
X51186Y-68639D01*
X51233Y-68591D01*
X51256Y-68537D01*
X51256Y-68546D01*
X51294Y-68637D01*
X51364Y-68707D01*
X51456Y-68745D01*
X51511Y-68746D01*
X51573Y-68684D01*
X51573Y-76328D01*
X50995Y-76328D01*
X50995Y-72738D01*
X50995Y-72421D01*
X50874Y-72128D01*
X50650Y-71903D01*
X50356Y-71781D01*
X50039Y-71781D01*
X49746Y-71902D01*
X49521Y-72126D01*
X49399Y-72420D01*
X49399Y-72737D01*
X49520Y-73030D01*
X49744Y-73255D01*
X50038Y-73377D01*
X50355Y-73377D01*
X50648Y-73256D01*
X50873Y-73032D01*
X50995Y-72738D01*
X50995Y-76328D01*
X47881Y-76328D01*
X47862Y-57255D01*
X62997Y-57255D01*
X62997Y-57773D01*
X63059Y-57835D01*
X63550Y-57835D01*
X63600Y-57835D01*
X63700Y-57835D01*
X63750Y-57835D01*
X64241Y-57835D01*
X64303Y-57773D01*
X64302Y-57255D01*
X66875Y-57255D01*
X66875Y-57773D01*
X66937Y-57835D01*
X67428Y-57835D01*
X67478Y-57835D01*
X67578Y-57835D01*
X67628Y-57835D01*
X68119Y-57835D01*
X68181Y-57773D01*
X68180Y-57255D01*
X70894Y-57255D01*
X70914Y-76329D01*
X70914Y-76329D01*
G37*
G54D28*
X70914Y-76329D02*
X69956Y-76328D01*
X69956Y-67780D01*
X69956Y-67512D01*
X69951Y-67484D01*
X69893Y-67377D01*
X69893Y-66737D01*
X69893Y-66556D01*
X69893Y-65737D01*
X69893Y-65556D01*
X69824Y-65389D01*
X69758Y-65323D01*
X69758Y-64980D01*
X69758Y-64913D01*
X69758Y-64313D01*
X69733Y-64251D01*
X69685Y-64204D01*
X69624Y-64178D01*
X69557Y-64178D01*
X68957Y-64178D01*
X68895Y-64203D01*
X68848Y-64251D01*
X68822Y-64312D01*
X68822Y-64379D01*
X68822Y-64979D01*
X68847Y-65041D01*
X68895Y-65088D01*
X68956Y-65114D01*
X69023Y-65114D01*
X69623Y-65114D01*
X69685Y-65089D01*
X69732Y-65041D01*
X69758Y-64980D01*
X69758Y-65323D01*
X69696Y-65261D01*
X69530Y-65192D01*
X69349Y-65192D01*
X69051Y-65192D01*
X68884Y-65261D01*
X68756Y-65389D01*
X68687Y-65555D01*
X68687Y-65736D01*
X68756Y-65903D01*
X68884Y-66031D01*
X69050Y-66100D01*
X69231Y-66100D01*
X69529Y-66100D01*
X69696Y-66031D01*
X69824Y-65903D01*
X69893Y-65737D01*
X69893Y-66556D01*
X69824Y-66389D01*
X69696Y-66261D01*
X69530Y-66192D01*
X69349Y-66192D01*
X69051Y-66192D01*
X68884Y-66261D01*
X68756Y-66389D01*
X68752Y-66398D01*
X68752Y-66266D01*
X68751Y-66172D01*
X68713Y-66080D01*
X68652Y-66019D01*
X68670Y-65979D01*
X68670Y-65912D01*
X68670Y-65598D01*
X68645Y-65536D01*
X68597Y-65489D01*
X68582Y-65482D01*
X68582Y-65320D01*
X68631Y-65203D01*
X68631Y-65074D01*
X68582Y-64954D01*
X68491Y-64863D01*
X68371Y-64813D01*
X68242Y-64813D01*
X68181Y-64837D01*
X68181Y-59670D01*
X68181Y-59446D01*
X68180Y-58820D01*
X68142Y-58728D01*
X68135Y-58721D01*
X68142Y-58715D01*
X68180Y-58623D01*
X68181Y-57997D01*
X68119Y-57935D01*
X67578Y-57935D01*
X67578Y-58681D01*
X67578Y-58762D01*
X67578Y-59508D01*
X68119Y-59508D01*
X68181Y-59446D01*
X68181Y-59670D01*
X68119Y-59608D01*
X67578Y-59608D01*
X67578Y-60435D01*
X67640Y-60497D01*
X67882Y-60496D01*
X67981Y-60496D01*
X68072Y-60458D01*
X68142Y-60388D01*
X68180Y-60296D01*
X68181Y-59670D01*
X68181Y-64837D01*
X68122Y-64862D01*
X68031Y-64953D01*
X67981Y-65073D01*
X67981Y-65202D01*
X68030Y-65322D01*
X68108Y-65400D01*
X68108Y-65481D01*
X68093Y-65488D01*
X68046Y-65536D01*
X68020Y-65597D01*
X68020Y-65664D01*
X68020Y-65978D01*
X68036Y-66020D01*
X67977Y-66080D01*
X67939Y-66172D01*
X67938Y-66266D01*
X68000Y-66328D01*
X68245Y-66328D01*
X68295Y-66328D01*
X68395Y-66328D01*
X68445Y-66328D01*
X68690Y-66328D01*
X68752Y-66266D01*
X68752Y-66398D01*
X68725Y-66463D01*
X68690Y-66428D01*
X68395Y-66428D01*
X68395Y-66723D01*
X68456Y-66784D01*
X68552Y-66784D01*
X68643Y-66746D01*
X68687Y-66702D01*
X68687Y-66736D01*
X68756Y-66903D01*
X68884Y-67031D01*
X69050Y-67100D01*
X69231Y-67100D01*
X69529Y-67100D01*
X69696Y-67031D01*
X69824Y-66903D01*
X69893Y-66737D01*
X69893Y-67377D01*
X69849Y-67296D01*
X69683Y-67162D01*
X69478Y-67101D01*
X69340Y-67101D01*
X69340Y-67596D01*
X69908Y-67596D01*
X69956Y-67512D01*
X69956Y-67780D01*
X69908Y-67696D01*
X69340Y-67696D01*
X69340Y-68191D01*
X69478Y-68191D01*
X69683Y-68130D01*
X69849Y-67996D01*
X69951Y-67808D01*
X69956Y-67780D01*
X69956Y-76328D01*
X69417Y-76328D01*
X69417Y-72738D01*
X69417Y-72421D01*
X69296Y-72128D01*
X69240Y-72071D01*
X69240Y-68191D01*
X69240Y-67696D01*
X69240Y-67596D01*
X69240Y-67101D01*
X69102Y-67101D01*
X68897Y-67162D01*
X68731Y-67296D01*
X68629Y-67484D01*
X68624Y-67512D01*
X68672Y-67596D01*
X69240Y-67596D01*
X69240Y-67696D01*
X68672Y-67696D01*
X68624Y-67780D01*
X68629Y-67808D01*
X68731Y-67996D01*
X68897Y-68130D01*
X69102Y-68191D01*
X69240Y-68191D01*
X69240Y-72071D01*
X69072Y-71903D01*
X68778Y-71781D01*
X68461Y-71781D01*
X68295Y-71849D01*
X68295Y-66723D01*
X68295Y-66428D01*
X68000Y-66428D01*
X67938Y-66490D01*
X67939Y-66584D01*
X67977Y-66676D01*
X68047Y-66746D01*
X68138Y-66784D01*
X68234Y-66784D01*
X68295Y-66723D01*
X68295Y-71849D01*
X68168Y-71902D01*
X67943Y-72126D01*
X67821Y-72420D01*
X67821Y-72737D01*
X67942Y-73030D01*
X68166Y-73255D01*
X68460Y-73377D01*
X68777Y-73377D01*
X69070Y-73256D01*
X69295Y-73032D01*
X69417Y-72738D01*
X69417Y-76328D01*
X67478Y-76328D01*
X67478Y-60435D01*
X67478Y-59608D01*
X67478Y-59508D01*
X67478Y-58762D01*
X67478Y-58681D01*
X67478Y-57935D01*
X66937Y-57935D01*
X66875Y-57997D01*
X66876Y-58623D01*
X66914Y-58715D01*
X66920Y-58721D01*
X66914Y-58728D01*
X66876Y-58820D01*
X66875Y-59446D01*
X66937Y-59508D01*
X67478Y-59508D01*
X67478Y-59608D01*
X66937Y-59608D01*
X66875Y-59670D01*
X66876Y-60296D01*
X66914Y-60388D01*
X66984Y-60458D01*
X67075Y-60496D01*
X67174Y-60496D01*
X67416Y-60497D01*
X67478Y-60435D01*
X67478Y-76328D01*
X66800Y-76328D01*
X66800Y-61404D01*
X66800Y-61275D01*
X66751Y-61155D01*
X66712Y-61116D01*
X66712Y-60772D01*
X66712Y-60768D01*
X66713Y-60768D01*
X66694Y-60677D01*
X66643Y-60600D01*
X66456Y-60413D01*
X66456Y-60089D01*
X66459Y-60086D01*
X66485Y-60025D01*
X66485Y-59958D01*
X66485Y-59072D01*
X66460Y-59010D01*
X66412Y-58963D01*
X66351Y-58937D01*
X66284Y-58937D01*
X66141Y-58937D01*
X66141Y-58905D01*
X66179Y-58867D01*
X66229Y-58747D01*
X66229Y-58676D01*
X66260Y-58707D01*
X66386Y-58760D01*
X66523Y-58760D01*
X66649Y-58708D01*
X66746Y-58611D01*
X66799Y-58485D01*
X66799Y-58348D01*
X66747Y-58222D01*
X66650Y-58125D01*
X66524Y-58072D01*
X66387Y-58072D01*
X66261Y-58124D01*
X66164Y-58221D01*
X66111Y-58347D01*
X66111Y-58429D01*
X66089Y-58407D01*
X65969Y-58357D01*
X65840Y-58357D01*
X65720Y-58406D01*
X65629Y-58497D01*
X65579Y-58617D01*
X65579Y-58746D01*
X65628Y-58866D01*
X65667Y-58905D01*
X65667Y-58937D01*
X65654Y-58937D01*
X65556Y-58937D01*
X65513Y-58894D01*
X65422Y-58856D01*
X65384Y-58856D01*
X65323Y-58917D01*
X65323Y-59071D01*
X65323Y-59138D01*
X65323Y-59498D01*
X65323Y-59598D01*
X65323Y-60024D01*
X65323Y-60179D01*
X65352Y-60208D01*
X65352Y-60240D01*
X65352Y-60330D01*
X65351Y-60335D01*
X65370Y-60426D01*
X65421Y-60503D01*
X65785Y-60866D01*
X65785Y-61490D01*
X65747Y-61528D01*
X65697Y-61648D01*
X65697Y-61777D01*
X65746Y-61897D01*
X65837Y-61988D01*
X65957Y-62038D01*
X66086Y-62038D01*
X66206Y-61989D01*
X66297Y-61898D01*
X66347Y-61778D01*
X66347Y-61649D01*
X66341Y-61635D01*
X66410Y-61664D01*
X66539Y-61664D01*
X66659Y-61615D01*
X66750Y-61524D01*
X66800Y-61404D01*
X66800Y-76328D01*
X65307Y-76328D01*
X65307Y-59660D01*
X65307Y-59436D01*
X65306Y-59056D01*
X65268Y-58964D01*
X65225Y-58921D01*
X65225Y-58917D01*
X65164Y-58856D01*
X65126Y-58856D01*
X65116Y-58859D01*
X65107Y-58856D01*
X65069Y-58856D01*
X65067Y-58858D01*
X65067Y-58485D01*
X65067Y-58348D01*
X65015Y-58222D01*
X64918Y-58125D01*
X64792Y-58072D01*
X64655Y-58072D01*
X64529Y-58124D01*
X64432Y-58221D01*
X64379Y-58347D01*
X64379Y-58484D01*
X64431Y-58610D01*
X64528Y-58707D01*
X64654Y-58760D01*
X64791Y-58760D01*
X64917Y-58708D01*
X65014Y-58611D01*
X65067Y-58485D01*
X65067Y-58858D01*
X65008Y-58917D01*
X65008Y-58921D01*
X64965Y-58964D01*
X64927Y-59056D01*
X64926Y-59436D01*
X64988Y-59498D01*
X65008Y-59498D01*
X65225Y-59498D01*
X65245Y-59498D01*
X65307Y-59436D01*
X65307Y-59660D01*
X65245Y-59598D01*
X65225Y-59598D01*
X65008Y-59598D01*
X64988Y-59598D01*
X64926Y-59660D01*
X64927Y-60040D01*
X64965Y-60132D01*
X65008Y-60175D01*
X65008Y-60179D01*
X65069Y-60240D01*
X65107Y-60240D01*
X65116Y-60236D01*
X65126Y-60240D01*
X65164Y-60240D01*
X65225Y-60179D01*
X65225Y-60175D01*
X65268Y-60132D01*
X65306Y-60040D01*
X65307Y-59660D01*
X65307Y-76328D01*
X64910Y-76328D01*
X64910Y-60179D01*
X64910Y-59598D01*
X64910Y-59498D01*
X64910Y-58917D01*
X64849Y-58856D01*
X64811Y-58856D01*
X64720Y-58894D01*
X64650Y-58964D01*
X64612Y-59056D01*
X64611Y-59436D01*
X64673Y-59498D01*
X64910Y-59498D01*
X64910Y-59598D01*
X64673Y-59598D01*
X64611Y-59660D01*
X64612Y-60040D01*
X64650Y-60132D01*
X64720Y-60202D01*
X64811Y-60240D01*
X64849Y-60240D01*
X64910Y-60179D01*
X64910Y-76328D01*
X64520Y-76328D01*
X64520Y-73638D01*
X64520Y-73465D01*
X64520Y-73209D01*
X64454Y-73049D01*
X64332Y-72927D01*
X64172Y-72860D01*
X63999Y-72860D01*
X63839Y-72926D01*
X63717Y-73048D01*
X63659Y-73184D01*
X63604Y-73049D01*
X63482Y-72927D01*
X63322Y-72860D01*
X63149Y-72860D01*
X62989Y-72926D01*
X62867Y-73048D01*
X62809Y-73185D01*
X62753Y-73049D01*
X62631Y-72927D01*
X62471Y-72860D01*
X62298Y-72860D01*
X62138Y-72926D01*
X62016Y-73048D01*
X61958Y-73184D01*
X61903Y-73049D01*
X61781Y-72927D01*
X61621Y-72860D01*
X61448Y-72860D01*
X61288Y-72926D01*
X61166Y-73048D01*
X61108Y-73185D01*
X61052Y-73049D01*
X60930Y-72927D01*
X60848Y-72892D01*
X61266Y-72473D01*
X61268Y-72472D01*
X61269Y-72472D01*
X61320Y-72395D01*
X61338Y-72304D01*
X61338Y-72252D01*
X61447Y-72298D01*
X61620Y-72298D01*
X61780Y-72232D01*
X61902Y-72110D01*
X61959Y-71973D01*
X62015Y-72109D01*
X62137Y-72231D01*
X62297Y-72298D01*
X62470Y-72298D01*
X62630Y-72232D01*
X62752Y-72110D01*
X62809Y-71972D01*
X62866Y-72109D01*
X62988Y-72231D01*
X63148Y-72298D01*
X63321Y-72298D01*
X63481Y-72232D01*
X63603Y-72110D01*
X63660Y-71973D01*
X63716Y-72109D01*
X63838Y-72231D01*
X63998Y-72298D01*
X64171Y-72298D01*
X64331Y-72232D01*
X64453Y-72110D01*
X64520Y-71950D01*
X64520Y-71777D01*
X64520Y-71521D01*
X64454Y-71361D01*
X64332Y-71239D01*
X64303Y-71226D01*
X64303Y-59670D01*
X64303Y-59446D01*
X64302Y-58820D01*
X64264Y-58728D01*
X64257Y-58721D01*
X64264Y-58715D01*
X64302Y-58623D01*
X64303Y-57997D01*
X64241Y-57935D01*
X63700Y-57935D01*
X63700Y-58681D01*
X63700Y-58762D01*
X63700Y-59508D01*
X64241Y-59508D01*
X64303Y-59446D01*
X64303Y-59670D01*
X64241Y-59608D01*
X63700Y-59608D01*
X63700Y-60435D01*
X63762Y-60497D01*
X64004Y-60496D01*
X64103Y-60496D01*
X64194Y-60458D01*
X64264Y-60388D01*
X64302Y-60296D01*
X64303Y-59670D01*
X64303Y-71226D01*
X64172Y-71172D01*
X63999Y-71172D01*
X63847Y-71234D01*
X63847Y-63137D01*
X63847Y-63008D01*
X63798Y-62888D01*
X63707Y-62797D01*
X63600Y-62752D01*
X63600Y-60435D01*
X63600Y-59608D01*
X63600Y-59508D01*
X63600Y-58762D01*
X63600Y-58681D01*
X63600Y-57935D01*
X63059Y-57935D01*
X62997Y-57997D01*
X62998Y-58623D01*
X63036Y-58715D01*
X63042Y-58721D01*
X63036Y-58728D01*
X62998Y-58820D01*
X62997Y-59446D01*
X63059Y-59508D01*
X63600Y-59508D01*
X63600Y-59608D01*
X63059Y-59608D01*
X62997Y-59670D01*
X62998Y-60296D01*
X63036Y-60388D01*
X63106Y-60458D01*
X63197Y-60496D01*
X63296Y-60496D01*
X63538Y-60497D01*
X63600Y-60435D01*
X63600Y-62752D01*
X63587Y-62747D01*
X63532Y-62747D01*
X62125Y-61339D01*
X62125Y-60381D01*
X62163Y-60343D01*
X62213Y-60223D01*
X62213Y-60094D01*
X62164Y-59974D01*
X62073Y-59883D01*
X61953Y-59833D01*
X61824Y-59833D01*
X61704Y-59882D01*
X61613Y-59973D01*
X61563Y-60093D01*
X61563Y-60222D01*
X61612Y-60342D01*
X61651Y-60381D01*
X61651Y-61433D01*
X61650Y-61438D01*
X61669Y-61529D01*
X61720Y-61606D01*
X63197Y-63082D01*
X63197Y-63136D01*
X63246Y-63256D01*
X63337Y-63347D01*
X63457Y-63397D01*
X63586Y-63397D01*
X63706Y-63348D01*
X63797Y-63257D01*
X63847Y-63137D01*
X63847Y-71234D01*
X63839Y-71238D01*
X63717Y-71360D01*
X63659Y-71496D01*
X63604Y-71361D01*
X63482Y-71239D01*
X63322Y-71172D01*
X63149Y-71172D01*
X62989Y-71238D01*
X62867Y-71360D01*
X62809Y-71497D01*
X62753Y-71361D01*
X62631Y-71239D01*
X62471Y-71172D01*
X62298Y-71172D01*
X62138Y-71238D01*
X62016Y-71360D01*
X61977Y-71451D01*
X61977Y-66444D01*
X61977Y-66315D01*
X61928Y-66195D01*
X61837Y-66104D01*
X61717Y-66054D01*
X61588Y-66054D01*
X61468Y-66103D01*
X61429Y-66142D01*
X61376Y-66142D01*
X61375Y-66142D01*
X61285Y-66160D01*
X61208Y-66211D01*
X61206Y-66213D01*
X60914Y-66505D01*
X60914Y-63826D01*
X60914Y-63697D01*
X60865Y-63577D01*
X60774Y-63486D01*
X60654Y-63436D01*
X60525Y-63436D01*
X60405Y-63485D01*
X60314Y-63576D01*
X60298Y-63613D01*
X59891Y-63613D01*
X59891Y-63225D01*
X60063Y-63052D01*
X60065Y-63052D01*
X60110Y-63006D01*
X60156Y-62961D01*
X60180Y-62901D01*
X60206Y-62841D01*
X60206Y-62776D01*
X60206Y-62712D01*
X60157Y-62592D01*
X60066Y-62501D01*
X59946Y-62451D01*
X59881Y-62451D01*
X59817Y-62451D01*
X59697Y-62500D01*
X59606Y-62591D01*
X59605Y-62592D01*
X59418Y-62779D01*
X59418Y-62329D01*
X59418Y-62200D01*
X59369Y-62080D01*
X59330Y-62041D01*
X59330Y-61871D01*
X59330Y-61713D01*
X59312Y-61622D01*
X59261Y-61545D01*
X59258Y-61543D01*
X57765Y-60049D01*
X57688Y-59998D01*
X57597Y-59979D01*
X57592Y-59980D01*
X57112Y-59980D01*
X57097Y-59942D01*
X58143Y-59942D01*
X58148Y-59943D01*
X58148Y-59942D01*
X58239Y-59924D01*
X58316Y-59873D01*
X58591Y-59597D01*
X58645Y-59597D01*
X58765Y-59548D01*
X58856Y-59457D01*
X58906Y-59337D01*
X58906Y-59208D01*
X58857Y-59088D01*
X58766Y-58997D01*
X58646Y-58947D01*
X58517Y-58947D01*
X58397Y-58996D01*
X58306Y-59087D01*
X58256Y-59207D01*
X58256Y-59261D01*
X58049Y-59468D01*
X56711Y-59468D01*
X56710Y-59468D01*
X56620Y-59486D01*
X56543Y-59537D01*
X56541Y-59539D01*
X56051Y-60029D01*
X56000Y-60106D01*
X55981Y-60197D01*
X55982Y-60201D01*
X55982Y-60645D01*
X55981Y-60650D01*
X56000Y-60741D01*
X56051Y-60818D01*
X56415Y-61181D01*
X56415Y-61628D01*
X56377Y-61666D01*
X56327Y-61786D01*
X56327Y-61915D01*
X56376Y-62035D01*
X56467Y-62126D01*
X56587Y-62176D01*
X56716Y-62176D01*
X56836Y-62127D01*
X56927Y-62036D01*
X56977Y-61916D01*
X56977Y-61787D01*
X56928Y-61667D01*
X56889Y-61628D01*
X56889Y-61083D01*
X56871Y-60992D01*
X56820Y-60915D01*
X56817Y-60913D01*
X56697Y-60793D01*
X56757Y-60769D01*
X56796Y-60730D01*
X57183Y-60730D01*
X58414Y-61960D01*
X58414Y-62014D01*
X58463Y-62134D01*
X58554Y-62225D01*
X58674Y-62275D01*
X58768Y-62275D01*
X58768Y-62328D01*
X58817Y-62448D01*
X58908Y-62539D01*
X59028Y-62589D01*
X59157Y-62589D01*
X59277Y-62540D01*
X59368Y-62449D01*
X59418Y-62329D01*
X59418Y-62779D01*
X59336Y-62861D01*
X59266Y-62967D01*
X59241Y-63091D01*
X59241Y-63455D01*
X58376Y-63455D01*
X58316Y-63395D01*
X58316Y-63382D01*
X58267Y-63262D01*
X58259Y-63254D01*
X58273Y-63249D01*
X58364Y-63158D01*
X58414Y-63038D01*
X58414Y-62909D01*
X58365Y-62789D01*
X58274Y-62698D01*
X58154Y-62648D01*
X58025Y-62648D01*
X57905Y-62697D01*
X57866Y-62736D01*
X57460Y-62736D01*
X57695Y-62501D01*
X57768Y-62501D01*
X57806Y-62539D01*
X57926Y-62589D01*
X58055Y-62589D01*
X58175Y-62540D01*
X58266Y-62449D01*
X58316Y-62329D01*
X58316Y-62200D01*
X58267Y-62080D01*
X58176Y-61989D01*
X58056Y-61939D01*
X57927Y-61939D01*
X57807Y-61988D01*
X57768Y-62027D01*
X57597Y-62027D01*
X57506Y-62045D01*
X57429Y-62096D01*
X57427Y-62098D01*
X56952Y-62573D01*
X56928Y-62514D01*
X56837Y-62423D01*
X56717Y-62373D01*
X56662Y-62373D01*
X56662Y-62372D01*
X56585Y-62321D01*
X56494Y-62302D01*
X56489Y-62303D01*
X55773Y-62303D01*
X55735Y-62265D01*
X55615Y-62215D01*
X55486Y-62215D01*
X55366Y-62264D01*
X55275Y-62355D01*
X55225Y-62475D01*
X55225Y-62604D01*
X55274Y-62724D01*
X55326Y-62776D01*
X55275Y-62827D01*
X55225Y-62947D01*
X55225Y-63076D01*
X55274Y-63196D01*
X55346Y-63268D01*
X55275Y-63339D01*
X55225Y-63459D01*
X55225Y-63588D01*
X55274Y-63708D01*
X55346Y-63780D01*
X55275Y-63851D01*
X55225Y-63971D01*
X55225Y-64100D01*
X55274Y-64220D01*
X55365Y-64311D01*
X55426Y-64336D01*
X55382Y-64444D01*
X55382Y-64573D01*
X55431Y-64693D01*
X55522Y-64784D01*
X55642Y-64834D01*
X55737Y-64834D01*
X55737Y-64888D01*
X55786Y-65008D01*
X55877Y-65099D01*
X55997Y-65149D01*
X56126Y-65149D01*
X56246Y-65100D01*
X56337Y-65009D01*
X56387Y-64889D01*
X56387Y-64794D01*
X56710Y-64471D01*
X56927Y-64471D01*
X57163Y-64471D01*
X57163Y-65331D01*
X57162Y-65336D01*
X57181Y-65427D01*
X57232Y-65504D01*
X57662Y-65933D01*
X57664Y-65936D01*
X57741Y-65987D01*
X57831Y-66005D01*
X57831Y-66004D01*
X57832Y-66005D01*
X58774Y-66005D01*
X58779Y-66006D01*
X58779Y-66005D01*
X58870Y-65987D01*
X58947Y-65936D01*
X59337Y-65544D01*
X59339Y-65543D01*
X59340Y-65543D01*
X59391Y-65466D01*
X59402Y-65407D01*
X59447Y-65363D01*
X59497Y-65243D01*
X59497Y-65114D01*
X59448Y-64994D01*
X59357Y-64903D01*
X59237Y-64853D01*
X59108Y-64853D01*
X58988Y-64902D01*
X58936Y-64954D01*
X58845Y-64863D01*
X58831Y-64857D01*
X58828Y-64852D01*
X58751Y-64801D01*
X58660Y-64783D01*
X58569Y-64801D01*
X58492Y-64852D01*
X58488Y-64856D01*
X58476Y-64862D01*
X58425Y-64913D01*
X58425Y-64194D01*
X58424Y-64193D01*
X58425Y-64193D01*
X58407Y-64103D01*
X58356Y-64026D01*
X58353Y-64024D01*
X58316Y-63987D01*
X59390Y-63987D01*
X59442Y-64021D01*
X59502Y-64033D01*
X59536Y-64067D01*
X59622Y-64125D01*
X59724Y-64145D01*
X60471Y-64145D01*
X60573Y-64125D01*
X60630Y-64086D01*
X60653Y-64086D01*
X60773Y-64037D01*
X60864Y-63946D01*
X60914Y-63826D01*
X60914Y-66505D01*
X60499Y-66920D01*
X60446Y-66920D01*
X60326Y-66969D01*
X60235Y-67060D01*
X60185Y-67180D01*
X60185Y-67309D01*
X60234Y-67429D01*
X60325Y-67520D01*
X60445Y-67570D01*
X60574Y-67570D01*
X60694Y-67521D01*
X60785Y-67430D01*
X60835Y-67310D01*
X60835Y-67255D01*
X61451Y-66638D01*
X61467Y-66654D01*
X61587Y-66704D01*
X61716Y-66704D01*
X61836Y-66655D01*
X61927Y-66564D01*
X61977Y-66444D01*
X61977Y-71451D01*
X61958Y-71496D01*
X61903Y-71361D01*
X61829Y-71287D01*
X61888Y-71229D01*
X61938Y-71109D01*
X61938Y-70980D01*
X61889Y-70860D01*
X61798Y-70769D01*
X61678Y-70719D01*
X61549Y-70719D01*
X61429Y-70768D01*
X61348Y-70848D01*
X61347Y-70849D01*
X61307Y-70876D01*
X61305Y-70878D01*
X60937Y-71245D01*
X60931Y-71239D01*
X60771Y-71172D01*
X60598Y-71172D01*
X60438Y-71238D01*
X60316Y-71360D01*
X60258Y-71497D01*
X60202Y-71361D01*
X60080Y-71239D01*
X60009Y-71209D01*
X60009Y-66970D01*
X60009Y-66182D01*
X59981Y-66042D01*
X59902Y-65924D01*
X59784Y-65845D01*
X59644Y-65817D01*
X59504Y-65845D01*
X59386Y-65924D01*
X59307Y-66042D01*
X59279Y-66182D01*
X59279Y-66819D01*
X58973Y-67125D01*
X58894Y-67244D01*
X58866Y-67383D01*
X58894Y-67522D01*
X58973Y-67641D01*
X59092Y-67720D01*
X59231Y-67748D01*
X59370Y-67720D01*
X59489Y-67641D01*
X59902Y-67228D01*
X59981Y-67110D01*
X59981Y-67109D01*
X60009Y-66970D01*
X60009Y-71209D01*
X59920Y-71172D01*
X59747Y-71172D01*
X59587Y-71238D01*
X59465Y-71360D01*
X59407Y-71496D01*
X59352Y-71361D01*
X59230Y-71239D01*
X59070Y-71172D01*
X58897Y-71172D01*
X58737Y-71238D01*
X58615Y-71360D01*
X58557Y-71497D01*
X58501Y-71361D01*
X58379Y-71239D01*
X58219Y-71172D01*
X58046Y-71172D01*
X57886Y-71238D01*
X57764Y-71360D01*
X57706Y-71496D01*
X57651Y-71361D01*
X57529Y-71239D01*
X57369Y-71172D01*
X57196Y-71172D01*
X57036Y-71238D01*
X56914Y-71360D01*
X56856Y-71496D01*
X56801Y-71361D01*
X56679Y-71239D01*
X56519Y-71172D01*
X56346Y-71172D01*
X56308Y-71187D01*
X56308Y-69574D01*
X56308Y-69445D01*
X56259Y-69325D01*
X56168Y-69234D01*
X56048Y-69184D01*
X55919Y-69184D01*
X55799Y-69233D01*
X55760Y-69272D01*
X55470Y-69272D01*
X55379Y-69290D01*
X55302Y-69341D01*
X55300Y-69343D01*
X54614Y-70030D01*
X54561Y-70030D01*
X54441Y-70079D01*
X54350Y-70170D01*
X54300Y-70290D01*
X54300Y-70419D01*
X54349Y-70539D01*
X54440Y-70630D01*
X54560Y-70680D01*
X54689Y-70680D01*
X54809Y-70631D01*
X54900Y-70540D01*
X54950Y-70420D01*
X54950Y-70366D01*
X55570Y-69746D01*
X55760Y-69746D01*
X55798Y-69784D01*
X55918Y-69834D01*
X56047Y-69834D01*
X56167Y-69785D01*
X56258Y-69694D01*
X56308Y-69574D01*
X56308Y-71187D01*
X56186Y-71238D01*
X56064Y-71360D01*
X56006Y-71497D01*
X55950Y-71361D01*
X55828Y-71239D01*
X55668Y-71172D01*
X55495Y-71172D01*
X55335Y-71238D01*
X55213Y-71360D01*
X55201Y-71386D01*
X55197Y-71370D01*
X55067Y-71210D01*
X54886Y-71112D01*
X54862Y-71109D01*
X54781Y-71157D01*
X54781Y-71635D01*
X54781Y-71685D01*
X54781Y-71785D01*
X54781Y-71835D01*
X54781Y-72313D01*
X54862Y-72361D01*
X54886Y-72358D01*
X55067Y-72260D01*
X55197Y-72100D01*
X55201Y-72084D01*
X55212Y-72109D01*
X55334Y-72231D01*
X55494Y-72298D01*
X55667Y-72298D01*
X55827Y-72232D01*
X55949Y-72110D01*
X56006Y-71972D01*
X56063Y-72109D01*
X56185Y-72231D01*
X56345Y-72298D01*
X56518Y-72298D01*
X56678Y-72232D01*
X56800Y-72110D01*
X56857Y-71973D01*
X56913Y-72109D01*
X57035Y-72231D01*
X57195Y-72298D01*
X57368Y-72298D01*
X57528Y-72232D01*
X57650Y-72110D01*
X57707Y-71973D01*
X57763Y-72109D01*
X57885Y-72231D01*
X58045Y-72298D01*
X58218Y-72298D01*
X58378Y-72232D01*
X58500Y-72110D01*
X58557Y-71972D01*
X58614Y-72109D01*
X58736Y-72231D01*
X58896Y-72298D01*
X59069Y-72298D01*
X59229Y-72232D01*
X59351Y-72110D01*
X59408Y-71973D01*
X59464Y-72109D01*
X59586Y-72231D01*
X59746Y-72298D01*
X59919Y-72298D01*
X60079Y-72232D01*
X60201Y-72110D01*
X60258Y-71972D01*
X60315Y-72109D01*
X60437Y-72231D01*
X60597Y-72298D01*
X60770Y-72298D01*
X60454Y-72614D01*
X60440Y-72600D01*
X60320Y-72550D01*
X60191Y-72550D01*
X60071Y-72599D01*
X59980Y-72690D01*
X59930Y-72810D01*
X59930Y-72817D01*
X59883Y-72845D01*
X59883Y-73323D01*
X59883Y-73373D01*
X59883Y-73473D01*
X59883Y-73523D01*
X59883Y-74001D01*
X59964Y-74049D01*
X59988Y-74046D01*
X60169Y-73948D01*
X60299Y-73788D01*
X60303Y-73772D01*
X60314Y-73797D01*
X60436Y-73919D01*
X60596Y-73986D01*
X60769Y-73986D01*
X60929Y-73920D01*
X61051Y-73798D01*
X61108Y-73660D01*
X61165Y-73797D01*
X61287Y-73919D01*
X61447Y-73986D01*
X61620Y-73986D01*
X61780Y-73920D01*
X61902Y-73798D01*
X61959Y-73661D01*
X62015Y-73797D01*
X62137Y-73919D01*
X62297Y-73986D01*
X62470Y-73986D01*
X62630Y-73920D01*
X62752Y-73798D01*
X62809Y-73660D01*
X62866Y-73797D01*
X62988Y-73919D01*
X63148Y-73986D01*
X63321Y-73986D01*
X63481Y-73920D01*
X63603Y-73798D01*
X63660Y-73661D01*
X63716Y-73797D01*
X63838Y-73919D01*
X63998Y-73986D01*
X64171Y-73986D01*
X64331Y-73920D01*
X64453Y-73798D01*
X64520Y-73638D01*
X64520Y-76328D01*
X59783Y-76328D01*
X59783Y-74001D01*
X59783Y-73473D01*
X59783Y-73373D01*
X59783Y-72845D01*
X59702Y-72797D01*
X59678Y-72800D01*
X59497Y-72898D01*
X59408Y-73007D01*
X59319Y-72898D01*
X59138Y-72800D01*
X59114Y-72797D01*
X59033Y-72845D01*
X59033Y-73373D01*
X59308Y-73373D01*
X59508Y-73373D01*
X59783Y-73373D01*
X59783Y-73473D01*
X59508Y-73473D01*
X59308Y-73473D01*
X59033Y-73473D01*
X59033Y-74001D01*
X59114Y-74049D01*
X59138Y-74046D01*
X59319Y-73948D01*
X59408Y-73838D01*
X59497Y-73948D01*
X59678Y-74046D01*
X59702Y-74049D01*
X59783Y-74001D01*
X59783Y-76328D01*
X58933Y-76328D01*
X58933Y-74001D01*
X58933Y-73473D01*
X58933Y-73373D01*
X58933Y-72845D01*
X58852Y-72797D01*
X58828Y-72800D01*
X58647Y-72898D01*
X58557Y-73008D01*
X58468Y-72898D01*
X58287Y-72800D01*
X58263Y-72797D01*
X58182Y-72845D01*
X58182Y-73373D01*
X58458Y-73373D01*
X58657Y-73373D01*
X58933Y-73373D01*
X58933Y-73473D01*
X58657Y-73473D01*
X58458Y-73473D01*
X58182Y-73473D01*
X58182Y-74001D01*
X58263Y-74049D01*
X58287Y-74046D01*
X58468Y-73948D01*
X58557Y-73837D01*
X58647Y-73948D01*
X58828Y-74046D01*
X58852Y-74049D01*
X58933Y-74001D01*
X58933Y-76328D01*
X58082Y-76328D01*
X58082Y-74001D01*
X58082Y-73473D01*
X58082Y-73373D01*
X58082Y-72845D01*
X58001Y-72797D01*
X57977Y-72800D01*
X57796Y-72898D01*
X57707Y-73007D01*
X57618Y-72898D01*
X57437Y-72800D01*
X57413Y-72797D01*
X57332Y-72845D01*
X57332Y-73373D01*
X57607Y-73373D01*
X57807Y-73373D01*
X58082Y-73373D01*
X58082Y-73473D01*
X57807Y-73473D01*
X57607Y-73473D01*
X57332Y-73473D01*
X57332Y-74001D01*
X57413Y-74049D01*
X57437Y-74046D01*
X57618Y-73948D01*
X57707Y-73838D01*
X57796Y-73948D01*
X57977Y-74046D01*
X58001Y-74049D01*
X58082Y-74001D01*
X58082Y-76328D01*
X57232Y-76328D01*
X57232Y-74001D01*
X57232Y-73473D01*
X57232Y-73373D01*
X57232Y-72845D01*
X57151Y-72797D01*
X57127Y-72800D01*
X56946Y-72898D01*
X56857Y-73007D01*
X56768Y-72898D01*
X56587Y-72800D01*
X56563Y-72797D01*
X56482Y-72845D01*
X56482Y-73373D01*
X56757Y-73373D01*
X56957Y-73373D01*
X57232Y-73373D01*
X57232Y-73473D01*
X56957Y-73473D01*
X56757Y-73473D01*
X56482Y-73473D01*
X56482Y-74001D01*
X56563Y-74049D01*
X56587Y-74046D01*
X56768Y-73948D01*
X56857Y-73838D01*
X56946Y-73948D01*
X57127Y-74046D01*
X57151Y-74049D01*
X57232Y-74001D01*
X57232Y-76328D01*
X56382Y-76328D01*
X56382Y-74001D01*
X56382Y-73473D01*
X56382Y-73373D01*
X56382Y-72845D01*
X56301Y-72797D01*
X56277Y-72800D01*
X56096Y-72898D01*
X56006Y-73008D01*
X55917Y-72898D01*
X55736Y-72800D01*
X55712Y-72797D01*
X55631Y-72845D01*
X55631Y-73373D01*
X55907Y-73373D01*
X56106Y-73373D01*
X56382Y-73373D01*
X56382Y-73473D01*
X56106Y-73473D01*
X55907Y-73473D01*
X55631Y-73473D01*
X55631Y-74001D01*
X55712Y-74049D01*
X55736Y-74046D01*
X55917Y-73948D01*
X56006Y-73837D01*
X56096Y-73948D01*
X56277Y-74046D01*
X56301Y-74049D01*
X56382Y-74001D01*
X56382Y-76328D01*
X55531Y-76328D01*
X55531Y-74001D01*
X55531Y-73473D01*
X55531Y-73373D01*
X55531Y-72845D01*
X55450Y-72797D01*
X55426Y-72800D01*
X55245Y-72898D01*
X55156Y-73007D01*
X55067Y-72898D01*
X54886Y-72800D01*
X54862Y-72797D01*
X54781Y-72845D01*
X54781Y-73373D01*
X55056Y-73373D01*
X55256Y-73373D01*
X55531Y-73373D01*
X55531Y-73473D01*
X55256Y-73473D01*
X55056Y-73473D01*
X54781Y-73473D01*
X54781Y-74001D01*
X54862Y-74049D01*
X54886Y-74046D01*
X55067Y-73948D01*
X55156Y-73838D01*
X55245Y-73948D01*
X55426Y-74046D01*
X55450Y-74049D01*
X55531Y-74001D01*
X55531Y-76328D01*
X54681Y-76328D01*
X54681Y-74001D01*
X54681Y-73473D01*
X54681Y-73373D01*
X54681Y-72845D01*
X54681Y-72313D01*
X54681Y-71785D01*
X54681Y-71685D01*
X54681Y-71157D01*
X54600Y-71109D01*
X54576Y-71112D01*
X54395Y-71210D01*
X54265Y-71370D01*
X54206Y-71567D01*
X54206Y-71685D01*
X54681Y-71685D01*
X54681Y-71785D01*
X54206Y-71785D01*
X54206Y-71903D01*
X54265Y-72100D01*
X54395Y-72260D01*
X54576Y-72358D01*
X54600Y-72361D01*
X54681Y-72313D01*
X54681Y-72845D01*
X54600Y-72797D01*
X54576Y-72800D01*
X54395Y-72898D01*
X54265Y-73058D01*
X54206Y-73255D01*
X54206Y-73373D01*
X54681Y-73373D01*
X54681Y-73473D01*
X54206Y-73473D01*
X54206Y-73591D01*
X54265Y-73788D01*
X54395Y-73948D01*
X54576Y-74046D01*
X54600Y-74049D01*
X54681Y-74001D01*
X54681Y-76328D01*
X51990Y-76328D01*
X51990Y-68546D01*
X51990Y-68518D01*
X51990Y-68318D01*
X51990Y-68290D01*
X51972Y-68249D01*
X51990Y-68208D01*
X51990Y-68180D01*
X51990Y-67980D01*
X51990Y-67952D01*
X51952Y-67861D01*
X51882Y-67791D01*
X51790Y-67753D01*
X51735Y-67752D01*
X51673Y-67814D01*
X51673Y-68041D01*
X51929Y-68041D01*
X51990Y-67980D01*
X51990Y-68180D01*
X51929Y-68119D01*
X51857Y-68119D01*
X51790Y-68091D01*
X51735Y-68090D01*
X51706Y-68119D01*
X51673Y-68119D01*
X51673Y-68152D01*
X51673Y-68346D01*
X51673Y-68379D01*
X51706Y-68379D01*
X51735Y-68408D01*
X51790Y-68407D01*
X51857Y-68379D01*
X51929Y-68379D01*
X51990Y-68318D01*
X51990Y-68518D01*
X51929Y-68457D01*
X51673Y-68457D01*
X51673Y-68684D01*
X51735Y-68746D01*
X51790Y-68745D01*
X51882Y-68707D01*
X51952Y-68637D01*
X51990Y-68546D01*
X51990Y-76328D01*
X51573Y-76328D01*
X51573Y-68684D01*
X51573Y-68518D01*
X51573Y-68457D01*
X51573Y-68379D01*
X51573Y-68346D01*
X51573Y-68318D01*
X51573Y-68180D01*
X51573Y-68152D01*
X51573Y-68119D01*
X51573Y-68041D01*
X51573Y-67980D01*
X51573Y-67814D01*
X51511Y-67752D01*
X51456Y-67753D01*
X51364Y-67791D01*
X51294Y-67861D01*
X51256Y-67952D01*
X51256Y-67961D01*
X51234Y-67907D01*
X51186Y-67860D01*
X51125Y-67834D01*
X51058Y-67834D01*
X50822Y-67834D01*
X50799Y-67843D01*
X50368Y-67843D01*
X50364Y-67842D01*
X50273Y-67861D01*
X50196Y-67912D01*
X50153Y-67955D01*
X50153Y-65895D01*
X50153Y-65627D01*
X50153Y-64272D01*
X50153Y-64004D01*
X50148Y-63976D01*
X50090Y-63869D01*
X50090Y-63229D01*
X50090Y-63048D01*
X50090Y-62229D01*
X50090Y-62048D01*
X50090Y-61229D01*
X50090Y-61048D01*
X50021Y-60881D01*
X49955Y-60815D01*
X49955Y-60472D01*
X49955Y-60405D01*
X49955Y-59805D01*
X49930Y-59743D01*
X49882Y-59696D01*
X49821Y-59670D01*
X49754Y-59670D01*
X49154Y-59670D01*
X49092Y-59695D01*
X49045Y-59743D01*
X49019Y-59804D01*
X49019Y-59871D01*
X49019Y-60471D01*
X49044Y-60533D01*
X49092Y-60580D01*
X49153Y-60606D01*
X49220Y-60606D01*
X49820Y-60606D01*
X49882Y-60581D01*
X49929Y-60533D01*
X49955Y-60472D01*
X49955Y-60815D01*
X49893Y-60753D01*
X49727Y-60684D01*
X49546Y-60684D01*
X49248Y-60684D01*
X49081Y-60753D01*
X48953Y-60881D01*
X48884Y-61047D01*
X48884Y-61228D01*
X48953Y-61395D01*
X49081Y-61523D01*
X49247Y-61592D01*
X49428Y-61592D01*
X49726Y-61592D01*
X49893Y-61523D01*
X50021Y-61395D01*
X50090Y-61229D01*
X50090Y-62048D01*
X50021Y-61881D01*
X49893Y-61753D01*
X49727Y-61684D01*
X49546Y-61684D01*
X49248Y-61684D01*
X49081Y-61753D01*
X48953Y-61881D01*
X48884Y-62047D01*
X48884Y-62228D01*
X48953Y-62395D01*
X49081Y-62523D01*
X49247Y-62592D01*
X49428Y-62592D01*
X49726Y-62592D01*
X49893Y-62523D01*
X50021Y-62395D01*
X50090Y-62229D01*
X50090Y-63048D01*
X50021Y-62881D01*
X49893Y-62753D01*
X49727Y-62684D01*
X49546Y-62684D01*
X49248Y-62684D01*
X49081Y-62753D01*
X48953Y-62881D01*
X48884Y-63047D01*
X48884Y-63228D01*
X48953Y-63395D01*
X49081Y-63523D01*
X49247Y-63592D01*
X49428Y-63592D01*
X49726Y-63592D01*
X49893Y-63523D01*
X50021Y-63395D01*
X50090Y-63229D01*
X50090Y-63869D01*
X50046Y-63788D01*
X49880Y-63654D01*
X49675Y-63593D01*
X49537Y-63593D01*
X49537Y-64088D01*
X50105Y-64088D01*
X50153Y-64004D01*
X50153Y-64272D01*
X50105Y-64188D01*
X49537Y-64188D01*
X49537Y-64683D01*
X49675Y-64683D01*
X49880Y-64622D01*
X50046Y-64488D01*
X50148Y-64300D01*
X50153Y-64272D01*
X50153Y-65627D01*
X50148Y-65599D01*
X50046Y-65411D01*
X49880Y-65277D01*
X49675Y-65216D01*
X49537Y-65216D01*
X49537Y-65711D01*
X50105Y-65711D01*
X50153Y-65627D01*
X50153Y-65895D01*
X50105Y-65811D01*
X49537Y-65811D01*
X49537Y-66306D01*
X49675Y-66306D01*
X49880Y-66245D01*
X50046Y-66111D01*
X50148Y-65923D01*
X50153Y-65895D01*
X50153Y-67955D01*
X50090Y-68018D01*
X50090Y-67852D01*
X50090Y-67671D01*
X50090Y-66852D01*
X50090Y-66671D01*
X50021Y-66504D01*
X49893Y-66376D01*
X49727Y-66307D01*
X49546Y-66307D01*
X49437Y-66307D01*
X49437Y-66306D01*
X49437Y-65811D01*
X49437Y-65711D01*
X49437Y-65216D01*
X49437Y-64683D01*
X49437Y-64188D01*
X49437Y-64088D01*
X49437Y-63593D01*
X49299Y-63593D01*
X49094Y-63654D01*
X48928Y-63788D01*
X48826Y-63976D01*
X48821Y-64004D01*
X48869Y-64088D01*
X49437Y-64088D01*
X49437Y-64188D01*
X48869Y-64188D01*
X48821Y-64272D01*
X48826Y-64300D01*
X48928Y-64488D01*
X49094Y-64622D01*
X49299Y-64683D01*
X49437Y-64683D01*
X49437Y-65216D01*
X49299Y-65216D01*
X49094Y-65277D01*
X48928Y-65411D01*
X48826Y-65599D01*
X48821Y-65627D01*
X48869Y-65711D01*
X49437Y-65711D01*
X49437Y-65811D01*
X48869Y-65811D01*
X48821Y-65895D01*
X48826Y-65923D01*
X48928Y-66111D01*
X49094Y-66245D01*
X49299Y-66306D01*
X49437Y-66306D01*
X49437Y-66307D01*
X49248Y-66307D01*
X49081Y-66376D01*
X48953Y-66504D01*
X48884Y-66670D01*
X48884Y-66851D01*
X48953Y-67018D01*
X49081Y-67146D01*
X49247Y-67215D01*
X49428Y-67215D01*
X49726Y-67215D01*
X49893Y-67146D01*
X50021Y-67018D01*
X50090Y-66852D01*
X50090Y-67671D01*
X50021Y-67504D01*
X49893Y-67376D01*
X49727Y-67307D01*
X49546Y-67307D01*
X49248Y-67307D01*
X49081Y-67376D01*
X48953Y-67504D01*
X48884Y-67670D01*
X48884Y-67851D01*
X48953Y-68018D01*
X49081Y-68146D01*
X49247Y-68215D01*
X49428Y-68215D01*
X49726Y-68215D01*
X49893Y-68146D01*
X50021Y-68018D01*
X50090Y-67852D01*
X50090Y-68018D01*
X50027Y-68081D01*
X49976Y-68158D01*
X49957Y-68249D01*
X49958Y-68253D01*
X49958Y-68695D01*
X49955Y-68698D01*
X49955Y-68428D01*
X49930Y-68366D01*
X49882Y-68319D01*
X49821Y-68293D01*
X49754Y-68293D01*
X49154Y-68293D01*
X49092Y-68318D01*
X49045Y-68366D01*
X49019Y-68427D01*
X49019Y-68494D01*
X49019Y-69094D01*
X49044Y-69156D01*
X49092Y-69203D01*
X49153Y-69229D01*
X49220Y-69229D01*
X49820Y-69229D01*
X49882Y-69204D01*
X49929Y-69156D01*
X49942Y-69125D01*
X50010Y-69193D01*
X50130Y-69243D01*
X50259Y-69243D01*
X50379Y-69194D01*
X50470Y-69103D01*
X50498Y-69035D01*
X50524Y-69046D01*
X50653Y-69046D01*
X50773Y-68997D01*
X50864Y-68906D01*
X50914Y-68786D01*
X50914Y-68731D01*
X50981Y-68664D01*
X51124Y-68664D01*
X51186Y-68639D01*
X51233Y-68591D01*
X51256Y-68537D01*
X51256Y-68546D01*
X51294Y-68637D01*
X51364Y-68707D01*
X51456Y-68745D01*
X51511Y-68746D01*
X51573Y-68684D01*
X51573Y-76328D01*
X50995Y-76328D01*
X50995Y-72738D01*
X50995Y-72421D01*
X50874Y-72128D01*
X50650Y-71903D01*
X50356Y-71781D01*
X50039Y-71781D01*
X49746Y-71902D01*
X49521Y-72126D01*
X49399Y-72420D01*
X49399Y-72737D01*
X49520Y-73030D01*
X49744Y-73255D01*
X50038Y-73377D01*
X50355Y-73377D01*
X50648Y-73256D01*
X50873Y-73032D01*
X50995Y-72738D01*
X50995Y-76328D01*
X47881Y-76328D01*
X47862Y-57255D01*
X62997Y-57255D01*
X62997Y-57773D01*
X63059Y-57835D01*
X63550Y-57835D01*
X63600Y-57835D01*
X63700Y-57835D01*
X63750Y-57835D01*
X64241Y-57835D01*
X64303Y-57773D01*
X64302Y-57255D01*
X66875Y-57255D01*
X66875Y-57773D01*
X66937Y-57835D01*
X67428Y-57835D01*
X67478Y-57835D01*
X67578Y-57835D01*
X67628Y-57835D01*
X68119Y-57835D01*
X68181Y-57773D01*
X68180Y-57255D01*
X70894Y-57255D01*
X70914Y-76329D01*
M02*
