G04 (created by PCBNEW-RS274X (2012-07-14 BZR 3647)-testing) date Sun 15 Jul 2012 11:18:50 PM EEST*
%MOIN*%
G04 Gerber Fmt 3.4, Leading zero omitted, Abs format*
%FSLAX34Y34*%
G01*
G70*
G90*
G04 APERTURE LIST*
%ADD10C,0.006*%
%ADD11C,0.0118*%
%ADD12C,0.015*%
%ADD13C,0.005*%
%ADD14C,0.0026*%
%ADD15C,0.004*%
%ADD16C,0.012*%
G04 APERTURE END LIST*
G54D10*
G54D11*
X53086Y-60206D02*
X53764Y-60206D01*
X53764Y-60206D02*
X53764Y-60856D01*
X53764Y-60856D02*
X53086Y-60856D01*
X53086Y-60856D02*
X53086Y-60206D01*
G54D12*
X61563Y-57472D02*
X56563Y-57472D01*
X61563Y-58472D02*
X56563Y-58472D01*
X56563Y-58472D02*
X56563Y-57472D01*
X61563Y-57472D02*
X61563Y-58472D01*
X51783Y-58472D02*
X55783Y-58472D01*
X51783Y-57472D02*
X55783Y-57472D01*
X55783Y-57472D02*
X55783Y-58472D01*
X51783Y-58472D02*
X51783Y-57472D01*
X68752Y-64165D02*
X68752Y-68165D01*
X69752Y-64165D02*
X69752Y-68165D01*
X69752Y-68165D02*
X68752Y-68165D01*
X68752Y-64165D02*
X69752Y-64165D01*
X66549Y-76768D02*
X66549Y-80318D01*
X66549Y-80318D02*
X52191Y-80318D01*
X52191Y-80318D02*
X52191Y-76768D01*
X48642Y-76768D02*
X70098Y-76768D01*
X48642Y-70275D02*
X70098Y-70275D01*
X70098Y-70275D02*
X70098Y-76768D01*
X48642Y-70275D02*
X48642Y-76768D01*
G54D13*
X52112Y-58641D02*
X52111Y-58650D01*
X52108Y-58660D01*
X52103Y-58668D01*
X52097Y-58676D01*
X52089Y-58682D01*
X52081Y-58687D01*
X52072Y-58689D01*
X52062Y-58690D01*
X52053Y-58690D01*
X52044Y-58687D01*
X52035Y-58682D01*
X52028Y-58676D01*
X52021Y-58669D01*
X52017Y-58660D01*
X52014Y-58651D01*
X52013Y-58641D01*
X52013Y-58632D01*
X52016Y-58623D01*
X52020Y-58614D01*
X52027Y-58607D01*
X52034Y-58600D01*
X52042Y-58596D01*
X52052Y-58593D01*
X52061Y-58592D01*
X52070Y-58592D01*
X52080Y-58595D01*
X52088Y-58599D01*
X52096Y-58605D01*
X52102Y-58613D01*
X52107Y-58621D01*
X52110Y-58630D01*
X52111Y-58640D01*
X52112Y-58641D01*
X52062Y-59091D02*
X52062Y-58691D01*
X52062Y-58691D02*
X52662Y-58691D01*
X52662Y-58691D02*
X52662Y-59091D01*
X52662Y-59491D02*
X52662Y-59891D01*
X52662Y-59891D02*
X52062Y-59891D01*
X52062Y-59891D02*
X52062Y-59491D01*
X52900Y-58641D02*
X52899Y-58650D01*
X52896Y-58660D01*
X52891Y-58668D01*
X52885Y-58676D01*
X52877Y-58682D01*
X52869Y-58687D01*
X52860Y-58689D01*
X52850Y-58690D01*
X52841Y-58690D01*
X52832Y-58687D01*
X52823Y-58682D01*
X52816Y-58676D01*
X52809Y-58669D01*
X52805Y-58660D01*
X52802Y-58651D01*
X52801Y-58641D01*
X52801Y-58632D01*
X52804Y-58623D01*
X52808Y-58614D01*
X52815Y-58607D01*
X52822Y-58600D01*
X52830Y-58596D01*
X52840Y-58593D01*
X52849Y-58592D01*
X52858Y-58592D01*
X52868Y-58595D01*
X52876Y-58599D01*
X52884Y-58605D01*
X52890Y-58613D01*
X52895Y-58621D01*
X52898Y-58630D01*
X52899Y-58640D01*
X52900Y-58641D01*
X52850Y-59091D02*
X52850Y-58691D01*
X52850Y-58691D02*
X53450Y-58691D01*
X53450Y-58691D02*
X53450Y-59091D01*
X53450Y-59491D02*
X53450Y-59891D01*
X53450Y-59891D02*
X52850Y-59891D01*
X52850Y-59891D02*
X52850Y-59491D01*
X53687Y-58641D02*
X53686Y-58650D01*
X53683Y-58660D01*
X53678Y-58668D01*
X53672Y-58676D01*
X53664Y-58682D01*
X53656Y-58687D01*
X53647Y-58689D01*
X53637Y-58690D01*
X53628Y-58690D01*
X53619Y-58687D01*
X53610Y-58682D01*
X53603Y-58676D01*
X53596Y-58669D01*
X53592Y-58660D01*
X53589Y-58651D01*
X53588Y-58641D01*
X53588Y-58632D01*
X53591Y-58623D01*
X53595Y-58614D01*
X53602Y-58607D01*
X53609Y-58600D01*
X53617Y-58596D01*
X53627Y-58593D01*
X53636Y-58592D01*
X53645Y-58592D01*
X53655Y-58595D01*
X53663Y-58599D01*
X53671Y-58605D01*
X53677Y-58613D01*
X53682Y-58621D01*
X53685Y-58630D01*
X53686Y-58640D01*
X53687Y-58641D01*
X53637Y-59091D02*
X53637Y-58691D01*
X53637Y-58691D02*
X54237Y-58691D01*
X54237Y-58691D02*
X54237Y-59091D01*
X54237Y-59491D02*
X54237Y-59891D01*
X54237Y-59891D02*
X53637Y-59891D01*
X53637Y-59891D02*
X53637Y-59491D01*
G54D14*
X52795Y-60728D02*
X52441Y-60728D01*
X52441Y-60728D02*
X52441Y-60885D01*
X52795Y-60885D02*
X52441Y-60885D01*
X52795Y-60728D02*
X52795Y-60885D01*
X52795Y-60217D02*
X52441Y-60217D01*
X52441Y-60217D02*
X52441Y-60374D01*
X52795Y-60374D02*
X52441Y-60374D01*
X52795Y-60217D02*
X52795Y-60374D01*
X52795Y-60551D02*
X52736Y-60551D01*
X52736Y-60551D02*
X52736Y-60669D01*
X52795Y-60669D02*
X52736Y-60669D01*
X52795Y-60551D02*
X52795Y-60669D01*
X52500Y-60551D02*
X52441Y-60551D01*
X52441Y-60551D02*
X52441Y-60669D01*
X52500Y-60669D02*
X52441Y-60669D01*
X52500Y-60551D02*
X52500Y-60669D01*
X52677Y-60551D02*
X52559Y-60551D01*
X52559Y-60551D02*
X52559Y-60669D01*
X52677Y-60669D02*
X52559Y-60669D01*
X52677Y-60551D02*
X52677Y-60669D01*
G54D15*
X52775Y-60728D02*
X52775Y-60374D01*
X52461Y-60728D02*
X52461Y-60374D01*
G54D11*
X66771Y-60050D02*
X64331Y-60050D01*
X66771Y-57215D02*
X64331Y-57215D01*
X66771Y-57215D02*
X66771Y-60050D01*
X64331Y-60050D02*
X64331Y-57215D01*
X54479Y-60909D02*
X53967Y-60909D01*
X53967Y-60787D01*
X53992Y-60714D01*
X54040Y-60665D01*
X54089Y-60641D01*
X54187Y-60617D01*
X54260Y-60617D01*
X54357Y-60641D01*
X54406Y-60665D01*
X54455Y-60714D01*
X54479Y-60787D01*
X54479Y-60909D01*
X54016Y-60421D02*
X53992Y-60397D01*
X53967Y-60348D01*
X53967Y-60226D01*
X53992Y-60178D01*
X54016Y-60153D01*
X54065Y-60129D01*
X54114Y-60129D01*
X54187Y-60153D01*
X54479Y-60446D01*
X54479Y-60129D01*
G54D10*
X62109Y-58194D02*
X61809Y-58194D01*
X61809Y-58079D01*
X61824Y-58051D01*
X61838Y-58036D01*
X61867Y-58022D01*
X61909Y-58022D01*
X61938Y-58036D01*
X61952Y-58051D01*
X61967Y-58079D01*
X61967Y-58194D01*
X61809Y-57922D02*
X61809Y-57736D01*
X61924Y-57836D01*
X61924Y-57794D01*
X61938Y-57765D01*
X61952Y-57751D01*
X61981Y-57736D01*
X62052Y-57736D01*
X62081Y-57751D01*
X62095Y-57765D01*
X62109Y-57794D01*
X62109Y-57879D01*
X62095Y-57908D01*
X62081Y-57922D01*
X51578Y-58194D02*
X51278Y-58194D01*
X51278Y-58079D01*
X51293Y-58051D01*
X51307Y-58036D01*
X51336Y-58022D01*
X51378Y-58022D01*
X51407Y-58036D01*
X51421Y-58051D01*
X51436Y-58079D01*
X51436Y-58194D01*
X51378Y-57765D02*
X51578Y-57765D01*
X51264Y-57836D02*
X51478Y-57908D01*
X51478Y-57722D01*
X69373Y-63982D02*
X69073Y-63982D01*
X69073Y-63867D01*
X69088Y-63839D01*
X69102Y-63824D01*
X69131Y-63810D01*
X69173Y-63810D01*
X69202Y-63824D01*
X69216Y-63839D01*
X69231Y-63867D01*
X69231Y-63982D01*
X69073Y-63553D02*
X69073Y-63610D01*
X69088Y-63639D01*
X69102Y-63653D01*
X69145Y-63682D01*
X69202Y-63696D01*
X69316Y-63696D01*
X69345Y-63682D01*
X69359Y-63667D01*
X69373Y-63639D01*
X69373Y-63582D01*
X69359Y-63553D01*
X69345Y-63539D01*
X69316Y-63524D01*
X69245Y-63524D01*
X69216Y-63539D01*
X69202Y-63553D01*
X69188Y-63582D01*
X69188Y-63639D01*
X69202Y-63667D01*
X69216Y-63682D01*
X69245Y-63696D01*
G54D16*
X57255Y-69908D02*
X57255Y-69308D01*
X57483Y-69308D01*
X57541Y-69336D01*
X57569Y-69365D01*
X57598Y-69422D01*
X57598Y-69508D01*
X57569Y-69565D01*
X57541Y-69594D01*
X57483Y-69622D01*
X57255Y-69622D01*
X58141Y-69308D02*
X57855Y-69308D01*
X57826Y-69594D01*
X57855Y-69565D01*
X57912Y-69536D01*
X58055Y-69536D01*
X58112Y-69565D01*
X58141Y-69594D01*
X58169Y-69651D01*
X58169Y-69794D01*
X58141Y-69851D01*
X58112Y-69879D01*
X58055Y-69908D01*
X57912Y-69908D01*
X57855Y-69879D01*
X57826Y-69851D01*
G54D13*
X51912Y-59333D02*
X51793Y-59416D01*
X51912Y-59475D02*
X51662Y-59475D01*
X51662Y-59380D01*
X51674Y-59356D01*
X51686Y-59345D01*
X51710Y-59333D01*
X51746Y-59333D01*
X51769Y-59345D01*
X51781Y-59356D01*
X51793Y-59380D01*
X51793Y-59475D01*
X51662Y-59106D02*
X51662Y-59225D01*
X51781Y-59237D01*
X51769Y-59225D01*
X51757Y-59202D01*
X51757Y-59142D01*
X51769Y-59118D01*
X51781Y-59106D01*
X51805Y-59095D01*
X51865Y-59095D01*
X51888Y-59106D01*
X51900Y-59118D01*
X51912Y-59142D01*
X51912Y-59202D01*
X51900Y-59225D01*
X51888Y-59237D01*
X53251Y-59333D02*
X53132Y-59416D01*
X53251Y-59475D02*
X53001Y-59475D01*
X53001Y-59380D01*
X53013Y-59356D01*
X53025Y-59345D01*
X53049Y-59333D01*
X53085Y-59333D01*
X53108Y-59345D01*
X53120Y-59356D01*
X53132Y-59380D01*
X53132Y-59475D01*
X53001Y-59249D02*
X53001Y-59083D01*
X53251Y-59190D01*
X54629Y-59333D02*
X54510Y-59416D01*
X54629Y-59475D02*
X54379Y-59475D01*
X54379Y-59380D01*
X54391Y-59356D01*
X54403Y-59345D01*
X54427Y-59333D01*
X54463Y-59333D01*
X54486Y-59345D01*
X54498Y-59356D01*
X54510Y-59380D01*
X54510Y-59475D01*
X54379Y-59118D02*
X54379Y-59166D01*
X54391Y-59190D01*
X54403Y-59202D01*
X54439Y-59225D01*
X54486Y-59237D01*
X54582Y-59237D01*
X54605Y-59225D01*
X54617Y-59214D01*
X54629Y-59190D01*
X54629Y-59142D01*
X54617Y-59118D01*
X54605Y-59106D01*
X54582Y-59095D01*
X54522Y-59095D01*
X54498Y-59106D01*
X54486Y-59118D01*
X54474Y-59142D01*
X54474Y-59190D01*
X54486Y-59214D01*
X54498Y-59225D01*
X54522Y-59237D01*
X52266Y-60698D02*
X52066Y-60698D01*
X52066Y-60651D01*
X52075Y-60622D01*
X52095Y-60603D01*
X52114Y-60594D01*
X52152Y-60584D01*
X52180Y-60584D01*
X52218Y-60594D01*
X52237Y-60603D01*
X52256Y-60622D01*
X52266Y-60651D01*
X52266Y-60698D01*
X52266Y-60394D02*
X52266Y-60508D01*
X52266Y-60451D02*
X52066Y-60451D01*
X52095Y-60470D01*
X52114Y-60489D01*
X52123Y-60508D01*
G54D16*
X68688Y-59182D02*
X68088Y-59182D01*
X68088Y-58954D01*
X68116Y-58896D01*
X68145Y-58868D01*
X68202Y-58839D01*
X68288Y-58839D01*
X68345Y-58868D01*
X68374Y-58896D01*
X68402Y-58954D01*
X68402Y-59182D01*
X68145Y-58611D02*
X68116Y-58582D01*
X68088Y-58525D01*
X68088Y-58382D01*
X68116Y-58325D01*
X68145Y-58296D01*
X68202Y-58268D01*
X68259Y-58268D01*
X68345Y-58296D01*
X68688Y-58639D01*
X68688Y-58268D01*
M02*
